<svg width="641" height="337" viewBox="0 0 641 337" fill="none" xmlns="http://www.w3.org/2000/svg">
<g filter="url(#filter0_d_7_4985)">
<rect x="23" y="10" width="607.805" height="290.097" rx="24" fill="#BCFC07" shape-rendering="crispEdges"/>
<path d="M285.36 206.267C285.36 207.237 285.003 208.057 284.288 208.73C283.653 209.327 282.79 209.631 281.918 209.631H247.392C246.647 209.631 245.564 209.24 245.022 208.73C244.307 208.057 243.95 207.237 243.95 206.267V162.687C243.95 161.943 244.341 160.86 244.852 160.318C245.526 159.604 246.347 159.247 247.319 159.247H281.913C282.659 159.247 283.743 159.637 284.286 160.147C285.002 160.82 285.36 161.641 285.36 162.612V206.267ZM299.948 150.59C298.441 148.047 296.386 146.05 293.784 144.6C291.181 143.15 288.264 142.425 285.032 142.425H238.76C232.321 142.425 227.101 147.636 227.101 154.065V260.097H243.95V226.447V217.334C243.951 217.255 243.961 217.179 243.961 217.1V216.937C243.961 214.385 245.93 212.15 248.486 212.084C251.108 212.017 253.255 214.12 253.254 216.722V217.17C253.254 222.293 257.414 226.447 262.546 226.447L285.032 226.453C285.63 226.453 286.212 226.42 286.788 226.371H292.128C297.688 226.371 302.194 221.871 302.194 216.32C302.194 216.255 302.201 216.192 302.203 216.128V202.723C302.203 202.7 302.2 202.678 302.2 202.655L302.203 184.398V183.382L302.208 159.247C302.208 156.02 301.455 153.134 299.948 150.59Z" fill="#FF202E"/>
<path d="M326.038 162.611C326.038 161.682 326.38 160.888 327.065 160.232C327.75 159.575 328.531 159.247 329.408 159.247H363.853C364.839 159.247 365.647 159.575 366.277 160.232C366.907 160.888 367.223 161.682 367.223 162.611V172.705C367.223 173.635 366.907 174.427 366.277 175.085C365.647 175.741 364.839 176.069 363.853 176.069H329.408C328.531 176.069 327.75 175.728 327.065 175.044C326.38 174.36 326.038 173.58 326.038 172.705V162.611ZM421.878 208.73C421.163 208.057 420.805 207.238 420.805 206.266V162.611C420.805 161.642 421.164 160.819 421.879 160.147C422.423 159.637 423.507 159.247 424.252 159.247H450.722V142.425H443.923H439.445C434.275 142.425 430.083 146.609 430.083 151.771V151.935C430.083 154.487 428.114 156.722 425.559 156.788C422.937 156.855 420.79 154.752 420.79 152.149V151.702C420.79 146.578 416.63 142.425 411.499 142.425H408.806H408.046H403.849H391.271V159.247H400.506C401.253 159.247 402.339 159.637 402.883 160.147C403.599 160.819 403.957 161.642 403.957 162.611V206.192C403.957 206.937 403.566 208.018 403.055 208.56C402.382 209.274 401.558 209.631 400.587 209.631H400.327H400.143H397.381C392.37 209.812 388.36 213.913 388.36 218.961V219.124C388.36 221.676 386.39 223.911 383.836 223.977C381.213 224.044 379.066 221.941 379.067 219.339V218.891C379.067 213.882 375.088 209.811 370.116 209.631H362.889H350.918H329.408C328.531 209.631 327.75 209.303 327.065 208.647C326.38 207.99 326.038 207.198 326.038 206.266V196.174C326.038 195.299 326.38 194.519 327.065 193.835C327.75 193.152 328.531 192.809 329.408 192.809H384.071V159.575C384.071 156.293 383.345 153.353 381.893 150.754C380.441 148.156 378.414 146.117 375.812 144.64C373.209 143.163 370.236 142.425 366.894 142.425H326.367C323.133 142.425 320.216 143.163 317.614 144.64C315.011 146.117 312.956 148.156 311.45 150.754C309.942 153.353 309.19 156.293 309.19 159.575L309.198 202.455C309.198 202.484 309.195 202.512 309.195 202.541V216.101C309.195 216.107 309.195 216.113 309.195 216.12V216.32C309.195 221.871 313.703 226.371 319.263 226.371H324.637C325.205 226.42 325.779 226.453 326.367 226.453H394.417H400.327H434.357V209.631H424.243C423.373 209.631 422.511 209.327 421.878 208.73Z" fill="#FF202E"/>
<path d="M203.308 115.271C203.308 116.121 203.034 116.856 202.486 117.477C201.803 118.251 200.778 118.636 199.744 118.636H165.423C164.39 118.636 163.364 118.251 162.681 117.476C162.133 116.855 161.859 116.121 161.859 115.271V105.374C161.859 104.342 162.244 103.318 163.019 102.635C163.641 102.087 164.377 101.814 165.229 101.814H199.744C200.776 101.814 201.8 102.197 202.484 102.97C203.034 103.592 203.308 104.328 203.308 105.178V115.271ZM247.407 68.2522H273.979V68.2516H302.187V51.4297H302.186H301.409C296.239 51.4297 292.048 55.6143 292.048 60.7763V60.9393C292.048 63.4914 290.079 65.7271 287.524 65.7927C284.901 65.8601 282.754 63.7567 282.755 61.154V60.7065C282.755 55.583 278.595 51.4297 273.463 51.4297H271.639H270.01H268.185H264.064H244.366C241.079 51.4297 238.132 52.1677 235.53 53.645C232.927 55.1217 230.887 57.1613 229.408 59.7586C227.928 62.3576 227.188 65.2977 227.188 68.58V84.7451C227.188 87.9739 227.928 90.8869 229.408 93.4848C230.887 96.0838 232.928 98.121 235.53 99.5977C238.132 101.075 241.079 101.814 244.366 101.814H281.773C282.805 101.814 283.83 102.197 284.513 102.97C285.063 103.592 285.339 104.328 285.339 105.178V115.078C285.339 116.109 284.954 117.132 284.18 117.813C283.557 118.361 282.82 118.636 281.969 118.636H254.867H250.959C245.789 118.636 241.597 122.821 241.597 127.983V128.146C241.597 130.698 239.628 132.933 237.073 132.999C234.45 133.066 232.304 130.962 232.304 128.36V127.913C232.304 122.789 228.144 118.636 223.013 118.636H223.227C223.223 118.635 223.218 118.633 223.214 118.632V118.622C221.904 118.513 220.884 117.713 220.157 116.213V68.58C220.157 65.2977 219.418 62.3576 217.938 59.7586C216.458 57.1613 214.417 55.1217 211.815 53.645C209.212 52.1677 206.268 51.4297 202.98 51.4297H145.014V68.2522L173.219 68.2516H199.744C200.776 68.2516 201.8 68.6354 202.484 69.4077C203.034 70.0296 203.308 70.7658 203.308 71.6163V81.5163C203.308 82.5466 202.924 83.5692 202.15 84.2507C201.528 84.7992 200.79 85.0735 199.939 85.0735H162.188C158.901 85.0735 155.954 85.8121 153.353 87.2888C150.75 88.7667 148.709 90.8051 147.23 93.403C145.75 96.0014 145.01 98.915 145.01 102.141V118.307C145.01 121.59 145.75 124.531 147.23 127.129C148.709 129.728 150.75 131.765 153.353 133.242C155.954 134.719 158.901 135.458 162.188 135.458H183.918H184.743C189.913 135.458 194.104 131.273 194.104 126.111V125.948C194.104 123.396 196.074 121.161 198.629 121.095C201.251 121.028 203.398 123.131 203.398 125.734V126.181C203.398 131.304 207.557 135.458 212.689 135.458H215.226H216.142H219.352H233.298H237.17H285.01C288.297 135.458 291.242 134.719 293.845 133.242C296.447 131.765 298.489 129.728 299.968 127.129C301.447 124.531 302.187 121.59 302.187 118.308V102.141C302.187 98.915 301.447 96.0014 299.968 93.403C298.489 90.8051 296.447 88.7667 293.845 87.2888C291.242 85.8121 288.297 85.0735 285.01 85.0735H247.601C246.568 85.0735 245.542 84.6892 244.859 83.915C244.311 83.2937 244.037 82.5593 244.037 81.7094V71.8124C244.037 70.7803 244.422 69.7559 245.197 69.0732C245.819 68.5253 246.555 68.2522 247.407 68.2522Z" fill="#FF202E"/>
<path d="M79.8483 115.271V71.8118C79.8483 70.7803 80.2333 69.7559 81.008 69.0732C81.6303 68.5253 82.3665 68.2516 83.2177 68.2516H109.818H138.026L138.026 51.4297H137.249C132.078 51.4297 127.887 55.6143 127.887 60.7763V60.9393C127.887 63.4914 125.918 65.7271 123.363 65.7927C120.741 65.8601 118.593 63.7567 118.594 61.154V60.7065C118.594 55.583 114.434 51.4297 109.303 51.4297H105.849H101.643H80.1772C76.8897 51.4297 73.9438 52.1677 71.3419 53.645C68.7388 55.1217 66.6983 57.1613 65.2187 59.7586C63.7397 62.3576 62.9999 65.2977 62.9999 68.5794V118.307C62.9999 121.59 63.7397 124.531 65.2187 127.129C66.6983 129.728 68.7388 131.765 71.3419 133.242C73.9438 134.719 76.8897 135.458 80.1772 135.458H138.026V118.636H83.4117C82.3785 118.636 81.3538 118.251 80.6706 117.476C80.1224 116.855 79.8483 116.121 79.8483 115.271Z" fill="#FF202E"/>
<path d="M311.198 92.6307H339.805V88.2458H316.626V72.8988H333.34V68.5139H316.626V54.4458H339.805V50H311.198V92.6307Z" fill="#FF202E"/>
<path d="M355.314 93.3615C359.137 93.3615 362.329 92.1638 364.891 89.7684C367.493 87.3323 369.018 83.9016 369.465 79.4761H364.464C364.098 82.6429 363.081 85.079 361.414 86.7842C359.787 88.4894 357.774 89.342 355.375 89.342C352.569 89.342 350.292 88.2458 348.544 86.0534C346.836 83.8204 345.982 80.6129 345.982 76.431C345.982 72.3304 346.856 69.1635 348.604 66.9305C350.353 64.6974 352.61 63.5809 355.375 63.5809C357.693 63.5809 359.686 64.3929 361.353 66.017C363.02 67.641 364.057 70.0161 364.464 73.1424H369.465C368.937 68.7981 367.392 65.4486 364.83 63.0937C362.268 60.7389 359.096 59.5615 355.314 59.5615C351.044 59.5615 347.547 61.0637 344.823 64.0681C342.139 67.032 340.797 71.1732 340.797 76.4919C340.797 81.8106 342.139 85.9519 344.823 88.9157C347.507 91.8796 351.004 93.3615 355.314 93.3615Z" fill="#FF202E"/>
<path d="M387.143 93.3615C388.404 93.3615 389.583 93.2397 390.681 92.9961C391.819 92.7525 392.877 92.3871 393.853 91.8999C394.869 91.4127 395.784 90.824 396.598 90.1338C397.451 89.4029 398.204 88.5706 398.854 87.6368C399.546 86.703 400.115 85.6677 400.562 84.5309C401.01 83.394 401.355 82.1557 401.599 80.8159C401.843 79.4761 401.965 78.0348 401.965 76.4919C401.965 74.9491 401.843 73.5078 401.599 72.168C401.355 70.8281 401.01 69.5898 400.562 68.453C400.115 67.2756 399.546 66.22 398.854 65.2861C398.204 64.3523 397.451 63.5403 396.598 62.8501C395.784 62.1193 394.869 61.5103 393.853 61.0231C392.877 60.5359 391.819 60.1705 390.681 59.9269C389.583 59.6833 388.404 59.5615 387.143 59.5615C385.923 59.5615 384.744 59.6833 383.605 59.9269C382.467 60.1705 381.409 60.5359 380.433 61.0231C379.457 61.5103 378.542 62.1193 377.689 62.8501C376.875 63.5403 376.123 64.3523 375.432 65.2861C374.781 66.22 374.232 67.2756 373.785 68.453C373.337 69.5898 372.992 70.8281 372.748 72.168C372.504 73.5078 372.382 74.9491 372.382 76.4919C372.382 81.8106 373.744 85.9519 376.469 88.9157C379.234 91.8796 382.792 93.3615 387.143 93.3615ZM387.143 89.342C384.337 89.342 382.04 88.2458 380.25 86.0534C378.461 83.8204 377.567 80.6129 377.567 76.431C377.567 72.2898 378.461 69.1229 380.25 66.9305C382.04 64.6974 384.337 63.5809 387.143 63.5809C389.949 63.5809 392.246 64.6974 394.036 66.9305C395.825 69.1229 396.72 72.3101 396.72 76.4919C396.72 80.6332 395.825 83.8204 394.036 86.0534C392.246 88.2458 389.949 89.342 387.143 89.342Z" fill="#FF202E"/>
<path d="M418.891 93.3006C422.673 93.3006 425.662 92.3871 427.857 90.5601C430.094 88.6924 431.212 86.4188 431.212 83.7392C431.212 83.0489 431.131 82.4196 430.968 81.8512C430.846 81.2828 430.663 80.755 430.419 80.2678C430.175 79.7806 429.87 79.334 429.504 78.928C429.138 78.522 428.732 78.1566 428.284 77.8318C427.837 77.4664 427.349 77.1618 426.82 76.9182C426.332 76.634 425.804 76.3701 425.235 76.1265C424.706 75.8829 424.137 75.6596 423.527 75.4566C422.917 75.2536 422.307 75.0709 421.697 74.9085C421.087 74.7055 420.477 74.5228 419.867 74.3604C419.257 74.198 418.647 74.0356 418.037 73.8732C415.922 73.3048 414.072 72.6349 412.486 71.8635C410.941 71.0514 410.168 69.8334 410.168 68.2094C410.168 66.7884 410.778 65.6516 411.998 64.7989C413.218 63.9057 414.926 63.4591 417.122 63.4591C419.521 63.4591 421.493 64.0681 423.039 65.2861C424.625 66.4636 425.662 68.3109 426.149 70.8281H431.029C430.46 67.2147 428.935 64.4538 426.454 62.5456C424.015 60.5968 420.883 59.6224 417.061 59.6224C413.401 59.6224 410.494 60.4953 408.338 62.2411C406.183 63.9463 405.106 66.0576 405.106 68.5748C405.106 69.265 405.167 69.8943 405.289 70.4627C405.411 71.0311 405.594 71.5793 405.838 72.1071C406.082 72.5943 406.366 73.0409 406.692 73.4469C407.017 73.8529 407.383 74.2386 407.789 74.604C408.196 74.9288 408.643 75.2333 409.131 75.5175C409.619 75.8017 410.107 76.0656 410.595 76.3092C411.124 76.5122 411.673 76.7152 412.242 76.9182C412.812 77.1212 413.381 77.3242 413.95 77.5273C414.56 77.6897 415.15 77.8521 415.719 78.0145C416.329 78.1363 416.919 78.2784 417.488 78.4408C419.806 79.0092 421.839 79.6791 423.588 80.4505C425.336 81.2219 426.21 82.5008 426.21 84.2873C426.21 85.8707 425.56 87.1496 424.259 88.124C422.957 89.0578 421.148 89.5247 418.83 89.5247C416.268 89.5247 414.194 88.8548 412.608 87.515C411.022 86.1752 409.985 84.1249 409.497 81.364H404.618C405.146 85.3835 406.671 88.3879 409.192 90.3774C411.754 92.3262 414.987 93.3006 418.891 93.3006Z" fill="#FF202E"/>
<path d="M435.314 103.776H439.706C441.657 103.776 443.264 103.39 444.524 102.618C445.826 101.888 446.863 100.487 447.635 98.4163L461.786 60.2923H456.48L447.086 86.3579L436.961 60.2923H431.349L444.524 93.4833L443.792 95.7366C443.264 97.3201 442.593 98.3757 441.779 98.9035C441.007 99.4719 440.031 99.7561 438.852 99.7561H435.314V103.776Z" fill="#FF202E"/>
<path d="M476.402 93.3006C480.184 93.3006 483.172 92.3871 485.368 90.5601C487.605 88.6924 488.723 86.4188 488.723 83.7392C488.723 83.0489 488.642 82.4196 488.479 81.8512C488.357 81.2828 488.174 80.755 487.93 80.2678C487.686 79.7806 487.381 79.334 487.015 78.928C486.649 78.522 486.243 78.1566 485.795 77.8318C485.348 77.4664 484.86 77.1618 484.331 76.9182C483.843 76.634 483.315 76.3701 482.745 76.1265C482.217 75.8829 481.648 75.6596 481.038 75.4566C480.428 75.2536 479.818 75.0709 479.208 74.9085C478.598 74.7055 477.988 74.5228 477.378 74.3604C476.768 74.198 476.158 74.0356 475.548 73.8732C473.433 73.3048 471.583 72.6349 469.997 71.8635C468.452 71.0514 467.679 69.8334 467.679 68.2094C467.679 66.7884 468.289 65.6516 469.509 64.7989C470.729 63.9057 472.437 63.4591 474.633 63.4591C477.032 63.4591 479.004 64.0681 480.55 65.2861C482.135 66.4636 483.172 68.3109 483.66 70.8281H488.54C487.971 67.2147 486.446 64.4538 483.965 62.5456C481.526 60.5968 478.394 59.6224 474.572 59.6224C470.912 59.6224 468.005 60.4953 465.849 62.2411C463.694 63.9463 462.617 66.0576 462.617 68.5748C462.617 69.265 462.678 69.8943 462.799 70.4627C462.921 71.0311 463.104 71.5793 463.348 72.1071C463.592 72.5943 463.877 73.0409 464.202 73.4469C464.528 73.8529 464.894 74.2386 465.3 74.604C465.707 74.9288 466.154 75.2333 466.642 75.5175C467.13 75.8017 467.618 76.0656 468.106 76.3092C468.635 76.5122 469.184 76.7152 469.753 76.9182C470.322 77.1212 470.892 77.3242 471.461 77.5273C472.071 77.6897 472.661 77.8521 473.23 78.0145C473.84 78.1363 474.43 78.2784 474.999 78.4408C477.317 79.0092 479.35 79.6791 481.099 80.4505C482.847 81.2219 483.721 82.5008 483.721 84.2873C483.721 85.8707 483.071 87.1496 481.769 88.124C480.468 89.0578 478.659 89.5247 476.341 89.5247C473.779 89.5247 471.705 88.8548 470.119 87.515C468.533 86.1752 467.496 84.1249 467.008 81.364H462.129C462.657 85.3835 464.182 88.3879 466.703 90.3774C469.265 92.3262 472.498 93.3006 476.402 93.3006Z" fill="#FF202E"/>
<path d="M503.454 92.6307H511.566V88.6112H505.711C504.369 88.6112 503.413 88.3676 502.844 87.8804C502.275 87.3526 501.99 86.5 501.99 85.3226V64.3117H511.566V60.2923H501.99V53.8368H496.805V60.2923H489.242V64.3117H496.805V86.297C496.805 88.3676 497.334 89.9511 498.391 91.0473C499.489 92.1029 501.177 92.6307 503.454 92.6307Z" fill="#FF202E"/>
<path d="M526.953 93.3615C530.613 93.3615 533.663 92.2856 536.103 90.1338C538.543 87.9413 540.129 84.876 540.861 80.9377H535.859C535.249 83.658 534.151 85.7489 532.565 87.2105C531.02 88.6721 529.149 89.4029 526.953 89.4029C524.188 89.4029 521.931 88.327 520.183 86.1752C518.475 84.0234 517.601 80.9377 517.56 76.9182H541.288V76.1265C541.288 74.8273 541.186 73.589 540.983 72.4116C540.82 71.2341 540.556 70.1379 540.19 69.1229C539.864 68.0673 539.437 67.1132 538.909 66.2606C538.421 65.408 537.851 64.6365 537.201 63.9463C536.591 63.2155 535.9 62.5862 535.127 62.0584C534.354 61.49 533.541 61.0231 532.687 60.6577C531.833 60.2923 530.918 60.0284 529.942 59.866C529.007 59.663 528.031 59.5615 527.014 59.5615C522.745 59.5615 519.247 61.084 516.523 64.129C513.798 67.1741 512.436 71.295 512.436 76.4919C512.436 81.8106 513.778 85.9519 516.462 88.9157C519.186 91.8796 522.684 93.3615 526.953 93.3615ZM526.953 63.52C529.312 63.52 531.304 64.3523 532.931 66.017C534.558 67.6816 535.595 70.0973 536.042 73.2642H517.804C518.21 70.1785 519.247 67.7831 520.915 66.0779C522.582 64.3726 524.595 63.52 526.953 63.52Z" fill="#FF202E"/>
<path d="M544.692 92.6307H549.938V68.2094C550.751 66.8696 551.849 65.7937 553.231 64.9816C554.614 64.129 556.18 63.7027 557.928 63.7027C560.083 63.7027 561.812 64.3726 563.113 65.7125C564.455 67.0523 565.126 68.9199 565.126 71.3153V92.6307H570.372V70.6454C570.372 70.1582 570.331 69.671 570.25 69.1838C570.209 68.6966 570.148 68.25 570.067 67.844C570.961 66.5854 572.079 65.5907 573.421 64.8598C574.763 64.0884 576.309 63.7027 578.057 63.7027C580.294 63.7027 582.103 64.3726 583.486 65.7125C584.868 67.0523 585.56 68.9199 585.56 71.3153V92.6307H590.806V70.6454C590.806 67.3568 589.769 64.7177 587.695 62.7283C585.661 60.7389 582.978 59.7442 579.643 59.7442C577.366 59.7442 575.333 60.2314 573.543 61.2058C571.754 62.1802 570.29 63.4794 569.152 65.1034C568.298 63.4388 567.037 62.1396 565.37 61.2058C563.743 60.2314 561.832 59.7442 559.636 59.7442C557.603 59.7442 555.753 60.2111 554.085 61.1449C552.418 62.0381 551.036 63.2358 549.938 64.738V60.2923H544.692V92.6307Z" fill="#FF202E"/>
</g>
<defs>
<filter id="filter0_d_7_4985" x="0" y="0" width="653.805" height="336.097" filterUnits="userSpaceOnUse" color-interpolation-filters="sRGB">
<feFlood flood-opacity="0" result="BackgroundImageFix"/>
<feColorMatrix in="SourceAlpha" type="matrix" values="0 0 0 0 0 0 0 0 0 0 0 0 0 0 0 0 0 0 127 0" result="hardAlpha"/>
<feOffset dy="13"/>
<feGaussianBlur stdDeviation="11.5"/>
<feComposite in2="hardAlpha" operator="out"/>
<feColorMatrix type="matrix" values="0 0 0 0 0 0 0 0 0 0 0 0 0 0 0 0 0 0 0.2 0"/>
<feBlend mode="normal" in2="BackgroundImageFix" result="effect1_dropShadow_7_4985"/>
<feBlend mode="normal" in="SourceGraphic" in2="effect1_dropShadow_7_4985" result="shape"/>
</filter>
</defs>
</svg>
