<svg width="898" height="607" viewBox="0 0 898 607" fill="none" xmlns="http://www.w3.org/2000/svg">
<g clip-path="url(#clip0_1298_490)">
<path d="M1173 606.113H0L69.0149 484.898L276.017 424.309L414.005 242.468V181.841H483.02L551.993 0L758.995 60.6262L828.01 181.841V303.057L965.998 363.683L1035.01 484.898L1173 606.113Z" fill="#161A39"/>
<path fill-rule="evenodd" clip-rule="evenodd" d="M530.773 183.637L565.773 66.6371L578.227 70.3629L543.227 187.363L530.773 183.637ZM429.5 201.5H472V214.5H442.5V248.5H429.5V201.5Z" fill="white"/>
<path fill-rule="evenodd" clip-rule="evenodd" d="M303.333 457.736L112.833 513.736L109.167 501.264L299.667 445.264L303.333 457.736ZM375.833 468.736L185.333 524.736L181.667 512.264L372.167 456.264L375.833 468.736Z" fill="white"/>
</g>
<defs>
<clipPath id="clip0_1298_490">
<rect width="898" height="607" fill="white"/>
</clipPath>
</defs>
</svg>
