<svg width="1440" height="900" viewBox="0 0 1440 900" fill="none" xmlns="http://www.w3.org/2000/svg">
<path d="M2807.44 1085.39C2801.93 1078.97 2757.81 964.187 2710.01 830.147C2662.21 696.107 2625.42 583.19 2629.1 579.518C2631.86 575.845 2671.37 575.845 2715.49 579.518C2760.54 583.19 2799.18 584.108 2801.01 579.518C2802.85 575.845 2790.91 553.803 2774.36 529.015C2757.81 505.144 2683.33 397.753 2608.87 291.255C2534.41 183.839 2475.56 92.0217 2478.32 86.5133C2481.08 81.0048 2504.06 89.2676 2530.72 104.875C2557.38 119.564 2588.65 134.262 2599.68 137.016C2615.31 140.689 2618.99 137.935 2614.39 129.672C2610.71 124.163 2581.3 80.9962 2550.04 36.0101C2517.87 -8.97595 2492.12 -49.3552 2492.12 -53.9457C2492.12 -57.618 2495.79 -60.3806 2501.31 -60.3806C2506.82 -60.3806 2550.03 -37.4199 2597.83 -9.87744C2645.64 17.665 2691.61 38.7644 2698.97 36.0101C2710 32.3378 2705.39 11.2297 2670.46 -86.0871L2665.14 -100.979C2642.87 -163.25 2615.14 -240.821 2601.54 -280.722C2586.83 -323.872 2577.62 -361.513 2582.22 -365.186C2585.89 -368.858 2615.32 -346.824 2648.42 -317.445C2681.51 -287.148 2714.6 -263.278 2721.96 -262.36C2733.91 -262.36 2734.83 -278.886 2721.96 -501.062L2558.32 -826.992L2481.08 -882.987C2438.79 -913.283 2364.36 -961.934 2314.72 -990.395C2266 -1018.86 2221.86 -1042.75 2216.34 -1042.75C2210.83 -1042.75 2205.3 -1039.99 2202.54 -1036.32C2200.71 -1031.73 2215.41 -942.654 2234.72 -836.156C2254.94 -729.658 2271.5 -634.177 2271.5 -623.16C2271.5 -611.225 2225.53 -501.971 2067.42 -156.771L2049.95 26.8461C2040.75 127.835 2031.56 225.128 2029.72 242.571C2027.88 268.278 2010.41 293.092 1945.14 364.702C1899.18 414.279 1861.5 458.322 1859.66 462.912C1858.74 468.421 1923.1 577.699 2002.16 706.231C2068.43 813.963 2121.72 894.693 2146.69 926.469C2154.28 936.125 2159.25 941.261 2161.18 941.261C2170.37 940.649 2171.29 942.766 2163.94 947.662C2163.14 948.164 2162.46 948.733 2161.92 949.372L2161.81 949.509C2157.61 954.75 2162.09 964.635 2175.89 981.657C2187.84 996.346 2197.97 1007.35 2197.97 1004.6C2197.97 1001.85 2191.53 983.493 2183.26 963.295C2174.99 943.097 2135.46 860.469 2095.01 779.677C2055.48 698.886 2020.55 619.913 2018.72 605.224C2014.12 578.6 2015.95 578.6 2054.56 623.586C2072.82 643.284 2137.53 720.955 2211.77 810.071C2230.95 833.101 2250.77 856.895 2270.6 880.65C2413.08 1052.33 2443.4 1092.73 2430.53 1097.32C2428.88 1097.98 2427.22 1098.56 2425.55 1099.04L2487.54 1096.41L2376.31 910.029C2314.72 808.122 2266.91 721.829 2268.75 718.157C2270.58 713.567 2277.03 710.813 2282.54 710.813C2288.06 710.813 2304.58 728.265 2320.21 750.299C2334.91 771.415 2365.26 809.974 2386.41 834.763C2396.88 846.965 2415.22 868.47 2436.82 893.785C2460.72 921.801 2488.6 954.484 2514.2 984.386C2562.92 1040.39 2602.44 1089.07 2602.44 1091.83H2629.1L2575.79 977.041C2564.18 951.241 2552.73 926.206 2543.04 905.033C2528.95 874.219 2518.59 851.587 2516.96 846.689C2511.44 834.754 2514.2 832.901 2526.15 837.492C2535.34 841.164 2593.25 895.332 2654.85 958.679C2716.44 1022.03 2767.9 1078.97 2767.9 1085.39H2807.44Z" fill="#161A39"/>
<path d="M1753.04 -537.786C1752.12 -546.967 1764.99 -553.385 1793.49 -557.057C1816.47 -560.73 1848.62 -562.591 1866.09 -561.673C1883.55 -561.673 1899.18 -557.074 1901.02 -551.566C1902.86 -546.057 1890.91 -537.778 1874.36 -531.351C1857.82 -525.842 1839.43 -514.834 1833.91 -508.407C1826.56 -499.226 1827.48 -461.575 1856.9 -230.218L1822.9 -199.93C1804.52 -183.404 1771.41 -156.788 1709.82 -110.884L1713.49 31.4281C1716.25 109.465 1715.34 193.02 1712.58 217.808C1708.9 241.678 1702.48 260.04 1696.96 258.204C1691.45 256.368 1684.07 241.67 1678.55 226.063C1673.04 209.537 1663.85 196.684 1657.42 196.684C1650.06 196.684 1644.54 218.718 1640.86 262.786C1638.1 299.509 1629.84 370.186 1622.48 418.844C1615.13 468.42 1609.63 510.661 1609.63 513.415C1609.63 516.17 1605.95 517.997 1600.44 517.997C1594.92 517.997 1591.25 488.644 1591.25 449.166C1591.25 411.525 1588.48 380.301 1583.88 380.301C1580.2 380.301 1539.77 390.392 1494.73 403.245C1449.68 416.098 1409.23 426.189 1404.63 426.189C1400.95 426.189 1398.2 422.533 1398.2 417.025C1398.2 411.516 1429.45 357.34 1536.09 182.904L1563.65 22.2303C1579.28 -65.9058 1594.91 -145.78 1598.59 -154.042C1602.27 -162.305 1640.87 -198.094 1765.89 -299.083L1759.46 -412.016C1756.71 -473.528 1753.04 -530.441 1753.04 -537.786Z" fill="#161A39"/>
<path d="M3697.3 721.83C3724.88 711.731 3753.36 701.64 3760.71 698.886C3768.07 696.132 3778.18 693.36 3783.7 693.36C3789.22 692.442 3825.09 730.093 3863.7 776.915C3902.31 823.737 3949.19 880.642 3966.65 903.594C3985.04 926.546 3999.74 950.442 3999.74 955.95C3999.74 962.377 3997 967.877 3992.4 967.877C3988.72 967.877 3948.26 934.826 3903.21 894.43C3858.17 854.952 3817.71 823.729 3813.11 825.565C3809.44 828.319 3808.52 832.91 3810.36 836.582C3812.19 841.172 3830.61 871.478 3851.75 905.447C3871.98 940.334 3889.41 969.705 3889.41 972.459C3889.41 975.213 3880.23 972.476 3868.28 966.967C3857.25 961.459 3803.92 911.882 3748.76 856.797C3694.53 801.712 3649.48 753.036 3649.48 748.446C3648.56 743.855 3670.65 731.928 3697.3 721.83Z" fill="#161A39"/>
<path fill-rule="evenodd" clip-rule="evenodd" d="M2294.49 -1063.84C2229.22 -1087.71 2172.23 -1107 2168.55 -1107C2165.79 -1107 2141.88 -1060.18 2117.06 -1004.17C2097.94 -961.901 2068.7 -896.849 2043.24 -840.22C2034.42 -820.599 2026.05 -801.988 2018.72 -785.686C1989.3 -722.339 1963.53 -667.228 1959.85 -663.555C1957.09 -659.883 1904.71 -644.284 1844.04 -629.595C1783.97 -615.052 1725.7 -600.501 1713.83 -597.539L1713.49 -597.453C1693.27 -592.863 1692.35 -587.354 1686.83 -476.266L1681.31 -358.751C1567.32 -209.103 1532.4 -151.28 1516.77 -110.884C1506.27 -84.3221 1483.51 -25.2963 1460.26 34.9933C1452.98 53.89 1445.64 72.911 1438.62 91.0953C1410.12 166.378 1378.88 240.744 1370.6 256.351C1356.81 279.303 1342.12 287.574 1286.97 303.182C1249.28 313.281 1157.35 334.38 1081.97 349.069L944.99 375.719C818.13 567.599 775.831 626.357 770.316 629.111C763.881 632.783 701.36 654.801 630.576 678.671C504.635 721.821 497.286 725.503 226.099 901.775C74.4184 1000.01 -53.3606 1083.53 -57.957 1088.12C-63.4727 1092.71 462.347 1096.41 1166.51 1096.41C1824.45 1096.41 2369.12 1098.13 2404.78 1099.91C2405.89 1099.97 2406.63 1100.08 2406.63 1100.08C2410.41 1101.59 2417.9 1101.24 2425.55 1099.04C2427.22 1098.56 2428.88 1097.98 2430.53 1097.32C2443.4 1092.73 2413.08 1052.33 2270.6 880.65C2250.77 856.895 2230.95 833.101 2211.77 810.071C2137.53 720.955 2072.82 643.284 2054.56 623.586C2015.95 578.6 2014.12 578.6 2018.72 605.224C2020.55 619.913 2055.48 698.886 2095.01 779.677C2135.46 860.469 2174.99 943.097 2183.26 963.295C2191.53 983.493 2197.97 1001.85 2197.97 1004.6C2197.97 1007.35 2187.84 996.346 2175.89 981.657C2162.09 964.635 2157.61 954.75 2161.81 949.509L2146.69 926.469C2121.72 894.693 2068.43 813.963 2002.16 706.231C1923.1 577.699 1858.74 468.421 1859.66 462.912C1861.5 458.322 1899.18 414.279 1945.14 364.702C2010.41 293.092 2027.88 268.278 2029.72 242.571C2031.56 225.128 2040.75 127.835 2049.95 26.8461L2067.42 -156.771C2225.53 -501.971 2271.5 -611.225 2271.5 -623.16C2271.5 -634.177 2254.94 -729.658 2234.72 -836.156C2215.41 -942.654 2200.71 -1031.73 2202.54 -1036.32C2205.3 -1039.99 2210.83 -1042.75 2216.34 -1042.75C2221.86 -1042.75 2266 -1018.86 2314.72 -990.395C2364.36 -961.934 2438.79 -913.283 2481.08 -882.987L2558.32 -826.992L2721.96 -501.062C2734.83 -278.886 2733.91 -262.36 2721.96 -262.36C2714.6 -263.278 2681.51 -287.148 2648.42 -317.445C2615.32 -346.824 2585.89 -368.858 2582.22 -365.186C2577.62 -361.513 2586.83 -323.872 2601.54 -280.722C2615.14 -240.821 2642.87 -163.25 2665.14 -100.979L2670.46 -86.0871C2705.39 11.2297 2710 32.3378 2698.97 36.0101C2691.61 38.7644 2645.64 17.665 2597.83 -9.87744C2550.03 -37.4199 2506.82 -60.3806 2501.31 -60.3806C2495.79 -60.3806 2492.12 -57.618 2492.12 -53.9457C2492.12 -49.3552 2517.87 -8.97595 2550.04 36.0101C2581.3 80.9962 2610.71 124.163 2614.39 129.672C2618.99 137.935 2615.31 140.689 2599.68 137.016C2588.65 134.262 2557.38 119.564 2530.72 104.875C2504.06 89.2676 2481.08 81.0048 2478.32 86.5133C2475.56 92.0217 2534.41 183.839 2608.87 291.255C2683.33 397.753 2757.81 505.144 2774.36 529.015C2790.91 553.803 2802.85 575.845 2801.01 579.518C2799.18 584.108 2760.54 583.19 2715.49 579.518C2671.37 575.845 2631.86 575.845 2629.1 579.518C2625.42 583.19 2662.21 696.107 2710.01 830.147C2757.81 964.187 2801.93 1078.97 2807.44 1085.39C2816.63 1094.57 2977.52 1097.33 3629.29 1096.41C4164.31 1096.41 4441 1093.64 4441 1087.21C4441 1081.7 4404.24 1052.33 4358.27 1020.2C4313.23 988.985 4242.43 940.334 4201.07 912.792C4159.7 885.249 4058.58 811.785 3975.84 749.355C3855.42 660.301 3818.64 637.366 3794.74 637.366C3779.11 637.366 3723.97 647.456 3673.41 660.309C3622.85 673.162 3578.72 683.253 3574.12 683.253C3570.45 683.253 3544.69 643.8 3517.11 596.06C3489.53 548.32 3466.56 505.144 3466.56 499.636C3466.56 494.127 3458.28 483.11 3449.09 473.929C3438.98 465.666 3398.52 439.042 3359 415.172C3314.87 388.547 3271.68 352.742 3245.95 323.363C3213.77 283.885 3194.44 245.342 3148.48 123.237C3094.24 -22.7385 3090.58 -29.1573 3056.56 -46.601C3036.34 -56.7 2998.64 -74.1521 2971.99 -86.0871C2931.54 -103.531 2918.66 -115.458 2884.65 -167.788C2862.59 -202.676 2835.01 -246.744 2823.06 -266.942C2804.67 -298.157 2800.09 -321.118 2795.49 -409.254L2789.97 -514.842L2774.32 -542.3C2672.69 -720.527 2631.19 -793.309 2618.06 -817.794C2603.35 -842.582 2576.71 -879.306 2558.32 -898.586C2539.94 -917.866 2499.47 -953.688 2469.13 -977.558C2425.93 -1011.53 2387.34 -1030.79 2294.49 -1063.84ZM2320.21 750.299C2304.58 728.265 2288.06 710.813 2282.54 710.813C2277.03 710.813 2270.58 713.567 2268.75 718.157C2266.91 721.829 2314.72 808.122 2376.31 910.029L2487.54 1096.41C2576.71 1096.41 2602.44 1094.58 2602.44 1091.83C2602.44 1089.07 2562.92 1040.39 2514.2 984.386C2488.6 954.484 2460.72 921.801 2436.82 893.785C2415.22 868.47 2396.88 846.965 2386.41 834.763C2365.26 809.974 2334.91 771.415 2320.21 750.299ZM2654.85 958.679C2593.25 895.332 2535.34 841.164 2526.15 837.492C2514.2 832.901 2511.44 834.754 2516.96 846.689C2518.59 851.587 2528.95 874.219 2543.04 905.033C2552.73 926.206 2564.18 951.241 2575.79 977.041L2629.1 1091.83C2749.52 1095.5 2767.9 1093.65 2767.9 1085.39C2767.9 1078.97 2716.44 1022.03 2654.85 958.679Z" fill="#2B44E7"/>
<path d="M2163.94 947.662C2171.29 942.766 2170.37 940.649 2161.18 941.261C2159.25 941.261 2154.28 936.125 2146.69 926.469L2161.81 949.509L2161.92 949.372C2162.46 948.733 2163.14 948.164 2163.94 947.662Z" fill="#1D1D1F"/>
</svg>
