<svg width="1012" height="493" viewBox="0 0 1012 493" fill="none" xmlns="http://www.w3.org/2000/svg">
<path d="M644.248 493.491C643.008 492.046 633.089 466.24 622.342 436.103C611.594 405.966 603.324 380.579 604.151 379.753C604.771 378.928 613.654 378.928 623.575 379.753C633.703 380.579 642.389 380.785 642.803 379.753C643.216 378.928 640.53 373.972 636.81 368.398C633.089 363.032 616.344 338.886 599.603 314.942C582.861 290.791 569.63 270.148 570.25 268.909C570.87 267.671 576.038 269.528 582.032 273.038C588.026 276.34 595.057 279.645 597.537 280.264C601.051 281.09 601.877 280.47 600.844 278.613C600.017 277.374 593.403 267.669 586.376 257.554C579.142 247.44 573.353 238.361 573.353 237.329C573.353 236.504 574.179 235.882 575.419 235.882C576.659 235.882 586.373 241.045 597.121 247.237C607.868 253.43 618.206 258.174 619.86 257.554C622.34 256.729 621.304 251.983 613.45 230.103L612.255 226.755C607.247 212.754 601.011 195.313 597.953 186.342C594.646 176.641 592.576 168.178 593.61 167.352C594.436 166.526 601.053 171.48 608.494 178.086C615.935 184.897 623.374 190.264 625.028 190.471C627.715 190.471 627.921 186.755 625.028 136.802L588.237 63.5224L570.871 50.9329C561.363 44.1211 544.628 33.1829 533.467 26.784C522.513 20.3851 512.589 15.0125 511.349 15.0125C510.109 15.0125 508.867 15.6337 508.247 16.4593C507.833 17.4914 511.14 37.5178 515.481 61.462C520.028 85.4063 523.751 106.874 523.751 109.351C523.751 112.034 513.415 136.598 477.865 214.211L473.938 255.494C471.871 278.2 469.803 300.074 469.39 303.996C468.977 309.776 465.049 315.355 450.374 331.455C440.04 342.602 431.567 352.504 431.154 353.536C430.947 354.775 445.418 379.344 463.193 408.242C478.093 432.464 490.075 450.615 495.689 457.76C497.395 459.931 498.513 461.085 498.947 461.085C501.014 460.948 501.221 461.424 499.567 462.524C499.386 462.637 499.235 462.765 499.114 462.909L499.089 462.94C498.144 464.118 499.151 466.341 502.253 470.168C504.94 473.47 507.217 475.945 507.217 475.326C507.217 474.707 505.771 470.58 503.911 466.039C502.05 461.498 493.164 442.92 484.07 424.756C475.183 406.591 467.329 388.836 466.916 385.533C465.882 379.547 466.294 379.547 474.974 389.661C479.08 394.09 493.629 411.553 510.32 431.589C514.634 436.767 519.09 442.117 523.547 447.458C555.583 486.058 562.399 495.14 559.505 496.172C559.135 496.32 558.761 496.45 558.385 496.559L572.324 495.968L547.315 454.063C533.467 431.151 522.717 411.75 523.131 410.924C523.544 409.892 524.993 409.273 526.233 409.273C527.473 409.273 531.187 413.197 534.701 418.151C538.008 422.898 544.831 431.568 549.585 437.141C551.94 439.884 556.064 444.719 560.92 450.411C566.294 456.71 572.562 464.058 578.317 470.781C589.271 483.373 598.157 494.318 598.157 494.938H604.151L592.164 469.13C589.555 463.329 586.98 457.7 584.802 452.94C581.633 446.012 579.305 440.924 578.937 439.822C577.697 437.139 578.316 436.722 581.003 437.754C583.07 438.58 596.091 450.759 609.939 465.001C623.787 479.244 635.357 492.046 635.357 493.491H644.248Z" fill="#161A39"/>
<path d="M407.182 128.546C406.975 126.481 409.87 125.038 416.277 124.213C421.444 123.387 428.672 122.969 432.599 123.175C436.526 123.175 440.04 124.209 440.454 125.448C440.867 126.686 438.181 128.548 434.461 129.992C430.74 131.231 426.605 133.706 425.365 135.151C423.712 137.215 423.92 145.68 430.534 197.697L422.891 204.507C418.757 208.223 411.314 214.207 397.466 224.528L398.291 256.524C398.911 274.07 398.706 292.855 398.086 298.429C397.26 303.796 395.815 307.924 394.575 307.511C393.335 307.098 391.676 303.794 390.436 300.285C389.196 296.569 387.131 293.679 385.684 293.679C384.031 293.679 382.788 298.633 381.961 308.541C381.341 316.798 379.483 332.688 377.829 343.628C376.176 354.775 374.939 364.272 374.939 364.891C374.939 365.51 374.113 365.921 372.873 365.921C371.633 365.921 370.807 359.322 370.807 350.446C370.807 341.983 370.184 334.963 369.15 334.963C368.323 334.963 359.233 337.231 349.105 340.121C338.978 343.011 329.882 345.28 328.848 345.28C328.022 345.28 327.403 344.458 327.403 343.219C327.403 341.981 334.43 329.8 358.405 290.581L364.602 254.456C368.116 234.64 371.63 216.682 372.457 214.824C373.284 212.966 381.963 204.92 410.072 182.214L408.627 156.823C408.007 142.993 407.182 130.197 407.182 128.546Z" fill="#161A39"/>
<path d="M844.319 411.75C850.52 409.479 856.922 407.21 858.575 406.591C860.229 405.972 862.504 405.349 863.744 405.349C864.984 405.142 873.05 413.608 881.73 424.135C890.411 434.662 900.951 447.456 904.878 452.616C909.012 457.777 912.316 463.149 912.316 464.388C912.316 465.833 911.7 467.069 910.667 467.069C909.84 467.069 900.742 459.638 890.614 450.556C880.487 441.68 871.391 434.66 870.357 435.073C869.531 435.692 869.323 436.724 869.737 437.55C870.15 438.582 874.29 445.396 879.044 453.033C883.591 460.877 887.512 467.48 887.512 468.1C887.512 468.719 885.446 468.103 882.76 466.865C880.279 465.626 868.29 454.48 855.889 442.095C843.695 429.71 833.567 418.766 833.567 417.734C833.36 416.702 838.325 414.02 844.319 411.75Z" fill="#161A39"/>
<path fill-rule="evenodd" clip-rule="evenodd" d="M528.92 10.2706C514.245 4.90381 501.431 0.567139 500.604 0.567139C499.984 0.567139 494.607 11.0945 489.026 23.6858C484.728 33.1903 478.153 47.8161 472.429 60.5482C470.446 64.9598 468.564 69.1441 466.916 72.8093C460.302 87.052 454.508 99.4427 453.681 100.268C453.061 101.094 441.284 104.601 427.643 107.904C414.138 111.174 401.035 114.445 398.368 115.111L398.291 115.13C393.744 116.163 393.538 117.401 392.298 142.377L391.057 168.799C365.428 202.445 357.575 215.445 354.062 224.528C351.701 230.5 346.584 243.771 341.357 257.326C339.718 261.574 338.069 265.851 336.491 269.939C330.084 286.865 323.058 303.585 321.198 307.094C318.098 312.255 314.795 314.115 302.394 317.624C293.92 319.894 273.252 324.638 256.304 327.941L225.506 333.932C196.983 377.073 187.473 390.284 186.233 390.903C184.786 391.729 170.73 396.679 154.815 402.046C126.499 411.748 124.847 412.576 63.8751 452.207C29.7721 474.294 1.04309 493.072 0.00966605 494.104C-1.23044 495.136 116.992 495.968 275.312 495.968C423.237 495.968 545.699 496.356 553.717 496.756C553.966 496.768 554.133 496.793 554.133 496.793C554.981 497.132 556.666 497.054 558.385 496.559C558.761 496.45 559.135 496.32 559.505 496.172C562.399 495.14 555.583 486.058 523.547 447.458C519.09 442.117 514.634 436.767 510.32 431.589C493.629 411.553 479.08 394.09 474.974 389.661C466.294 379.547 465.882 379.547 466.916 385.533C467.329 388.836 475.183 406.591 484.07 424.756C493.164 442.92 502.05 461.498 503.911 466.039C505.771 470.58 507.217 474.707 507.217 475.326C507.217 475.945 504.94 473.47 502.253 470.168C499.151 466.341 498.144 464.118 499.089 462.94L495.689 457.76C490.075 450.615 478.093 432.464 463.193 408.242C445.418 379.344 430.947 354.775 431.154 353.536C431.567 352.504 440.04 342.602 450.374 331.455C465.049 315.355 468.977 309.776 469.39 303.996C469.803 300.074 471.871 278.2 473.938 255.494L477.865 214.211C513.415 136.598 523.751 112.034 523.751 109.351C523.751 106.874 520.028 85.4063 515.481 61.462C511.14 37.5178 507.833 17.4914 508.247 16.4593C508.867 15.6337 510.109 15.0125 511.349 15.0125C512.589 15.0125 522.513 20.3851 533.467 26.784C544.628 33.1829 561.363 44.1211 570.871 50.9329L588.237 63.5224L625.028 136.802C627.921 186.755 627.715 190.471 625.028 190.471C623.374 190.264 615.935 184.897 608.494 178.086C601.053 171.48 594.436 166.526 593.61 167.352C592.576 168.178 594.646 176.641 597.953 186.342C601.011 195.313 607.247 212.754 612.255 226.755L613.45 230.103C621.304 251.983 622.34 256.729 619.86 257.554C618.206 258.174 607.868 253.43 597.121 247.237C586.373 241.045 576.659 235.882 575.419 235.882C574.179 235.882 573.353 236.504 573.353 237.329C573.353 238.361 579.142 247.44 586.376 257.554C593.403 267.669 600.017 277.374 600.844 278.613C601.877 280.47 601.051 281.09 597.537 280.264C595.057 279.645 588.026 276.34 582.032 273.038C576.038 269.528 570.87 267.671 570.25 268.909C569.63 270.148 582.861 290.791 599.603 314.942C616.344 338.886 633.089 363.032 636.81 368.398C640.53 373.972 643.216 378.928 642.803 379.753C642.389 380.785 633.703 380.579 623.575 379.753C613.654 378.928 604.771 378.928 604.151 379.753C603.324 380.579 611.594 405.966 622.342 436.103C633.089 466.24 643.008 492.046 644.248 493.491C646.315 495.555 682.487 496.174 829.026 495.968C949.317 495.968 1011.53 495.345 1011.53 493.9C1011.53 492.661 1003.26 486.058 992.927 478.833C982.8 471.815 966.883 460.877 957.582 454.684C948.281 448.492 925.545 431.975 906.944 417.938C879.868 397.916 871.599 392.759 866.226 392.759C862.712 392.759 850.314 395.028 838.947 397.918C827.579 400.808 817.658 403.076 816.624 403.076C815.797 403.076 810.006 394.206 803.806 383.472C797.605 372.739 792.44 363.032 792.44 361.793C792.44 360.555 790.579 358.077 788.513 356.013C786.239 354.156 777.143 348.169 768.256 342.803C758.335 336.817 748.625 328.766 742.838 322.161C735.604 313.285 731.259 304.619 720.924 277.166C708.73 244.346 707.906 242.902 700.259 238.981C695.712 236.71 687.237 232.786 681.243 230.103C672.149 226.181 669.254 223.499 661.607 211.734C656.646 203.89 650.446 193.982 647.759 189.441C643.625 182.422 642.595 177.26 641.562 157.444L640.321 133.704L636.801 127.531C613.952 87.4592 604.622 71.0955 601.669 65.5904C598.362 60.0171 592.371 51.7604 588.237 47.4257C584.104 43.0909 575.005 35.0369 568.185 29.67C558.47 22.0326 549.795 17.7016 528.92 10.2706ZM534.701 418.151C531.187 413.197 527.473 409.273 526.233 409.273C524.993 409.273 523.544 409.892 523.131 410.924C522.717 411.75 533.467 431.151 547.315 454.063L572.324 495.968C592.372 495.968 598.157 495.557 598.157 494.938C598.157 494.318 589.271 483.373 578.317 470.781C572.562 464.058 566.294 456.71 560.92 450.411C556.064 444.719 551.94 439.884 549.585 437.141C544.831 431.568 538.008 422.898 534.701 418.151ZM609.939 465.001C596.091 450.759 583.07 438.58 581.003 437.754C578.316 436.722 577.697 437.139 578.937 439.822C579.305 440.924 581.633 446.012 584.802 452.94C586.98 457.7 589.555 463.329 592.164 469.13L604.151 494.938C631.226 495.763 635.357 495.349 635.357 493.491C635.357 492.046 623.787 479.244 609.939 465.001Z" fill="#2B44E7"/>
<path d="M499.567 462.524C501.221 461.424 501.014 460.948 498.947 461.085C498.513 461.085 497.395 459.931 495.689 457.76L499.089 462.94L499.114 462.909C499.235 462.765 499.386 462.637 499.567 462.524Z" fill="#1D1D1F"/>
</svg>
