<svg width="1440" height="900" viewBox="0 0 1440 900" fill="none" xmlns="http://www.w3.org/2000/svg">
<path d="M2369.3 2326.1C2362.62 2318.31 2309.19 2179.31 2251.3 2016.97C2193.4 1854.64 2148.86 1717.89 2153.31 1713.44C2156.65 1708.99 2204.5 1708.99 2257.94 1713.44C2312.49 1717.89 2359.29 1719 2361.51 1713.44C2363.74 1708.99 2349.27 1682.3 2329.23 1652.28C2309.19 1623.37 2218.99 1493.31 2128.81 1364.33C2038.63 1234.24 1967.36 1123.04 1970.7 1116.37C1974.04 1109.7 2001.88 1119.7 2034.17 1138.61C2066.45 1156.4 2104.33 1174.2 2117.69 1177.53C2136.61 1181.98 2141.06 1178.64 2135.5 1168.64C2131.04 1161.97 2095.42 1109.69 2057.56 1055.21C2018.6 1000.72 1987.42 951.82 1987.42 946.261C1987.42 941.813 1991.86 938.468 1998.54 938.468C2005.22 938.468 2057.55 966.275 2115.44 999.631C2173.34 1032.99 2229.02 1058.54 2237.93 1055.21C2251.29 1050.76 2245.71 1025.19 2203.4 907.335L2196.96 889.3C2169.99 813.884 2136.4 719.939 2119.93 671.616C2102.11 619.357 2090.96 573.77 2096.53 569.323C2100.98 564.875 2136.63 591.56 2176.71 627.14C2216.79 663.832 2256.86 692.742 2265.77 693.853C2280.24 693.853 2281.35 673.838 2265.77 404.764L2067.59 10.0352L1974.05 -57.7794C1922.83 -94.4714 1832.69 -153.391 1772.57 -187.86C1713.56 -222.328 1660.11 -251.267 1653.43 -251.267C1646.75 -251.267 1640.05 -247.922 1636.71 -243.474C1634.49 -237.915 1652.3 -130.041 1675.68 -1.0632C1700.17 127.915 1720.23 243.551 1720.23 256.894C1720.23 271.348 1664.55 403.664 1473.06 821.73L1451.91 1044.11C1440.77 1166.41 1429.64 1284.24 1427.41 1305.37C1425.18 1336.5 1404.03 1366.55 1324.98 1453.28C1269.31 1513.32 1223.68 1566.66 1221.45 1572.22C1220.34 1578.89 1298.28 1711.24 1394.03 1866.9C1474.29 1997.37 1538.83 2095.14 1569.07 2133.63C1578.26 2145.32 1584.28 2151.54 1586.62 2151.54C1597.75 2150.8 1598.87 2153.36 1589.96 2159.29C1588.99 2159.9 1588.17 2160.59 1587.52 2161.37L1587.38 2161.53C1582.3 2167.88 1587.72 2179.85 1604.43 2200.46C1618.91 2218.25 1631.17 2231.59 1631.17 2228.25C1631.17 2224.92 1623.38 2202.69 1613.36 2178.23C1603.34 2153.77 1555.47 2053.7 1506.49 1955.85C1458.61 1858.01 1416.31 1762.36 1414.08 1744.57C1408.52 1712.33 1410.73 1712.33 1457.49 1766.81C1479.61 1790.67 1557.97 1884.73 1647.88 1992.66C1671.12 2020.55 1695.13 2049.37 1719.13 2078.14C1891.7 2286.06 1928.41 2334.98 1912.82 2340.54C1910.83 2341.34 1908.81 2342.04 1906.79 2342.62L1981.87 2339.44L1847.16 2113.72C1772.57 1990.3 1714.66 1885.79 1716.89 1881.34C1719.12 1875.78 1726.92 1872.45 1733.6 1872.45C1740.28 1872.45 1760.29 1893.59 1779.21 1920.27C1797.03 1945.84 1833.78 1992.54 1859.39 2022.56C1872.07 2037.34 1894.29 2063.39 1920.44 2094.04C1949.39 2127.97 1983.16 2167.56 2014.15 2203.77C2073.16 2271.59 2121.03 2330.56 2121.03 2333.89H2153.31L2088.75 2194.88C2074.69 2163.63 2060.82 2133.31 2049.09 2107.67C2032.02 2070.35 2019.48 2042.94 2017.5 2037.01C2010.82 2022.55 2014.15 2020.31 2028.62 2025.87C2039.76 2030.32 2109.9 2095.92 2184.49 2172.64C2259.08 2249.36 2321.41 2318.31 2321.41 2326.1H2369.3Z" fill="#161A39"/>
<path d="M1092.32 360.289C1091.21 349.17 1106.8 341.397 1141.31 336.949C1169.15 332.502 1208.08 330.247 1229.23 331.359C1250.39 331.359 1269.32 336.929 1271.54 343.6C1273.77 350.271 1259.3 360.299 1239.26 368.082C1219.22 374.753 1196.95 388.086 1190.27 395.869C1181.36 406.988 1182.48 452.586 1218.11 732.78L1176.94 769.461C1154.67 789.475 1114.58 821.71 1039.98 877.304L1044.43 1049.66C1047.77 1144.17 1046.67 1245.36 1043.33 1275.38C1038.87 1304.29 1031.09 1326.52 1024.41 1324.3C1017.73 1322.08 1008.8 1304.28 1002.12 1285.38C995.438 1265.36 984.314 1249.79 976.521 1249.79C967.614 1249.79 960.92 1276.48 956.467 1329.85C953.126 1374.33 943.118 1459.92 934.211 1518.85C925.305 1578.89 918.641 1630.05 918.641 1633.38C918.641 1636.72 914.193 1638.93 907.513 1638.93C900.833 1638.93 896.386 1603.38 896.386 1555.57C896.386 1509.99 893.026 1472.17 887.459 1472.17C883.006 1472.17 834.038 1484.39 779.485 1499.96C724.932 1515.52 675.937 1527.75 670.37 1527.75C665.917 1527.75 662.585 1523.32 662.585 1516.65C662.585 1509.98 700.434 1444.36 829.58 1233.11L862.962 1038.52C881.889 931.776 900.818 835.042 905.272 825.035C909.725 815.028 956.479 771.685 1107.89 649.378L1100.11 512.606C1096.77 438.11 1092.32 369.184 1092.32 360.289Z" fill="#161A39"/>
<path d="M3447 1885.79C3480.4 1873.56 3514.89 1861.34 3523.79 1858C3532.7 1854.67 3544.95 1851.31 3551.63 1851.31C3558.31 1850.2 3601.76 1895.8 3648.52 1952.5C3695.28 2009.21 3752.05 2078.13 3773.2 2105.92C3795.47 2133.72 3813.27 2162.66 3813.27 2169.33C3813.27 2177.12 3809.95 2183.78 3804.39 2183.78C3799.93 2183.78 3750.92 2143.75 3696.37 2094.83C3641.82 2047.02 3592.82 2009.2 3587.26 2011.42C3582.8 2014.76 3581.69 2020.32 3583.91 2024.77C3586.14 2030.33 3608.44 2067.03 3634.05 2108.17C3658.54 2150.42 3679.66 2185.99 3679.66 2189.33C3679.66 2192.66 3668.53 2189.35 3654.06 2182.67C3640.7 2176 3576.12 2115.96 3509.32 2049.25C3443.64 1982.54 3389.08 1923.59 3389.08 1918.03C3387.97 1912.47 3414.71 1898.02 3447 1885.79Z" fill="#161A39"/>
<path fill-rule="evenodd" clip-rule="evenodd" d="M1748.07 -276.81C1669.03 -305.719 1600 -329.079 1595.55 -329.079C1592.21 -329.079 1563.24 -272.373 1533.18 -204.548C1510.03 -153.351 1474.61 -74.5683 1443.78 -5.98572C1433.1 17.7781 1422.96 40.3172 1414.08 60.0598C1378.46 136.779 1347.25 203.523 1342.79 207.971C1339.45 212.418 1276.02 231.31 1202.54 249.1C1129.79 266.712 1059.21 284.335 1044.84 287.922L1044.43 288.026C1019.93 293.586 1018.82 300.258 1012.14 434.795L1005.46 577.116C867.408 758.352 825.11 828.381 806.183 877.304C793.469 909.473 765.903 980.958 737.748 1053.97C728.923 1076.86 720.04 1099.9 711.538 1121.92C677.025 1213.09 639.182 1303.16 629.162 1322.06C612.462 1349.85 594.672 1359.87 527.872 1378.77C482.226 1391 370.894 1416.56 279.602 1434.35L113.708 1466.62C-39.9312 1699 -91.1582 1770.17 -97.8382 1773.5C-105.631 1777.95 -181.349 1804.61 -267.075 1833.52C-419.6 1885.78 -428.501 1890.24 -756.931 2103.72C-940.63 2222.69 -1095.38 2323.84 -1100.95 2329.4C-1107.63 2334.96 -470.814 2339.44 381.991 2339.44C1178.81 2339.44 1838.46 2341.53 1881.64 2343.68C1882.99 2343.75 1883.88 2343.89 1883.88 2343.89C1888.45 2345.71 1897.53 2345.29 1906.79 2342.62C1908.81 2342.04 1910.83 2341.34 1912.82 2340.54C1928.41 2334.98 1891.7 2286.06 1719.13 2078.14C1695.13 2049.37 1671.12 2020.55 1647.88 1992.66C1557.97 1884.73 1479.61 1790.67 1457.49 1766.81C1410.73 1712.33 1408.52 1712.33 1414.08 1744.57C1416.31 1762.36 1458.61 1858.01 1506.49 1955.85C1555.47 2053.7 1603.34 2153.77 1613.36 2178.23C1623.38 2202.69 1631.17 2224.92 1631.17 2228.25C1631.17 2231.59 1618.91 2218.25 1604.43 2200.46C1587.72 2179.85 1582.3 2167.88 1587.38 2161.53L1569.07 2133.63C1538.83 2095.14 1474.29 1997.37 1394.03 1866.9C1298.28 1711.24 1220.34 1578.89 1221.45 1572.22C1223.68 1566.66 1269.31 1513.32 1324.98 1453.28C1404.03 1366.55 1425.18 1336.5 1427.41 1305.37C1429.64 1284.24 1440.77 1166.41 1451.91 1044.11L1473.06 821.73C1664.55 403.664 1720.23 271.348 1720.23 256.894C1720.23 243.551 1700.17 127.915 1675.68 -1.0632C1652.3 -130.041 1634.49 -237.915 1636.71 -243.474C1640.05 -247.922 1646.75 -251.267 1653.43 -251.267C1660.11 -251.267 1713.56 -222.328 1772.57 -187.86C1832.69 -153.391 1922.83 -94.4714 1974.05 -57.7794L2067.59 10.0352L2265.77 404.764C2281.35 673.838 2280.24 693.853 2265.77 693.853C2256.86 692.742 2216.79 663.832 2176.71 627.14C2136.63 591.56 2100.98 564.875 2096.53 569.323C2090.96 573.77 2102.11 619.357 2119.93 671.616C2136.4 719.939 2169.99 813.884 2196.96 889.3L2203.4 907.335C2245.71 1025.19 2251.29 1050.76 2237.93 1055.21C2229.02 1058.54 2173.34 1032.99 2115.44 999.631C2057.55 966.275 2005.22 938.468 1998.54 938.468C1991.86 938.468 1987.42 941.813 1987.42 946.261C1987.42 951.82 2018.6 1000.72 2057.56 1055.21C2095.42 1109.69 2131.04 1161.97 2135.5 1168.64C2141.06 1178.64 2136.61 1181.98 2117.69 1177.53C2104.33 1174.2 2066.45 1156.4 2034.17 1138.61C2001.88 1119.7 1974.04 1109.7 1970.7 1116.37C1967.36 1123.04 2038.63 1234.24 2128.81 1364.33C2218.99 1493.31 2309.19 1623.37 2329.23 1652.28C2349.27 1682.3 2363.74 1708.99 2361.51 1713.44C2359.29 1719 2312.49 1717.89 2257.94 1713.44C2204.5 1708.99 2156.65 1708.99 2153.31 1713.44C2148.86 1717.89 2193.4 1854.64 2251.3 2016.97C2309.19 2179.31 2362.62 2318.31 2369.3 2326.1C2380.43 2337.22 2575.28 2340.55 3364.62 2339.44C4012.58 2339.44 4347.68 2336.08 4347.68 2328.3C4347.68 2321.63 4303.16 2286.06 4247.49 2247.14C4192.94 2209.34 4107.2 2150.42 4057.1 2117.06C4007 2083.71 3884.53 1994.74 3784.33 1919.13C3638.49 1811.28 3593.95 1783.5 3565 1783.5C3546.07 1783.5 3479.29 1795.72 3418.06 1811.29C3356.83 1826.85 3303.38 1839.07 3297.82 1839.07C3293.36 1839.07 3262.17 1791.29 3228.77 1733.47C3195.37 1675.66 3167.55 1623.37 3167.55 1616.7C3167.55 1610.02 3157.53 1596.68 3146.39 1585.56C3134.15 1575.56 3085.15 1543.31 3037.28 1514.4C2983.84 1482.16 2931.54 1438.79 2900.36 1403.21C2861.4 1355.4 2837.99 1308.72 2782.32 1160.84C2716.64 984.056 2712.2 976.282 2671.01 955.156C2646.51 942.925 2600.86 921.789 2568.57 907.335C2519.59 886.209 2504 871.765 2462.8 808.388C2436.08 766.136 2402.68 712.766 2388.21 688.304C2365.94 650.5 2360.4 622.692 2354.83 515.952L2348.14 388.075L2329.18 354.822C2206.11 138.973 2155.85 50.8282 2139.94 21.1744C2122.13 -8.84628 2089.86 -53.3218 2067.59 -76.6712C2045.32 -100.021 1996.32 -143.405 1959.58 -172.314C1907.25 -213.453 1860.52 -236.783 1748.07 -276.81ZM1779.21 1920.27C1760.29 1893.59 1740.28 1872.45 1733.6 1872.45C1726.92 1872.45 1719.12 1875.78 1716.89 1881.34C1714.66 1885.79 1772.57 1990.3 1847.16 2113.72L1981.87 2339.44C2089.86 2339.44 2121.03 2337.23 2121.03 2333.89C2121.03 2330.56 2073.16 2271.59 2014.15 2203.77C1983.16 2167.56 1949.39 2127.97 1920.44 2094.04C1894.29 2063.39 1872.07 2037.34 1859.39 2022.56C1833.78 1992.54 1797.03 1945.84 1779.21 1920.27ZM2184.49 2172.64C2109.9 2095.92 2039.76 2030.32 2028.62 2025.87C2014.15 2020.31 2010.82 2022.55 2017.5 2037.01C2019.48 2042.94 2032.02 2070.35 2049.09 2107.67C2060.82 2133.31 2074.69 2163.63 2088.75 2194.88L2153.31 2333.89C2299.16 2338.34 2321.41 2336.1 2321.41 2326.1C2321.41 2318.31 2259.08 2249.36 2184.49 2172.64Z" fill="#2B44E7"/>
<path d="M1589.96 2159.29C1598.87 2153.36 1597.75 2150.8 1586.62 2151.54C1584.28 2151.54 1578.26 2145.32 1569.07 2133.63L1587.38 2161.53L1587.52 2161.37C1588.17 2160.59 1588.99 2159.9 1589.96 2159.29Z" fill="#1D1D1F"/>
</svg>
