<svg width="1440" height="496" viewBox="0 0 1440 496" fill="none" xmlns="http://www.w3.org/2000/svg">
<path d="M1203.8 3465.33C1195.08 3455.17 1125.35 3273.77 1049.8 3061.92C974.252 2850.07 916.116 2671.61 921.928 2665.8C926.287 2660 988.734 2660 1058.47 2665.8C1129.67 2671.61 1190.73 2673.06 1193.64 2665.8C1196.54 2660 1177.66 2625.16 1151.51 2585.98C1125.36 2548.26 1007.64 2378.53 889.959 2210.21C772.274 2040.44 679.266 1895.32 683.624 1886.62C687.983 1877.91 724.311 1890.97 766.446 1915.64C808.58 1938.85 858.002 1962.08 875.438 1966.44C900.137 1972.24 905.947 1967.89 898.683 1954.83C892.871 1946.12 846.377 1877.9 796.978 1806.8C746.126 1735.7 705.434 1671.88 705.434 1664.62C705.434 1658.82 711.238 1654.45 719.955 1654.45C728.672 1654.45 796.961 1690.74 872.512 1734.27C948.063 1777.8 1020.73 1811.15 1032.36 1806.8C1049.79 1800.99 1042.51 1767.63 987.302 1613.82L978.897 1590.29C943.695 1491.87 899.859 1369.27 878.363 1306.21C855.117 1238.01 840.566 1178.52 847.831 1172.71C853.642 1166.91 900.156 1201.73 952.461 1248.16C1004.77 1296.05 1057.06 1333.78 1068.69 1335.23C1087.57 1335.23 1089.03 1309.11 1068.69 957.96L810.063 442.832L687.986 354.333C621.153 306.45 503.511 229.558 425.054 184.577C348.05 139.595 278.289 101.828 269.572 101.828C260.854 101.828 252.121 106.195 247.762 111.999C244.857 119.254 268.104 260.03 298.615 428.349C330.579 596.667 356.755 747.575 356.755 764.987C356.755 783.85 284.093 956.524 34.1931 1502.11L6.58594 1792.31C-7.94312 1951.93 -22.4768 2105.69 -25.3828 2133.26C-28.2886 2173.89 -55.9001 2213.11 -159.056 2326.29C-231.702 2404.65 -291.26 2474.25 -294.166 2481.51C-295.619 2490.22 -193.897 2662.93 -68.9475 2866.07C35.7986 3036.34 120.022 3163.93 159.489 3214.16C171.481 3229.42 179.341 3237.53 182.389 3237.53C196.918 3236.57 198.374 3239.91 186.75 3247.65C185.479 3248.45 184.417 3249.34 183.564 3250.35L183.386 3250.57C176.747 3258.85 183.828 3274.48 205.634 3301.38C224.521 3324.6 240.528 3341.99 240.528 3337.64C240.528 3333.29 230.359 3304.28 217.283 3272.36C204.207 3240.44 141.739 3109.84 77.811 2982.15C15.3362 2854.46 -39.8711 2729.65 -42.7769 2706.43C-50.0413 2664.35 -47.1484 2664.35 13.8735 2735.45C42.7371 2766.58 145.004 2889.34 262.339 3030.19C292.662 3066.59 323.99 3104.19 355.318 3141.74C580.519 3413.08 628.431 3476.93 608.091 3484.18C605.487 3485.22 602.856 3486.14 600.218 3486.9L698.199 3482.74L522.397 3188.17C425.052 3027.11 349.487 2890.73 352.393 2884.92C355.299 2877.67 365.484 2873.31 374.202 2873.31C382.919 2873.31 409.025 2900.9 433.724 2935.72C456.971 2969.09 504.938 3030.04 538.355 3069.22C554.906 3088.5 583.902 3122.49 618.035 3162.5C655.81 3206.78 699.875 3258.43 740.328 3305.69C817.332 3394.2 879.799 3471.15 879.799 3475.5H921.928L837.671 3294.08C819.327 3253.31 801.225 3213.74 785.917 3180.28C763.637 3131.58 747.273 3095.81 744.69 3088.07C735.972 3069.2 740.323 3066.27 759.211 3073.53C773.74 3079.33 865.276 3164.94 962.62 3265.06C1059.96 3365.18 1141.29 3455.17 1141.29 3465.33H1203.8Z" fill="#161A39"/>
<path d="M-462.681 899.919C-464.134 885.409 -443.783 875.265 -398.743 869.461C-362.42 863.656 -311.611 860.714 -284.006 862.165C-256.401 862.165 -231.698 869.434 -228.792 878.14C-225.886 886.846 -244.769 899.932 -270.921 910.089C-297.073 918.795 -326.141 936.194 -334.859 946.352C-346.482 960.862 -345.021 1020.37 -298.528 1386.03L-352.253 1433.9C-381.311 1460.01 -433.635 1502.08 -530.98 1574.63L-525.182 1799.55C-520.824 1922.89 -522.26 2054.95 -526.618 2094.13C-532.43 2131.85 -542.583 2160.87 -551.3 2157.97C-560.017 2155.07 -571.679 2131.84 -580.396 2107.17C-589.114 2081.05 -603.631 2060.74 -613.802 2060.74C-625.425 2060.74 -634.161 2095.56 -639.972 2165.21C-644.331 2223.25 -657.392 2334.96 -669.016 2411.86C-680.639 2490.22 -689.335 2556.98 -689.335 2561.33C-689.335 2565.68 -695.139 2568.57 -703.857 2568.57C-712.574 2568.57 -718.379 2522.18 -718.379 2459.78C-718.379 2400.29 -722.763 2350.94 -730.028 2350.94C-735.839 2350.94 -799.743 2366.89 -870.936 2387.21C-942.128 2407.52 -1006.07 2423.47 -1013.33 2423.47C-1019.14 2423.47 -1023.49 2417.69 -1023.49 2408.99C-1023.49 2400.28 -974.099 2314.65 -805.562 2038.96L-761.997 1785.02C-737.297 1645.72 -712.594 1519.48 -706.782 1506.42C-700.971 1493.36 -639.956 1436.8 -442.361 1277.19L-452.521 1098.7C-456.88 1001.48 -462.681 911.527 -462.681 899.919Z" fill="#161A39"/>
<path d="M2610.21 2890.73C2653.8 2874.76 2698.81 2858.82 2710.43 2854.46C2722.05 2850.11 2738.04 2845.73 2746.76 2845.73C2755.48 2844.28 2812.18 2903.79 2873.2 2977.79C2934.22 3051.79 3008.31 3141.73 3035.92 3178C3064.97 3214.28 3088.2 3252.04 3088.2 3260.75C3088.2 3270.91 3083.87 3279.6 3076.61 3279.6C3070.8 3279.6 3006.84 3227.36 2935.65 3163.52C2864.46 3101.12 2800.52 3051.78 2793.25 3054.68C2787.44 3059.03 2785.98 3066.29 2788.89 3072.09C2791.79 3079.35 2820.9 3127.24 2854.32 3180.93C2886.28 3236.07 2913.84 3282.49 2913.84 3286.84C2913.84 3291.2 2899.32 3286.87 2880.43 3278.16C2863 3269.46 2778.72 3191.1 2691.55 3104.04C2605.82 3016.98 2534.63 2940.05 2534.63 2932.79C2533.17 2925.54 2568.08 2906.69 2610.21 2890.73Z" fill="#161A39"/>
<path fill-rule="evenodd" clip-rule="evenodd" d="M393.085 68.4945C289.929 30.768 199.849 0.282959 194.038 0.282959C189.679 0.282959 151.881 74.2856 112.653 162.798C82.4399 229.61 36.2175 332.423 -4.02026 421.925C-17.9626 452.937 -31.1863 482.351 -42.7769 508.115C-89.2698 608.236 -130 695.338 -135.811 701.142C-140.17 706.946 -222.956 731.6 -318.847 754.816C-413.781 777.8 -505.888 800.798 -524.637 805.479L-525.182 805.615C-557.146 812.871 -558.594 821.577 -567.311 997.151L-576.035 1182.88C-756.195 1419.4 -811.395 1510.79 -836.094 1574.63C-852.687 1616.61 -888.661 1709.9 -925.404 1805.19C-936.921 1835.06 -948.513 1865.12 -959.608 1893.86C-1004.65 2012.84 -1054.03 2130.38 -1067.11 2155.04C-1088.9 2191.32 -1112.12 2204.39 -1199.29 2229.06C-1258.86 2245.02 -1404.15 2278.37 -1523.29 2301.58L-1739.79 2343.7C-1940.29 2646.97 -2007.14 2739.83 -2015.86 2744.19C-2026.03 2749.99 -2124.84 2784.79 -2236.71 2822.51C-2435.76 2890.71 -2447.38 2896.53 -2875.98 3175.13C-3115.71 3330.39 -3317.67 3462.39 -3324.93 3469.65C-3333.65 3476.9 -2502.6 3482.74 -1389.67 3482.74C-349.816 3482.74 511.039 3485.47 567.398 3488.28C569.154 3488.37 570.323 3488.55 570.323 3488.55C576.286 3490.93 588.133 3490.38 600.218 3486.9C602.856 3486.14 605.487 3485.22 608.091 3484.18C628.431 3476.93 580.519 3413.08 355.318 3141.74C323.99 3104.19 292.662 3066.59 262.339 3030.19C145.004 2889.34 42.7371 2766.58 13.8735 2735.45C-47.1484 2664.35 -50.0413 2664.35 -42.7769 2706.43C-39.8711 2729.65 15.3362 2854.46 77.811 2982.15C141.739 3109.84 204.207 3240.44 217.283 3272.36C230.359 3304.28 240.528 3333.29 240.528 3337.64C240.528 3341.99 224.521 3324.6 205.634 3301.38C183.828 3274.48 176.747 3258.85 183.386 3250.57L159.489 3214.16C120.022 3163.93 35.7986 3036.34 -68.9475 2866.07C-193.897 2662.93 -295.619 2490.22 -294.166 2481.51C-291.26 2474.25 -231.702 2404.65 -159.056 2326.29C-55.9001 2213.11 -28.2886 2173.89 -25.3828 2133.26C-22.4768 2105.69 -7.94312 1951.93 6.58594 1792.31L34.1931 1502.11C284.093 956.524 356.755 783.85 356.755 764.987C356.755 747.575 330.579 596.667 298.615 428.349C268.104 260.03 244.857 119.254 247.762 111.999C252.121 106.195 260.854 101.828 269.572 101.828C278.289 101.828 348.05 139.595 425.054 184.577C503.511 229.558 621.153 306.45 687.986 354.333L810.063 442.832L1068.69 957.96C1089.03 1309.11 1087.57 1335.23 1068.69 1335.23C1057.06 1333.78 1004.77 1296.05 952.461 1248.16C900.156 1201.73 853.642 1166.91 847.831 1172.71C840.566 1178.52 855.117 1238.01 878.363 1306.21C899.859 1369.27 943.695 1491.87 978.897 1590.29L987.302 1613.82C1042.51 1767.63 1049.79 1800.99 1032.36 1806.8C1020.73 1811.15 948.063 1777.8 872.512 1734.27C796.961 1690.74 728.672 1654.45 719.955 1654.45C711.238 1654.45 705.434 1658.82 705.434 1664.62C705.434 1671.88 746.126 1735.7 796.978 1806.8C846.377 1877.9 892.871 1946.12 898.683 1954.83C905.947 1967.89 900.137 1972.24 875.438 1966.44C858.002 1962.08 808.58 1938.85 766.446 1915.64C724.311 1890.97 687.983 1877.91 683.624 1886.62C679.266 1895.32 772.274 2040.44 889.959 2210.21C1007.64 2378.53 1125.36 2548.26 1151.51 2585.98C1177.66 2625.16 1196.54 2660 1193.64 2665.8C1190.73 2673.06 1129.67 2671.61 1058.47 2665.8C988.734 2660 926.287 2660 921.928 2665.8C916.116 2671.61 974.252 2850.07 1049.8 3061.92C1125.35 3273.77 1195.08 3455.17 1203.8 3465.33C1218.33 3479.84 1472.6 3484.2 2502.71 3482.74C3348.3 3482.74 3785.62 3478.36 3785.62 3468.21C3785.62 3459.5 3727.51 3413.08 3654.87 3362.3C3583.67 3312.96 3471.78 3236.07 3406.4 3192.54C3341.02 3149.01 3181.2 3032.9 3050.44 2934.23C2860.11 2793.48 2801.98 2757.23 2764.21 2757.23C2739.51 2757.23 2652.36 2773.18 2572.45 2793.49C2492.54 2813.81 2422.79 2829.76 2415.53 2829.76C2409.72 2829.76 2369.01 2767.4 2325.42 2691.95C2281.83 2616.5 2245.52 2548.26 2245.52 2539.55C2245.52 2530.84 2232.45 2513.43 2217.92 2498.92C2201.94 2485.86 2138 2443.78 2075.52 2406.06C2005.78 2363.98 1937.53 2307.39 1896.85 2260.95C1845.99 2198.56 1815.44 2137.64 1742.8 1944.66C1657.08 1713.95 1651.29 1703.8 1597.53 1676.23C1565.57 1660.27 1505.99 1632.69 1463.86 1613.82C1399.93 1586.25 1379.58 1567.4 1325.82 1484.7C1290.95 1429.56 1247.37 1359.91 1228.48 1327.98C1199.42 1278.65 1192.18 1242.36 1184.91 1103.06L1176.19 936.181L1151.45 892.785C990.829 611.098 925.239 496.068 904.48 457.369C881.234 418.192 839.122 360.151 810.063 329.679C781.005 299.208 717.048 242.591 669.103 204.864C600.816 151.176 539.829 120.731 393.085 68.4945ZM433.724 2935.72C409.025 2900.9 382.919 2873.31 374.202 2873.31C365.484 2873.31 355.299 2877.67 352.393 2884.92C349.487 2890.73 425.052 3027.11 522.397 3188.17L698.199 3482.74C839.131 3482.74 879.799 3479.86 879.799 3475.5C879.799 3471.15 817.332 3394.2 740.328 3305.69C699.875 3258.43 655.81 3206.78 618.035 3162.5C583.902 3122.49 554.906 3088.5 538.355 3069.22C504.938 3030.04 456.971 2969.09 433.724 2935.72ZM962.62 3265.06C865.276 3164.94 773.74 3079.33 759.211 3073.53C740.323 3066.27 735.972 3069.2 744.69 3088.07C747.273 3095.81 763.637 3131.58 785.917 3180.28C801.225 3213.74 819.327 3253.31 837.671 3294.08L921.928 3475.5C1112.26 3481.31 1141.29 3478.39 1141.29 3465.33C1141.29 3455.17 1059.96 3365.18 962.62 3265.06Z" fill="#2B44E7"/>
<path d="M186.75 3247.65C198.374 3239.91 196.918 3236.57 182.389 3237.53C179.341 3237.53 171.481 3229.42 159.489 3214.16L183.386 3250.57L183.564 3250.35C184.417 3249.34 185.479 3248.45 186.75 3247.65Z" fill="#1D1D1F"/>
</svg>
