<svg width="71" height="22" viewBox="0 0 71 22" fill="none" xmlns="http://www.w3.org/2000/svg">
<g id="Logo">
<g id="Group">
<g id="Subtract" opacity="0.7">
<path d="M56.0488 10.8765C56.3069 11.0258 56.4708 11.2643 56.532 11.5878L54.1301 12.0374C54.1171 11.6862 54.2036 11.3992 54.3894 11.1721C54.5752 10.9494 54.8301 10.8037 55.1499 10.7438C55.487 10.6795 55.7895 10.7266 56.0488 10.8765Z" fill="#42424A"/>
<path fill-rule="evenodd" clip-rule="evenodd" d="M46.6484 6.4847L68.0411 2.48535L70.9929 18.0008L49.6002 22.0002L46.6484 6.4847ZM49.7051 15.7343C49.7613 16.0213 49.9125 16.244 50.1632 16.4025H50.1675C50.4181 16.561 50.712 16.6081 51.049 16.5439C51.3774 16.4839 51.6281 16.334 51.8053 16.0984C51.9824 15.8628 52.0429 15.6015 51.9867 15.3102C51.9306 15.0146 51.775 14.7833 51.5244 14.6248C51.2694 14.462 50.9799 14.4149 50.6515 14.4749C50.3144 14.5391 50.0594 14.689 49.8823 14.9289C49.7051 15.1688 49.6489 15.4387 49.7051 15.7343ZM58.6631 12.2859L54.3202 13.0998C54.4239 13.481 54.6054 13.7509 54.8647 13.9137C55.124 14.0765 55.4135 14.1279 55.7376 14.0679C56.2173 13.9779 56.5111 13.7166 56.6235 13.2797L58.6675 12.8984C58.6415 13.3268 58.5205 13.7295 58.3088 14.1065C58.0971 14.4834 57.8032 14.8047 57.4273 15.066C57.0513 15.3273 56.6062 15.5072 56.1006 15.6015C55.487 15.7171 54.9166 15.6871 54.3894 15.5201C53.8622 15.3487 53.4171 15.0489 53.0541 14.6162C52.6954 14.1836 52.4491 13.6481 52.3281 13.0013C52.2071 12.3544 52.233 11.7676 52.4059 11.2364C52.5787 10.7052 52.8812 10.264 53.3134 9.917C53.7412 9.56573 54.2684 9.33441 54.8906 9.21875C55.4956 9.10738 56.0617 9.13308 56.5803 9.29586C57.0988 9.45864 57.5353 9.74993 57.8896 10.1697C58.244 10.5895 58.4816 11.1079 58.5983 11.729C58.6329 11.9089 58.6545 12.0931 58.6718 12.2902L58.6631 12.2859ZM60.1108 13.7724C60.4176 14.0508 60.8022 14.2393 61.2646 14.3464L61.2602 14.3293C61.7226 14.4321 62.2282 14.4363 62.7727 14.3335C63.2826 14.2393 63.7147 14.0722 64.0691 13.8366C64.4234 13.601 64.6784 13.3226 64.8296 12.997C64.9809 12.6715 65.0241 12.3288 64.955 11.9646C64.8642 11.5363 64.6827 11.215 64.4148 11.0008C64.1469 10.7866 63.8573 10.6496 63.5419 10.5896C63.2264 10.5296 62.8289 10.4825 62.3406 10.4525C61.9214 10.4397 61.606 10.4054 61.3985 10.354C61.1911 10.3026 61.0701 10.1869 61.0355 10.007C61.0053 9.85707 61.0442 9.72856 61.1479 9.62147C61.2516 9.51437 61.4158 9.44155 61.6405 9.39871C61.8998 9.35159 62.1245 9.3773 62.3103 9.47154C62.4961 9.56578 62.6258 9.71999 62.6949 9.92989L64.4667 9.60005C64.2765 8.97463 63.9222 8.51199 63.395 8.21213C62.8721 7.91227 62.2153 7.83516 61.4288 7.98081C60.8973 8.07933 60.4565 8.25068 60.1021 8.49485C59.7478 8.73902 59.5015 9.02603 59.3589 9.35588C59.2163 9.68572 59.1774 10.0284 59.2465 10.384C59.3286 10.8081 59.5015 11.1208 59.7651 11.3307C60.0287 11.5406 60.3225 11.6734 60.6423 11.7333C60.9621 11.7933 61.3596 11.8319 61.8263 11.8533C62.2671 11.879 62.5869 11.9175 62.79 11.9689C62.9931 12.0203 63.1098 12.1317 63.1443 12.3116C63.1746 12.4616 63.1314 12.5944 63.019 12.71C62.9023 12.83 62.7252 12.9113 62.4875 12.9542C62.2239 13.0013 61.9905 12.9756 61.7874 12.8771C61.5843 12.7786 61.4504 12.6201 61.3856 12.4102L59.4885 12.7657C59.5965 13.1598 59.804 13.4939 60.1108 13.7724Z" fill="#42424A"/>
</g>
<g id="Subtract_2" opacity="0.7">
<path d="M56.0529 10.8764C56.3111 11.0257 56.475 11.2642 56.5361 11.5876L54.1342 12.0373C54.1213 11.686 54.2077 11.399 54.3935 11.172C54.5793 10.9492 54.8343 10.8036 55.154 10.7436C55.4911 10.6793 55.7936 10.7265 56.0529 10.8764Z" fill="#42424A"/>
<path fill-rule="evenodd" clip-rule="evenodd" d="M42.3906 3.99935L63.7833 0L66.7351 15.5155L45.3424 19.5148L42.3906 3.99935ZM49.7092 15.7341C49.7654 16.0211 49.9166 16.2439 50.1673 16.4024H50.1716C50.4222 16.5609 50.7161 16.608 51.0532 16.5437C51.3816 16.4838 51.6322 16.3338 51.8094 16.0982C51.9866 15.8626 52.0471 15.6013 51.9909 15.31C51.9347 15.0145 51.7791 14.7831 51.5285 14.6246C51.2735 14.4619 50.984 14.4147 50.6556 14.4747C50.3185 14.539 50.0636 14.6889 49.8864 14.9288C49.7092 15.1687 49.6531 15.4385 49.7092 15.7341ZM58.6673 12.2857L54.3244 13.0996C54.4281 13.4809 54.6096 13.7508 54.8688 13.9135C55.1281 14.0763 55.4176 14.1277 55.7417 14.0678C56.2214 13.9778 56.5153 13.7165 56.6276 13.2796L58.6716 12.8983C58.6457 13.3267 58.5247 13.7293 58.3129 14.1063C58.1012 14.4833 57.8073 14.8046 57.4314 15.0659C57.0554 15.3272 56.6103 15.5071 56.1047 15.6013C55.4911 15.717 54.9207 15.687 54.3935 15.5199C53.8663 15.3486 53.4212 15.0487 53.0582 14.6161C52.6995 14.1834 52.4532 13.648 52.3322 13.0011C52.2112 12.3543 52.2372 11.7674 52.41 11.2362C52.5829 10.7051 52.8854 10.2638 53.3175 9.91685C53.7453 9.56559 54.2725 9.33427 54.8948 9.21861C55.4998 9.10723 56.0658 9.13293 56.5844 9.29571C57.103 9.45849 57.5394 9.74979 57.8938 10.1696C58.2481 10.5894 58.4858 11.1077 58.6024 11.7289C58.637 11.9088 58.6586 12.093 58.6759 12.29L58.6673 12.2857ZM60.1149 13.7722C60.4217 14.0507 60.8063 14.2391 61.2687 14.3462L61.2644 14.3291C61.7268 14.4319 62.2323 14.4362 62.7768 14.3334C63.2867 14.2391 63.7189 14.0721 64.0732 13.8365C64.4276 13.6009 64.6825 13.3224 64.8338 12.9969C64.985 12.6713 65.0282 12.3286 64.9591 11.9645C64.8683 11.5361 64.6868 11.2149 64.4189 11.0007C64.151 10.7865 63.8615 10.6494 63.546 10.5894C63.2306 10.5295 62.833 10.4823 62.3447 10.4524C61.9255 10.4395 61.6101 10.4052 61.4027 10.3538C61.1952 10.3024 61.0742 10.1868 61.0397 10.0069C61.0094 9.85692 61.0483 9.72841 61.152 9.62132C61.2557 9.51423 61.4199 9.44141 61.6446 9.39857C61.9039 9.35145 62.1286 9.37715 62.3145 9.47139C62.5003 9.56563 62.6299 9.71985 62.699 9.92975L64.4708 9.5999C64.2806 8.97448 63.9263 8.51184 63.3991 8.21198C62.8762 7.91213 62.2194 7.83502 61.4329 7.98066C60.9014 8.07919 60.4606 8.25054 60.1063 8.49471C59.7519 8.73888 59.5056 9.02589 59.363 9.35573C59.2204 9.68558 59.1815 10.0283 59.2506 10.3838C59.3327 10.8079 59.5056 11.1206 59.7692 11.3305C60.0328 11.5404 60.3267 11.6732 60.6464 11.7332C60.9662 11.7932 61.3638 11.8317 61.8305 11.8531C62.2712 11.8788 62.591 11.9174 62.7941 11.9688C62.9972 12.0202 63.1139 12.1316 63.1485 12.3115C63.1787 12.4614 63.1355 12.5942 63.0231 12.7099C62.9065 12.8298 62.7293 12.9112 62.4916 12.954C62.228 13.0012 61.9947 12.9755 61.7916 12.8769C61.5885 12.7784 61.4545 12.6199 61.3897 12.41L59.4926 12.7656C59.6007 13.1597 59.8081 13.4938 60.1149 13.7722Z" fill="#42424A"/>
</g>
</g>
<g id="Group_2">
<path id="Vector" d="M5.97637 12.8987C6.25725 13.2585 6.39985 13.6655 6.39985 14.1281C6.39985 14.7921 6.1665 15.319 5.6998 15.7088C5.2331 16.0986 4.57626 16.2914 3.74225 16.2914H0V8.34082H3.60829C4.42502 8.34082 5.06025 8.52502 5.52263 8.89342C5.98501 9.26182 6.21404 9.76729 6.21404 10.4013C6.21404 10.8682 6.08872 11.258 5.84241 11.5664C5.59609 11.8749 5.26767 12.0891 4.85283 12.2133C5.31953 12.3118 5.69116 12.5388 5.97204 12.8987H5.97637ZM1.95323 11.5579H3.23234C3.55211 11.5579 3.79843 11.4893 3.97128 11.348C4.14413 11.2066 4.22624 11.001 4.22624 10.7311C4.22624 10.4613 4.13981 10.2513 3.97128 10.11C3.80275 9.96863 3.55643 9.8958 3.23234 9.8958H1.95323V11.5622V11.5579ZM4.15277 14.5093C4.32995 14.3637 4.4207 14.1495 4.4207 13.8711C4.4207 13.5926 4.32563 13.3742 4.13981 13.2157C3.95399 13.0572 3.69472 12.9758 3.37062 12.9758H1.95323V14.7321H3.39223C3.72064 14.7321 3.97128 14.6593 4.15277 14.5093Z" fill="#42424A"/>
<path id="Vector_2" d="M9.48448 7.9082V16.2871H7.53125V7.9082H9.48448Z" fill="#42424A"/>
<path id="Vector_3" d="M12.1188 15.9832C11.6219 15.7176 11.2286 15.3406 10.9434 14.8523C10.6582 14.3639 10.5156 13.7856 10.5156 13.1302C10.5156 12.4748 10.6582 11.9094 10.9478 11.4168C11.2373 10.9241 11.6348 10.5429 12.1361 10.2773C12.6374 10.0117 13.2035 9.87891 13.8257 9.87891C14.448 9.87891 15.0141 10.0117 15.5154 10.2773C16.0166 10.5429 16.4142 10.9198 16.7037 11.4168C16.9933 11.9094 17.1359 12.4834 17.1359 13.1302C17.1359 13.7771 16.9889 14.3511 16.6951 14.8437C16.4012 15.3406 16.0037 15.7176 15.4938 15.9832C14.9839 16.2488 14.4221 16.3773 13.7955 16.3773C13.1689 16.3773 12.6071 16.2445 12.1102 15.9832H12.1188ZM14.7591 14.2954C15.0227 14.0255 15.1524 13.6357 15.1524 13.1302C15.1524 12.6248 15.0271 12.2349 14.7678 11.9651C14.5128 11.6952 14.1974 11.5581 13.8257 11.5581C13.4541 11.5581 13.13 11.6909 12.8794 11.9608C12.6287 12.2264 12.5034 12.6205 12.5034 13.1345C12.5034 13.6486 12.6287 14.0298 12.8751 14.2997C13.1214 14.5696 13.4325 14.7066 13.8041 14.7066C14.1758 14.7066 14.4955 14.5696 14.7591 14.2997V14.2954Z" fill="#42424A"/>
<path id="Vector_4" d="M18.1953 11.4082C18.4632 10.9156 18.8435 10.5386 19.3274 10.2773C19.8114 10.016 20.3646 9.87891 20.9911 9.87891C21.7906 9.87891 22.4604 10.0888 22.9962 10.5C23.5321 10.9156 23.8864 11.5024 24.055 12.2564H21.9764C21.7992 11.7723 21.4622 11.5324 20.9609 11.5324C20.6022 11.5324 20.317 11.6695 20.1053 11.9436C19.8935 12.2178 19.7855 12.6119 19.7855 13.1259C19.7855 13.64 19.8935 14.0341 20.1053 14.3083C20.317 14.5824 20.6022 14.7195 20.9609 14.7195C21.4622 14.7195 21.8036 14.4796 21.9764 13.9955H24.055C23.8864 14.7366 23.5321 15.3149 22.9919 15.739C22.4518 16.1631 21.7863 16.373 20.9911 16.373C20.3646 16.373 19.8114 16.2402 19.3274 15.9789C18.8435 15.7176 18.4675 15.3363 18.1953 14.848C17.923 14.3554 17.7891 13.7814 17.7891 13.1259C17.7891 12.4705 17.923 11.8965 18.1953 11.4039V11.4082Z" fill="#42424A"/>
<path id="Vector_5" d="M28.9794 16.2871L27.0392 13.6355V16.2871H25.0859V7.9082H27.0392V12.5389L28.9708 9.96866H31.3821L28.7331 13.1386L31.408 16.2871H28.9881H28.9794Z" fill="#42424A"/>
<path id="Vector_6" d="M34.8881 10.1529C35.2295 9.97295 35.6228 9.88299 36.0635 9.88299C36.5907 9.88299 37.0661 10.0158 37.4896 10.2814C37.9174 10.547 38.2544 10.9239 38.5008 11.4123C38.7471 11.9049 38.8724 12.4746 38.8724 13.1215C38.8724 13.7683 38.7471 14.3423 38.5008 14.8349C38.2544 15.3276 37.9174 15.7088 37.4896 15.9787C37.0618 16.2486 36.5864 16.3814 36.0635 16.3814C35.6141 16.3814 35.2209 16.2914 34.8881 16.1158C34.5554 15.9401 34.2918 15.7045 34.1017 15.409V16.2914H32.1484V7.9082H34.1017V10.864C34.2832 10.5684 34.5468 10.3328 34.8881 10.1486V10.1529ZM36.4827 11.982C36.2148 11.7078 35.8777 11.5708 35.4845 11.5708C35.0912 11.5708 34.7671 11.7121 34.4949 11.9906C34.2227 12.269 34.0887 12.6503 34.0887 13.1343C34.0887 13.6184 34.2227 13.9996 34.4949 14.2781C34.7671 14.5565 35.0956 14.6979 35.4845 14.6979C35.8734 14.6979 36.2061 14.5565 36.4784 14.2738C36.7506 13.9911 36.8889 13.6055 36.8889 13.1257C36.8889 12.646 36.7549 12.2647 36.4827 11.9863V11.982Z" fill="#42424A"/>
<path id="Vector_7" d="M40.0428 9.01362C39.8268 8.81229 39.7188 8.56812 39.7188 8.27254C39.7188 7.97697 39.8268 7.71994 40.0428 7.51861C40.2589 7.31728 40.5398 7.21875 40.8812 7.21875C41.2226 7.21875 41.4948 7.31728 41.7109 7.51861C41.9269 7.71994 42.035 7.9684 42.035 8.27254C42.035 8.57668 41.9269 8.81229 41.7109 9.01362C41.4948 9.21495 41.2182 9.31348 40.8812 9.31348C40.5441 9.31348 40.2589 9.21495 40.0428 9.01362ZM41.8535 9.96888V16.2873H39.9002V9.96888H41.8535Z" fill="#42424A"/>
<path id="Vector_8" d="M46.8278 14.6467V16.2873H45.8339C45.1252 16.2873 44.5721 16.116 44.1789 15.7733C43.7813 15.4306 43.5825 14.8694 43.5825 14.0898V11.5753H42.8047V9.96889H43.5825V8.42676H45.5358V9.96889H46.8149V11.5753H45.5358V14.1112C45.5358 14.2997 45.5833 14.4368 45.674 14.5182C45.7648 14.5996 45.916 14.6424 46.1321 14.6424H46.8278V14.6467Z" fill="#42424A"/>
</g>
</g>
</svg>
