<svg width="90" height="28" viewBox="0 0 90 28" fill="none" xmlns="http://www.w3.org/2000/svg">
<g opacity="0.7">
<path d="M71.0549 13.7887C71.3821 13.978 71.5898 14.2804 71.6674 14.6905L68.6225 15.2605C68.606 14.8152 68.7156 14.4514 68.9512 14.1635C69.1867 13.8812 69.5099 13.6965 69.9153 13.6205C70.3426 13.539 70.7261 13.5987 71.0549 13.7887Z" fill="white"/>
<path fill-rule="evenodd" clip-rule="evenodd" d="M59.1377 8.22098L86.2579 3.15088L90 22.8203L62.8798 27.8905L59.1377 8.22098ZM63.0128 19.947C63.084 20.3108 63.2757 20.5932 63.5935 20.7941H63.599C63.9167 20.995 64.2893 21.0547 64.7165 20.9734C65.1328 20.8973 65.4506 20.7073 65.6753 20.4086C65.8998 20.1099 65.9765 19.7786 65.9052 19.4094C65.8341 19.0346 65.6369 18.7414 65.3192 18.5405C64.9959 18.3341 64.6289 18.2744 64.2126 18.3504C63.7852 18.4318 63.4619 18.6218 63.2374 18.926C63.0128 19.2301 62.9415 19.5723 63.0128 19.947ZM74.3691 15.5754L68.8635 16.6072C68.995 17.0904 69.225 17.4326 69.5538 17.639C69.8825 17.8454 70.2495 17.9105 70.6604 17.8345C71.2685 17.7204 71.641 17.3891 71.7835 16.8352L74.3747 16.3518C74.3417 16.8949 74.1883 17.4055 73.92 17.8834C73.6516 18.3612 73.279 18.7685 72.8025 19.0998C72.3258 19.431 71.7615 19.6591 71.1206 19.7786C70.3427 19.9252 69.6196 19.8872 68.9512 19.6755C68.2829 19.4582 67.7186 19.0781 67.2584 18.5296C66.8037 17.9811 66.4914 17.3023 66.338 16.4823C66.1846 15.6622 66.2175 14.9183 66.4367 14.2449C66.6557 13.5714 67.0392 13.0121 67.5871 12.5722C68.1295 12.1269 68.7978 11.8337 69.5866 11.687C70.3536 11.5458 71.0712 11.5784 71.7287 11.7848C72.386 11.9911 72.9394 12.3604 73.3885 12.8926C73.8378 13.4248 74.139 14.082 74.287 14.8694C74.3308 15.0974 74.3582 15.3309 74.3801 15.5808L74.3691 15.5754ZM76.2044 17.4598C76.5934 17.8128 77.0809 18.0517 77.6671 18.1875L77.6616 18.1658C78.2477 18.2962 78.8887 18.3015 79.579 18.1712C80.2254 18.0517 80.7732 17.8399 81.2225 17.5412C81.6716 17.2425 81.9949 16.8896 82.1866 16.4768C82.3784 16.0642 82.4332 15.6297 82.3456 15.168C82.2305 14.6251 82.0004 14.2177 81.6607 13.9462C81.3211 13.6746 80.954 13.501 80.5541 13.4249C80.1542 13.3488 79.6502 13.2891 79.0312 13.2511C78.4998 13.2349 78.0999 13.1914 77.8369 13.1262C77.5739 13.0611 77.4206 12.9144 77.3767 12.6863C77.3384 12.4962 77.3877 12.3333 77.5192 12.1976C77.6506 12.0618 77.8588 11.9695 78.1437 11.9152C78.4724 11.8554 78.7572 11.888 78.9928 12.0075C79.2283 12.127 79.3928 12.3225 79.4804 12.5886L81.7265 12.1704C81.4854 11.3776 81.0363 10.791 80.3679 10.4109C79.705 10.0308 78.8724 9.93301 77.8753 10.1177C77.2015 10.2425 76.6427 10.4598 76.1934 10.7693C75.7442 11.0789 75.432 11.4427 75.2512 11.8609C75.0704 12.279 75.0211 12.7134 75.1087 13.1643C75.2128 13.7019 75.432 14.0983 75.7662 14.3644C76.1003 14.6305 76.4728 14.7989 76.8782 14.8748C77.2836 14.9509 77.7876 14.9998 78.3792 15.0269C78.938 15.0595 79.3435 15.1083 79.6009 15.1735C79.8584 15.2386 80.0063 15.3799 80.0501 15.6079C80.0885 15.7981 80.0337 15.9664 79.8912 16.113C79.7433 16.2651 79.5188 16.3682 79.2174 16.4226C78.8833 16.4823 78.5874 16.4497 78.3299 16.3248C78.0724 16.2 77.9027 15.999 77.8205 15.7329L75.4155 16.1836C75.5524 16.6832 75.8155 17.1068 76.2044 17.4598Z" fill="white"/>
</g>
<g opacity="0.7">
<path d="M71.0601 13.7884C71.3874 13.9776 71.5952 14.28 71.6727 14.69L68.6277 15.2601C68.6113 14.8147 68.7209 14.4509 68.9564 14.1631C69.192 13.8806 69.5152 13.6961 69.9205 13.62C70.3479 13.5385 70.7314 13.5983 71.0601 13.7884Z" fill="white"/>
<path fill-rule="evenodd" clip-rule="evenodd" d="M53.74 5.07011L80.8602 0L84.6023 19.6695L57.4821 24.7395L53.74 5.07011ZM63.018 19.9466C63.0892 20.3105 63.2809 20.5929 63.5987 20.7939H63.6042C63.9219 20.9948 64.2945 21.0545 64.7218 20.973C65.1381 20.897 65.4558 20.7069 65.6805 20.4082C65.9051 20.1095 65.9818 19.7783 65.9106 19.409C65.8393 19.0344 65.6421 18.741 65.3244 18.5401C65.0011 18.3338 64.6341 18.274 64.2178 18.35C63.7904 18.4316 63.4673 18.6216 63.2426 18.9257C63.018 19.2299 62.9469 19.5719 63.018 19.9466ZM74.3745 15.575L68.8688 16.6068C69.0003 17.0902 69.2304 17.4323 69.559 17.6386C69.8877 17.845 70.2547 17.9101 70.6656 17.8342C71.2737 17.7201 71.6463 17.3889 71.7887 16.835L74.3799 16.3516C74.3471 16.8947 74.1937 17.4051 73.9252 17.883C73.6568 18.3609 73.2842 18.7683 72.8077 19.0995C72.331 19.4308 71.7667 19.6589 71.1258 19.7783C70.3479 19.9249 69.6248 19.8869 68.9564 19.6751C68.2881 19.4579 67.7238 19.0777 67.2636 18.5293C66.8089 17.9808 66.4966 17.302 66.3432 16.4819C66.1899 15.6619 66.2228 14.9179 66.4419 14.2445C66.6611 13.5712 67.0446 13.0118 67.5923 12.5719C68.1347 12.1266 68.803 11.8334 69.5919 11.6867C70.3589 11.5455 71.0765 11.5781 71.7339 11.7845C72.3913 11.9908 72.9446 12.3601 73.3939 12.8923C73.843 13.4245 74.1444 14.0816 74.2922 14.8691C74.3361 15.0972 74.3634 15.3307 74.3854 15.5804L74.3745 15.575ZM76.2096 17.4595C76.5986 17.8125 77.0861 18.0514 77.6723 18.1871L77.6669 18.1655C78.2531 18.2958 78.8939 18.3012 79.5842 18.1709C80.2306 18.0514 80.7785 17.8397 81.2277 17.541C81.677 17.2423 82.0001 16.8892 82.1919 16.4766C82.3836 16.0638 82.4384 15.6294 82.3508 15.1678C82.2357 14.6247 82.0056 14.2175 81.666 13.9459C81.3263 13.6744 80.9593 13.5006 80.5593 13.4245C80.1595 13.3486 79.6555 13.2888 79.0364 13.2508C78.505 13.2345 78.1051 13.191 77.8422 13.1258C77.5792 13.0607 77.4258 12.9141 77.382 12.6861C77.3436 12.4959 77.3929 12.333 77.5244 12.1973C77.6559 12.0615 77.864 11.9692 78.1489 11.9149C78.4776 11.8551 78.7625 11.8877 78.9981 12.0072C79.2337 12.1267 79.398 12.3222 79.4856 12.5883L81.7317 12.1701C81.4906 11.3772 81.0415 10.7907 80.3731 10.4106C79.7102 10.0305 78.8776 9.93271 77.8805 10.1173C77.2067 10.2423 76.6479 10.4595 76.1987 10.769C75.7494 11.0786 75.4372 11.4424 75.2564 11.8606C75.0756 12.2787 75.0263 12.7132 75.1139 13.1639C75.218 13.7015 75.4372 14.0979 75.7714 14.364C76.1055 14.6301 76.4781 14.7985 76.8834 14.8746C77.2889 14.9506 77.7929 14.9994 78.3846 15.0266C78.9432 15.0591 79.3487 15.1081 79.6061 15.1732C79.8636 15.2384 80.0116 15.3796 80.0554 15.6077C80.0937 15.7977 80.0389 15.9661 79.8965 16.1128C79.7486 16.2648 79.524 16.3679 79.2227 16.4222C78.8885 16.482 78.5927 16.4495 78.3352 16.3245C78.0778 16.1996 77.9079 15.9987 77.8257 15.7326L75.4207 16.1834C75.5578 16.683 75.8207 17.1065 76.2096 17.4595Z" fill="white"/>
</g>
<path d="M7.57644 16.3519C7.93252 16.808 8.1133 17.324 8.1133 17.9105C8.1133 18.7522 7.81747 19.4202 7.22582 19.9144C6.63417 20.4085 5.80147 20.6529 4.74417 20.6529H0V10.5737H4.57435C5.60974 10.5737 6.41504 10.8072 7.00122 11.2743C7.58739 11.7413 7.87774 12.3821 7.87774 13.1859C7.87774 13.7778 7.71887 14.2719 7.40661 14.6629C7.09435 15.054 6.678 15.3255 6.15209 15.483C6.74374 15.6079 7.21487 15.8956 7.57095 16.3519H7.57644ZM2.47617 14.6521H4.09774C4.50313 14.6521 4.81539 14.5652 5.03452 14.386C5.25365 14.2068 5.35774 13.9461 5.35774 13.604C5.35774 13.2619 5.24817 12.9957 5.03452 12.8166C4.82087 12.6374 4.5086 12.545 4.09774 12.545H2.47617V14.6576V14.6521ZM5.2646 18.3937C5.48922 18.2091 5.60427 17.9376 5.60427 17.5846C5.60427 17.2316 5.48374 16.9547 5.24817 16.7538C5.0126 16.5528 4.68392 16.4496 4.27304 16.4496H2.47617V18.6762H4.30044C4.71678 18.6762 5.03452 18.5839 5.2646 18.3937Z" fill="white"/>
<path d="M12.0238 10.0254V20.6476H9.54761V10.0254H12.0238Z" fill="white"/>
<path d="M15.3634 20.2625C14.7335 19.9258 14.2349 19.4479 13.8733 18.8289C13.5118 18.2097 13.331 17.4766 13.331 16.6457C13.331 15.8148 13.5118 15.098 13.8789 14.4736C14.2459 13.8489 14.7498 13.3657 15.3854 13.029C16.0209 12.6923 16.7385 12.5239 17.5273 12.5239C18.3162 12.5239 19.0339 12.6923 19.6694 13.029C20.3048 13.3657 20.8088 13.8435 21.1758 14.4736C21.543 15.098 21.7238 15.8257 21.7238 16.6457C21.7238 17.4658 21.5374 18.1935 21.1649 18.818C20.7924 19.4479 20.2884 19.9258 19.642 20.2625C18.9956 20.5992 18.2834 20.7621 17.489 20.7621C16.6947 20.7621 15.9825 20.5938 15.3525 20.2625H15.3634ZM18.7106 18.1229C19.0448 17.7807 19.2092 17.2865 19.2092 16.6457C19.2092 16.005 19.0504 15.5107 18.7216 15.1687C18.3984 14.8265 17.9985 14.6527 17.5273 14.6527C17.0562 14.6527 16.6454 14.821 16.3277 15.1632C16.0098 15.4999 15.851 15.9995 15.851 16.6511C15.851 17.3029 16.0098 17.7861 16.3222 18.1283C16.6345 18.4705 17.0288 18.6441 17.4999 18.6441C17.9711 18.6441 18.3764 18.4705 18.7106 18.1283V18.1229Z" fill="white"/>
<path d="M23.0668 14.4627C23.4064 13.8382 23.8885 13.3602 24.502 13.029C25.1156 12.6977 25.8169 12.5239 26.6111 12.5239C27.6247 12.5239 28.4738 12.79 29.1531 13.3113C29.8324 13.8382 30.2816 14.5821 30.4953 15.5379H27.8602C27.6356 14.9242 27.2084 14.6201 26.5728 14.6201C26.1181 14.6201 25.7566 14.7939 25.4882 15.1414C25.2197 15.489 25.0827 15.9886 25.0827 16.6402C25.0827 17.292 25.2197 17.7916 25.4882 18.1392C25.7566 18.4867 26.1181 18.6605 26.5728 18.6605C27.2084 18.6605 27.6412 18.3564 27.8602 17.7427H30.4953C30.2816 18.6822 29.8324 19.4153 29.1476 19.953C28.4629 20.4906 27.6192 20.7567 26.6111 20.7567C25.8169 20.7567 25.1156 20.5883 24.502 20.2571C23.8885 19.9258 23.4119 19.4424 23.0668 18.8234C22.7216 18.1989 22.5518 17.4712 22.5518 16.6402C22.5518 15.8094 22.7216 15.0817 23.0668 14.4572V14.4627Z" fill="white"/>
<path d="M36.7381 20.6476L34.2784 17.2861V20.6476H31.8022V10.0254H34.2784V15.8959L36.7272 12.6375H39.7841L36.4259 16.6561L39.8169 20.6476H36.7491H36.7381Z" fill="white"/>
<path d="M44.2288 12.8711C44.6616 12.6429 45.1602 12.5289 45.7189 12.5289C46.3872 12.5289 46.9899 12.6973 47.5268 13.034C48.0691 13.3707 48.4963 13.8485 48.8087 14.4677C49.1209 15.0921 49.2798 15.8144 49.2798 16.6345C49.2798 17.4544 49.1209 18.1821 48.8087 18.8066C48.4963 19.4312 48.0691 19.9145 47.5268 20.2566C46.9844 20.5988 46.3818 20.7671 45.7189 20.7671C45.1491 20.7671 44.6507 20.653 44.2288 20.4304C43.807 20.2077 43.4728 19.909 43.2318 19.5344V20.653H40.7556V10.0254H43.2318V13.7726C43.4619 13.3978 43.7961 13.0991 44.2288 12.8656V12.8711ZM46.2503 15.1899C45.9107 14.8423 45.4833 14.6686 44.9848 14.6686C44.4862 14.6686 44.0754 14.8477 43.7303 15.2008C43.3852 15.5537 43.2153 16.0371 43.2153 16.6507C43.2153 17.2644 43.3852 17.7477 43.7303 18.1007C44.0754 18.4537 44.4918 18.6329 44.9848 18.6329C45.4779 18.6329 45.8996 18.4537 46.2448 18.0953C46.5899 17.7369 46.7652 17.248 46.7652 16.6398C46.7652 16.0317 46.5954 15.5483 46.2503 15.1953V15.1899Z" fill="white"/>
<path d="M50.7636 11.4268C50.4897 11.1716 50.3528 10.862 50.3528 10.4873C50.3528 10.1126 50.4897 9.78674 50.7636 9.53151C51.0375 9.27628 51.3936 9.15137 51.8264 9.15137C52.2592 9.15137 52.6043 9.27628 52.8783 9.53151C53.1521 9.78674 53.2891 10.1017 53.2891 10.4873C53.2891 10.8729 53.1521 11.1716 52.8783 11.4268C52.6043 11.682 52.2537 11.8069 51.8264 11.8069C51.3991 11.8069 51.0375 11.682 50.7636 11.4268ZM53.059 12.6378V20.6479H50.5828V12.6378H53.059Z" fill="white"/>
<path d="M59.3651 18.5678V20.6477H58.1051C57.2067 20.6477 56.5055 20.4305 56.007 19.9961C55.503 19.5616 55.2509 18.8502 55.2509 17.8618V14.6741H54.2649V12.6376H55.2509V10.6826H57.7272V12.6376H59.3488V14.6741H57.7272V17.889C57.7272 18.1279 57.7874 18.3017 57.9024 18.4049C58.0175 18.5081 58.2092 18.5624 58.4831 18.5624H59.3651V18.5678Z" fill="white"/>
</svg>
