<svg width="528" height="211" viewBox="0 0 528 211" fill="none" xmlns="http://www.w3.org/2000/svg">
<path d="M222.36 156.267C222.36 157.237 222.003 158.057 221.288 158.73C220.653 159.327 219.79 159.631 218.918 159.631H184.392C183.647 159.631 182.564 159.24 182.022 158.73C181.307 158.057 180.95 157.237 180.95 156.267V112.687C180.95 111.943 181.341 110.86 181.852 110.318C182.526 109.604 183.347 109.247 184.319 109.247H218.913C219.659 109.247 220.743 109.637 221.286 110.147C222.002 110.82 222.36 111.641 222.36 112.612V156.267ZM236.948 100.59C235.441 98.0466 233.386 96.0496 230.784 94.6C228.181 93.1504 225.264 92.425 222.032 92.425H175.76C169.321 92.425 164.101 97.6363 164.101 104.065V210.097H180.95V176.447V167.334C180.951 167.255 180.961 167.179 180.961 167.1V166.937C180.961 164.385 182.93 162.15 185.486 162.084C188.108 162.017 190.255 164.12 190.254 166.722V167.17C190.254 172.293 194.414 176.447 199.546 176.447L222.032 176.453C222.63 176.453 223.212 176.42 223.788 176.371H229.128C234.688 176.371 239.194 171.871 239.194 166.32C239.194 166.255 239.201 166.192 239.203 166.128V152.723C239.203 152.7 239.2 152.678 239.2 152.655L239.203 134.398V133.382L239.208 109.247C239.208 106.02 238.455 103.134 236.948 100.59Z" fill="#FF202E"/>
<path d="M263.038 112.611C263.038 111.682 263.38 110.888 264.065 110.232C264.75 109.575 265.531 109.247 266.408 109.247H300.853C301.839 109.247 302.647 109.575 303.277 110.232C303.907 110.888 304.223 111.682 304.223 112.611V122.705C304.223 123.635 303.907 124.427 303.277 125.085C302.647 125.741 301.839 126.069 300.853 126.069H266.408C265.531 126.069 264.75 125.728 264.065 125.044C263.38 124.36 263.038 123.58 263.038 122.705V112.611ZM358.878 158.73C358.163 158.057 357.805 157.238 357.805 156.266V112.611C357.805 111.642 358.164 110.819 358.879 110.147C359.423 109.637 360.507 109.247 361.252 109.247H387.722V92.4248H380.923H376.445C371.275 92.4248 367.083 96.6094 367.083 101.771V101.935C367.083 104.487 365.114 106.722 362.559 106.788C359.937 106.855 357.79 104.752 357.79 102.149V101.702C357.79 96.5781 353.63 92.4248 348.499 92.4248H345.806H345.046H340.849H328.271V109.247H337.506C338.253 109.247 339.339 109.637 339.883 110.147C340.599 110.819 340.957 111.642 340.957 112.611V156.192C340.957 156.937 340.566 158.018 340.055 158.56C339.382 159.274 338.558 159.631 337.587 159.631H337.327H337.143H334.381C329.37 159.812 325.36 163.913 325.36 168.961V169.124C325.36 171.676 323.39 173.911 320.835 173.977C318.213 174.044 316.066 171.941 316.067 169.339V168.891C316.067 163.882 312.088 159.811 307.116 159.631H299.889H287.918H266.408C265.531 159.631 264.75 159.303 264.065 158.647C263.38 157.99 263.038 157.198 263.038 156.266V146.174C263.038 145.299 263.38 144.519 264.065 143.835C264.75 143.152 265.531 142.809 266.408 142.809H321.071V109.575C321.071 106.293 320.345 103.353 318.893 100.754C317.441 98.1564 315.414 96.1174 312.812 94.6401C310.209 93.1635 307.235 92.4248 303.894 92.4248H263.367C260.133 92.4248 257.216 93.1635 254.614 94.6401C252.011 96.1174 249.956 98.1564 248.45 100.754C246.942 103.353 246.19 106.293 246.19 109.575L246.198 152.455C246.198 152.484 246.195 152.512 246.195 152.541V166.101C246.195 166.107 246.195 166.113 246.195 166.12V166.32C246.195 171.871 250.703 176.371 256.263 176.371H261.637C262.204 176.42 262.779 176.453 263.367 176.453H331.417H337.327H371.356V159.631H361.243C360.373 159.631 359.511 159.327 358.878 158.73Z" fill="#FF202E"/>
<path d="M140.308 65.2714C140.308 66.1213 140.034 66.8557 139.486 67.477C138.803 68.2512 137.778 68.6361 136.744 68.6361H102.423C101.39 68.6361 100.364 68.2512 99.6812 67.4764C99.133 66.8551 98.8595 66.1213 98.8595 65.2714V55.3738C98.8595 54.3417 99.2444 53.3179 100.019 52.6352C100.641 52.0873 101.377 51.8136 102.229 51.8136H136.744C137.776 51.8136 138.8 52.1974 139.484 52.9697C140.034 53.5916 140.308 54.3278 140.308 55.1783V65.2714ZM184.407 18.2522H210.979V18.2516H239.187V1.4297H239.186H238.409C233.239 1.4297 229.048 5.61428 229.048 10.7763V10.9393C229.048 13.4914 227.079 15.7271 224.524 15.7927C221.901 15.8601 219.754 13.7567 219.755 11.154V10.7065C219.755 5.58299 215.595 1.4297 210.463 1.4297H208.639H207.01H205.185H201.064H181.366C178.079 1.4297 175.132 2.16773 172.53 3.645C169.927 5.12166 167.887 7.16132 166.408 9.75855C164.928 12.3576 164.188 15.2977 164.188 18.58V34.7451C164.188 37.9739 164.928 40.8869 166.408 43.4848C167.887 46.0838 169.928 48.121 172.53 49.5977C175.132 51.075 178.079 51.8136 181.366 51.8136H218.773C219.805 51.8136 220.83 52.1974 221.513 52.9697C222.063 53.5916 222.339 54.3278 222.339 55.1783V65.0783C222.339 66.1092 221.954 67.1318 221.18 67.8133C220.557 68.3612 219.82 68.6361 218.969 68.6361H191.867H187.959C182.789 68.6361 178.597 72.8207 178.597 77.9827V78.1457C178.597 80.6978 176.628 82.9329 174.073 82.9985C171.45 83.0659 169.304 80.9625 169.304 78.3604V77.9129C169.304 72.7894 165.144 68.6361 160.013 68.6361H160.227C160.223 68.6349 160.218 68.6331 160.214 68.6325V68.6217C158.904 68.5128 157.884 67.7128 157.157 66.2127V18.58C157.157 15.2977 156.418 12.3576 154.938 9.75855C153.458 7.16132 151.417 5.12166 148.815 3.645C146.212 2.16773 143.268 1.4297 139.98 1.4297H82.0141V18.2522L110.219 18.2516H136.744C137.776 18.2516 138.8 18.6354 139.484 19.4077C140.034 20.0296 140.308 20.7658 140.308 21.6163V31.5163C140.308 32.5466 139.924 33.5692 139.15 34.2507C138.528 34.7992 137.79 35.0735 136.939 35.0735H99.1878C95.9009 35.0735 92.9544 35.8121 90.3531 37.2888C87.7499 38.7667 85.7095 40.8051 84.2299 43.403C82.7503 46.0014 82.0105 48.915 82.0105 52.1414V68.3071C82.0105 71.59 82.7503 74.5313 84.2299 77.1286C85.7095 79.7282 87.7499 81.7649 90.3531 83.2421C92.9544 84.7194 95.9009 85.458 99.1878 85.458H120.918H121.743C126.913 85.458 131.104 81.2728 131.104 76.1108V75.9478C131.104 73.3963 133.074 71.1606 135.629 71.095C138.251 71.0276 140.398 73.131 140.398 75.7337V76.1812C140.398 81.3041 144.557 85.458 149.689 85.458H152.226H153.142H156.352H170.298H174.17H222.01C225.297 85.458 228.242 84.7194 230.845 83.2421C233.447 81.7649 235.489 79.7282 236.968 77.1286C238.447 74.5313 239.187 71.59 239.187 68.3077V52.1414C239.187 48.915 238.447 46.0014 236.968 43.403C235.489 40.8051 233.447 38.7667 230.845 37.2888C228.242 35.8121 225.297 35.0735 222.01 35.0735H184.601C183.568 35.0735 182.542 34.6892 181.859 33.915C181.311 33.2937 181.037 32.5593 181.037 31.7094V21.8124C181.037 20.7803 181.422 19.7559 182.197 19.0732C182.819 18.5253 183.555 18.2522 184.407 18.2522Z" fill="#FF202E"/>
<path d="M16.8483 65.2714V21.8118C16.8483 20.7803 17.2332 19.7559 18.008 19.0732C18.6303 18.5253 19.3665 18.2516 20.2177 18.2516H46.8177H75.0257L75.0262 1.4297H74.2485C69.0784 1.4297 64.8872 5.61428 64.8872 10.7763V10.9393C64.8872 13.4914 62.9179 15.7271 60.3629 15.7927C57.7405 15.8601 55.5934 13.7567 55.594 11.154V10.7065C55.594 5.58299 51.4342 1.4297 46.3026 1.4297H42.8495H38.6427H17.1772C13.8897 1.4297 10.9438 2.16773 8.34187 3.645C5.73874 5.12166 3.69828 7.16132 2.2187 9.75855C0.739716 12.3576 -7.62939e-05 15.2977 -7.62939e-05 18.5794V68.3071C-7.62939e-05 71.59 0.739716 74.5313 2.2187 77.1286C3.69828 79.7282 5.73874 81.7649 8.34187 83.2421C10.9438 84.7194 13.8897 85.458 17.1772 85.458H75.0262V68.6361H20.4117C19.3785 68.6361 18.3538 68.2512 17.6706 67.4764C17.1224 66.8551 16.8483 66.1213 16.8483 65.2714Z" fill="#FF202E"/>
<path d="M248.198 42.6307H276.805V38.2458H253.626V22.8988H270.34V18.5139H253.626V4.44577H276.805V0H248.198V42.6307Z" fill="#FF202E"/>
<path d="M292.314 43.3615C296.137 43.3615 299.329 42.1638 301.891 39.7684C304.493 37.3323 306.018 33.9016 306.465 29.4761H301.464C301.098 32.6429 300.081 35.079 298.414 36.7842C296.787 38.4894 294.774 39.342 292.375 39.342C289.569 39.342 287.292 38.2458 285.544 36.0534C283.836 33.8204 282.982 30.6129 282.982 26.431C282.982 22.3304 283.856 19.1635 285.604 16.9305C287.353 14.6974 289.61 13.5809 292.375 13.5809C294.693 13.5809 296.686 14.3929 298.353 16.017C300.02 17.641 301.057 20.0161 301.464 23.1424H306.465C305.937 18.7981 304.392 15.4486 301.83 13.0937C299.268 10.7389 296.096 9.56146 292.314 9.56146C288.044 9.56146 284.547 11.0637 281.823 14.0681C279.139 17.032 277.797 21.1732 277.797 26.4919C277.797 31.8106 279.139 35.9519 281.823 38.9157C284.507 41.8796 288.004 43.3615 292.314 43.3615Z" fill="#FF202E"/>
<path d="M324.143 43.3615C325.404 43.3615 326.583 43.2397 327.681 42.9961C328.819 42.7525 329.877 42.3871 330.853 41.8999C331.869 41.4127 332.784 40.824 333.598 40.1338C334.451 39.4029 335.204 38.5706 335.854 37.6368C336.546 36.703 337.115 35.6677 337.562 34.5309C338.01 33.394 338.355 32.1557 338.599 30.8159C338.843 29.4761 338.965 28.0348 338.965 26.4919C338.965 24.9491 338.843 23.5078 338.599 22.168C338.355 20.8281 338.01 19.5898 337.562 18.453C337.115 17.2756 336.546 16.22 335.854 15.2861C335.204 14.3523 334.451 13.5403 333.598 12.8501C332.784 12.1193 331.869 11.5103 330.853 11.0231C329.877 10.5359 328.819 10.1705 327.681 9.92686C326.583 9.68326 325.404 9.56146 324.143 9.56146C322.923 9.56146 321.744 9.68326 320.605 9.92686C319.467 10.1705 318.409 10.5359 317.433 11.0231C316.457 11.5103 315.542 12.1193 314.689 12.8501C313.875 13.5403 313.123 14.3523 312.432 15.2861C311.781 16.22 311.232 17.2756 310.785 18.453C310.337 19.5898 309.992 20.8281 309.748 22.168C309.504 23.5078 309.382 24.9491 309.382 26.4919C309.382 31.8106 310.744 35.9519 313.469 38.9157C316.234 41.8796 319.792 43.3615 324.143 43.3615ZM324.143 39.342C321.337 39.342 319.04 38.2458 317.25 36.0534C315.461 33.8204 314.567 30.6129 314.567 26.431C314.567 22.2898 315.461 19.1229 317.25 16.9305C319.04 14.6974 321.337 13.5809 324.143 13.5809C326.949 13.5809 329.246 14.6974 331.036 16.9305C332.825 19.1229 333.72 22.3101 333.72 26.4919C333.72 30.6332 332.825 33.8204 331.036 36.0534C329.246 38.2458 326.949 39.342 324.143 39.342Z" fill="#FF202E"/>
<path d="M355.891 43.3006C359.673 43.3006 362.662 42.3871 364.857 40.5601C367.094 38.6924 368.212 36.4188 368.212 33.7392C368.212 33.0489 368.131 32.4196 367.968 31.8512C367.846 31.2828 367.663 30.755 367.419 30.2678C367.175 29.7806 366.87 29.334 366.504 28.928C366.138 28.522 365.732 28.1566 365.284 27.8318C364.837 27.4664 364.349 27.1618 363.82 26.9182C363.332 26.634 362.804 26.3701 362.235 26.1265C361.706 25.8829 361.137 25.6596 360.527 25.4566C359.917 25.2536 359.307 25.0709 358.697 24.9085C358.087 24.7055 357.477 24.5228 356.867 24.3604C356.257 24.198 355.647 24.0356 355.037 23.8732C352.922 23.3048 351.072 22.6349 349.486 21.8635C347.941 21.0514 347.168 19.8334 347.168 18.2094C347.168 16.7884 347.778 15.6516 348.998 14.7989C350.218 13.9057 351.926 13.4591 354.122 13.4591C356.521 13.4591 358.493 14.0681 360.039 15.2861C361.625 16.4636 362.662 18.3109 363.149 20.8281H368.029C367.46 17.2147 365.935 14.4538 363.454 12.5456C361.015 10.5968 357.883 9.62236 354.061 9.62236C350.401 9.62236 347.494 10.4953 345.338 12.2411C343.183 13.9463 342.106 16.0576 342.106 18.5748C342.106 19.265 342.167 19.8943 342.289 20.4627C342.411 21.0311 342.594 21.5793 342.838 22.1071C343.082 22.5943 343.366 23.0409 343.692 23.4469C344.017 23.8529 344.383 24.2386 344.789 24.604C345.196 24.9288 345.643 25.2333 346.131 25.5175C346.619 25.8017 347.107 26.0656 347.595 26.3092C348.124 26.5122 348.673 26.7152 349.242 26.9182C349.812 27.1212 350.381 27.3242 350.95 27.5273C351.56 27.6897 352.15 27.8521 352.719 28.0145C353.329 28.1363 353.919 28.2784 354.488 28.4408C356.806 29.0092 358.839 29.6791 360.588 30.4505C362.336 31.2219 363.21 32.5008 363.21 34.2873C363.21 35.8707 362.56 37.1496 361.259 38.124C359.957 39.0578 358.148 39.5247 355.83 39.5247C353.268 39.5247 351.194 38.8548 349.608 37.515C348.022 36.1752 346.985 34.1249 346.497 31.364H341.618C342.146 35.3835 343.671 38.3879 346.192 40.3774C348.754 42.3262 351.987 43.3006 355.891 43.3006Z" fill="#FF202E"/>
<path d="M372.314 53.7756H376.706C378.657 53.7756 380.264 53.3899 381.524 52.6185C382.826 51.8876 383.863 50.4869 384.635 48.4163L398.786 10.2923H393.48L384.086 36.3579L373.961 10.2923H368.349L381.524 43.4833L380.792 45.7366C380.264 47.3201 379.593 48.3757 378.779 48.9035C378.007 49.4719 377.031 49.7561 375.852 49.7561H372.314V53.7756Z" fill="#FF202E"/>
<path d="M413.402 43.3006C417.184 43.3006 420.172 42.3871 422.368 40.5601C424.605 38.6924 425.723 36.4188 425.723 33.7392C425.723 33.0489 425.642 32.4196 425.479 31.8512C425.357 31.2828 425.174 30.755 424.93 30.2678C424.686 29.7806 424.381 29.334 424.015 28.928C423.649 28.522 423.243 28.1566 422.795 27.8318C422.348 27.4664 421.86 27.1618 421.331 26.9182C420.843 26.634 420.315 26.3701 419.745 26.1265C419.217 25.8829 418.648 25.6596 418.038 25.4566C417.428 25.2536 416.818 25.0709 416.208 24.9085C415.598 24.7055 414.988 24.5228 414.378 24.3604C413.768 24.198 413.158 24.0356 412.548 23.8732C410.433 23.3048 408.583 22.6349 406.997 21.8635C405.452 21.0514 404.679 19.8334 404.679 18.2094C404.679 16.7884 405.289 15.6516 406.509 14.7989C407.729 13.9057 409.437 13.4591 411.633 13.4591C414.032 13.4591 416.004 14.0681 417.55 15.2861C419.135 16.4636 420.172 18.3109 420.66 20.8281H425.54C424.971 17.2147 423.446 14.4538 420.965 12.5456C418.526 10.5968 415.394 9.62236 411.572 9.62236C407.912 9.62236 405.005 10.4953 402.849 12.2411C400.694 13.9463 399.617 16.0576 399.617 18.5748C399.617 19.265 399.678 19.8943 399.799 20.4627C399.921 21.0311 400.104 21.5793 400.348 22.1071C400.592 22.5943 400.877 23.0409 401.202 23.4469C401.528 23.8529 401.894 24.2386 402.3 24.604C402.707 24.9288 403.154 25.2333 403.642 25.5175C404.13 25.8017 404.618 26.0656 405.106 26.3092C405.635 26.5122 406.184 26.7152 406.753 26.9182C407.322 27.1212 407.892 27.3242 408.461 27.5273C409.071 27.6897 409.661 27.8521 410.23 28.0145C410.84 28.1363 411.43 28.2784 411.999 28.4408C414.317 29.0092 416.35 29.6791 418.099 30.4505C419.847 31.2219 420.721 32.5008 420.721 34.2873C420.721 35.8707 420.071 37.1496 418.769 38.124C417.468 39.0578 415.659 39.5247 413.341 39.5247C410.779 39.5247 408.705 38.8548 407.119 37.515C405.533 36.1752 404.496 34.1249 404.008 31.364H399.129C399.657 35.3835 401.182 38.3879 403.703 40.3774C406.265 42.3262 409.498 43.3006 413.402 43.3006Z" fill="#FF202E"/>
<path d="M440.454 42.6307H448.566V38.6112H442.711C441.369 38.6112 440.413 38.3676 439.844 37.8804C439.275 37.3526 438.99 36.5 438.99 35.3226V14.3117H448.566V10.2923H438.99V3.83676H433.805V10.2923H426.242V14.3117H433.805V36.297C433.805 38.3676 434.334 39.9511 435.391 41.0473C436.489 42.1029 438.177 42.6307 440.454 42.6307Z" fill="#FF202E"/>
<path d="M463.953 43.3615C467.613 43.3615 470.663 42.2856 473.103 40.1338C475.543 37.9413 477.129 34.876 477.861 30.9377H472.859C472.249 33.658 471.151 35.7489 469.565 37.2105C468.02 38.6721 466.149 39.4029 463.953 39.4029C461.188 39.4029 458.931 38.327 457.183 36.1752C455.475 34.0234 454.601 30.9377 454.56 26.9182H478.288V26.1265C478.288 24.8273 478.186 23.589 477.983 22.4116C477.82 21.2341 477.556 20.1379 477.19 19.1229C476.864 18.0673 476.437 17.1132 475.909 16.2606C475.421 15.408 474.851 14.6365 474.201 13.9463C473.591 13.2155 472.9 12.5862 472.127 12.0584C471.354 11.49 470.541 11.0231 469.687 10.6577C468.833 10.2923 467.918 10.0284 466.942 9.86596C466.007 9.66296 465.031 9.56146 464.014 9.56146C459.745 9.56146 456.247 11.084 453.523 14.129C450.798 17.1741 449.436 21.295 449.436 26.4919C449.436 31.8106 450.778 35.9519 453.462 38.9157C456.186 41.8796 459.684 43.3615 463.953 43.3615ZM463.953 13.52C466.312 13.52 468.304 14.3523 469.931 16.017C471.558 17.6816 472.595 20.0973 473.042 23.2642H454.804C455.21 20.1785 456.247 17.7831 457.915 16.0779C459.582 14.3726 461.595 13.52 463.953 13.52Z" fill="#FF202E"/>
<path d="M481.692 42.6307H486.938V18.2094C487.751 16.8696 488.849 15.7937 490.231 14.9816C491.614 14.129 493.18 13.7027 494.928 13.7027C497.083 13.7027 498.812 14.3726 500.113 15.7125C501.455 17.0523 502.126 18.9199 502.126 21.3153V42.6307H507.372V20.6454C507.372 20.1582 507.331 19.671 507.25 19.1838C507.209 18.6966 507.148 18.25 507.067 17.844C507.961 16.5854 509.079 15.5907 510.421 14.8598C511.763 14.0884 513.309 13.7027 515.057 13.7027C517.294 13.7027 519.103 14.3726 520.486 15.7125C521.868 17.0523 522.56 18.9199 522.56 21.3153V42.6307H527.806V20.6454C527.806 17.3568 526.769 14.7177 524.695 12.7283C522.661 10.7389 519.978 9.74416 516.643 9.74416C514.366 9.74416 512.333 10.2314 510.543 11.2058C508.754 12.1802 507.29 13.4794 506.152 15.1034C505.298 13.4388 504.037 12.1396 502.37 11.2058C500.743 10.2314 498.832 9.74416 496.636 9.74416C494.603 9.74416 492.753 10.2111 491.085 11.1449C489.418 12.0381 488.036 13.2358 486.938 14.738V10.2923H481.692V42.6307Z" fill="#FF202E"/>
</svg>
