<svg width="153" height="173" viewBox="0 0 153 173" fill="none" xmlns="http://www.w3.org/2000/svg">
<path d="M76.5273 74.7935C45.8592 74.7935 21 99.7359 21 130.507V172.3H132.055V130.507C132.055 99.7359 107.196 74.7935 76.5273 74.7935Z" fill="white"/>
<path d="M115.412 117.616C111.721 113.913 105.758 113.913 102.068 117.616L102 117.547C98.3092 113.844 92.3294 113.844 88.6389 117.547C84.9485 121.25 84.9485 127.25 88.6389 130.952L88.7073 131.021L102.068 144.444L115.429 131.038C119.119 127.335 119.119 121.336 115.429 117.633L115.412 117.616Z" fill="#FF202E"/>
<path d="M30.1895 168.958V126.101" stroke="#161A39" stroke-width="3" stroke-miterlimit="10"/>
<path d="M30.1895 117.581C30.1895 117.581 35.4176 96.7874 45.8909 93.5132" stroke="#161A39" stroke-width="3" stroke-miterlimit="10"/>
<path d="M76.5273 88.7133C91.8608 88.7133 104.291 76.2415 104.291 60.8567C104.291 45.4719 91.8608 33 76.5273 33C61.1939 33 48.7637 45.4719 48.7637 60.8567C48.7637 76.2415 61.1939 88.7133 76.5273 88.7133Z" fill="white" stroke="#161A39" stroke-width="5" stroke-miterlimit="10"/>
</svg>
