<svg width="1438" height="900" viewBox="0 0 1438 900" fill="none" xmlns="http://www.w3.org/2000/svg">
<g clip-path="url(#clip0_89_939)">
<rect width="1440" height="900" fill="white"/>
<path d="M2807.44 1085.39C2801.93 1078.97 2757.81 964.187 2710.01 830.147C2662.21 696.107 2625.42 583.19 2629.1 579.518C2631.86 575.845 2671.37 575.845 2715.49 579.518C2760.54 583.19 2799.18 584.108 2801.01 579.518C2802.85 575.845 2790.91 553.803 2774.36 529.015C2757.81 505.144 2683.33 397.753 2608.87 291.255C2534.41 183.839 2475.56 92.0217 2478.32 86.5133C2481.08 81.0048 2504.06 89.2676 2530.72 104.875C2557.38 119.564 2588.65 134.262 2599.68 137.016C2615.31 140.689 2618.99 137.935 2614.39 129.672C2610.71 124.163 2581.3 80.9962 2550.04 36.0101C2517.87 -8.97595 2492.12 -49.3552 2492.12 -53.9457C2492.12 -57.618 2495.79 -60.3806 2501.31 -60.3806C2506.82 -60.3806 2550.03 -37.4199 2597.83 -9.87744C2645.64 17.665 2691.61 38.7644 2698.97 36.0101C2710 32.3378 2705.39 11.2297 2670.46 -86.0871L2665.14 -100.979C2642.87 -163.25 2615.14 -240.821 2601.54 -280.722C2586.83 -323.872 2577.62 -361.513 2582.22 -365.186C2585.89 -368.858 2615.32 -346.824 2648.42 -317.445C2681.51 -287.148 2714.6 -263.278 2721.96 -262.36C2733.91 -262.36 2734.83 -278.886 2721.96 -501.062L2558.32 -826.992L2481.08 -882.987C2438.79 -913.283 2364.36 -961.934 2314.72 -990.395C2266 -1018.86 2221.86 -1042.75 2216.34 -1042.75C2210.83 -1042.75 2205.3 -1039.99 2202.54 -1036.32C2200.71 -1031.73 2215.41 -942.654 2234.72 -836.156C2254.94 -729.658 2271.5 -634.177 2271.5 -623.16C2271.5 -611.225 2225.53 -501.971 2067.42 -156.771L2049.95 26.8461C2040.75 127.835 2031.56 225.128 2029.72 242.571C2027.88 268.278 2010.41 293.092 1945.14 364.702C1899.18 414.279 1861.5 458.322 1859.66 462.912C1858.74 468.421 1923.1 577.699 2002.16 706.231C2068.43 813.963 2121.72 894.693 2146.69 926.469C2154.28 936.125 2159.25 941.261 2161.18 941.261C2170.37 940.649 2171.29 942.766 2163.94 947.662C2163.14 948.164 2162.46 948.733 2161.92 949.372L2161.81 949.509C2157.61 954.75 2162.09 964.635 2175.89 981.657C2187.84 996.346 2197.97 1007.35 2197.97 1004.6C2197.97 1001.85 2191.53 983.493 2183.26 963.295C2174.99 943.097 2135.46 860.469 2095.01 779.677C2055.48 698.886 2020.55 619.913 2018.72 605.224C2014.12 578.6 2015.95 578.6 2054.56 623.586C2072.82 643.284 2137.53 720.955 2211.77 810.071C2230.95 833.101 2250.77 856.895 2270.6 880.65C2413.08 1052.33 2443.4 1092.73 2430.53 1097.32C2428.88 1097.98 2427.22 1098.56 2425.55 1099.04L2487.54 1096.41L2376.31 910.029C2314.72 808.122 2266.91 721.829 2268.75 718.157C2270.58 713.567 2277.03 710.813 2282.54 710.813C2288.06 710.813 2304.58 728.265 2320.21 750.299C2334.91 771.415 2365.26 809.974 2386.41 834.763C2396.88 846.965 2415.22 868.47 2436.82 893.785C2460.72 921.801 2488.6 954.484 2514.2 984.386C2562.92 1040.39 2602.44 1089.07 2602.44 1091.83H2629.1L2575.79 977.041C2564.18 951.241 2552.73 926.206 2543.04 905.033C2528.95 874.219 2518.59 851.587 2516.96 846.689C2511.44 834.754 2514.2 832.901 2526.15 837.492C2535.34 841.164 2593.25 895.332 2654.85 958.679C2716.44 1022.03 2767.9 1078.97 2767.9 1085.39H2807.44Z" fill="#161A39"/>
<path d="M1753.04 -537.786C1752.12 -546.967 1764.99 -553.385 1793.49 -557.057C1816.47 -560.73 1848.62 -562.591 1866.09 -561.673C1883.55 -561.673 1899.18 -557.074 1901.02 -551.566C1902.86 -546.057 1890.91 -537.778 1874.36 -531.351C1857.82 -525.842 1839.43 -514.834 1833.91 -508.407C1826.56 -499.226 1827.48 -461.575 1856.9 -230.218L1822.9 -199.93C1804.52 -183.404 1771.41 -156.788 1709.82 -110.884L1713.49 31.4281C1716.25 109.465 1715.34 193.02 1712.58 217.808C1708.9 241.678 1702.48 260.04 1696.96 258.204C1691.45 256.368 1684.07 241.67 1678.55 226.063C1673.04 209.537 1663.85 196.684 1657.42 196.684C1650.06 196.684 1644.54 218.718 1640.86 262.786C1638.1 299.509 1629.84 370.186 1622.48 418.844C1615.13 468.42 1609.63 510.661 1609.63 513.415C1609.63 516.17 1605.95 517.997 1600.44 517.997C1594.92 517.997 1591.25 488.644 1591.25 449.166C1591.25 411.525 1588.48 380.301 1583.88 380.301C1580.2 380.301 1539.77 390.392 1494.73 403.245C1449.68 416.098 1409.23 426.189 1404.63 426.189C1400.95 426.189 1398.2 422.533 1398.2 417.025C1398.2 411.516 1429.45 357.34 1536.09 182.904L1563.65 22.2303C1579.28 -65.9058 1594.91 -145.78 1598.59 -154.042C1602.27 -162.305 1640.87 -198.094 1765.89 -299.083L1759.46 -412.016C1756.71 -473.528 1753.04 -530.441 1753.04 -537.786Z" fill="#161A39"/>
<path d="M3697.3 721.83C3724.88 711.731 3753.36 701.64 3760.71 698.886C3768.07 696.132 3778.18 693.36 3783.7 693.36C3789.22 692.442 3825.09 730.093 3863.7 776.915C3902.31 823.737 3949.19 880.642 3966.65 903.594C3985.04 926.546 3999.74 950.442 3999.74 955.95C3999.74 962.377 3997 967.877 3992.4 967.877C3988.72 967.877 3948.26 934.826 3903.21 894.43C3858.17 854.952 3817.71 823.729 3813.11 825.565C3809.44 828.319 3808.52 832.91 3810.36 836.582C3812.19 841.172 3830.61 871.478 3851.75 905.447C3871.98 940.334 3889.41 969.705 3889.41 972.459C3889.41 975.213 3880.23 972.476 3868.28 966.967C3857.25 961.459 3803.92 911.882 3748.76 856.797C3694.53 801.712 3649.48 753.036 3649.48 748.446C3648.56 743.855 3670.65 731.928 3697.3 721.83Z" fill="#161A39"/>
<path fill-rule="evenodd" clip-rule="evenodd" d="M2294.49 -1063.84C2229.22 -1087.71 2172.23 -1107 2168.55 -1107C2165.79 -1107 2141.88 -1060.18 2117.06 -1004.17C2097.94 -961.901 2068.7 -896.849 2043.24 -840.22C2034.42 -820.599 2026.05 -801.988 2018.72 -785.686C1989.3 -722.339 1963.53 -667.228 1959.85 -663.555C1957.09 -659.883 1904.71 -644.284 1844.04 -629.595C1783.97 -615.052 1725.7 -600.501 1713.83 -597.539L1713.49 -597.453C1693.27 -592.863 1692.35 -587.354 1686.83 -476.266L1681.31 -358.751C1567.32 -209.103 1532.4 -151.28 1516.77 -110.884C1506.27 -84.3221 1483.51 -25.2963 1460.26 34.9933C1452.98 53.89 1445.64 72.911 1438.62 91.0953C1410.12 166.378 1378.88 240.744 1370.6 256.351C1356.81 279.303 1342.12 287.574 1286.97 303.182C1249.28 313.281 1157.35 334.38 1081.97 349.069L944.99 375.719C818.13 567.599 775.831 626.357 770.316 629.111C763.881 632.783 701.36 654.801 630.576 678.671C504.635 721.821 497.286 725.503 226.099 901.775C74.4184 1000.01 -53.3606 1083.53 -57.957 1088.12C-63.4727 1092.71 462.347 1096.41 1166.51 1096.41C1824.45 1096.41 2369.12 1098.13 2404.78 1099.91C2405.89 1099.97 2406.63 1100.08 2406.63 1100.08C2410.41 1101.59 2417.9 1101.24 2425.55 1099.04C2427.22 1098.56 2428.88 1097.98 2430.53 1097.32C2443.4 1092.73 2413.08 1052.33 2270.6 880.65C2250.77 856.895 2230.95 833.101 2211.77 810.071C2137.53 720.955 2072.82 643.284 2054.56 623.586C2015.95 578.6 2014.12 578.6 2018.72 605.224C2020.55 619.913 2055.48 698.886 2095.01 779.677C2135.46 860.469 2174.99 943.097 2183.26 963.295C2191.53 983.493 2197.97 1001.85 2197.97 1004.6C2197.97 1007.35 2187.84 996.346 2175.89 981.657C2162.09 964.635 2157.61 954.75 2161.81 949.509L2146.69 926.469C2121.72 894.693 2068.43 813.963 2002.16 706.231C1923.1 577.699 1858.74 468.421 1859.66 462.912C1861.5 458.322 1899.18 414.279 1945.14 364.702C2010.41 293.092 2027.88 268.278 2029.72 242.571C2031.56 225.128 2040.75 127.835 2049.95 26.8461L2067.42 -156.771C2225.53 -501.971 2271.5 -611.225 2271.5 -623.16C2271.5 -634.177 2254.94 -729.658 2234.72 -836.156C2215.41 -942.654 2200.71 -1031.73 2202.54 -1036.32C2205.3 -1039.99 2210.83 -1042.75 2216.34 -1042.75C2221.86 -1042.75 2266 -1018.86 2314.72 -990.395C2364.36 -961.934 2438.79 -913.283 2481.08 -882.987L2558.32 -826.992L2721.96 -501.062C2734.83 -278.886 2733.91 -262.36 2721.96 -262.36C2714.6 -263.278 2681.51 -287.148 2648.42 -317.445C2615.32 -346.824 2585.89 -368.858 2582.22 -365.186C2577.62 -361.513 2586.83 -323.872 2601.54 -280.722C2615.14 -240.821 2642.87 -163.25 2665.14 -100.979L2670.46 -86.0871C2705.39 11.2297 2710 32.3378 2698.97 36.0101C2691.61 38.7644 2645.64 17.665 2597.83 -9.87744C2550.03 -37.4199 2506.82 -60.3806 2501.31 -60.3806C2495.79 -60.3806 2492.12 -57.618 2492.12 -53.9457C2492.12 -49.3552 2517.87 -8.97595 2550.04 36.0101C2581.3 80.9962 2610.71 124.163 2614.39 129.672C2618.99 137.935 2615.31 140.689 2599.68 137.016C2588.65 134.262 2557.38 119.564 2530.72 104.875C2504.06 89.2676 2481.08 81.0048 2478.32 86.5133C2475.56 92.0217 2534.41 183.839 2608.87 291.255C2683.33 397.753 2757.81 505.144 2774.36 529.015C2790.91 553.803 2802.85 575.845 2801.01 579.518C2799.18 584.108 2760.54 583.19 2715.49 579.518C2671.37 575.845 2631.86 575.845 2629.1 579.518C2625.42 583.19 2662.21 696.107 2710.01 830.147C2757.81 964.187 2801.93 1078.97 2807.44 1085.39C2816.63 1094.57 2977.52 1097.33 3629.29 1096.41C4164.31 1096.41 4441 1093.64 4441 1087.21C4441 1081.7 4404.24 1052.33 4358.27 1020.2C4313.23 988.985 4242.43 940.334 4201.07 912.792C4159.7 885.249 4058.58 811.785 3975.84 749.355C3855.42 660.301 3818.64 637.366 3794.74 637.366C3779.11 637.366 3723.97 647.456 3673.41 660.309C3622.85 673.162 3578.72 683.253 3574.12 683.253C3570.45 683.253 3544.69 643.8 3517.11 596.06C3489.53 548.32 3466.56 505.144 3466.56 499.636C3466.56 494.127 3458.28 483.11 3449.09 473.929C3438.98 465.666 3398.52 439.042 3359 415.172C3314.87 388.547 3271.68 352.742 3245.95 323.363C3213.77 283.885 3194.44 245.342 3148.48 123.237C3094.24 -22.7385 3090.58 -29.1573 3056.56 -46.601C3036.34 -56.7 2998.64 -74.1521 2971.99 -86.0871C2931.54 -103.531 2918.66 -115.458 2884.65 -167.788C2862.59 -202.676 2835.01 -246.744 2823.06 -266.942C2804.67 -298.157 2800.09 -321.118 2795.49 -409.254L2789.97 -514.842L2774.32 -542.3C2672.69 -720.527 2631.19 -793.309 2618.06 -817.794C2603.35 -842.582 2576.71 -879.306 2558.32 -898.586C2539.94 -917.866 2499.47 -953.688 2469.13 -977.558C2425.93 -1011.53 2387.34 -1030.79 2294.49 -1063.84ZM2320.21 750.299C2304.58 728.265 2288.06 710.813 2282.54 710.813C2277.03 710.813 2270.58 713.567 2268.75 718.157C2266.91 721.829 2314.72 808.122 2376.31 910.029L2487.54 1096.41C2576.71 1096.41 2602.44 1094.58 2602.44 1091.83C2602.44 1089.07 2562.92 1040.39 2514.2 984.386C2488.6 954.484 2460.72 921.801 2436.82 893.785C2415.22 868.47 2396.88 846.965 2386.41 834.763C2365.26 809.974 2334.91 771.415 2320.21 750.299ZM2654.85 958.679C2593.25 895.332 2535.34 841.164 2526.15 837.492C2514.2 832.901 2511.44 834.754 2516.96 846.689C2518.59 851.587 2528.95 874.219 2543.04 905.033C2552.73 926.206 2564.18 951.241 2575.79 977.041L2629.1 1091.83C2749.52 1095.5 2767.9 1093.65 2767.9 1085.39C2767.9 1078.97 2716.44 1022.03 2654.85 958.679Z" fill="#2B44E7"/>
<path d="M2163.94 947.662C2171.29 942.766 2170.37 940.649 2161.18 941.261C2159.25 941.261 2154.28 936.125 2146.69 926.469L2161.81 949.509L2161.92 949.372C2162.46 948.733 2163.14 948.164 2163.94 947.662Z" fill="#1D1D1F"/>
<path fill-rule="evenodd" clip-rule="evenodd" d="M967.25 303.5H1017.62C1018.65 303.5 1019.64 303.908 1020.37 304.635C1021.09 305.362 1021.5 306.347 1021.5 307.375V342.25C1021.5 343.278 1021.09 344.263 1020.37 344.99C1019.64 345.717 1018.65 346.125 1017.62 346.125H967.25V303.5Z" fill="#FF0000"/>
<path d="M967.25 303.5V295.75H959.5V365.5H955.625V373.25H971.125V365.5H967.25V346.125V303.5Z" fill="black"/>
<rect x="1400" y="20" width="20" height="100" rx="10" fill="black"/>
<path d="M262.511 309.727V333H258.295V309.727H262.511ZM272.609 322.773V333H268.495V315.545H272.427V318.511H272.631C273.033 317.534 273.673 316.758 274.552 316.182C275.438 315.606 276.533 315.318 277.836 315.318C279.04 315.318 280.09 315.576 280.984 316.091C281.885 316.606 282.582 317.352 283.074 318.33C283.574 319.307 283.821 320.492 283.813 321.886V333H279.699V322.523C279.699 321.356 279.396 320.443 278.79 319.784C278.192 319.125 277.362 318.795 276.302 318.795C275.582 318.795 274.942 318.955 274.381 319.273C273.828 319.583 273.393 320.034 273.074 320.625C272.764 321.216 272.609 321.932 272.609 322.773ZM296.072 333.307C294.701 333.307 293.474 332.955 292.39 332.25C291.307 331.545 290.451 330.523 289.822 329.182C289.193 327.841 288.879 326.212 288.879 324.295C288.879 322.356 289.197 320.72 289.834 319.386C290.477 318.045 291.345 317.034 292.436 316.352C293.527 315.663 294.743 315.318 296.084 315.318C297.106 315.318 297.947 315.492 298.606 315.841C299.265 316.182 299.788 316.595 300.174 317.08C300.561 317.557 300.86 318.008 301.072 318.432H301.243V309.727H305.368V333H301.322V330.25H301.072C300.86 330.674 300.553 331.125 300.152 331.602C299.75 332.072 299.22 332.473 298.561 332.807C297.902 333.14 297.072 333.307 296.072 333.307ZM297.22 329.932C298.091 329.932 298.834 329.697 299.447 329.227C300.061 328.75 300.527 328.087 300.845 327.239C301.163 326.39 301.322 325.402 301.322 324.273C301.322 323.144 301.163 322.163 300.845 321.33C300.534 320.496 300.072 319.848 299.459 319.386C298.852 318.924 298.106 318.693 297.22 318.693C296.303 318.693 295.538 318.932 294.924 319.409C294.311 319.886 293.849 320.545 293.538 321.386C293.227 322.227 293.072 323.189 293.072 324.273C293.072 325.364 293.227 326.337 293.538 327.193C293.856 328.042 294.322 328.712 294.936 329.205C295.557 329.689 296.318 329.932 297.22 329.932ZM319.078 333.341C317.328 333.341 315.817 332.977 314.544 332.25C313.279 331.515 312.306 330.477 311.624 329.136C310.942 327.788 310.601 326.201 310.601 324.375C310.601 322.58 310.942 321.004 311.624 319.648C312.313 318.284 313.275 317.223 314.51 316.466C315.745 315.701 317.196 315.318 318.862 315.318C319.938 315.318 320.953 315.492 321.908 315.841C322.87 316.182 323.719 316.712 324.453 317.432C325.196 318.152 325.779 319.068 326.203 320.182C326.628 321.288 326.84 322.606 326.84 324.136V325.398H312.533V322.625H322.897C322.889 321.837 322.719 321.136 322.385 320.523C322.052 319.902 321.586 319.413 320.987 319.057C320.397 318.701 319.707 318.523 318.919 318.523C318.078 318.523 317.34 318.727 316.703 319.136C316.067 319.538 315.571 320.068 315.215 320.727C314.866 321.379 314.688 322.095 314.681 322.875V325.295C314.681 326.311 314.866 327.182 315.237 327.909C315.609 328.629 316.128 329.182 316.794 329.568C317.461 329.947 318.241 330.136 319.135 330.136C319.734 330.136 320.275 330.053 320.76 329.886C321.245 329.712 321.666 329.458 322.022 329.125C322.378 328.792 322.647 328.379 322.828 327.886L326.669 328.318C326.427 329.333 325.965 330.22 325.283 330.977C324.609 331.727 323.745 332.311 322.692 332.727C321.639 333.136 320.434 333.341 319.078 333.341ZM331.92 339.545V315.545H335.965V318.432H336.204C336.416 318.008 336.715 317.557 337.102 317.08C337.488 316.595 338.011 316.182 338.67 315.841C339.329 315.492 340.17 315.318 341.193 315.318C342.541 315.318 343.757 315.663 344.84 316.352C345.931 317.034 346.795 318.045 347.431 319.386C348.075 320.72 348.397 322.356 348.397 324.295C348.397 326.212 348.083 327.841 347.454 329.182C346.825 330.523 345.969 331.545 344.886 332.25C343.802 332.955 342.575 333.307 341.204 333.307C340.204 333.307 339.374 333.14 338.715 332.807C338.056 332.473 337.526 332.072 337.124 331.602C336.73 331.125 336.424 330.674 336.204 330.25H336.034V339.545H331.92ZM335.954 324.273C335.954 325.402 336.113 326.39 336.431 327.239C336.757 328.087 337.223 328.75 337.829 329.227C338.443 329.697 339.185 329.932 340.056 329.932C340.965 329.932 341.727 329.689 342.34 329.205C342.954 328.712 343.416 328.042 343.727 327.193C344.045 326.337 344.204 325.364 344.204 324.273C344.204 323.189 344.049 322.227 343.738 321.386C343.427 320.545 342.965 319.886 342.352 319.409C341.738 318.932 340.973 318.693 340.056 318.693C339.177 318.693 338.431 318.924 337.818 319.386C337.204 319.848 336.738 320.496 336.42 321.33C336.109 322.163 335.954 323.144 335.954 324.273ZM361.247 333.341C359.497 333.341 357.986 332.977 356.713 332.25C355.448 331.515 354.474 330.477 353.793 329.136C353.111 327.788 352.77 326.201 352.77 324.375C352.77 322.58 353.111 321.004 353.793 319.648C354.482 318.284 355.444 317.223 356.679 316.466C357.914 315.701 359.365 315.318 361.031 315.318C362.107 315.318 363.122 315.492 364.077 315.841C365.039 316.182 365.887 316.712 366.622 317.432C367.365 318.152 367.948 319.068 368.372 320.182C368.796 321.288 369.009 322.606 369.009 324.136V325.398H354.702V322.625H365.065C365.058 321.837 364.887 321.136 364.554 320.523C364.221 319.902 363.755 319.413 363.156 319.057C362.565 318.701 361.876 318.523 361.088 318.523C360.247 318.523 359.509 318.727 358.872 319.136C358.236 319.538 357.74 320.068 357.384 320.727C357.035 321.379 356.857 322.095 356.849 322.875V325.295C356.849 326.311 357.035 327.182 357.406 327.909C357.777 328.629 358.296 329.182 358.963 329.568C359.63 329.947 360.41 330.136 361.304 330.136C361.902 330.136 362.444 330.053 362.929 329.886C363.414 329.712 363.834 329.458 364.19 329.125C364.546 328.792 364.815 328.379 364.997 327.886L368.838 328.318C368.596 329.333 368.134 330.22 367.452 330.977C366.777 331.727 365.914 332.311 364.861 332.727C363.808 333.136 362.603 333.341 361.247 333.341ZM378.202 322.773V333H374.089V315.545H378.02V318.511H378.225C378.627 317.534 379.267 316.758 380.145 316.182C381.032 315.606 382.127 315.318 383.43 315.318C384.634 315.318 385.683 315.576 386.577 316.091C387.479 316.606 388.176 317.352 388.668 318.33C389.168 319.307 389.414 320.492 389.407 321.886V333H385.293V322.523C385.293 321.356 384.99 320.443 384.384 319.784C383.786 319.125 382.956 318.795 381.895 318.795C381.176 318.795 380.536 318.955 379.975 319.273C379.422 319.583 378.986 320.034 378.668 320.625C378.358 321.216 378.202 321.932 378.202 322.773ZM401.666 333.307C400.295 333.307 399.067 332.955 397.984 332.25C396.901 331.545 396.045 330.523 395.416 329.182C394.787 327.841 394.473 326.212 394.473 324.295C394.473 322.356 394.791 320.72 395.427 319.386C396.071 318.045 396.939 317.034 398.03 316.352C399.12 315.663 400.336 315.318 401.677 315.318C402.7 315.318 403.541 315.492 404.2 315.841C404.859 316.182 405.382 316.595 405.768 317.08C406.155 317.557 406.454 318.008 406.666 318.432H406.836V309.727H410.961V333H406.916V330.25H406.666C406.454 330.674 406.147 331.125 405.745 331.602C405.344 332.072 404.814 332.473 404.155 332.807C403.495 333.14 402.666 333.307 401.666 333.307ZM402.814 329.932C403.685 329.932 404.427 329.697 405.041 329.227C405.655 328.75 406.12 328.087 406.439 327.239C406.757 326.39 406.916 325.402 406.916 324.273C406.916 323.144 406.757 322.163 406.439 321.33C406.128 320.496 405.666 319.848 405.052 319.386C404.446 318.924 403.7 318.693 402.814 318.693C401.897 318.693 401.132 318.932 400.518 319.409C399.905 319.886 399.442 320.545 399.132 321.386C398.821 322.227 398.666 323.189 398.666 324.273C398.666 325.364 398.821 326.337 399.132 327.193C399.45 328.042 399.916 328.712 400.53 329.205C401.151 329.689 401.912 329.932 402.814 329.932ZM424.672 333.341C422.922 333.341 421.411 332.977 420.138 332.25C418.873 331.515 417.899 330.477 417.218 329.136C416.536 327.788 416.195 326.201 416.195 324.375C416.195 322.58 416.536 321.004 417.218 319.648C417.907 318.284 418.869 317.223 420.104 316.466C421.339 315.701 422.79 315.318 424.456 315.318C425.532 315.318 426.547 315.492 427.502 315.841C428.464 316.182 429.312 316.712 430.047 317.432C430.79 318.152 431.373 319.068 431.797 320.182C432.221 321.288 432.434 322.606 432.434 324.136V325.398H418.127V322.625H428.49C428.483 321.837 428.312 321.136 427.979 320.523C427.646 319.902 427.18 319.413 426.581 319.057C425.99 318.701 425.301 318.523 424.513 318.523C423.672 318.523 422.934 318.727 422.297 319.136C421.661 319.538 421.165 320.068 420.809 320.727C420.46 321.379 420.282 322.095 420.274 322.875V325.295C420.274 326.311 420.46 327.182 420.831 327.909C421.202 328.629 421.721 329.182 422.388 329.568C423.055 329.947 423.835 330.136 424.729 330.136C425.327 330.136 425.869 330.053 426.354 329.886C426.839 329.712 427.259 329.458 427.615 329.125C427.971 328.792 428.24 328.379 428.422 327.886L432.263 328.318C432.021 329.333 431.559 330.22 430.877 330.977C430.202 331.727 429.339 332.311 428.286 332.727C427.233 333.136 426.028 333.341 424.672 333.341ZM441.627 322.773V333H437.514V315.545H441.445V318.511H441.65C442.052 317.534 442.692 316.758 443.57 316.182C444.457 315.606 445.552 315.318 446.855 315.318C448.059 315.318 449.108 315.576 450.002 316.091C450.904 316.606 451.601 317.352 452.093 318.33C452.593 319.307 452.839 320.492 452.832 321.886V333H448.718V322.523C448.718 321.356 448.415 320.443 447.809 319.784C447.211 319.125 446.381 318.795 445.32 318.795C444.601 318.795 443.961 318.955 443.4 319.273C442.847 319.583 442.411 320.034 442.093 320.625C441.783 321.216 441.627 321.932 441.627 322.773ZM466.227 333.341C464.485 333.341 462.989 332.958 461.739 332.193C460.496 331.428 459.538 330.371 458.864 329.023C458.197 327.667 457.864 326.106 457.864 324.341C457.864 322.568 458.205 321.004 458.886 319.648C459.568 318.284 460.53 317.223 461.773 316.466C463.023 315.701 464.5 315.318 466.205 315.318C467.621 315.318 468.875 315.58 469.966 316.102C471.064 316.617 471.939 317.348 472.591 318.295C473.242 319.235 473.614 320.333 473.705 321.591H469.773C469.614 320.75 469.235 320.049 468.636 319.489C468.045 318.92 467.254 318.636 466.261 318.636C465.42 318.636 464.682 318.864 464.045 319.318C463.409 319.765 462.913 320.409 462.557 321.25C462.208 322.091 462.034 323.098 462.034 324.273C462.034 325.462 462.208 326.485 462.557 327.341C462.905 328.189 463.394 328.845 464.023 329.307C464.659 329.761 465.405 329.989 466.261 329.989C466.867 329.989 467.409 329.875 467.886 329.648C468.371 329.413 468.777 329.076 469.102 328.636C469.428 328.197 469.652 327.663 469.773 327.034H473.705C473.606 328.269 473.242 329.364 472.614 330.318C471.985 331.265 471.129 332.008 470.045 332.545C468.962 333.076 467.689 333.341 466.227 333.341ZM486.41 333.341C484.66 333.341 483.148 332.977 481.876 332.25C480.61 331.515 479.637 330.477 478.955 329.136C478.273 327.788 477.932 326.201 477.932 324.375C477.932 322.58 478.273 321.004 478.955 319.648C479.645 318.284 480.607 317.223 481.841 316.466C483.076 315.701 484.527 315.318 486.194 315.318C487.27 315.318 488.285 315.492 489.239 315.841C490.201 316.182 491.05 316.712 491.785 317.432C492.527 318.152 493.11 319.068 493.535 320.182C493.959 321.288 494.171 322.606 494.171 324.136V325.398H479.864V322.625H490.228C490.22 321.837 490.05 321.136 489.716 320.523C489.383 319.902 488.917 319.413 488.319 319.057C487.728 318.701 487.038 318.523 486.251 318.523C485.41 318.523 484.671 318.727 484.035 319.136C483.398 319.538 482.902 320.068 482.546 320.727C482.198 321.379 482.02 322.095 482.012 322.875V325.295C482.012 326.311 482.198 327.182 482.569 327.909C482.94 328.629 483.459 329.182 484.126 329.568C484.792 329.947 485.573 330.136 486.466 330.136C487.065 330.136 487.607 330.053 488.091 329.886C488.576 329.712 488.997 329.458 489.353 329.125C489.709 328.792 489.978 328.379 490.16 327.886L494.001 328.318C493.758 329.333 493.296 330.22 492.614 330.977C491.94 331.727 491.076 332.311 490.023 332.727C488.97 333.136 487.766 333.341 486.41 333.341Z" fill="#0D0B33"/>
<line x1="256" y1="360.5" x2="633" y2="360.5" stroke="#0D0B33"/>
<path d="M268.631 382.455C268.631 383.835 268.381 385.028 267.883 386.034C267.384 387.04 266.7 387.815 265.831 388.361C264.962 388.906 263.969 389.179 262.852 389.179C261.736 389.179 260.743 388.906 259.874 388.361C259.004 387.815 258.32 387.04 257.822 386.034C257.323 385.028 257.074 383.835 257.074 382.455C257.074 381.074 257.323 379.881 257.822 378.875C258.32 377.869 259.004 377.094 259.874 376.548C260.743 376.003 261.736 375.73 262.852 375.73C263.969 375.73 264.962 376.003 265.831 376.548C266.7 377.094 267.384 377.869 267.883 378.875C268.381 379.881 268.631 381.074 268.631 382.455ZM267.097 382.455C267.097 381.321 266.907 380.364 266.528 379.585C266.153 378.805 265.643 378.214 265 377.814C264.361 377.413 263.645 377.213 262.852 377.213C262.06 377.213 261.342 377.413 260.698 377.814C260.059 378.214 259.55 378.805 259.17 379.585C258.795 380.364 258.608 381.321 258.608 382.455C258.608 383.588 258.795 384.545 259.17 385.325C259.55 386.104 260.059 386.695 260.698 387.095C261.342 387.496 262.06 387.696 262.852 387.696C263.645 387.696 264.361 387.496 265 387.095C265.643 386.695 266.153 386.104 266.528 385.325C266.907 384.545 267.097 383.588 267.097 382.455ZM278.179 384.986V379.182H279.688V389H278.179V387.338H278.077C277.847 387.837 277.489 388.261 277.003 388.61C276.517 388.955 275.904 389.128 275.162 389.128C274.548 389.128 274.003 388.994 273.526 388.725C273.048 388.452 272.673 388.043 272.401 387.498C272.128 386.948 271.992 386.256 271.992 385.42V379.182H273.5V385.318C273.5 386.034 273.7 386.605 274.101 387.031C274.506 387.457 275.021 387.67 275.648 387.67C276.023 387.67 276.404 387.575 276.792 387.383C277.184 387.191 277.512 386.897 277.776 386.501C278.045 386.104 278.179 385.599 278.179 384.986ZM283.351 389V379.182H284.808V380.665H284.91C285.089 380.179 285.413 379.785 285.882 379.482C286.351 379.18 286.879 379.028 287.467 379.028C287.578 379.028 287.716 379.031 287.883 379.035C288.049 379.039 288.174 379.045 288.26 379.054V380.588C288.209 380.575 288.091 380.556 287.908 380.531C287.729 380.501 287.54 380.486 287.339 380.486C286.862 380.486 286.436 380.586 286.061 380.786C285.69 380.982 285.396 381.255 285.179 381.604C284.966 381.95 284.859 382.344 284.859 382.787V389H283.351ZM297.115 389V375.909H298.623V380.741H298.751C298.862 380.571 299.015 380.354 299.212 380.089C299.412 379.821 299.697 379.582 300.068 379.374C300.443 379.161 300.95 379.054 301.589 379.054C302.416 379.054 303.145 379.261 303.775 379.674C304.406 380.087 304.898 380.673 305.252 381.432C305.606 382.19 305.783 383.085 305.783 384.116C305.783 385.156 305.606 386.058 305.252 386.82C304.898 387.579 304.408 388.167 303.782 388.585C303.155 388.998 302.433 389.205 301.615 389.205C300.984 389.205 300.479 389.1 300.1 388.891C299.721 388.678 299.429 388.437 299.224 388.169C299.02 387.896 298.862 387.67 298.751 387.491H298.572V389H297.115ZM298.598 384.091C298.598 384.832 298.707 385.487 298.924 386.053C299.141 386.616 299.459 387.057 299.876 387.376C300.294 387.692 300.805 387.849 301.41 387.849C302.041 387.849 302.567 387.683 302.989 387.351C303.415 387.014 303.735 386.562 303.948 385.996C304.165 385.425 304.274 384.79 304.274 384.091C304.274 383.401 304.167 382.778 303.954 382.224C303.746 381.666 303.428 381.225 303.002 380.901C302.58 380.573 302.05 380.409 301.41 380.409C300.797 380.409 300.281 380.565 299.863 380.876C299.446 381.183 299.131 381.613 298.917 382.167C298.704 382.717 298.598 383.358 298.598 384.091ZM311.879 389.23C311.257 389.23 310.692 389.113 310.185 388.879C309.678 388.64 309.276 388.297 308.977 387.849C308.679 387.398 308.53 386.852 308.53 386.213C308.53 385.651 308.641 385.195 308.862 384.845C309.084 384.491 309.38 384.214 309.751 384.014C310.121 383.814 310.531 383.665 310.978 383.567C311.43 383.464 311.884 383.384 312.339 383.324C312.936 383.247 313.42 383.19 313.79 383.151C314.165 383.109 314.438 383.038 314.609 382.94C314.783 382.842 314.871 382.672 314.871 382.429V382.378C314.871 381.747 314.698 381.257 314.353 380.908C314.012 380.558 313.494 380.384 312.8 380.384C312.08 380.384 311.515 380.541 311.106 380.857C310.697 381.172 310.409 381.509 310.243 381.866L308.811 381.355C309.067 380.759 309.408 380.294 309.834 379.962C310.264 379.625 310.733 379.391 311.24 379.259C311.751 379.122 312.254 379.054 312.749 379.054C313.064 379.054 313.426 379.092 313.835 379.169C314.249 379.241 314.647 379.393 315.031 379.623C315.418 379.853 315.74 380.2 315.996 380.665C316.251 381.129 316.379 381.751 316.379 382.531V389H314.871V387.67H314.794C314.692 387.884 314.521 388.112 314.283 388.354C314.044 388.597 313.727 388.804 313.33 388.974C312.934 389.145 312.45 389.23 311.879 389.23ZM312.109 387.875C312.706 387.875 313.209 387.758 313.618 387.523C314.031 387.289 314.342 386.987 314.551 386.616C314.764 386.245 314.871 385.855 314.871 385.446V384.065C314.807 384.142 314.666 384.212 314.449 384.276C314.236 384.336 313.989 384.389 313.707 384.436C313.43 384.479 313.16 384.517 312.896 384.551C312.636 384.581 312.425 384.607 312.263 384.628C311.871 384.679 311.504 384.762 311.163 384.877C310.827 384.988 310.554 385.156 310.345 385.382C310.141 385.604 310.038 385.906 310.038 386.29C310.038 386.814 310.232 387.21 310.62 387.479C311.012 387.743 311.509 387.875 312.109 387.875ZM320.033 389V379.182H321.49V380.665H321.592C321.771 380.179 322.095 379.785 322.564 379.482C323.033 379.18 323.561 379.028 324.149 379.028C324.26 379.028 324.398 379.031 324.565 379.035C324.731 379.039 324.857 379.045 324.942 379.054V380.588C324.891 380.575 324.773 380.556 324.59 380.531C324.411 380.501 324.222 380.486 324.021 380.486C323.544 380.486 323.118 380.586 322.743 380.786C322.372 380.982 322.078 381.255 321.861 381.604C321.648 381.95 321.541 382.344 321.541 382.787V389H320.033ZM331.448 389.205C330.502 389.205 329.685 388.996 328.999 388.578C328.318 388.156 327.791 387.568 327.421 386.814C327.054 386.055 326.871 385.173 326.871 384.168C326.871 383.162 327.054 382.276 327.421 381.509C327.791 380.737 328.307 380.136 328.967 379.706C329.632 379.271 330.408 379.054 331.294 379.054C331.806 379.054 332.31 379.139 332.809 379.31C333.308 379.48 333.761 379.757 334.171 380.141C334.58 380.52 334.906 381.023 335.149 381.649C335.391 382.276 335.513 383.047 335.513 383.963V384.602H327.945V383.298H333.979C333.979 382.744 333.868 382.25 333.646 381.815C333.429 381.381 333.118 381.038 332.713 380.786C332.313 380.535 331.84 380.409 331.294 380.409C330.693 380.409 330.173 380.558 329.734 380.857C329.3 381.151 328.965 381.534 328.731 382.007C328.497 382.48 328.379 382.987 328.379 383.528V384.398C328.379 385.139 328.507 385.768 328.763 386.283C329.023 386.795 329.383 387.185 329.843 387.453C330.303 387.717 330.838 387.849 331.448 387.849C331.844 387.849 332.202 387.794 332.521 387.683C332.845 387.568 333.124 387.398 333.359 387.172C333.593 386.942 333.774 386.656 333.902 386.315L335.359 386.724C335.206 387.219 334.948 387.653 334.586 388.028C334.224 388.399 333.776 388.689 333.244 388.898C332.711 389.102 332.112 389.205 331.448 389.205ZM344.67 389V379.182H346.128V380.716H346.255C346.46 380.192 346.79 379.785 347.246 379.495C347.702 379.201 348.25 379.054 348.889 379.054C349.537 379.054 350.076 379.201 350.506 379.495C350.941 379.785 351.28 380.192 351.522 380.716H351.625C351.876 380.209 352.253 379.806 352.756 379.508C353.259 379.205 353.862 379.054 354.565 379.054C355.443 379.054 356.161 379.329 356.719 379.879C357.277 380.424 357.556 381.274 357.556 382.429V389H356.048V382.429C356.048 381.705 355.85 381.187 355.454 380.876C355.057 380.565 354.591 380.409 354.054 380.409C353.363 380.409 352.829 380.618 352.449 381.036C352.07 381.449 351.88 381.973 351.88 382.608V389H350.346V382.276C350.346 381.717 350.165 381.268 349.803 380.927C349.441 380.582 348.974 380.409 348.403 380.409C348.011 380.409 347.645 380.513 347.304 380.722C346.967 380.931 346.694 381.221 346.485 381.592C346.281 381.958 346.179 382.382 346.179 382.864V389H344.67ZM365.331 389.205C364.385 389.205 363.569 388.996 362.883 388.578C362.201 388.156 361.675 387.568 361.304 386.814C360.938 386.055 360.754 385.173 360.754 384.168C360.754 383.162 360.938 382.276 361.304 381.509C361.675 380.737 362.191 380.136 362.851 379.706C363.516 379.271 364.291 379.054 365.178 379.054C365.689 379.054 366.194 379.139 366.693 379.31C367.191 379.48 367.645 379.757 368.054 380.141C368.463 380.52 368.789 381.023 369.032 381.649C369.275 382.276 369.396 383.047 369.396 383.963V384.602H361.828V383.298H367.862C367.862 382.744 367.752 382.25 367.53 381.815C367.313 381.381 367.002 381.038 366.597 380.786C366.196 380.535 365.723 380.409 365.178 380.409C364.577 380.409 364.057 380.558 363.618 380.857C363.183 381.151 362.849 381.534 362.615 382.007C362.38 382.48 362.263 382.987 362.263 383.528V384.398C362.263 385.139 362.391 385.768 362.646 386.283C362.906 386.795 363.267 387.185 363.727 387.453C364.187 387.717 364.722 387.849 365.331 387.849C365.727 387.849 366.085 387.794 366.405 387.683C366.729 387.568 367.008 387.398 367.242 387.172C367.477 386.942 367.658 386.656 367.786 386.315L369.243 386.724C369.09 387.219 368.832 387.653 368.47 388.028C368.107 388.399 367.66 388.689 367.127 388.898C366.595 389.102 365.996 389.205 365.331 389.205ZM376.861 379.182V380.46H371.773V379.182H376.861ZM373.256 376.83H374.765V386.188C374.765 386.614 374.826 386.933 374.95 387.146C375.078 387.355 375.24 387.496 375.436 387.568C375.636 387.636 375.847 387.67 376.069 387.67C376.235 387.67 376.371 387.662 376.478 387.645C376.584 387.624 376.669 387.607 376.733 387.594L377.04 388.949C376.938 388.987 376.795 389.026 376.612 389.064C376.429 389.107 376.196 389.128 375.915 389.128C375.489 389.128 375.071 389.036 374.662 388.853C374.257 388.67 373.921 388.391 373.652 388.016C373.388 387.641 373.256 387.168 373.256 386.597V376.83ZM382.919 389.23C382.297 389.23 381.733 389.113 381.226 388.879C380.719 388.64 380.316 388.297 380.018 387.849C379.719 387.398 379.57 386.852 379.57 386.213C379.57 385.651 379.681 385.195 379.902 384.845C380.124 384.491 380.42 384.214 380.791 384.014C381.162 383.814 381.571 383.665 382.018 383.567C382.47 383.464 382.924 383.384 383.38 383.324C383.976 383.247 384.46 383.19 384.831 383.151C385.206 383.109 385.478 383.038 385.649 382.94C385.824 382.842 385.911 382.672 385.911 382.429V382.378C385.911 381.747 385.738 381.257 385.393 380.908C385.052 380.558 384.535 380.384 383.84 380.384C383.12 380.384 382.555 380.541 382.146 380.857C381.737 381.172 381.449 381.509 381.283 381.866L379.851 381.355C380.107 380.759 380.448 380.294 380.874 379.962C381.304 379.625 381.773 379.391 382.28 379.259C382.792 379.122 383.294 379.054 383.789 379.054C384.104 379.054 384.466 379.092 384.875 379.169C385.289 379.241 385.687 379.393 386.071 379.623C386.459 379.853 386.78 380.2 387.036 380.665C387.292 381.129 387.419 381.751 387.419 382.531V389H385.911V387.67H385.834C385.732 387.884 385.562 388.112 385.323 388.354C385.084 388.597 384.767 388.804 384.37 388.974C383.974 389.145 383.491 389.23 382.919 389.23ZM383.15 387.875C383.746 387.875 384.249 387.758 384.658 387.523C385.071 387.289 385.383 386.987 385.591 386.616C385.804 386.245 385.911 385.855 385.911 385.446V384.065C385.847 384.142 385.706 384.212 385.489 384.276C385.276 384.336 385.029 384.389 384.748 384.436C384.471 384.479 384.2 384.517 383.936 384.551C383.676 384.581 383.465 384.607 383.303 384.628C382.911 384.679 382.544 384.762 382.204 384.877C381.867 384.988 381.594 385.156 381.385 385.382C381.181 385.604 381.079 385.906 381.079 386.29C381.079 386.814 381.272 387.21 381.66 387.479C382.052 387.743 382.549 387.875 383.15 387.875ZM392.581 375.909V389H391.073V375.909H392.581ZM402.207 389V379.182H403.664V380.716H403.792C403.997 380.192 404.327 379.785 404.783 379.495C405.239 379.201 405.786 379.054 406.426 379.054C407.073 379.054 407.612 379.201 408.043 379.495C408.477 379.785 408.816 380.192 409.059 380.716H409.161C409.413 380.209 409.79 379.806 410.293 379.508C410.796 379.205 411.399 379.054 412.102 379.054C412.98 379.054 413.698 379.329 414.256 379.879C414.814 380.424 415.093 381.274 415.093 382.429V389H413.585V382.429C413.585 381.705 413.387 381.187 412.99 380.876C412.594 380.565 412.127 380.409 411.59 380.409C410.9 380.409 410.365 380.618 409.986 381.036C409.607 381.449 409.417 381.973 409.417 382.608V389H407.883V382.276C407.883 381.717 407.702 381.268 407.34 380.927C406.977 380.582 406.511 380.409 405.94 380.409C405.548 380.409 405.181 380.513 404.84 380.722C404.504 380.931 404.231 381.221 404.022 381.592C403.818 381.958 403.715 382.382 403.715 382.864V389H402.207ZM421.641 389.23C421.018 389.23 420.454 389.113 419.947 388.879C419.44 388.64 419.037 388.297 418.739 387.849C418.44 387.398 418.291 386.852 418.291 386.213C418.291 385.651 418.402 385.195 418.624 384.845C418.845 384.491 419.141 384.214 419.512 384.014C419.883 383.814 420.292 383.665 420.739 383.567C421.191 383.464 421.645 383.384 422.101 383.324C422.697 383.247 423.181 383.19 423.552 383.151C423.927 383.109 424.2 383.038 424.37 382.94C424.545 382.842 424.632 382.672 424.632 382.429V382.378C424.632 381.747 424.459 381.257 424.114 380.908C423.773 380.558 423.256 380.384 422.561 380.384C421.841 380.384 421.276 380.541 420.867 380.857C420.458 381.172 420.17 381.509 420.004 381.866L418.572 381.355C418.828 380.759 419.169 380.294 419.595 379.962C420.026 379.625 420.494 379.391 421.001 379.259C421.513 379.122 422.016 379.054 422.51 379.054C422.825 379.054 423.187 379.092 423.597 379.169C424.01 379.241 424.408 379.393 424.792 379.623C425.18 379.853 425.501 380.2 425.757 380.665C426.013 381.129 426.141 381.751 426.141 382.531V389H424.632V387.67H424.555C424.453 387.884 424.283 388.112 424.044 388.354C423.805 388.597 423.488 388.804 423.092 388.974C422.695 389.145 422.212 389.23 421.641 389.23ZM421.871 387.875C422.467 387.875 422.97 387.758 423.379 387.523C423.793 387.289 424.104 386.987 424.312 386.616C424.526 386.245 424.632 385.855 424.632 385.446V384.065C424.568 384.142 424.428 384.212 424.21 384.276C423.997 384.336 423.75 384.389 423.469 384.436C423.192 384.479 422.921 384.517 422.657 384.551C422.397 384.581 422.186 384.607 422.024 384.628C421.632 384.679 421.266 384.762 420.925 384.877C420.588 384.988 420.315 385.156 420.106 385.382C419.902 385.604 419.8 385.906 419.8 386.29C419.8 386.814 419.994 387.21 420.381 387.479C420.773 387.743 421.27 387.875 421.871 387.875ZM433.783 389.205C432.862 389.205 432.07 388.987 431.405 388.553C430.74 388.118 430.229 387.519 429.871 386.756C429.513 385.994 429.334 385.122 429.334 384.142C429.334 383.145 429.517 382.265 429.883 381.502C430.254 380.735 430.77 380.136 431.43 379.706C432.095 379.271 432.871 379.054 433.757 379.054C434.447 379.054 435.07 379.182 435.624 379.438C436.177 379.693 436.631 380.051 436.985 380.511C437.339 380.972 437.558 381.509 437.643 382.122H436.135C436.02 381.675 435.764 381.278 435.368 380.933C434.976 380.584 434.447 380.409 433.783 380.409C433.195 380.409 432.679 380.562 432.236 380.869C431.797 381.172 431.454 381.6 431.207 382.154C430.964 382.704 430.842 383.349 430.842 384.091C430.842 384.849 430.962 385.51 431.2 386.072C431.443 386.635 431.784 387.072 432.223 387.383C432.666 387.694 433.186 387.849 433.783 387.849C434.175 387.849 434.53 387.781 434.85 387.645C435.17 387.509 435.44 387.312 435.662 387.057C435.883 386.801 436.041 386.494 436.135 386.136H437.643C437.558 386.716 437.347 387.238 437.011 387.702C436.678 388.163 436.237 388.529 435.687 388.802C435.142 389.07 434.507 389.205 433.783 389.205ZM442.257 383.094V389H440.749V375.909H442.257V380.716H442.385C442.615 380.209 442.96 379.806 443.421 379.508C443.885 379.205 444.503 379.054 445.274 379.054C445.943 379.054 446.529 379.188 447.032 379.457C447.535 379.721 447.925 380.128 448.202 380.678C448.483 381.223 448.624 381.918 448.624 382.761V389H447.115V382.864C447.115 382.084 446.913 381.481 446.508 381.055C446.107 380.624 445.551 380.409 444.84 380.409C444.345 380.409 443.902 380.513 443.51 380.722C443.122 380.931 442.815 381.236 442.59 381.636C442.368 382.037 442.257 382.523 442.257 383.094ZM452.283 389V379.182H453.792V389H452.283ZM453.05 377.545C452.756 377.545 452.503 377.445 452.29 377.245C452.081 377.045 451.977 376.804 451.977 376.523C451.977 376.241 452.081 376.001 452.29 375.8C452.503 375.6 452.756 375.5 453.05 375.5C453.345 375.5 453.596 375.6 453.805 375.8C454.018 376.001 454.124 376.241 454.124 376.523C454.124 376.804 454.018 377.045 453.805 377.245C453.596 377.445 453.345 377.545 453.05 377.545ZM458.963 383.094V389H457.455V379.182H458.912V380.716H459.04C459.27 380.217 459.62 379.817 460.088 379.514C460.557 379.207 461.162 379.054 461.904 379.054C462.569 379.054 463.15 379.19 463.649 379.463C464.147 379.732 464.535 380.141 464.812 380.69C465.089 381.236 465.228 381.926 465.228 382.761V389H463.719V382.864C463.719 382.092 463.519 381.491 463.118 381.061C462.718 380.626 462.168 380.409 461.469 380.409C460.988 380.409 460.557 380.513 460.178 380.722C459.803 380.931 459.507 381.236 459.289 381.636C459.072 382.037 458.963 382.523 458.963 383.094ZM473.001 389.205C472.055 389.205 471.239 388.996 470.553 388.578C469.871 388.156 469.344 387.568 468.974 386.814C468.607 386.055 468.424 385.173 468.424 384.168C468.424 383.162 468.607 382.276 468.974 381.509C469.344 380.737 469.86 380.136 470.521 379.706C471.185 379.271 471.961 379.054 472.847 379.054C473.359 379.054 473.864 379.139 474.362 379.31C474.861 379.48 475.315 379.757 475.724 380.141C476.133 380.52 476.459 381.023 476.702 381.649C476.945 382.276 477.066 383.047 477.066 383.963V384.602H469.498V383.298H475.532C475.532 382.744 475.421 382.25 475.2 381.815C474.982 381.381 474.671 381.038 474.266 380.786C473.866 380.535 473.393 380.409 472.847 380.409C472.246 380.409 471.727 380.558 471.288 380.857C470.853 381.151 470.518 381.534 470.284 382.007C470.05 382.48 469.932 382.987 469.932 383.528V384.398C469.932 385.139 470.06 385.768 470.316 386.283C470.576 386.795 470.936 387.185 471.396 387.453C471.856 387.717 472.391 387.849 473.001 387.849C473.397 387.849 473.755 387.794 474.075 387.683C474.398 387.568 474.678 387.398 474.912 387.172C475.146 386.942 475.327 386.656 475.455 386.315L476.913 386.724C476.759 387.219 476.501 387.653 476.139 388.028C475.777 388.399 475.33 388.689 474.797 388.898C474.264 389.102 473.665 389.205 473.001 389.205ZM486.223 389V379.182H487.681V380.716H487.808C488.013 380.192 488.343 379.785 488.799 379.495C489.255 379.201 489.803 379.054 490.442 379.054C491.09 379.054 491.629 379.201 492.059 379.495C492.494 379.785 492.833 380.192 493.076 380.716H493.178C493.429 380.209 493.806 379.806 494.309 379.508C494.812 379.205 495.415 379.054 496.118 379.054C496.996 379.054 497.714 379.329 498.272 379.879C498.831 380.424 499.11 381.274 499.11 382.429V389H497.601V382.429C497.601 381.705 497.403 381.187 497.007 380.876C496.61 380.565 496.144 380.409 495.607 380.409C494.916 380.409 494.382 380.618 494.002 381.036C493.623 381.449 493.433 381.973 493.433 382.608V389H491.899V382.276C491.899 381.717 491.718 381.268 491.356 380.927C490.994 380.582 490.527 380.409 489.956 380.409C489.564 380.409 489.198 380.513 488.857 380.722C488.52 380.931 488.247 381.221 488.039 381.592C487.834 381.958 487.732 382.382 487.732 382.864V389H486.223ZM502.768 389V379.182H504.276V389H502.768ZM503.535 377.545C503.241 377.545 502.987 377.445 502.774 377.245C502.565 377.045 502.461 376.804 502.461 376.523C502.461 376.241 502.565 376.001 502.774 375.8C502.987 375.6 503.241 375.5 503.535 375.5C503.829 375.5 504.08 375.6 504.289 375.8C504.502 376.001 504.609 376.241 504.609 376.523C504.609 376.804 504.502 377.045 504.289 377.245C504.08 377.445 503.829 377.545 503.535 377.545ZM509.448 383.094V389H507.939V379.182H509.397V380.716H509.525C509.755 380.217 510.104 379.817 510.573 379.514C511.042 379.207 511.647 379.054 512.388 379.054C513.053 379.054 513.635 379.19 514.133 379.463C514.632 379.732 515.02 380.141 515.297 380.69C515.574 381.236 515.712 381.926 515.712 382.761V389H514.203V382.864C514.203 382.092 514.003 381.491 513.603 381.061C513.202 380.626 512.652 380.409 511.953 380.409C511.472 380.409 511.042 380.513 510.662 380.722C510.287 380.931 509.991 381.236 509.774 381.636C509.556 382.037 509.448 382.523 509.448 383.094ZM519.369 389V379.182H520.877V389H519.369ZM520.136 377.545C519.842 377.545 519.588 377.445 519.375 377.245C519.166 377.045 519.062 376.804 519.062 376.523C519.062 376.241 519.166 376.001 519.375 375.8C519.588 375.6 519.842 375.5 520.136 375.5C520.43 375.5 520.681 375.6 520.89 375.8C521.103 376.001 521.209 376.241 521.209 376.523C521.209 376.804 521.103 377.045 520.89 377.245C520.681 377.445 520.43 377.545 520.136 377.545ZM524.54 389V379.182H525.997V380.716H526.125C526.33 380.192 526.66 379.785 527.116 379.495C527.572 379.201 528.12 379.054 528.759 379.054C529.407 379.054 529.946 379.201 530.376 379.495C530.811 379.785 531.149 380.192 531.392 380.716H531.495C531.746 380.209 532.123 379.806 532.626 379.508C533.129 379.205 533.732 379.054 534.435 379.054C535.313 379.054 536.031 379.329 536.589 379.879C537.147 380.424 537.426 381.274 537.426 382.429V389H535.918V382.429C535.918 381.705 535.72 381.187 535.323 380.876C534.927 380.565 534.46 380.409 533.924 380.409C533.233 380.409 532.698 380.618 532.319 381.036C531.94 381.449 531.75 381.973 531.75 382.608V389H530.216V382.276C530.216 381.717 530.035 381.268 529.673 380.927C529.311 380.582 528.844 380.409 528.273 380.409C527.881 380.409 527.514 380.513 527.174 380.722C526.837 380.931 526.564 381.221 526.355 381.592C526.151 381.958 526.049 382.382 526.049 382.864V389H524.54ZM541.085 389V379.182H542.593V389H541.085ZM541.852 377.545C541.558 377.545 541.304 377.445 541.091 377.245C540.882 377.045 540.778 376.804 540.778 376.523C540.778 376.241 540.882 376.001 541.091 375.8C541.304 375.6 541.558 375.5 541.852 375.5C542.146 375.5 542.397 375.6 542.606 375.8C542.819 376.001 542.926 376.241 542.926 376.523C542.926 376.804 542.819 377.045 542.606 377.245C542.397 377.445 542.146 377.545 541.852 377.545ZM545.975 389V387.849L551.549 380.69V380.588H546.154V379.182H553.492V380.384L548.071 387.491V387.594H553.671V389H545.975ZM560.73 389.205C559.784 389.205 558.968 388.996 558.281 388.578C557.6 388.156 557.073 387.568 556.703 386.814C556.336 386.055 556.153 385.173 556.153 384.168C556.153 383.162 556.336 382.276 556.703 381.509C557.073 380.737 557.589 380.136 558.249 379.706C558.914 379.271 559.69 379.054 560.576 379.054C561.088 379.054 561.593 379.139 562.091 379.31C562.59 379.48 563.044 379.757 563.453 380.141C563.862 380.52 564.188 381.023 564.431 381.649C564.673 382.276 564.795 383.047 564.795 383.963V384.602H557.227V383.298H563.261C563.261 382.744 563.15 382.25 562.928 381.815C562.711 381.381 562.4 381.038 561.995 380.786C561.595 380.535 561.122 380.409 560.576 380.409C559.975 380.409 559.455 380.558 559.017 380.857C558.582 381.151 558.247 381.534 558.013 382.007C557.779 382.48 557.661 382.987 557.661 383.528V384.398C557.661 385.139 557.789 385.768 558.045 386.283C558.305 386.795 558.665 387.185 559.125 387.453C559.585 387.717 560.12 387.849 560.73 387.849C561.126 387.849 561.484 387.794 561.803 387.683C562.127 387.568 562.406 387.398 562.641 387.172C562.875 386.942 563.056 386.656 563.184 386.315L564.642 386.724C564.488 387.219 564.23 387.653 563.868 388.028C563.506 388.399 563.058 388.689 562.526 388.898C561.993 389.102 561.394 389.205 560.73 389.205ZM574.944 381.381L573.589 381.764C573.504 381.538 573.378 381.319 573.212 381.106C573.05 380.888 572.828 380.71 572.547 380.569C572.266 380.428 571.906 380.358 571.467 380.358C570.866 380.358 570.365 380.496 569.965 380.773C569.568 381.046 569.37 381.393 569.37 381.815C569.37 382.19 569.507 382.487 569.779 382.704C570.052 382.921 570.478 383.102 571.058 383.247L572.515 383.605C573.393 383.818 574.047 384.144 574.478 384.583C574.908 385.018 575.123 385.578 575.123 386.264C575.123 386.827 574.961 387.33 574.637 387.773C574.318 388.216 573.87 388.565 573.295 388.821C572.72 389.077 572.051 389.205 571.288 389.205C570.287 389.205 569.458 388.987 568.801 388.553C568.145 388.118 567.73 387.483 567.555 386.648L568.987 386.29C569.123 386.818 569.381 387.214 569.76 387.479C570.144 387.743 570.644 387.875 571.262 387.875C571.966 387.875 572.524 387.726 572.937 387.428C573.355 387.125 573.564 386.763 573.564 386.341C573.564 386 573.444 385.714 573.206 385.484C572.967 385.25 572.6 385.075 572.106 384.96L570.47 384.577C569.571 384.364 568.91 384.033 568.488 383.586C568.071 383.134 567.862 382.57 567.862 381.892C567.862 381.338 568.017 380.848 568.328 380.422C568.644 379.996 569.072 379.661 569.613 379.418C570.159 379.175 570.777 379.054 571.467 379.054C572.439 379.054 573.201 379.267 573.755 379.693C574.314 380.119 574.71 380.682 574.944 381.381ZM257.381 419.682V406.182H258.838V407.741H259.017C259.128 407.571 259.281 407.354 259.477 407.089C259.678 406.821 259.963 406.582 260.334 406.374C260.709 406.161 261.216 406.054 261.855 406.054C262.682 406.054 263.411 406.261 264.041 406.674C264.672 407.087 265.164 407.673 265.518 408.432C265.871 409.19 266.048 410.085 266.048 411.116C266.048 412.156 265.871 413.058 265.518 413.82C265.164 414.579 264.674 415.167 264.048 415.585C263.421 415.998 262.699 416.205 261.881 416.205C261.25 416.205 260.745 416.1 260.366 415.891C259.987 415.678 259.695 415.437 259.49 415.169C259.286 414.896 259.128 414.67 259.017 414.491H258.889V419.682H257.381ZM258.864 411.091C258.864 411.832 258.972 412.487 259.19 413.053C259.407 413.616 259.724 414.057 260.142 414.376C260.56 414.692 261.071 414.849 261.676 414.849C262.307 414.849 262.833 414.683 263.255 414.351C263.681 414.014 264.001 413.562 264.214 412.996C264.431 412.425 264.54 411.79 264.54 411.091C264.54 410.401 264.433 409.778 264.22 409.224C264.011 408.666 263.694 408.225 263.268 407.901C262.846 407.573 262.315 407.409 261.676 407.409C261.063 407.409 260.547 407.565 260.129 407.876C259.712 408.183 259.396 408.613 259.183 409.167C258.97 409.717 258.864 410.358 258.864 411.091ZM273.238 416.205C272.352 416.205 271.574 415.994 270.905 415.572C270.24 415.15 269.72 414.56 269.345 413.801C268.975 413.043 268.789 412.156 268.789 411.142C268.789 410.119 268.975 409.227 269.345 408.464C269.72 407.701 270.24 407.109 270.905 406.687C271.574 406.265 272.352 406.054 273.238 406.054C274.124 406.054 274.9 406.265 275.565 406.687C276.234 407.109 276.754 407.701 277.124 408.464C277.499 409.227 277.687 410.119 277.687 411.142C277.687 412.156 277.499 413.043 277.124 413.801C276.754 414.56 276.234 415.15 275.565 415.572C274.9 415.994 274.124 416.205 273.238 416.205ZM273.238 414.849C273.911 414.849 274.465 414.677 274.9 414.332C275.335 413.987 275.656 413.533 275.865 412.97C276.074 412.408 276.178 411.798 276.178 411.142C276.178 410.486 276.074 409.874 275.865 409.308C275.656 408.741 275.335 408.283 274.9 407.933C274.465 407.584 273.911 407.409 273.238 407.409C272.565 407.409 272.011 407.584 271.576 407.933C271.141 408.283 270.82 408.741 270.611 409.308C270.402 409.874 270.298 410.486 270.298 411.142C270.298 411.798 270.402 412.408 270.611 412.97C270.82 413.533 271.141 413.987 271.576 414.332C272.011 414.677 272.565 414.849 273.238 414.849ZM285.16 406.182V407.46H280.071V406.182H285.16ZM281.554 403.83H283.063V413.188C283.063 413.614 283.125 413.933 283.248 414.146C283.376 414.355 283.538 414.496 283.734 414.568C283.934 414.636 284.145 414.67 284.367 414.67C284.533 414.67 284.669 414.662 284.776 414.645C284.883 414.624 284.968 414.607 285.032 414.594L285.339 415.949C285.236 415.987 285.094 416.026 284.91 416.064C284.727 416.107 284.495 416.128 284.214 416.128C283.787 416.128 283.37 416.036 282.961 415.853C282.556 415.67 282.219 415.391 281.951 415.016C281.687 414.641 281.554 414.168 281.554 413.597V403.83ZM292.34 416.205C291.394 416.205 290.578 415.996 289.892 415.578C289.21 415.156 288.683 414.568 288.313 413.814C287.946 413.055 287.763 412.173 287.763 411.168C287.763 410.162 287.946 409.276 288.313 408.509C288.683 407.737 289.199 407.136 289.86 406.706C290.524 406.271 291.3 406.054 292.186 406.054C292.698 406.054 293.203 406.139 293.701 406.31C294.2 406.48 294.654 406.757 295.063 407.141C295.472 407.52 295.798 408.023 296.041 408.649C296.284 409.276 296.405 410.047 296.405 410.963V411.602H288.837V410.298H294.871C294.871 409.744 294.76 409.25 294.539 408.815C294.321 408.381 294.01 408.038 293.605 407.786C293.205 407.535 292.732 407.409 292.186 407.409C291.585 407.409 291.066 407.558 290.627 407.857C290.192 408.151 289.857 408.534 289.623 409.007C289.389 409.48 289.272 409.987 289.272 410.528V411.398C289.272 412.139 289.399 412.768 289.655 413.283C289.915 413.795 290.275 414.185 290.735 414.453C291.196 414.717 291.73 414.849 292.34 414.849C292.736 414.849 293.094 414.794 293.414 414.683C293.737 414.568 294.017 414.398 294.251 414.172C294.485 413.942 294.666 413.656 294.794 413.315L296.252 413.724C296.098 414.219 295.84 414.653 295.478 415.028C295.116 415.399 294.669 415.689 294.136 415.898C293.603 416.102 293.005 416.205 292.34 416.205ZM301.108 410.094V416H299.6V406.182H301.057V407.716H301.185C301.415 407.217 301.765 406.817 302.233 406.514C302.702 406.207 303.307 406.054 304.049 406.054C304.713 406.054 305.295 406.19 305.794 406.463C306.292 406.732 306.68 407.141 306.957 407.69C307.234 408.236 307.373 408.926 307.373 409.761V416H305.864V409.864C305.864 409.092 305.664 408.491 305.263 408.061C304.863 407.626 304.313 407.409 303.614 407.409C303.132 407.409 302.702 407.513 302.323 407.722C301.948 407.931 301.652 408.236 301.434 408.636C301.217 409.037 301.108 409.523 301.108 410.094ZM315.299 406.182V407.46H310.211V406.182H315.299ZM311.694 403.83H313.202V413.188C313.202 413.614 313.264 413.933 313.388 414.146C313.516 414.355 313.678 414.496 313.874 414.568C314.074 414.636 314.285 414.67 314.506 414.67C314.673 414.67 314.809 414.662 314.915 414.645C315.022 414.624 315.107 414.607 315.171 414.594L315.478 415.949C315.376 415.987 315.233 416.026 315.05 416.064C314.866 416.107 314.634 416.128 314.353 416.128C313.927 416.128 313.509 416.036 313.1 415.853C312.695 415.67 312.359 415.391 312.09 415.016C311.826 414.641 311.694 414.168 311.694 413.597V403.83ZM318.468 416V406.182H319.977V416H318.468ZM319.235 404.545C318.941 404.545 318.688 404.445 318.475 404.245C318.266 404.045 318.161 403.804 318.161 403.523C318.161 403.241 318.266 403.001 318.475 402.8C318.688 402.6 318.941 402.5 319.235 402.5C319.529 402.5 319.781 402.6 319.989 402.8C320.203 403.001 320.309 403.241 320.309 403.523C320.309 403.804 320.203 404.045 319.989 404.245C319.781 404.445 319.529 404.545 319.235 404.545ZM326.529 416.23C325.907 416.23 325.342 416.113 324.835 415.879C324.328 415.64 323.925 415.297 323.627 414.849C323.329 414.398 323.179 413.852 323.179 413.213C323.179 412.651 323.29 412.195 323.512 411.845C323.733 411.491 324.03 411.214 324.4 411.014C324.771 410.814 325.18 410.665 325.628 410.567C326.079 410.464 326.533 410.384 326.989 410.324C327.586 410.247 328.069 410.19 328.44 410.151C328.815 410.109 329.088 410.038 329.258 409.94C329.433 409.842 329.52 409.672 329.52 409.429V409.378C329.52 408.747 329.348 408.257 329.003 407.908C328.662 407.558 328.144 407.384 327.449 407.384C326.729 407.384 326.165 407.541 325.755 407.857C325.346 408.172 325.059 408.509 324.893 408.866L323.461 408.355C323.716 407.759 324.057 407.294 324.483 406.962C324.914 406.625 325.383 406.391 325.89 406.259C326.401 406.122 326.904 406.054 327.398 406.054C327.714 406.054 328.076 406.092 328.485 406.169C328.898 406.241 329.297 406.393 329.68 406.623C330.068 406.853 330.39 407.2 330.645 407.665C330.901 408.129 331.029 408.751 331.029 409.531V416H329.52V414.67H329.444C329.341 414.884 329.171 415.112 328.932 415.354C328.694 415.597 328.376 415.804 327.98 415.974C327.584 416.145 327.1 416.23 326.529 416.23ZM326.759 414.875C327.356 414.875 327.858 414.758 328.268 414.523C328.681 414.289 328.992 413.987 329.201 413.616C329.414 413.245 329.52 412.855 329.52 412.446V411.065C329.456 411.142 329.316 411.212 329.098 411.276C328.885 411.336 328.638 411.389 328.357 411.436C328.08 411.479 327.809 411.517 327.545 411.551C327.285 411.581 327.074 411.607 326.912 411.628C326.52 411.679 326.154 411.762 325.813 411.877C325.476 411.988 325.204 412.156 324.995 412.382C324.79 412.604 324.688 412.906 324.688 413.29C324.688 413.814 324.882 414.21 325.27 414.479C325.662 414.743 326.158 414.875 326.759 414.875ZM336.191 402.909V416H334.682V402.909H336.191ZM349.524 416.205C348.705 416.205 347.983 415.998 347.357 415.585C346.73 415.167 346.24 414.579 345.887 413.82C345.533 413.058 345.356 412.156 345.356 411.116C345.356 410.085 345.533 409.19 345.887 408.432C346.24 407.673 346.732 407.087 347.363 406.674C347.994 406.261 348.722 406.054 349.549 406.054C350.188 406.054 350.693 406.161 351.064 406.374C351.439 406.582 351.725 406.821 351.921 407.089C352.121 407.354 352.276 407.571 352.387 407.741H352.515V402.909H354.024V416H352.566V414.491H352.387C352.276 414.67 352.119 414.896 351.914 415.169C351.71 415.437 351.418 415.678 351.039 415.891C350.659 416.1 350.154 416.205 349.524 416.205ZM349.728 414.849C350.333 414.849 350.845 414.692 351.262 414.376C351.68 414.057 351.997 413.616 352.215 413.053C352.432 412.487 352.541 411.832 352.541 411.091C352.541 410.358 352.434 409.717 352.221 409.167C352.008 408.613 351.693 408.183 351.275 407.876C350.857 407.565 350.342 407.409 349.728 407.409C349.089 407.409 348.556 407.573 348.13 407.901C347.708 408.225 347.391 408.666 347.178 409.224C346.969 409.778 346.865 410.401 346.865 411.091C346.865 411.79 346.971 412.425 347.184 412.996C347.401 413.562 347.721 414.014 348.143 414.351C348.569 414.683 349.097 414.849 349.728 414.849ZM361.885 416.205C360.998 416.205 360.22 415.994 359.551 415.572C358.887 415.15 358.367 414.56 357.992 413.801C357.621 413.043 357.436 412.156 357.436 411.142C357.436 410.119 357.621 409.227 357.992 408.464C358.367 407.701 358.887 407.109 359.551 406.687C360.22 406.265 360.998 406.054 361.885 406.054C362.771 406.054 363.546 406.265 364.211 406.687C364.88 407.109 365.4 407.701 365.771 408.464C366.146 409.227 366.333 410.119 366.333 411.142C366.333 412.156 366.146 413.043 365.771 413.801C365.4 414.56 364.88 415.15 364.211 415.572C363.546 415.994 362.771 416.205 361.885 416.205ZM361.885 414.849C362.558 414.849 363.112 414.677 363.546 414.332C363.981 413.987 364.303 413.533 364.512 412.97C364.72 412.408 364.825 411.798 364.825 411.142C364.825 410.486 364.72 409.874 364.512 409.308C364.303 408.741 363.981 408.283 363.546 407.933C363.112 407.584 362.558 407.409 361.885 407.409C361.211 407.409 360.657 407.584 360.223 407.933C359.788 408.283 359.466 408.741 359.257 409.308C359.049 409.874 358.944 410.486 358.944 411.142C358.944 411.798 359.049 412.408 359.257 412.97C359.466 413.533 359.788 413.987 360.223 414.332C360.657 414.677 361.211 414.849 361.885 414.849ZM371.427 416L368.435 406.182H370.02L372.143 413.699H372.245L374.341 406.182H375.952L378.023 413.673H378.125L380.248 406.182H381.833L378.841 416H377.358L375.211 408.457H375.057L372.91 416H371.427ZM386.236 410.094V416H384.727V406.182H386.185V407.716H386.312C386.543 407.217 386.892 406.817 387.361 406.514C387.829 406.207 388.435 406.054 389.176 406.054C389.841 406.054 390.422 406.19 390.921 406.463C391.42 406.732 391.807 407.141 392.084 407.69C392.361 408.236 392.5 408.926 392.5 409.761V416H390.991V409.864C390.991 409.092 390.791 408.491 390.391 408.061C389.99 407.626 389.44 407.409 388.741 407.409C388.26 407.409 387.829 407.513 387.45 407.722C387.075 407.931 386.779 408.236 386.562 408.636C386.344 409.037 386.236 409.523 386.236 410.094ZM400.426 406.182V407.46H395.338V406.182H400.426ZM396.821 403.83H398.33V413.188C398.33 413.614 398.392 413.933 398.515 414.146C398.643 414.355 398.805 414.496 399.001 414.568C399.201 414.636 399.412 414.67 399.634 414.67C399.8 414.67 399.936 414.662 400.043 414.645C400.149 414.624 400.235 414.607 400.299 414.594L400.605 415.949C400.503 415.987 400.36 416.026 400.177 416.064C399.994 416.107 399.762 416.128 399.48 416.128C399.054 416.128 398.637 416.036 398.227 415.853C397.823 415.67 397.486 415.391 397.218 415.016C396.953 414.641 396.821 414.168 396.821 413.597V403.83ZM403.596 416V406.182H405.104V416H403.596ZM404.363 404.545C404.069 404.545 403.815 404.445 403.602 404.245C403.393 404.045 403.289 403.804 403.289 403.523C403.289 403.241 403.393 403.001 403.602 402.8C403.815 402.6 404.069 402.5 404.363 402.5C404.657 402.5 404.908 402.6 405.117 402.8C405.33 403.001 405.436 403.241 405.436 403.523C405.436 403.804 405.33 404.045 405.117 404.245C404.908 404.445 404.657 404.545 404.363 404.545ZM408.767 416V406.182H410.224V407.716H410.352C410.557 407.192 410.887 406.785 411.343 406.495C411.799 406.201 412.347 406.054 412.986 406.054C413.633 406.054 414.173 406.201 414.603 406.495C415.038 406.785 415.376 407.192 415.619 407.716H415.722C415.973 407.209 416.35 406.806 416.853 406.508C417.356 406.205 417.959 406.054 418.662 406.054C419.54 406.054 420.258 406.329 420.816 406.879C421.374 407.424 421.653 408.274 421.653 409.429V416H420.145V409.429C420.145 408.705 419.947 408.187 419.55 407.876C419.154 407.565 418.687 407.409 418.151 407.409C417.46 407.409 416.925 407.618 416.546 408.036C416.167 408.449 415.977 408.973 415.977 409.608V416H414.443V409.276C414.443 408.717 414.262 408.268 413.9 407.927C413.538 407.582 413.071 407.409 412.5 407.409C412.108 407.409 411.741 407.513 411.401 407.722C411.064 407.931 410.791 408.221 410.582 408.592C410.378 408.958 410.276 409.382 410.276 409.864V416H408.767ZM429.428 416.205C428.482 416.205 427.666 415.996 426.98 415.578C426.298 415.156 425.772 414.568 425.401 413.814C425.035 413.055 424.851 412.173 424.851 411.168C424.851 410.162 425.035 409.276 425.401 408.509C425.772 407.737 426.287 407.136 426.948 406.706C427.613 406.271 428.388 406.054 429.275 406.054C429.786 406.054 430.291 406.139 430.79 406.31C431.288 406.48 431.742 406.757 432.151 407.141C432.56 407.52 432.886 408.023 433.129 408.649C433.372 409.276 433.493 410.047 433.493 410.963V411.602H425.925V410.298H431.959C431.959 409.744 431.848 409.25 431.627 408.815C431.41 408.381 431.098 408.038 430.694 407.786C430.293 407.535 429.82 407.409 429.275 407.409C428.674 407.409 428.154 407.558 427.715 407.857C427.28 408.151 426.946 408.534 426.711 409.007C426.477 409.48 426.36 409.987 426.36 410.528V411.398C426.36 412.139 426.488 412.768 426.743 413.283C427.003 413.795 427.363 414.185 427.824 414.453C428.284 414.717 428.819 414.849 429.428 414.849C429.824 414.849 430.182 414.794 430.502 414.683C430.826 414.568 431.105 414.398 431.339 414.172C431.574 413.942 431.755 413.656 431.883 413.315L433.34 413.724C433.187 414.219 432.929 414.653 432.567 415.028C432.204 415.399 431.757 415.689 431.224 415.898C430.692 416.102 430.093 416.205 429.428 416.205ZM445.54 416.23C444.918 416.23 444.353 416.113 443.846 415.879C443.339 415.64 442.936 415.297 442.638 414.849C442.34 414.398 442.19 413.852 442.19 413.213C442.19 412.651 442.301 412.195 442.523 411.845C442.744 411.491 443.041 411.214 443.411 411.014C443.782 410.814 444.191 410.665 444.639 410.567C445.09 410.464 445.544 410.384 446 410.324C446.597 410.247 447.08 410.19 447.451 410.151C447.826 410.109 448.099 410.038 448.269 409.94C448.444 409.842 448.531 409.672 448.531 409.429V409.378C448.531 408.747 448.359 408.257 448.014 407.908C447.673 407.558 447.155 407.384 446.46 407.384C445.74 407.384 445.175 407.541 444.766 407.857C444.357 408.172 444.07 408.509 443.903 408.866L442.472 408.355C442.727 407.759 443.068 407.294 443.494 406.962C443.925 406.625 444.394 406.391 444.901 406.259C445.412 406.122 445.915 406.054 446.409 406.054C446.724 406.054 447.087 406.092 447.496 406.169C447.909 406.241 448.308 406.393 448.691 406.623C449.079 406.853 449.401 407.2 449.656 407.665C449.912 408.129 450.04 408.751 450.04 409.531V416H448.531V414.67H448.455C448.352 414.884 448.182 415.112 447.943 415.354C447.705 415.597 447.387 415.804 446.991 415.974C446.595 416.145 446.111 416.23 445.54 416.23ZM445.77 414.875C446.367 414.875 446.869 414.758 447.278 414.523C447.692 414.289 448.003 413.987 448.212 413.616C448.425 413.245 448.531 412.855 448.531 412.446V411.065C448.467 411.142 448.327 411.212 448.109 411.276C447.896 411.336 447.649 411.389 447.368 411.436C447.091 411.479 446.82 411.517 446.556 411.551C446.296 411.581 446.085 411.607 445.923 411.628C445.531 411.679 445.165 411.762 444.824 411.877C444.487 411.988 444.215 412.156 444.006 412.382C443.801 412.604 443.699 412.906 443.699 413.29C443.699 413.814 443.893 414.21 444.281 414.479C444.673 414.743 445.169 414.875 445.77 414.875ZM455.202 410.094V416H453.693V406.182H455.151V407.716H455.278C455.509 407.217 455.858 406.817 456.327 406.514C456.795 406.207 457.401 406.054 458.142 406.054C458.807 406.054 459.388 406.19 459.887 406.463C460.386 406.732 460.773 407.141 461.05 407.69C461.327 408.236 461.466 408.926 461.466 409.761V416H459.957V409.864C459.957 409.092 459.757 408.491 459.357 408.061C458.956 407.626 458.406 407.409 457.707 407.409C457.226 407.409 456.795 407.513 456.416 407.722C456.041 407.931 455.745 408.236 455.528 408.636C455.31 409.037 455.202 409.523 455.202 410.094ZM468.83 416.205C468.012 416.205 467.289 415.998 466.663 415.585C466.037 415.167 465.546 414.579 465.193 413.82C464.839 413.058 464.662 412.156 464.662 411.116C464.662 410.085 464.839 409.19 465.193 408.432C465.546 407.673 466.039 407.087 466.669 406.674C467.3 406.261 468.029 406.054 468.855 406.054C469.495 406.054 470 406.161 470.37 406.374C470.745 406.582 471.031 406.821 471.227 407.089C471.427 407.354 471.583 407.571 471.693 407.741H471.821V402.909H473.33V416H471.872V414.491H471.693C471.583 414.67 471.425 414.896 471.22 415.169C471.016 415.437 470.724 415.678 470.345 415.891C469.966 416.1 469.461 416.205 468.83 416.205ZM469.034 414.849C469.64 414.849 470.151 414.692 470.568 414.376C470.986 414.057 471.304 413.616 471.521 413.053C471.738 412.487 471.847 411.832 471.847 411.091C471.847 410.358 471.74 409.717 471.527 409.167C471.314 408.613 470.999 408.183 470.581 407.876C470.164 407.565 469.648 407.409 469.034 407.409C468.395 407.409 467.863 407.573 467.436 407.901C467.015 408.225 466.697 408.666 466.484 409.224C466.275 409.778 466.171 410.401 466.171 411.091C466.171 411.79 466.277 412.425 466.49 412.996C466.708 413.562 467.027 414.014 467.449 414.351C467.875 414.683 468.404 414.849 469.034 414.849ZM483.165 416V406.182H484.622V407.716H484.75C484.954 407.192 485.285 406.785 485.741 406.495C486.197 406.201 486.744 406.054 487.383 406.054C488.031 406.054 488.57 406.201 489.001 406.495C489.435 406.785 489.774 407.192 490.017 407.716H490.119C490.371 407.209 490.748 406.806 491.251 406.508C491.753 406.205 492.356 406.054 493.06 406.054C493.937 406.054 494.655 406.329 495.214 406.879C495.772 407.424 496.051 408.274 496.051 409.429V416H494.543V409.429C494.543 408.705 494.344 408.187 493.948 407.876C493.552 407.565 493.085 407.409 492.548 407.409C491.858 407.409 491.323 407.618 490.944 408.036C490.565 408.449 490.375 408.973 490.375 409.608V416H488.841V409.276C488.841 408.717 488.66 408.268 488.297 407.927C487.935 407.582 487.469 407.409 486.898 407.409C486.506 407.409 486.139 407.513 485.798 407.722C485.462 407.931 485.189 408.221 484.98 408.592C484.775 408.958 484.673 409.382 484.673 409.864V416H483.165ZM502.598 416.23C501.976 416.23 501.412 416.113 500.905 415.879C500.397 415.64 499.995 415.297 499.696 414.849C499.398 414.398 499.249 413.852 499.249 413.213C499.249 412.651 499.36 412.195 499.581 411.845C499.803 411.491 500.099 411.214 500.47 411.014C500.841 410.814 501.25 410.665 501.697 410.567C502.149 410.464 502.603 410.384 503.059 410.324C503.655 410.247 504.139 410.19 504.51 410.151C504.885 410.109 505.157 410.038 505.328 409.94C505.503 409.842 505.59 409.672 505.59 409.429V409.378C505.59 408.747 505.417 408.257 505.072 407.908C504.731 407.558 504.213 407.384 503.519 407.384C502.799 407.384 502.234 407.541 501.825 407.857C501.416 408.172 501.128 408.509 500.962 408.866L499.53 408.355C499.786 407.759 500.127 407.294 500.553 406.962C500.983 406.625 501.452 406.391 501.959 406.259C502.471 406.122 502.973 406.054 503.468 406.054C503.783 406.054 504.145 406.092 504.554 406.169C504.968 406.241 505.366 406.393 505.75 406.623C506.137 406.853 506.459 407.2 506.715 407.665C506.971 408.129 507.098 408.751 507.098 409.531V416H505.59V414.67H505.513C505.411 414.884 505.24 415.112 505.002 415.354C504.763 415.597 504.446 415.804 504.049 415.974C503.653 416.145 503.169 416.23 502.598 416.23ZM502.829 414.875C503.425 414.875 503.928 414.758 504.337 414.523C504.75 414.289 505.061 413.987 505.27 413.616C505.483 413.245 505.59 412.855 505.59 412.446V411.065C505.526 411.142 505.385 411.212 505.168 411.276C504.955 411.336 504.708 411.389 504.427 411.436C504.15 411.479 503.879 411.517 503.615 411.551C503.355 411.581 503.144 411.607 502.982 411.628C502.59 411.679 502.223 411.762 501.882 411.877C501.546 411.988 501.273 412.156 501.064 412.382C500.86 412.604 500.757 412.906 500.757 413.29C500.757 413.814 500.951 414.21 501.339 414.479C501.731 414.743 502.228 414.875 502.829 414.875ZM511.877 406.182L514.229 410.196L516.581 406.182H518.32L515.15 411.091L518.32 416H516.581L514.229 412.19L511.877 416H510.138L513.257 411.091L510.138 406.182H511.877ZM521.372 416V406.182H522.881V416H521.372ZM522.14 404.545C521.845 404.545 521.592 404.445 521.379 404.245C521.17 404.045 521.066 403.804 521.066 403.523C521.066 403.241 521.17 403.001 521.379 402.8C521.592 402.6 521.845 402.5 522.14 402.5C522.434 402.5 522.685 402.6 522.894 402.8C523.107 403.001 523.213 403.241 523.213 403.523C523.213 403.804 523.107 404.045 522.894 404.245C522.685 404.445 522.434 404.545 522.14 404.545ZM526.544 416V406.182H528.001V407.716H528.129C528.334 407.192 528.664 406.785 529.12 406.495C529.576 406.201 530.123 406.054 530.763 406.054C531.41 406.054 531.949 406.201 532.38 406.495C532.815 406.785 533.153 407.192 533.396 407.716H533.498C533.75 407.209 534.127 406.806 534.63 406.508C535.133 406.205 535.736 406.054 536.439 406.054C537.317 406.054 538.035 406.329 538.593 406.879C539.151 407.424 539.43 408.274 539.43 409.429V416H537.922V409.429C537.922 408.705 537.724 408.187 537.327 407.876C536.931 407.565 536.464 407.409 535.927 407.409C535.237 407.409 534.702 407.618 534.323 408.036C533.944 408.449 533.754 408.973 533.754 409.608V416H532.22V409.276C532.22 408.717 532.039 408.268 531.677 407.927C531.315 407.582 530.848 407.409 530.277 407.409C529.885 407.409 529.518 407.513 529.177 407.722C528.841 407.931 528.568 408.221 528.359 408.592C528.155 408.958 528.052 409.382 528.052 409.864V416H526.544ZM543.089 416V406.182H544.597V416H543.089ZM543.856 404.545C543.562 404.545 543.308 404.445 543.095 404.245C542.886 404.045 542.782 403.804 542.782 403.523C542.782 403.241 542.886 403.001 543.095 402.8C543.308 402.6 543.562 402.5 543.856 402.5C544.15 402.5 544.401 402.6 544.61 402.8C544.823 403.001 544.929 403.241 544.929 403.523C544.929 403.804 544.823 404.045 544.61 404.245C544.401 404.445 544.15 404.545 543.856 404.545ZM547.979 416V414.849L553.553 407.69V407.588H548.158V406.182H555.496V407.384L550.075 414.491V414.594H555.675V416H547.979ZM562.733 416.205C561.787 416.205 560.971 415.996 560.285 415.578C559.604 415.156 559.077 414.568 558.706 413.814C558.34 413.055 558.157 412.173 558.157 411.168C558.157 410.162 558.34 409.276 558.706 408.509C559.077 407.737 559.593 407.136 560.253 406.706C560.918 406.271 561.694 406.054 562.58 406.054C563.091 406.054 563.596 406.139 564.095 406.31C564.594 406.48 565.047 406.757 565.456 407.141C565.866 407.52 566.192 408.023 566.434 408.649C566.677 409.276 566.799 410.047 566.799 410.963V411.602H559.231V410.298H565.265C565.265 409.744 565.154 409.25 564.932 408.815C564.715 408.381 564.404 408.038 563.999 407.786C563.599 407.535 563.126 407.409 562.58 407.409C561.979 407.409 561.459 407.558 561.02 407.857C560.586 408.151 560.251 408.534 560.017 409.007C559.782 409.48 559.665 409.987 559.665 410.528V411.398C559.665 412.139 559.793 412.768 560.049 413.283C560.309 413.795 560.669 414.185 561.129 414.453C561.589 414.717 562.124 414.849 562.733 414.849C563.13 414.849 563.488 414.794 563.807 414.683C564.131 414.568 564.41 414.398 564.645 414.172C564.879 413.942 565.06 413.656 565.188 413.315L566.645 413.724C566.492 414.219 566.234 414.653 565.872 415.028C565.51 415.399 565.062 415.689 564.53 415.898C563.997 416.102 563.398 416.205 562.733 416.205ZM576.948 408.381L575.593 408.764C575.508 408.538 575.382 408.319 575.216 408.106C575.054 407.888 574.832 407.71 574.551 407.569C574.27 407.428 573.91 407.358 573.471 407.358C572.87 407.358 572.369 407.496 571.969 407.773C571.572 408.046 571.374 408.393 571.374 408.815C571.374 409.19 571.511 409.487 571.783 409.704C572.056 409.921 572.482 410.102 573.062 410.247L574.519 410.605C575.397 410.818 576.051 411.144 576.481 411.583C576.912 412.018 577.127 412.578 577.127 413.264C577.127 413.827 576.965 414.33 576.641 414.773C576.322 415.216 575.874 415.565 575.299 415.821C574.724 416.077 574.055 416.205 573.292 416.205C572.29 416.205 571.462 415.987 570.805 415.553C570.149 415.118 569.734 414.483 569.559 413.648L570.991 413.29C571.127 413.818 571.385 414.214 571.764 414.479C572.148 414.743 572.648 414.875 573.266 414.875C573.969 414.875 574.528 414.726 574.941 414.428C575.359 414.125 575.567 413.763 575.567 413.341C575.567 413 575.448 412.714 575.209 412.484C574.971 412.25 574.604 412.075 574.11 411.96L572.474 411.577C571.575 411.364 570.914 411.033 570.492 410.586C570.075 410.134 569.866 409.57 569.866 408.892C569.866 408.338 570.021 407.848 570.332 407.422C570.648 406.996 571.076 406.661 571.617 406.418C572.163 406.175 572.78 406.054 573.471 406.054C574.442 406.054 575.205 406.267 575.759 406.693C576.317 407.119 576.714 407.682 576.948 408.381ZM261.497 443.205C260.551 443.205 259.735 442.996 259.049 442.578C258.367 442.156 257.841 441.568 257.47 440.814C257.104 440.055 256.92 439.173 256.92 438.168C256.92 437.162 257.104 436.276 257.47 435.509C257.841 434.737 258.357 434.136 259.017 433.706C259.682 433.271 260.457 433.054 261.344 433.054C261.855 433.054 262.36 433.139 262.859 433.31C263.357 433.48 263.811 433.757 264.22 434.141C264.629 434.52 264.955 435.023 265.198 435.649C265.441 436.276 265.562 437.047 265.562 437.963V438.602H257.994V437.298H264.028C264.028 436.744 263.918 436.25 263.696 435.815C263.479 435.381 263.168 435.038 262.763 434.786C262.362 434.535 261.889 434.409 261.344 434.409C260.743 434.409 260.223 434.558 259.784 434.857C259.349 435.151 259.015 435.534 258.781 436.007C258.546 436.48 258.429 436.987 258.429 437.528V438.398C258.429 439.139 258.557 439.768 258.812 440.283C259.072 440.795 259.433 441.185 259.893 441.453C260.353 441.717 260.888 441.849 261.497 441.849C261.893 441.849 262.251 441.794 262.571 441.683C262.895 441.568 263.174 441.398 263.408 441.172C263.643 440.942 263.824 440.656 263.952 440.315L265.409 440.724C265.256 441.219 264.998 441.653 264.636 442.028C264.273 442.399 263.826 442.689 263.293 442.898C262.761 443.102 262.162 443.205 261.497 443.205ZM273.129 433.182V434.46H267.837V433.182H273.129ZM269.422 443V431.827C269.422 431.264 269.554 430.795 269.818 430.42C270.083 430.045 270.426 429.764 270.847 429.577C271.269 429.389 271.715 429.295 272.183 429.295C272.554 429.295 272.857 429.325 273.091 429.385C273.325 429.445 273.5 429.5 273.615 429.551L273.181 430.855C273.104 430.83 272.997 430.798 272.861 430.759C272.729 430.721 272.554 430.702 272.337 430.702C271.838 430.702 271.478 430.827 271.257 431.079C271.039 431.33 270.931 431.699 270.931 432.185V443H269.422ZM280.516 433.182V434.46H275.223V433.182H280.516ZM276.808 443V431.827C276.808 431.264 276.94 430.795 277.205 430.42C277.469 430.045 277.812 429.764 278.234 429.577C278.656 429.389 279.101 429.295 279.57 429.295C279.94 429.295 280.243 429.325 280.477 429.385C280.712 429.445 280.886 429.5 281.002 429.551L280.567 430.855C280.49 430.83 280.384 430.798 280.247 430.759C280.115 430.721 279.94 430.702 279.723 430.702C279.225 430.702 278.864 430.827 278.643 431.079C278.426 431.33 278.317 431.699 278.317 432.185V443H276.808ZM283.53 443V433.182H285.038V443H283.53ZM284.297 431.545C284.003 431.545 283.749 431.445 283.536 431.245C283.327 431.045 283.223 430.804 283.223 430.523C283.223 430.241 283.327 430.001 283.536 429.8C283.749 429.6 284.003 429.5 284.297 429.5C284.591 429.5 284.842 429.6 285.051 429.8C285.264 430.001 285.371 430.241 285.371 430.523C285.371 430.804 285.264 431.045 285.051 431.245C284.842 431.445 284.591 431.545 284.297 431.545ZM292.69 443.205C291.77 443.205 290.977 442.987 290.312 442.553C289.647 442.118 289.136 441.519 288.778 440.756C288.42 439.994 288.241 439.122 288.241 438.142C288.241 437.145 288.424 436.265 288.791 435.502C289.162 434.735 289.677 434.136 290.338 433.706C291.003 433.271 291.778 433.054 292.664 433.054C293.355 433.054 293.977 433.182 294.531 433.438C295.085 433.693 295.539 434.051 295.892 434.511C296.246 434.972 296.466 435.509 296.551 436.122H295.042C294.927 435.675 294.672 435.278 294.275 434.933C293.883 434.584 293.355 434.409 292.69 434.409C292.102 434.409 291.586 434.562 291.143 434.869C290.704 435.172 290.361 435.6 290.114 436.154C289.871 436.704 289.75 437.349 289.75 438.091C289.75 438.849 289.869 439.51 290.108 440.072C290.351 440.635 290.691 441.072 291.13 441.383C291.574 441.694 292.093 441.849 292.69 441.849C293.082 441.849 293.438 441.781 293.757 441.645C294.077 441.509 294.348 441.312 294.569 441.057C294.791 440.801 294.949 440.494 295.042 440.136H296.551C296.466 440.716 296.255 441.238 295.918 441.702C295.586 442.163 295.145 442.529 294.595 442.802C294.049 443.07 293.414 443.205 292.69 443.205ZM299.656 443V433.182H301.165V443H299.656ZM300.423 431.545C300.129 431.545 299.876 431.445 299.662 431.245C299.454 431.045 299.349 430.804 299.349 430.523C299.349 430.241 299.454 430.001 299.662 429.8C299.876 429.6 300.129 429.5 300.423 429.5C300.717 429.5 300.969 429.6 301.177 429.8C301.39 430.001 301.497 430.241 301.497 430.523C301.497 430.804 301.39 431.045 301.177 431.245C300.969 431.445 300.717 431.545 300.423 431.545ZM308.944 443.205C307.998 443.205 307.182 442.996 306.496 442.578C305.814 442.156 305.288 441.568 304.917 440.814C304.551 440.055 304.367 439.173 304.367 438.168C304.367 437.162 304.551 436.276 304.917 435.509C305.288 434.737 305.803 434.136 306.464 433.706C307.129 433.271 307.904 433.054 308.791 433.054C309.302 433.054 309.807 433.139 310.306 433.31C310.804 433.48 311.258 433.757 311.667 434.141C312.076 434.52 312.402 435.023 312.645 435.649C312.888 436.276 313.009 437.047 313.009 437.963V438.602H305.441V437.298H311.475C311.475 436.744 311.364 436.25 311.143 435.815C310.926 435.381 310.614 435.038 310.21 434.786C309.809 434.535 309.336 434.409 308.791 434.409C308.19 434.409 307.67 434.558 307.231 434.857C306.796 435.151 306.462 435.534 306.227 436.007C305.993 436.48 305.876 436.987 305.876 437.528V438.398C305.876 439.139 306.004 439.768 306.259 440.283C306.519 440.795 306.879 441.185 307.34 441.453C307.8 441.717 308.335 441.849 308.944 441.849C309.34 441.849 309.698 441.794 310.018 441.683C310.342 441.568 310.621 441.398 310.855 441.172C311.09 440.942 311.271 440.656 311.399 440.315L312.856 440.724C312.703 441.219 312.445 441.653 312.083 442.028C311.72 442.399 311.273 442.689 310.74 442.898C310.208 443.102 309.609 443.205 308.944 443.205ZM317.713 437.094V443H316.204V433.182H317.662V434.716H317.789C318.019 434.217 318.369 433.817 318.838 433.514C319.306 433.207 319.912 433.054 320.653 433.054C321.318 433.054 321.899 433.19 322.398 433.463C322.897 433.732 323.284 434.141 323.561 434.69C323.838 435.236 323.977 435.926 323.977 436.761V443H322.468V436.864C322.468 436.092 322.268 435.491 321.867 435.061C321.467 434.626 320.917 434.409 320.218 434.409C319.737 434.409 319.306 434.513 318.927 434.722C318.552 434.931 318.256 435.236 318.039 435.636C317.821 436.037 317.713 436.523 317.713 437.094ZM331.622 443.205C330.702 443.205 329.909 442.987 329.244 442.553C328.579 442.118 328.068 441.519 327.71 440.756C327.352 439.994 327.173 439.122 327.173 438.142C327.173 437.145 327.356 436.265 327.723 435.502C328.094 434.735 328.609 434.136 329.27 433.706C329.935 433.271 330.71 433.054 331.596 433.054C332.287 433.054 332.909 433.182 333.463 433.438C334.017 433.693 334.471 434.051 334.824 434.511C335.178 434.972 335.398 435.509 335.483 436.122H333.974C333.859 435.675 333.604 435.278 333.207 434.933C332.815 434.584 332.287 434.409 331.622 434.409C331.034 434.409 330.518 434.562 330.075 434.869C329.636 435.172 329.293 435.6 329.046 436.154C328.803 436.704 328.682 437.349 328.682 438.091C328.682 438.849 328.801 439.51 329.04 440.072C329.283 440.635 329.623 441.072 330.062 441.383C330.506 441.694 331.025 441.849 331.622 441.849C332.014 441.849 332.37 441.781 332.69 441.645C333.009 441.509 333.28 441.312 333.501 441.057C333.723 440.801 333.881 440.494 333.974 440.136H335.483C335.398 440.716 335.187 441.238 334.85 441.702C334.518 442.163 334.077 442.529 333.527 442.802C332.981 443.07 332.346 443.205 331.622 443.205ZM339.56 446.682C339.304 446.682 339.076 446.661 338.876 446.618C338.675 446.58 338.537 446.541 338.46 446.503L338.844 445.173C339.21 445.267 339.534 445.301 339.815 445.276C340.097 445.25 340.346 445.124 340.563 444.898C340.785 444.677 340.987 444.317 341.17 443.818L341.452 443.051L337.821 433.182H339.457L342.168 441.006H342.27L344.98 433.182H346.617L342.449 444.432C342.261 444.939 342.029 445.359 341.752 445.691C341.475 446.028 341.153 446.277 340.787 446.439C340.425 446.601 340.016 446.682 339.56 446.682ZM349.992 443.102C349.676 443.102 349.406 442.989 349.18 442.763C348.954 442.538 348.841 442.267 348.841 441.952C348.841 441.636 348.954 441.366 349.18 441.14C349.406 440.914 349.676 440.801 349.992 440.801C350.307 440.801 350.578 440.914 350.804 441.14C351.029 441.366 351.142 441.636 351.142 441.952C351.142 442.161 351.089 442.352 350.983 442.527C350.88 442.702 350.742 442.842 350.567 442.949C350.397 443.051 350.205 443.102 349.992 443.102Z" fill="#1D1D1F"/>
</g>
<defs>
<clipPath id="clip0_89_939">
<rect width="1440" height="900" fill="white"/>
</clipPath>
</defs>
</svg>
