<svg width="156" height="156" viewBox="0 0 156 156" fill="none" xmlns="http://www.w3.org/2000/svg">
<mask id="mask0_1301_498" style="mask-type:luminance" maskUnits="userSpaceOnUse" x="0" y="0" width="156" height="156">
<path d="M156 0H0V156H156V0Z" fill="white"/>
</mask>
<g mask="url(#mask0_1301_498)">
<path d="M22.4523 70.3699V30.4222C22.4523 29.2559 22.8411 28.1867 23.7159 27.4092C24.3963 26.826 25.1738 26.5344 26.1458 26.5344H51.4168H82.4224V3.98486H81.5477C75.9103 3.98486 71.2449 8.55309 71.2449 14.2877V14.4821C71.2449 17.3007 69.1066 19.7307 66.2879 19.8278C63.372 19.925 61.0393 17.5923 61.0393 14.6765V14.1905C61.0393 8.55309 56.471 3.98486 50.8337 3.98486H47.043H42.3776H18.8561C15.2598 3.98486 11.9551 4.76243 9.13645 6.41477C6.31776 8.06711 3.98505 10.3026 2.42991 13.1213C0.77757 15.94 0 19.2447 0 22.8409V77.6596C0 81.2559 0.77757 84.5605 2.42991 87.3792C4.08224 90.1979 6.31776 92.5307 9.13645 94.0858C11.9551 95.7381 15.2598 96.5157 18.8561 96.5157H82.5196V74.0634H26.4374C25.271 74.0634 24.2019 73.6746 23.4243 72.7998C22.7439 72.1194 22.4523 71.3419 22.4523 70.3699Z" fill="#FF2D2E"/>
</g>
<mask id="mask1_1301_498" style="mask-type:luminance" maskUnits="userSpaceOnUse" x="0" y="0" width="156" height="156">
<path d="M156 0H0V156H156V0Z" fill="white"/>
</mask>
<g mask="url(#mask1_1301_498)">
<path d="M172.326 155.416H-25.4688L-13.8052 132.187L21.0883 120.523L44.3182 85.6295V73.966H55.9817L67.6453 39.0725L102.539 50.7361L114.105 73.966V97.2931L137.432 108.957L149.096 132.187L160.662 143.85L172.326 155.416Z" fill="white"/>
</g>
<path d="M111.386 111.68L97.5845 101.863V81.4517H102.153V99.433L114.011 107.889L111.386 111.68Z" fill="black"/>
<mask id="mask2_1301_498" style="mask-type:luminance" maskUnits="userSpaceOnUse" x="0" y="0" width="156" height="156">
<path d="M156 0H0V156H156V0Z" fill="white"/>
</mask>
<g mask="url(#mask2_1301_498)">
<path d="M147.057 150.846L129.562 134.614L121.592 117.605L125.771 115.661L133.45 131.893L150.168 147.444L147.057 150.846Z" fill="black"/>
</g>
</svg>
