<svg width="1440" height="194" viewBox="0 0 1440 194" fill="none" xmlns="http://www.w3.org/2000/svg">
<g clip-path="url(#clip0_7_4969)">
<rect width="1440" height="194" fill="#EFF9FC"/>
<path d="M1.7949 113V75.2H8.9769V107.33H29.1189V113H1.7949ZM46.5807 113.702C42.2967 113.702 38.8227 112.352 36.1587 109.652C33.4947 106.916 32.1627 103.154 32.1627 98.366C32.1627 96.962 32.2707 95.666 32.4867 94.478C32.7387 93.254 33.0807 92.12 33.5127 91.076C33.9447 90.032 34.4847 89.078 35.1327 88.214C35.7807 87.35 36.5007 86.594 37.2927 85.946C38.1207 85.298 39.0027 84.758 39.9387 84.326C40.9107 83.858 41.9547 83.516 43.0707 83.3C44.1867 83.048 45.3567 82.922 46.5807 82.922C47.8047 82.922 48.9747 83.048 50.0907 83.3C51.2067 83.516 52.2507 83.858 53.2227 84.326C54.1947 84.758 55.0767 85.298 55.8687 85.946C56.6967 86.594 57.4347 87.35 58.0827 88.214C58.7307 89.078 59.2707 90.032 59.7027 91.076C60.1347 92.12 60.4587 93.254 60.6747 94.478C60.9267 95.666 61.0527 96.962 61.0527 98.366C61.0527 103.154 59.7207 106.916 57.0567 109.652C54.3927 112.352 50.9007 113.702 46.5807 113.702ZM46.5807 108.626C48.8487 108.626 50.6667 107.762 52.0347 106.034C53.4387 104.27 54.1407 101.696 54.1407 98.312C54.1407 94.964 53.4387 92.408 52.0347 90.644C50.6667 88.88 48.8487 87.998 46.5807 87.998C44.3127 87.998 42.4947 88.88 41.1267 90.644C39.7587 92.408 39.0747 94.964 39.0747 98.312C39.0747 101.696 39.7587 104.27 41.1267 106.034C42.4947 107.762 44.3127 108.626 46.5807 108.626ZM78.5605 113.216C74.7805 113.216 71.7205 111.866 69.3805 109.166C67.0405 106.466 65.8705 102.794 65.8705 98.15C65.8705 93.542 67.0405 89.888 69.3805 87.188C71.7565 84.452 74.8165 83.084 78.5605 83.084C80.5405 83.084 82.3405 83.534 83.9605 84.434C85.5805 85.334 86.9125 86.612 87.9565 88.268V83.678H94.8685V111.596C94.8685 115.52 93.5725 118.472 90.9805 120.452C88.4245 122.468 84.9685 123.476 80.6125 123.476C76.8685 123.476 73.7545 122.72 71.2705 121.208C68.8225 119.696 67.2925 117.536 66.6805 114.728H73.4845C73.9165 116.168 74.7265 117.248 75.9145 117.968C77.1025 118.688 78.6865 119.048 80.6665 119.048C82.8985 119.048 84.6625 118.508 85.9585 117.428C87.2905 116.348 87.9565 114.728 87.9565 112.568V108.032C86.9125 109.688 85.5805 110.966 83.9605 111.866C82.3405 112.766 80.5405 113.216 78.5605 113.216ZM80.2885 108.248C82.5925 108.248 84.4465 107.384 85.8505 105.656C87.2545 103.928 87.9565 101.426 87.9565 98.15C87.9565 94.838 87.2545 92.336 85.8505 90.644C84.4465 88.916 82.5925 88.052 80.2885 88.052C78.0205 88.052 76.2025 88.916 74.8345 90.644C73.4665 92.336 72.7825 94.838 72.7825 98.15C72.7825 101.426 73.4665 103.928 74.8345 105.656C76.2025 107.384 78.0205 108.248 80.2885 108.248ZM114.471 113.702C110.187 113.702 106.713 112.352 104.049 109.652C101.385 106.916 100.053 103.154 100.053 98.366C100.053 96.962 100.161 95.666 100.377 94.478C100.629 93.254 100.971 92.12 101.403 91.076C101.835 90.032 102.375 89.078 103.023 88.214C103.671 87.35 104.391 86.594 105.183 85.946C106.011 85.298 106.893 84.758 107.829 84.326C108.801 83.858 109.845 83.516 110.961 83.3C112.077 83.048 113.247 82.922 114.471 82.922C115.695 82.922 116.865 83.048 117.981 83.3C119.097 83.516 120.141 83.858 121.113 84.326C122.085 84.758 122.967 85.298 123.759 85.946C124.587 86.594 125.325 87.35 125.973 88.214C126.621 89.078 127.161 90.032 127.593 91.076C128.025 92.12 128.349 93.254 128.565 94.478C128.817 95.666 128.943 96.962 128.943 98.366C128.943 103.154 127.611 106.916 124.947 109.652C122.283 112.352 118.791 113.702 114.471 113.702ZM114.471 108.626C116.739 108.626 118.557 107.762 119.925 106.034C121.329 104.27 122.031 101.696 122.031 98.312C122.031 94.964 121.329 92.408 119.925 90.644C118.557 88.88 116.739 87.998 114.471 87.998C112.203 87.998 110.385 88.88 109.017 90.644C107.649 92.408 106.965 94.964 106.965 98.312C106.965 101.696 107.649 104.27 109.017 106.034C110.385 107.762 112.203 108.626 114.471 108.626Z" fill="#C2DFE8"/>
<path d="M181.795 113V75.2H188.977V107.33H209.119V113H181.795ZM226.581 113.702C222.297 113.702 218.823 112.352 216.159 109.652C213.495 106.916 212.163 103.154 212.163 98.366C212.163 96.962 212.271 95.666 212.487 94.478C212.739 93.254 213.081 92.12 213.513 91.076C213.945 90.032 214.485 89.078 215.133 88.214C215.781 87.35 216.501 86.594 217.293 85.946C218.121 85.298 219.003 84.758 219.939 84.326C220.911 83.858 221.955 83.516 223.071 83.3C224.187 83.048 225.357 82.922 226.581 82.922C227.805 82.922 228.975 83.048 230.091 83.3C231.207 83.516 232.251 83.858 233.223 84.326C234.195 84.758 235.077 85.298 235.869 85.946C236.697 86.594 237.435 87.35 238.083 88.214C238.731 89.078 239.271 90.032 239.703 91.076C240.135 92.12 240.459 93.254 240.675 94.478C240.927 95.666 241.053 96.962 241.053 98.366C241.053 103.154 239.721 106.916 237.057 109.652C234.393 112.352 230.901 113.702 226.581 113.702ZM226.581 108.626C228.849 108.626 230.667 107.762 232.035 106.034C233.439 104.27 234.141 101.696 234.141 98.312C234.141 94.964 233.439 92.408 232.035 90.644C230.667 88.88 228.849 87.998 226.581 87.998C224.313 87.998 222.495 88.88 221.127 90.644C219.759 92.408 219.075 94.964 219.075 98.312C219.075 101.696 219.759 104.27 221.127 106.034C222.495 107.762 224.313 108.626 226.581 108.626ZM258.561 113.216C254.781 113.216 251.721 111.866 249.381 109.166C247.041 106.466 245.871 102.794 245.871 98.15C245.871 93.542 247.041 89.888 249.381 87.188C251.757 84.452 254.817 83.084 258.561 83.084C260.541 83.084 262.341 83.534 263.961 84.434C265.581 85.334 266.913 86.612 267.957 88.268V83.678H274.869V111.596C274.869 115.52 273.573 118.472 270.981 120.452C268.425 122.468 264.969 123.476 260.613 123.476C256.869 123.476 253.755 122.72 251.271 121.208C248.823 119.696 247.293 117.536 246.681 114.728H253.485C253.917 116.168 254.727 117.248 255.915 117.968C257.103 118.688 258.687 119.048 260.667 119.048C262.899 119.048 264.663 118.508 265.959 117.428C267.291 116.348 267.957 114.728 267.957 112.568V108.032C266.913 109.688 265.581 110.966 263.961 111.866C262.341 112.766 260.541 113.216 258.561 113.216ZM260.289 108.248C262.593 108.248 264.447 107.384 265.851 105.656C267.255 103.928 267.957 101.426 267.957 98.15C267.957 94.838 267.255 92.336 265.851 90.644C264.447 88.916 262.593 88.052 260.289 88.052C258.021 88.052 256.203 88.916 254.835 90.644C253.467 92.336 252.783 94.838 252.783 98.15C252.783 101.426 253.467 103.928 254.835 105.656C256.203 107.384 258.021 108.248 260.289 108.248ZM294.471 113.702C290.187 113.702 286.713 112.352 284.049 109.652C281.385 106.916 280.053 103.154 280.053 98.366C280.053 96.962 280.161 95.666 280.377 94.478C280.629 93.254 280.971 92.12 281.403 91.076C281.835 90.032 282.375 89.078 283.023 88.214C283.671 87.35 284.391 86.594 285.183 85.946C286.011 85.298 286.893 84.758 287.829 84.326C288.801 83.858 289.845 83.516 290.961 83.3C292.077 83.048 293.247 82.922 294.471 82.922C295.695 82.922 296.865 83.048 297.981 83.3C299.097 83.516 300.141 83.858 301.113 84.326C302.085 84.758 302.967 85.298 303.759 85.946C304.587 86.594 305.325 87.35 305.973 88.214C306.621 89.078 307.161 90.032 307.593 91.076C308.025 92.12 308.349 93.254 308.565 94.478C308.817 95.666 308.943 96.962 308.943 98.366C308.943 103.154 307.611 106.916 304.947 109.652C302.283 112.352 298.791 113.702 294.471 113.702ZM294.471 108.626C296.739 108.626 298.557 107.762 299.925 106.034C301.329 104.27 302.031 101.696 302.031 98.312C302.031 94.964 301.329 92.408 299.925 90.644C298.557 88.88 296.739 87.998 294.471 87.998C292.203 87.998 290.385 88.88 289.017 90.644C287.649 92.408 286.965 94.964 286.965 98.312C286.965 101.696 287.649 104.27 289.017 106.034C290.385 107.762 292.203 108.626 294.471 108.626Z" fill="#C2DFE8"/>
<path d="M361.795 113V75.2H368.977V107.33H389.119V113H361.795ZM406.581 113.702C402.297 113.702 398.823 112.352 396.159 109.652C393.495 106.916 392.163 103.154 392.163 98.366C392.163 96.962 392.271 95.666 392.487 94.478C392.739 93.254 393.081 92.12 393.513 91.076C393.945 90.032 394.485 89.078 395.133 88.214C395.781 87.35 396.501 86.594 397.293 85.946C398.121 85.298 399.003 84.758 399.939 84.326C400.911 83.858 401.955 83.516 403.071 83.3C404.187 83.048 405.357 82.922 406.581 82.922C407.805 82.922 408.975 83.048 410.091 83.3C411.207 83.516 412.251 83.858 413.223 84.326C414.195 84.758 415.077 85.298 415.869 85.946C416.697 86.594 417.435 87.35 418.083 88.214C418.731 89.078 419.271 90.032 419.703 91.076C420.135 92.12 420.459 93.254 420.675 94.478C420.927 95.666 421.053 96.962 421.053 98.366C421.053 103.154 419.721 106.916 417.057 109.652C414.393 112.352 410.901 113.702 406.581 113.702ZM406.581 108.626C408.849 108.626 410.667 107.762 412.035 106.034C413.439 104.27 414.141 101.696 414.141 98.312C414.141 94.964 413.439 92.408 412.035 90.644C410.667 88.88 408.849 87.998 406.581 87.998C404.313 87.998 402.495 88.88 401.127 90.644C399.759 92.408 399.075 94.964 399.075 98.312C399.075 101.696 399.759 104.27 401.127 106.034C402.495 107.762 404.313 108.626 406.581 108.626ZM438.561 113.216C434.781 113.216 431.721 111.866 429.381 109.166C427.041 106.466 425.871 102.794 425.871 98.15C425.871 93.542 427.041 89.888 429.381 87.188C431.757 84.452 434.817 83.084 438.561 83.084C440.541 83.084 442.341 83.534 443.961 84.434C445.581 85.334 446.913 86.612 447.957 88.268V83.678H454.869V111.596C454.869 115.52 453.573 118.472 450.981 120.452C448.425 122.468 444.969 123.476 440.613 123.476C436.869 123.476 433.755 122.72 431.271 121.208C428.823 119.696 427.293 117.536 426.681 114.728H433.485C433.917 116.168 434.727 117.248 435.915 117.968C437.103 118.688 438.687 119.048 440.667 119.048C442.899 119.048 444.663 118.508 445.959 117.428C447.291 116.348 447.957 114.728 447.957 112.568V108.032C446.913 109.688 445.581 110.966 443.961 111.866C442.341 112.766 440.541 113.216 438.561 113.216ZM440.289 108.248C442.593 108.248 444.447 107.384 445.851 105.656C447.255 103.928 447.957 101.426 447.957 98.15C447.957 94.838 447.255 92.336 445.851 90.644C444.447 88.916 442.593 88.052 440.289 88.052C438.021 88.052 436.203 88.916 434.835 90.644C433.467 92.336 432.783 94.838 432.783 98.15C432.783 101.426 433.467 103.928 434.835 105.656C436.203 107.384 438.021 108.248 440.289 108.248ZM474.471 113.702C470.187 113.702 466.713 112.352 464.049 109.652C461.385 106.916 460.053 103.154 460.053 98.366C460.053 96.962 460.161 95.666 460.377 94.478C460.629 93.254 460.971 92.12 461.403 91.076C461.835 90.032 462.375 89.078 463.023 88.214C463.671 87.35 464.391 86.594 465.183 85.946C466.011 85.298 466.893 84.758 467.829 84.326C468.801 83.858 469.845 83.516 470.961 83.3C472.077 83.048 473.247 82.922 474.471 82.922C475.695 82.922 476.865 83.048 477.981 83.3C479.097 83.516 480.141 83.858 481.113 84.326C482.085 84.758 482.967 85.298 483.759 85.946C484.587 86.594 485.325 87.35 485.973 88.214C486.621 89.078 487.161 90.032 487.593 91.076C488.025 92.12 488.349 93.254 488.565 94.478C488.817 95.666 488.943 96.962 488.943 98.366C488.943 103.154 487.611 106.916 484.947 109.652C482.283 112.352 478.791 113.702 474.471 113.702ZM474.471 108.626C476.739 108.626 478.557 107.762 479.925 106.034C481.329 104.27 482.031 101.696 482.031 98.312C482.031 94.964 481.329 92.408 479.925 90.644C478.557 88.88 476.739 87.998 474.471 87.998C472.203 87.998 470.385 88.88 469.017 90.644C467.649 92.408 466.965 94.964 466.965 98.312C466.965 101.696 467.649 104.27 469.017 106.034C470.385 107.762 472.203 108.626 474.471 108.626Z" fill="#C2DFE8"/>
<path d="M541.795 113V75.2H548.977V107.33H569.119V113H541.795ZM586.581 113.702C582.297 113.702 578.823 112.352 576.159 109.652C573.495 106.916 572.163 103.154 572.163 98.366C572.163 96.962 572.271 95.666 572.487 94.478C572.739 93.254 573.081 92.12 573.513 91.076C573.945 90.032 574.485 89.078 575.133 88.214C575.781 87.35 576.501 86.594 577.293 85.946C578.121 85.298 579.003 84.758 579.939 84.326C580.911 83.858 581.955 83.516 583.071 83.3C584.187 83.048 585.357 82.922 586.581 82.922C587.805 82.922 588.975 83.048 590.091 83.3C591.207 83.516 592.251 83.858 593.223 84.326C594.195 84.758 595.077 85.298 595.869 85.946C596.697 86.594 597.435 87.35 598.083 88.214C598.731 89.078 599.271 90.032 599.703 91.076C600.135 92.12 600.459 93.254 600.675 94.478C600.927 95.666 601.053 96.962 601.053 98.366C601.053 103.154 599.721 106.916 597.057 109.652C594.393 112.352 590.901 113.702 586.581 113.702ZM586.581 108.626C588.849 108.626 590.667 107.762 592.035 106.034C593.439 104.27 594.141 101.696 594.141 98.312C594.141 94.964 593.439 92.408 592.035 90.644C590.667 88.88 588.849 87.998 586.581 87.998C584.313 87.998 582.495 88.88 581.127 90.644C579.759 92.408 579.075 94.964 579.075 98.312C579.075 101.696 579.759 104.27 581.127 106.034C582.495 107.762 584.313 108.626 586.581 108.626ZM618.561 113.216C614.781 113.216 611.721 111.866 609.381 109.166C607.041 106.466 605.871 102.794 605.871 98.15C605.871 93.542 607.041 89.888 609.381 87.188C611.757 84.452 614.817 83.084 618.561 83.084C620.541 83.084 622.341 83.534 623.961 84.434C625.581 85.334 626.913 86.612 627.957 88.268V83.678H634.869V111.596C634.869 115.52 633.573 118.472 630.981 120.452C628.425 122.468 624.969 123.476 620.613 123.476C616.869 123.476 613.755 122.72 611.271 121.208C608.823 119.696 607.293 117.536 606.681 114.728H613.485C613.917 116.168 614.727 117.248 615.915 117.968C617.103 118.688 618.687 119.048 620.667 119.048C622.899 119.048 624.663 118.508 625.959 117.428C627.291 116.348 627.957 114.728 627.957 112.568V108.032C626.913 109.688 625.581 110.966 623.961 111.866C622.341 112.766 620.541 113.216 618.561 113.216ZM620.289 108.248C622.593 108.248 624.447 107.384 625.851 105.656C627.255 103.928 627.957 101.426 627.957 98.15C627.957 94.838 627.255 92.336 625.851 90.644C624.447 88.916 622.593 88.052 620.289 88.052C618.021 88.052 616.203 88.916 614.835 90.644C613.467 92.336 612.783 94.838 612.783 98.15C612.783 101.426 613.467 103.928 614.835 105.656C616.203 107.384 618.021 108.248 620.289 108.248ZM654.471 113.702C650.187 113.702 646.713 112.352 644.049 109.652C641.385 106.916 640.053 103.154 640.053 98.366C640.053 96.962 640.161 95.666 640.377 94.478C640.629 93.254 640.971 92.12 641.403 91.076C641.835 90.032 642.375 89.078 643.023 88.214C643.671 87.35 644.391 86.594 645.183 85.946C646.011 85.298 646.893 84.758 647.829 84.326C648.801 83.858 649.845 83.516 650.961 83.3C652.077 83.048 653.247 82.922 654.471 82.922C655.695 82.922 656.865 83.048 657.981 83.3C659.097 83.516 660.141 83.858 661.113 84.326C662.085 84.758 662.967 85.298 663.759 85.946C664.587 86.594 665.325 87.35 665.973 88.214C666.621 89.078 667.161 90.032 667.593 91.076C668.025 92.12 668.349 93.254 668.565 94.478C668.817 95.666 668.943 96.962 668.943 98.366C668.943 103.154 667.611 106.916 664.947 109.652C662.283 112.352 658.791 113.702 654.471 113.702ZM654.471 108.626C656.739 108.626 658.557 107.762 659.925 106.034C661.329 104.27 662.031 101.696 662.031 98.312C662.031 94.964 661.329 92.408 659.925 90.644C658.557 88.88 656.739 87.998 654.471 87.998C652.203 87.998 650.385 88.88 649.017 90.644C647.649 92.408 646.965 94.964 646.965 98.312C646.965 101.696 647.649 104.27 649.017 106.034C650.385 107.762 652.203 108.626 654.471 108.626Z" fill="#C2DFE8"/>
<path d="M721.795 113V75.2H728.977V107.33H749.119V113H721.795ZM766.581 113.702C762.297 113.702 758.823 112.352 756.159 109.652C753.495 106.916 752.163 103.154 752.163 98.366C752.163 96.962 752.271 95.666 752.487 94.478C752.739 93.254 753.081 92.12 753.513 91.076C753.945 90.032 754.485 89.078 755.133 88.214C755.781 87.35 756.501 86.594 757.293 85.946C758.121 85.298 759.003 84.758 759.939 84.326C760.911 83.858 761.955 83.516 763.071 83.3C764.187 83.048 765.357 82.922 766.581 82.922C767.805 82.922 768.975 83.048 770.091 83.3C771.207 83.516 772.251 83.858 773.223 84.326C774.195 84.758 775.077 85.298 775.869 85.946C776.697 86.594 777.435 87.35 778.083 88.214C778.731 89.078 779.271 90.032 779.703 91.076C780.135 92.12 780.459 93.254 780.675 94.478C780.927 95.666 781.053 96.962 781.053 98.366C781.053 103.154 779.721 106.916 777.057 109.652C774.393 112.352 770.901 113.702 766.581 113.702ZM766.581 108.626C768.849 108.626 770.667 107.762 772.035 106.034C773.439 104.27 774.141 101.696 774.141 98.312C774.141 94.964 773.439 92.408 772.035 90.644C770.667 88.88 768.849 87.998 766.581 87.998C764.313 87.998 762.495 88.88 761.127 90.644C759.759 92.408 759.075 94.964 759.075 98.312C759.075 101.696 759.759 104.27 761.127 106.034C762.495 107.762 764.313 108.626 766.581 108.626ZM798.561 113.216C794.781 113.216 791.721 111.866 789.381 109.166C787.041 106.466 785.871 102.794 785.871 98.15C785.871 93.542 787.041 89.888 789.381 87.188C791.757 84.452 794.817 83.084 798.561 83.084C800.541 83.084 802.341 83.534 803.961 84.434C805.581 85.334 806.913 86.612 807.957 88.268V83.678H814.869V111.596C814.869 115.52 813.573 118.472 810.981 120.452C808.425 122.468 804.969 123.476 800.613 123.476C796.869 123.476 793.755 122.72 791.271 121.208C788.823 119.696 787.293 117.536 786.681 114.728H793.485C793.917 116.168 794.727 117.248 795.915 117.968C797.103 118.688 798.687 119.048 800.667 119.048C802.899 119.048 804.663 118.508 805.959 117.428C807.291 116.348 807.957 114.728 807.957 112.568V108.032C806.913 109.688 805.581 110.966 803.961 111.866C802.341 112.766 800.541 113.216 798.561 113.216ZM800.289 108.248C802.593 108.248 804.447 107.384 805.851 105.656C807.255 103.928 807.957 101.426 807.957 98.15C807.957 94.838 807.255 92.336 805.851 90.644C804.447 88.916 802.593 88.052 800.289 88.052C798.021 88.052 796.203 88.916 794.835 90.644C793.467 92.336 792.783 94.838 792.783 98.15C792.783 101.426 793.467 103.928 794.835 105.656C796.203 107.384 798.021 108.248 800.289 108.248ZM834.471 113.702C830.187 113.702 826.713 112.352 824.049 109.652C821.385 106.916 820.053 103.154 820.053 98.366C820.053 96.962 820.161 95.666 820.377 94.478C820.629 93.254 820.971 92.12 821.403 91.076C821.835 90.032 822.375 89.078 823.023 88.214C823.671 87.35 824.391 86.594 825.183 85.946C826.011 85.298 826.893 84.758 827.829 84.326C828.801 83.858 829.845 83.516 830.961 83.3C832.077 83.048 833.247 82.922 834.471 82.922C835.695 82.922 836.865 83.048 837.981 83.3C839.097 83.516 840.141 83.858 841.113 84.326C842.085 84.758 842.967 85.298 843.759 85.946C844.587 86.594 845.325 87.35 845.973 88.214C846.621 89.078 847.161 90.032 847.593 91.076C848.025 92.12 848.349 93.254 848.565 94.478C848.817 95.666 848.943 96.962 848.943 98.366C848.943 103.154 847.611 106.916 844.947 109.652C842.283 112.352 838.791 113.702 834.471 113.702ZM834.471 108.626C836.739 108.626 838.557 107.762 839.925 106.034C841.329 104.27 842.031 101.696 842.031 98.312C842.031 94.964 841.329 92.408 839.925 90.644C838.557 88.88 836.739 87.998 834.471 87.998C832.203 87.998 830.385 88.88 829.017 90.644C827.649 92.408 826.965 94.964 826.965 98.312C826.965 101.696 827.649 104.27 829.017 106.034C830.385 107.762 832.203 108.626 834.471 108.626Z" fill="#C2DFE8"/>
<path d="M901.795 113V75.2H908.977V107.33H929.119V113H901.795ZM946.581 113.702C942.297 113.702 938.823 112.352 936.159 109.652C933.495 106.916 932.163 103.154 932.163 98.366C932.163 96.962 932.271 95.666 932.487 94.478C932.739 93.254 933.081 92.12 933.513 91.076C933.945 90.032 934.485 89.078 935.133 88.214C935.781 87.35 936.501 86.594 937.293 85.946C938.121 85.298 939.003 84.758 939.939 84.326C940.911 83.858 941.955 83.516 943.071 83.3C944.187 83.048 945.357 82.922 946.581 82.922C947.805 82.922 948.975 83.048 950.091 83.3C951.207 83.516 952.251 83.858 953.223 84.326C954.195 84.758 955.077 85.298 955.869 85.946C956.697 86.594 957.435 87.35 958.083 88.214C958.731 89.078 959.271 90.032 959.703 91.076C960.135 92.12 960.459 93.254 960.675 94.478C960.927 95.666 961.053 96.962 961.053 98.366C961.053 103.154 959.721 106.916 957.057 109.652C954.393 112.352 950.901 113.702 946.581 113.702ZM946.581 108.626C948.849 108.626 950.667 107.762 952.035 106.034C953.439 104.27 954.141 101.696 954.141 98.312C954.141 94.964 953.439 92.408 952.035 90.644C950.667 88.88 948.849 87.998 946.581 87.998C944.313 87.998 942.495 88.88 941.127 90.644C939.759 92.408 939.075 94.964 939.075 98.312C939.075 101.696 939.759 104.27 941.127 106.034C942.495 107.762 944.313 108.626 946.581 108.626ZM978.561 113.216C974.781 113.216 971.721 111.866 969.381 109.166C967.041 106.466 965.871 102.794 965.871 98.15C965.871 93.542 967.041 89.888 969.381 87.188C971.757 84.452 974.817 83.084 978.561 83.084C980.541 83.084 982.341 83.534 983.961 84.434C985.581 85.334 986.913 86.612 987.957 88.268V83.678H994.869V111.596C994.869 115.52 993.573 118.472 990.981 120.452C988.425 122.468 984.969 123.476 980.613 123.476C976.869 123.476 973.755 122.72 971.271 121.208C968.823 119.696 967.293 117.536 966.681 114.728H973.485C973.917 116.168 974.727 117.248 975.915 117.968C977.103 118.688 978.687 119.048 980.667 119.048C982.899 119.048 984.663 118.508 985.959 117.428C987.291 116.348 987.957 114.728 987.957 112.568V108.032C986.913 109.688 985.581 110.966 983.961 111.866C982.341 112.766 980.541 113.216 978.561 113.216ZM980.289 108.248C982.593 108.248 984.447 107.384 985.851 105.656C987.255 103.928 987.957 101.426 987.957 98.15C987.957 94.838 987.255 92.336 985.851 90.644C984.447 88.916 982.593 88.052 980.289 88.052C978.021 88.052 976.203 88.916 974.835 90.644C973.467 92.336 972.783 94.838 972.783 98.15C972.783 101.426 973.467 103.928 974.835 105.656C976.203 107.384 978.021 108.248 980.289 108.248ZM1014.47 113.702C1010.19 113.702 1006.71 112.352 1004.05 109.652C1001.38 106.916 1000.05 103.154 1000.05 98.366C1000.05 96.962 1000.16 95.666 1000.38 94.478C1000.63 93.254 1000.97 92.12 1001.4 91.076C1001.83 90.032 1002.37 89.078 1003.02 88.214C1003.67 87.35 1004.39 86.594 1005.18 85.946C1006.01 85.298 1006.89 84.758 1007.83 84.326C1008.8 83.858 1009.84 83.516 1010.96 83.3C1012.08 83.048 1013.25 82.922 1014.47 82.922C1015.69 82.922 1016.86 83.048 1017.98 83.3C1019.1 83.516 1020.14 83.858 1021.11 84.326C1022.08 84.758 1022.97 85.298 1023.76 85.946C1024.59 86.594 1025.32 87.35 1025.97 88.214C1026.62 89.078 1027.16 90.032 1027.59 91.076C1028.02 92.12 1028.35 93.254 1028.56 94.478C1028.82 95.666 1028.94 96.962 1028.94 98.366C1028.94 103.154 1027.61 106.916 1024.95 109.652C1022.28 112.352 1018.79 113.702 1014.47 113.702ZM1014.47 108.626C1016.74 108.626 1018.56 107.762 1019.92 106.034C1021.33 104.27 1022.03 101.696 1022.03 98.312C1022.03 94.964 1021.33 92.408 1019.92 90.644C1018.56 88.88 1016.74 87.998 1014.47 87.998C1012.2 87.998 1010.38 88.88 1009.02 90.644C1007.65 92.408 1006.96 94.964 1006.96 98.312C1006.96 101.696 1007.65 104.27 1009.02 106.034C1010.38 107.762 1012.2 108.626 1014.47 108.626Z" fill="#C2DFE8"/>
<path d="M1081.79 113V75.2H1088.98V107.33H1109.12V113H1081.79ZM1126.58 113.702C1122.3 113.702 1118.82 112.352 1116.16 109.652C1113.49 106.916 1112.16 103.154 1112.16 98.366C1112.16 96.962 1112.27 95.666 1112.49 94.478C1112.74 93.254 1113.08 92.12 1113.51 91.076C1113.94 90.032 1114.48 89.078 1115.13 88.214C1115.78 87.35 1116.5 86.594 1117.29 85.946C1118.12 85.298 1119 84.758 1119.94 84.326C1120.91 83.858 1121.95 83.516 1123.07 83.3C1124.19 83.048 1125.36 82.922 1126.58 82.922C1127.8 82.922 1128.97 83.048 1130.09 83.3C1131.21 83.516 1132.25 83.858 1133.22 84.326C1134.19 84.758 1135.08 85.298 1135.87 85.946C1136.7 86.594 1137.43 87.35 1138.08 88.214C1138.73 89.078 1139.27 90.032 1139.7 91.076C1140.13 92.12 1140.46 93.254 1140.67 94.478C1140.93 95.666 1141.05 96.962 1141.05 98.366C1141.05 103.154 1139.72 106.916 1137.06 109.652C1134.39 112.352 1130.9 113.702 1126.58 113.702ZM1126.58 108.626C1128.85 108.626 1130.67 107.762 1132.03 106.034C1133.44 104.27 1134.14 101.696 1134.14 98.312C1134.14 94.964 1133.44 92.408 1132.03 90.644C1130.67 88.88 1128.85 87.998 1126.58 87.998C1124.31 87.998 1122.49 88.88 1121.13 90.644C1119.76 92.408 1119.07 94.964 1119.07 98.312C1119.07 101.696 1119.76 104.27 1121.13 106.034C1122.49 107.762 1124.31 108.626 1126.58 108.626ZM1158.56 113.216C1154.78 113.216 1151.72 111.866 1149.38 109.166C1147.04 106.466 1145.87 102.794 1145.87 98.15C1145.87 93.542 1147.04 89.888 1149.38 87.188C1151.76 84.452 1154.82 83.084 1158.56 83.084C1160.54 83.084 1162.34 83.534 1163.96 84.434C1165.58 85.334 1166.91 86.612 1167.96 88.268V83.678H1174.87V111.596C1174.87 115.52 1173.57 118.472 1170.98 120.452C1168.42 122.468 1164.97 123.476 1160.61 123.476C1156.87 123.476 1153.75 122.72 1151.27 121.208C1148.82 119.696 1147.29 117.536 1146.68 114.728H1153.48C1153.92 116.168 1154.73 117.248 1155.91 117.968C1157.1 118.688 1158.69 119.048 1160.67 119.048C1162.9 119.048 1164.66 118.508 1165.96 117.428C1167.29 116.348 1167.96 114.728 1167.96 112.568V108.032C1166.91 109.688 1165.58 110.966 1163.96 111.866C1162.34 112.766 1160.54 113.216 1158.56 113.216ZM1160.29 108.248C1162.59 108.248 1164.45 107.384 1165.85 105.656C1167.25 103.928 1167.96 101.426 1167.96 98.15C1167.96 94.838 1167.25 92.336 1165.85 90.644C1164.45 88.916 1162.59 88.052 1160.29 88.052C1158.02 88.052 1156.2 88.916 1154.83 90.644C1153.47 92.336 1152.78 94.838 1152.78 98.15C1152.78 101.426 1153.47 103.928 1154.83 105.656C1156.2 107.384 1158.02 108.248 1160.29 108.248ZM1194.47 113.702C1190.19 113.702 1186.71 112.352 1184.05 109.652C1181.38 106.916 1180.05 103.154 1180.05 98.366C1180.05 96.962 1180.16 95.666 1180.38 94.478C1180.63 93.254 1180.97 92.12 1181.4 91.076C1181.83 90.032 1182.37 89.078 1183.02 88.214C1183.67 87.35 1184.39 86.594 1185.18 85.946C1186.01 85.298 1186.89 84.758 1187.83 84.326C1188.8 83.858 1189.84 83.516 1190.96 83.3C1192.08 83.048 1193.25 82.922 1194.47 82.922C1195.69 82.922 1196.86 83.048 1197.98 83.3C1199.1 83.516 1200.14 83.858 1201.11 84.326C1202.08 84.758 1202.97 85.298 1203.76 85.946C1204.59 86.594 1205.32 87.35 1205.97 88.214C1206.62 89.078 1207.16 90.032 1207.59 91.076C1208.02 92.12 1208.35 93.254 1208.56 94.478C1208.82 95.666 1208.94 96.962 1208.94 98.366C1208.94 103.154 1207.61 106.916 1204.95 109.652C1202.28 112.352 1198.79 113.702 1194.47 113.702ZM1194.47 108.626C1196.74 108.626 1198.56 107.762 1199.92 106.034C1201.33 104.27 1202.03 101.696 1202.03 98.312C1202.03 94.964 1201.33 92.408 1199.92 90.644C1198.56 88.88 1196.74 87.998 1194.47 87.998C1192.2 87.998 1190.38 88.88 1189.02 90.644C1187.65 92.408 1186.96 94.964 1186.96 98.312C1186.96 101.696 1187.65 104.27 1189.02 106.034C1190.38 107.762 1192.2 108.626 1194.47 108.626Z" fill="#C2DFE8"/>
<path d="M1261.79 113V75.2H1268.98V107.33H1289.12V113H1261.79ZM1306.58 113.702C1302.3 113.702 1298.82 112.352 1296.16 109.652C1293.49 106.916 1292.16 103.154 1292.16 98.366C1292.16 96.962 1292.27 95.666 1292.49 94.478C1292.74 93.254 1293.08 92.12 1293.51 91.076C1293.94 90.032 1294.48 89.078 1295.13 88.214C1295.78 87.35 1296.5 86.594 1297.29 85.946C1298.12 85.298 1299 84.758 1299.94 84.326C1300.91 83.858 1301.95 83.516 1303.07 83.3C1304.19 83.048 1305.36 82.922 1306.58 82.922C1307.8 82.922 1308.97 83.048 1310.09 83.3C1311.21 83.516 1312.25 83.858 1313.22 84.326C1314.19 84.758 1315.08 85.298 1315.87 85.946C1316.7 86.594 1317.43 87.35 1318.08 88.214C1318.73 89.078 1319.27 90.032 1319.7 91.076C1320.13 92.12 1320.46 93.254 1320.67 94.478C1320.93 95.666 1321.05 96.962 1321.05 98.366C1321.05 103.154 1319.72 106.916 1317.06 109.652C1314.39 112.352 1310.9 113.702 1306.58 113.702ZM1306.58 108.626C1308.85 108.626 1310.67 107.762 1312.03 106.034C1313.44 104.27 1314.14 101.696 1314.14 98.312C1314.14 94.964 1313.44 92.408 1312.03 90.644C1310.67 88.88 1308.85 87.998 1306.58 87.998C1304.31 87.998 1302.49 88.88 1301.13 90.644C1299.76 92.408 1299.07 94.964 1299.07 98.312C1299.07 101.696 1299.76 104.27 1301.13 106.034C1302.49 107.762 1304.31 108.626 1306.58 108.626ZM1338.56 113.216C1334.78 113.216 1331.72 111.866 1329.38 109.166C1327.04 106.466 1325.87 102.794 1325.87 98.15C1325.87 93.542 1327.04 89.888 1329.38 87.188C1331.76 84.452 1334.82 83.084 1338.56 83.084C1340.54 83.084 1342.34 83.534 1343.96 84.434C1345.58 85.334 1346.91 86.612 1347.96 88.268V83.678H1354.87V111.596C1354.87 115.52 1353.57 118.472 1350.98 120.452C1348.42 122.468 1344.97 123.476 1340.61 123.476C1336.87 123.476 1333.75 122.72 1331.27 121.208C1328.82 119.696 1327.29 117.536 1326.68 114.728H1333.48C1333.92 116.168 1334.73 117.248 1335.91 117.968C1337.1 118.688 1338.69 119.048 1340.67 119.048C1342.9 119.048 1344.66 118.508 1345.96 117.428C1347.29 116.348 1347.96 114.728 1347.96 112.568V108.032C1346.91 109.688 1345.58 110.966 1343.96 111.866C1342.34 112.766 1340.54 113.216 1338.56 113.216ZM1340.29 108.248C1342.59 108.248 1344.45 107.384 1345.85 105.656C1347.25 103.928 1347.96 101.426 1347.96 98.15C1347.96 94.838 1347.25 92.336 1345.85 90.644C1344.45 88.916 1342.59 88.052 1340.29 88.052C1338.02 88.052 1336.2 88.916 1334.83 90.644C1333.47 92.336 1332.78 94.838 1332.78 98.15C1332.78 101.426 1333.47 103.928 1334.83 105.656C1336.2 107.384 1338.02 108.248 1340.29 108.248ZM1374.47 113.702C1370.19 113.702 1366.71 112.352 1364.05 109.652C1361.38 106.916 1360.05 103.154 1360.05 98.366C1360.05 96.962 1360.16 95.666 1360.38 94.478C1360.63 93.254 1360.97 92.12 1361.4 91.076C1361.83 90.032 1362.37 89.078 1363.02 88.214C1363.67 87.35 1364.39 86.594 1365.18 85.946C1366.01 85.298 1366.89 84.758 1367.83 84.326C1368.8 83.858 1369.84 83.516 1370.96 83.3C1372.08 83.048 1373.25 82.922 1374.47 82.922C1375.69 82.922 1376.86 83.048 1377.98 83.3C1379.1 83.516 1380.14 83.858 1381.11 84.326C1382.08 84.758 1382.97 85.298 1383.76 85.946C1384.59 86.594 1385.32 87.35 1385.97 88.214C1386.62 89.078 1387.16 90.032 1387.59 91.076C1388.02 92.12 1388.35 93.254 1388.56 94.478C1388.82 95.666 1388.94 96.962 1388.94 98.366C1388.94 103.154 1387.61 106.916 1384.95 109.652C1382.28 112.352 1378.79 113.702 1374.47 113.702ZM1374.47 108.626C1376.74 108.626 1378.56 107.762 1379.92 106.034C1381.33 104.27 1382.03 101.696 1382.03 98.312C1382.03 94.964 1381.33 92.408 1379.92 90.644C1378.56 88.88 1376.74 87.998 1374.47 87.998C1372.2 87.998 1370.38 88.88 1369.02 90.644C1367.65 92.408 1366.96 94.964 1366.96 98.312C1366.96 101.696 1367.65 104.27 1369.02 106.034C1370.38 107.762 1372.2 108.626 1374.47 108.626Z" fill="#C2DFE8"/>
</g>
<defs>
<clipPath id="clip0_7_4969">
<rect width="1440" height="194" fill="white"/>
</clipPath>
</defs>
</svg>
