<svg width="183" height="204" viewBox="0 0 183 204" fill="none" xmlns="http://www.w3.org/2000/svg">
<g clip-path="url(#clip0_263_915)">
<path d="M94.2869 184.089C134.762 184.089 167.574 151.402 167.574 111.081C167.574 70.7598 134.762 38.073 94.2869 38.073C53.8116 38.073 21 70.7598 21 111.081C21 151.402 53.8116 184.089 94.2869 184.089Z" fill="#CACACA"/>
<path d="M81.7181 21.2563H106.023C107.217 21.2573 108.362 21.7304 109.205 22.5717C110.049 23.4131 110.523 24.5538 110.523 25.7432V46.4686H77.2104V25.7432C77.2104 25.1536 77.3271 24.5699 77.5536 24.0253C77.7802 23.4807 78.1123 22.9859 78.5309 22.5692C78.9496 22.1525 79.4465 21.8221 79.9934 21.5968C80.5403 21.3715 81.1263 21.2558 81.7181 21.2563Z" fill="#EBF1F8"/>
<path d="M77.2871 174.355H110.593V195.081C110.593 196.271 110.118 197.412 109.273 198.254C108.429 199.095 107.283 199.568 106.089 199.568H81.7911C80.5966 199.568 79.451 199.095 78.6063 198.254C77.7616 197.412 77.2871 196.271 77.2871 195.081V174.355Z" fill="#CACACA"/>
<path d="M125.625 167.212L149.181 143.746L163.892 158.401C164.31 158.817 164.642 159.312 164.868 159.856C165.095 160.401 165.211 160.984 165.211 161.574C165.211 162.163 165.095 162.746 164.868 163.291C164.642 163.835 164.31 164.33 163.892 164.746L146.706 181.867C146.287 182.284 145.791 182.614 145.245 182.84C144.698 183.065 144.112 183.181 143.521 183.181C142.929 183.181 142.344 183.065 141.797 182.84C141.251 182.614 140.754 182.284 140.336 181.867L125.625 167.212Z" fill="#CACACA"/>
<path d="M16.8787 56.5178L34.0519 39.4099C34.8966 38.5685 36.0422 38.0957 37.2367 38.0957C38.4312 38.0957 39.5769 38.5684 40.4215 39.4099L55.1326 54.065L31.5897 77.5183L16.8787 62.8632C16.034 62.0217 15.5595 60.8805 15.5595 59.6905C15.5595 58.5005 16.034 57.3592 16.8787 56.5178Z" fill="#CACACA"/>
<path d="M152.935 39.4007L170.122 56.5214C170.966 57.3629 171.441 58.5041 171.441 59.6941C171.441 60.8841 170.966 62.0254 170.122 62.8668L155.411 77.5219L131.852 54.0532L146.563 39.3981C146.982 38.9812 147.478 38.6506 148.025 38.4251C148.572 38.1996 149.158 38.0837 149.75 38.0839C150.342 38.0842 150.928 38.2006 151.474 38.4265C152.021 38.6525 152.517 38.9835 152.935 39.4007Z" fill="#CACACA"/>
<path d="M34.2656 143.747L57.8214 167.213L43.1103 181.868C42.6921 182.285 42.1956 182.615 41.6491 182.841C41.1027 183.066 40.517 183.182 39.9255 183.182C39.334 183.182 38.7483 183.066 38.2019 182.841C37.6554 182.615 37.1589 182.285 36.7407 181.868L19.5546 164.747C19.1363 164.331 18.8046 163.836 18.5782 163.292C18.3519 162.747 18.2354 162.164 18.2354 161.575C18.2354 160.985 18.3519 160.402 18.5782 159.857C18.8046 159.313 19.1363 158.818 19.5546 158.402L34.2656 143.747Z" fill="#CACACA"/>
<path d="M28.4258 94.2643L28.4258 127.45H7.6212C6.42666 127.45 5.28106 126.978 4.43639 126.136C3.59173 125.295 3.1172 124.154 3.1172 122.964V98.7548C3.11623 97.5655 3.58932 96.4244 4.43252 95.5823C5.27571 94.7403 6.42 94.2662 7.61391 94.2643H28.4185H28.4258Z" fill="#CACACA"/>
<path d="M183 98.3113V122.524C183 123.714 182.525 124.855 181.681 125.696C180.836 126.538 179.691 127.011 178.496 127.011H157.691V93.8244H178.496C179.691 93.8244 180.836 94.2971 181.681 95.1386C182.525 95.98 183 97.1213 183 98.3113Z" fill="#CACACA"/>
<path d="M137.617 79.2875H50.7703C49.2403 79.2875 48 80.5231 48 82.0472V148.474C48 149.998 49.2403 151.234 50.7703 151.234H137.617C139.147 151.234 140.387 149.998 140.387 148.474V82.0472C140.387 80.5231 139.147 79.2875 137.617 79.2875Z" fill="white"/>
<path d="M94.365 93.9734L94 151.059" stroke="#B3B3B3" stroke-width="2" stroke-miterlimit="10"/>
<path d="M93.7128 70.7755H107.429C107.429 81.5782 101.224 90.4647 93.7128 90.4647C86.2012 90.4647 80 81.5782 80 70.7755V70.6337L93.7128 70.7755Z" fill="#999999"/>
<path d="M107.565 67.8994H81.304L70.7995 38.2184C67.938 30.1282 68.4709 20.9436 72.5296 13.5224C73.6351 11.4906 74.9899 9.6036 76.5627 7.90475C86.3482 -2.63976 101.831 -2.63976 111.602 7.90475L111.693 8.00293C111.887 8.21382 112.08 8.42471 112.266 8.64287C119.03 16.4058 120.975 27.9612 117.562 38.0948L107.565 67.8994Z" fill="#FFDB5A"/>
</g>
<defs>
<clipPath id="clip0_263_915">
<rect width="183" height="204" fill="white"/>
</clipPath>
</defs>
</svg>
