<svg width="136" height="202" viewBox="0 0 136 202" fill="none" xmlns="http://www.w3.org/2000/svg">
<g id="Icon commitment" clip-path="url(#clip0_263_902)">
<path id="Vector" d="M90.427 59.796L75.4977 66.8721C73.7745 67.6838 71.8913 68.105 69.9841 68.105C68.077 68.105 66.1937 67.6838 64.4706 66.8721L49.2962 59.7412C47.1136 58.7156 45.2692 57.0955 43.9775 55.0695C42.6859 53.0434 42.0001 50.6946 42 48.2966V28.6442C42.0016 21.303 44.939 14.2631 50.1662 9.07275C55.3934 3.88236 62.4823 0.966522 69.8739 0.966522C77.2654 0.966522 84.3543 3.88236 89.5815 9.07275C94.8087 14.2631 97.7461 21.303 97.7478 28.6442V48.2905C97.7431 50.6986 97.0535 53.0563 95.7582 55.0919C94.463 57.1276 92.6149 58.7582 90.427 59.796Z" fill="#F5E3D2"/>
<path id="Vector_2" d="M16.5142 73.4545H117.859C121.688 73.4545 125.361 74.9654 128.069 77.6548C130.777 80.3443 132.298 83.9919 132.298 87.7953V187.493C132.298 191.297 130.777 194.944 128.069 197.634C125.361 200.323 121.688 201.834 117.859 201.834H30.69C26.9303 201.834 23.3247 200.351 20.6662 197.71C18.0077 195.07 16.5142 191.489 16.5142 187.755V73.4545Z" fill="#85A9D2"/>
<path id="Vector_3" d="M20.8286 72.4036H121.561C125.39 72.4036 129.063 73.9145 131.771 76.6039C134.479 79.2934 136 82.941 136 86.7444V186.442C136 190.246 134.479 193.893 131.771 196.583C129.063 199.272 125.39 200.783 121.561 200.783H35.0045C31.2448 200.783 27.6391 199.3 24.9806 196.659C22.3221 194.019 20.8286 190.438 20.8286 186.704V72.4036Z" fill="#D9E5F3"/>
<path id="Vector_4" d="M101.081 200.783H103.532L102.306 107.084H101.081V200.783Z" fill="#85A9D2"/>
<path id="Vector_5" d="M112.77 111.739L94.1035 127.29L76.1663 111.824C74.8778 110.712 73.8235 109.357 73.0641 107.838C72.3047 106.32 71.8551 104.667 71.7412 102.975C71.6274 101.283 71.8515 99.5855 72.4006 97.98C72.9498 96.3745 73.8131 94.8926 74.941 93.6197L75.1309 93.4067C76.3091 92.0765 77.7513 91.0024 79.3671 90.252C80.9829 89.5015 82.7375 89.0908 84.5207 89.0457C86.3039 89.0006 88.0773 89.322 89.7295 89.9897C91.3817 90.6575 92.8771 91.6572 94.1219 92.9261L95.2981 91.8674C96.5734 90.7115 98.0687 89.8209 99.6959 89.2478C101.323 88.6748 103.049 88.431 104.773 88.5308C106.496 88.6305 108.182 89.0719 109.731 89.8289C111.281 90.5858 112.662 91.643 113.793 92.9382L114.252 93.4615C115.377 94.7519 116.232 96.2519 116.767 97.8739C117.302 99.4959 117.507 101.207 117.369 102.909C117.231 104.61 116.753 106.267 115.963 107.783C115.174 109.299 114.088 110.644 112.77 111.739Z" fill="#FF7272"/>
<path id="Vector_6" d="M95.727 166.565L55.0434 175.381C41.649 178.289 27.7942 178.418 14.3475 175.758C11.0244 175.053 8.04375 173.241 5.89911 170.623C3.75447 168.005 2.57453 164.738 2.55472 161.363L1.22536 88.5089C1.06608 79.6622 7.96408 72.4036 16.6019 72.4036H34.7659V145.045L96.3335 135.845C99.1934 135.454 102.097 136.148 104.464 137.789C106.831 139.43 108.489 141.897 109.106 144.698C111.453 154.542 105.394 164.466 95.727 166.565Z" fill="#999999"/>
<path id="Vector_7" d="M96.8378 166.649L55.6763 175.465C42.1228 178.374 28.114 178.502 14.5088 175.843C7.67814 174.51 1.47851 168.505 1.34986 161.447L0.0021052 88.5933C-0.151048 79.7467 8.07635 72.488 16.7877 72.488L34.0266 93.7832L36.5077 138.807L96.5437 129.681C102.455 128.811 108.937 138.892 110.352 144.782C112.753 154.627 106.621 164.55 96.8378 166.649Z" fill="#85A9D2"/>
<path id="Vector_8" d="M96.2905 163.103L57.2609 171.621C44.414 174.419 31.1222 174.542 18.2253 171.98C11.75 170.696 7.03287 164.91 6.91035 158.114L5.6361 87.9369C5.47682 79.4188 12.1298 72.4279 20.3817 72.4279H32.4685L31.2433 146.048L77.1893 136.314L96.8725 133.539C99.6188 133.17 102.404 133.841 104.675 135.42C106.945 136.998 108.534 139.368 109.125 142.057C111.379 151.543 105.565 161.083 96.2905 163.103Z" fill="#F5E3D2"/>
<path id="Vector_9" d="M82.1083 165.95L55.1533 171.597C41.7896 174.395 27.9979 174.517 14.5861 171.956C11.3232 171.333 8.37477 169.615 6.23463 167.091C4.09448 164.567 2.89253 161.389 2.83008 158.089L1.50685 87.9126C1.46693 85.8901 1.83358 83.8801 2.58535 82.0001C3.33713 80.1201 4.45891 78.4079 5.88506 76.9637C7.31121 75.5195 9.01309 74.3723 10.8911 73.5893C12.769 72.8063 14.7854 72.4032 16.8222 72.4036H34.8942V142.374L77.1277 136.289" fill="#D9E5F3"/>
<path id="Vector_10" d="M69.5405 72.4036H86.0811C86.0811 77.7457 78.6133 82.1386 69.5405 82.1386C60.4677 82.1386 53 77.7457 53 72.4036H69.5405Z" fill="#F5E3D2"/>
</g>
<defs>
<clipPath id="clip0_263_902">
<rect width="136" height="202" fill="white"/>
</clipPath>
</defs>
</svg>
