<svg width="158" height="206" viewBox="0 0 158 206" fill="none" xmlns="http://www.w3.org/2000/svg">
<g id="Icon Innovation" clip-path="url(#clip0_263_893)">
<path id="Vector" d="M50.569 199.821C50.569 202.521 48.4256 204.733 45.727 204.818L13.5211 205.837C10.6989 205.926 8.36266 203.662 8.36308 200.839L8.37476 122.984C8.37517 120.223 10.6136 117.985 13.3748 117.985H45.569C48.3304 117.985 50.569 120.224 50.569 122.985V199.821Z" fill="#FEF1FF"/>
<path id="Vector_2" d="M98.0387 80.9896H65.8408C63.0794 80.9896 60.8408 83.2282 60.8408 85.9896V199.665C60.8408 202.427 63.0794 204.665 65.8408 204.665H98.0387C100.8 204.665 103.039 202.427 103.039 199.665V85.9896C103.039 83.2282 100.8 80.9896 98.0387 80.9896Z" fill="#EEFBF6"/>
<path id="Vector_3" d="M150.509 51.0729H118.311C115.55 51.0729 113.311 53.3115 113.311 56.0729V199.665C113.311 202.427 115.55 204.665 118.311 204.665H150.509C153.27 204.665 155.509 202.427 155.509 199.665V56.0729C155.509 53.3115 153.27 51.0729 150.509 51.0729Z" fill="#EFFAFD"/>
<path id="Vector_4" d="M132.797 6.92783C133.893 4.68266 137.093 4.68226 138.189 6.92716L141.739 14.1951C142.173 15.0849 143.019 15.7029 143.999 15.8467L151.984 17.0193C154.435 17.3792 155.418 20.3861 153.654 22.1246L147.834 27.8584C147.136 28.546 146.817 29.5312 146.981 30.4972L148.349 38.5632C148.766 41.0185 146.182 42.8828 143.983 41.7138L136.901 37.9488C136.02 37.4807 134.965 37.4808 134.084 37.949L127.007 41.7127C124.808 42.882 122.224 41.0176 122.64 38.5622L124.008 30.4972C124.172 29.5312 123.854 28.546 123.156 27.8584L117.336 22.1246C115.571 20.3861 116.555 17.3792 119.005 17.0193L126.99 15.8468C127.97 15.7029 128.816 15.0846 129.251 14.1945L132.797 6.92783Z" fill="#FFD231"/>
</g>
<defs>
<clipPath id="clip0_263_893">
<rect width="158" height="206" fill="white"/>
</clipPath>
</defs>
</svg>
