<svg width="136" height="159" viewBox="0 0 136 159" fill="none" xmlns="http://www.w3.org/2000/svg">
<g id="Component 1">
<path id="Vector" fill-rule="evenodd" clip-rule="evenodd" d="M17 181C12.325 181 8.3215 179.334 4.9895 176.002C1.6575 172.67 -0.00566749 168.669 -8.27541e-07 164V79C-8.27541e-07 74.325 1.666 70.3215 4.998 66.9895C8.33 63.6575 12.3307 61.9943 17 62H25.5H42.5H93.5H110.5H119C123.675 62 127.678 63.666 131.01 66.998C134.342 70.33 136.006 74.3307 136 79V164C136 168.675 134.334 172.678 131.002 176.01C127.67 179.342 123.669 181.006 119 181H17ZM80.0105 133.502C76.6785 136.834 72.675 138.5 68 138.5C63.3307 138.506 59.33 136.842 55.998 133.51C52.666 130.178 51 126.175 51 121.5C50.9943 116.831 52.6575 112.83 55.9895 109.498C59.3215 106.166 63.325 104.5 68 104.5C72.6693 104.494 76.67 106.158 80.002 109.49C83.334 112.822 85 116.825 85 121.5C85.0057 126.169 83.3425 130.17 80.0105 133.502Z" fill="#2B44E7"/>
<path id="Vector_2" d="M37.4355 42.427C29.1452 50.7174 25 60.7416 25 72.5V92.5H42V72.5C42 65.4166 44.4792 59.3959 49.4375 54.4375C54.3958 49.4792 60.4167 47 67.5 47C74.5833 47 80.6042 49.4792 85.5625 54.4375C90.5208 59.3959 93 65.4166 93 72.5H110C110.006 60.7473 105.863 50.7259 97.573 42.4355C89.2827 34.1452 79.2583 30 67.5 30C55.7473 29.9943 45.7258 34.1366 37.4355 42.427Z" fill="#2B44E7"/>
</g>
</svg>
