<svg width="153" height="172" viewBox="0 0 153 172" fill="none" xmlns="http://www.w3.org/2000/svg">
<path d="M41.6162 107.521H15.1899C12.3236 107.521 10 109.844 10 112.711V166.737C10 169.603 12.3236 171.927 15.1899 171.927H41.6162C44.4824 171.927 46.806 169.603 46.806 166.737V112.711C46.806 109.844 44.4824 107.521 41.6162 107.521Z" fill="white"/>
<path d="M87.6122 79.9205H61.186C58.3197 79.9205 55.9961 82.2441 55.9961 85.1104V166.737C55.9961 169.603 58.3197 171.926 61.186 171.926H87.6122C90.4785 171.926 92.8021 169.603 92.8021 166.737V85.1104C92.8021 82.2441 90.4785 79.9205 87.6122 79.9205Z" fill="white"/>
<path d="M133.622 61.5267H107.196C104.329 61.5267 102.006 63.8503 102.006 66.7166V166.737C102.006 169.603 104.329 171.927 107.196 171.927H133.622C136.488 171.927 138.812 169.603 138.812 166.737V66.7166C138.812 63.8503 136.488 61.5267 133.622 61.5267Z" fill="#FF202E"/>
<path d="M129.056 17.0001L148 19.4575L134.521 33.0099L138.061 51.7889L121.006 43.1696L104.226 52.3207L107.16 33.4317L93.2773 20.3194L112.13 17.2752L120.327 0L129.056 17.0001Z" fill="#FF202E"/>
<path d="M14.2561 165.911V132.204" stroke="#161A39" stroke-width="2" stroke-miterlimit="10"/>
<path d="M61.3125 165.911V114.636" stroke="#161A39" stroke-width="2" stroke-miterlimit="10"/>
<path d="M106.955 164.957V86.889" stroke="#161A39" stroke-width="2" stroke-miterlimit="10"/>
</svg>
