<svg width="1025" height="607" viewBox="0 0 1025 607" fill="none" xmlns="http://www.w3.org/2000/svg">
<g clip-path="url(#clip0_1298_490)">
<path d="M1300 606.113H14L105.5 484.898L328.5 424.309L513.5 242.468V181.841H582.515L678.992 0L885.994 60.6262L955.009 181.841V303.057L1093 363.683L1162.01 484.898L1300 606.113Z" fill="#161A39"/>
<path fill-rule="evenodd" clip-rule="evenodd" d="M604 183.637L666.273 66.6371L678.727 70.3629L647.113 128.863L615.5 187.363L604 183.637ZM530 201.5H572.5V214.5H543V248.5H530V201.5Z" fill="white"/>
<path fill-rule="evenodd" clip-rule="evenodd" d="M368.166 457.736L177.666 513.736L174 501.264L364.5 445.264L368.166 457.736ZM440.666 468.736L250.166 524.736L246.5 512.264L437 456.264L440.666 468.736Z" fill="white"/>
</g>
<defs>
<clipPath id="clip0_1298_490">
<rect width="1025" height="607" fill="white"/>
</clipPath>
</defs>
</svg>
