<svg width="3068" height="1294" viewBox="0 0 3068 1294" fill="none" xmlns="http://www.w3.org/2000/svg">
<mask id="mask0_401_879" style="mask-type:luminance" maskUnits="userSpaceOnUse" x="0" y="189" width="2098" height="1086">
<path d="M2098 189H0V1275H2098V189Z" fill="white"/>
</mask>
<g mask="url(#mask0_401_879)">
<path opacity="0.043478" d="M2565.06 1288.54H1932.48C1804.33 1288.54 1688.85 1211.23 1640.01 1092.75L1546.35 865.507C1501.78 757.382 1401.2 682.666 1284.82 671.228L1132.82 656.29C1020.69 645.272 934.079 552.889 930.283 440.279C927.651 361.965 885.51 288.226 813.712 256.847C738.91 224.151 676.218 210.781 587.689 203.972" stroke="url(#paint0_linear_401_879)" stroke-width="3.43047" stroke-linecap="round" stroke-dasharray="0.03 13.72"/>
<path opacity="0.086957" d="M2553.76 1288.54H1921.18C1793.04 1288.54 1677.55 1211.23 1628.72 1092.75L1535.05 865.507C1490.49 757.382 1389.91 682.666 1273.52 671.228L1121.52 656.29C1009.39 645.272 922.781 552.889 918.985 440.279C916.353 361.965 874.212 288.226 802.414 256.847C727.612 224.151 664.92 210.781 576.391 203.972" stroke="url(#paint1_linear_401_879)" stroke-width="3.43047" stroke-linecap="round" stroke-dasharray="0.03 13.72"/>
<path opacity="0.130435" d="M2542.46 1288.54H1909.88C1781.74 1288.54 1666.25 1211.23 1617.42 1092.75L1523.75 865.507C1479.19 757.382 1378.61 682.666 1262.22 671.228L1110.22 656.29C998.097 645.272 911.483 552.889 907.687 440.279C905.055 361.966 862.914 288.226 791.117 256.847C716.314 224.151 653.623 210.781 565.093 203.972" stroke="url(#paint2_linear_401_879)" stroke-width="3.43047" stroke-linecap="round" stroke-dasharray="0.03 13.72"/>
<path opacity="0.173913" d="M2531.16 1288.54H1898.58C1770.44 1288.54 1654.95 1211.23 1606.12 1092.75L1512.46 865.507C1467.89 757.382 1367.31 682.666 1250.93 671.228L1098.93 656.29C986.799 645.272 900.186 552.889 896.39 440.279C893.757 361.966 851.616 288.226 779.819 256.847C705.016 224.151 642.325 210.781 553.795 203.972" stroke="url(#paint3_linear_401_879)" stroke-width="3.43047" stroke-linecap="round" stroke-dasharray="0.03 13.72"/>
<path opacity="0.217391" d="M2519.87 1288.54H1887.29C1759.14 1288.54 1643.66 1211.23 1594.82 1092.75L1501.16 865.507C1456.59 757.382 1356.01 682.666 1239.63 671.228L1087.63 656.29C975.501 645.272 888.888 552.889 885.092 440.279C882.459 361.966 840.319 288.226 768.521 256.847C693.718 224.151 631.027 210.781 542.498 203.972" stroke="url(#paint4_linear_401_879)" stroke-width="3.43047" stroke-linecap="round" stroke-dasharray="0.03 13.72"/>
<path opacity="0.26087" d="M2508.57 1288.54H1875.99C1747.85 1288.54 1632.36 1211.23 1583.52 1092.75L1489.86 865.507C1445.29 757.382 1344.71 682.666 1228.33 671.228L1076.33 656.29C964.199 645.272 877.59 552.889 873.794 440.279C871.162 361.966 829.021 288.226 757.223 256.847C682.421 224.151 619.729 210.781 531.2 203.972" stroke="url(#paint5_linear_401_879)" stroke-width="3.43047" stroke-linecap="round" stroke-dasharray="0.03 13.72"/>
<path opacity="0.304348" d="M2497.27 1288.54H1864.69C1736.55 1288.54 1621.06 1211.23 1572.23 1092.75L1478.56 865.507C1434 757.382 1333.42 682.666 1217.03 671.228L1065.03 656.29C952.901 645.272 866.292 552.889 862.496 440.279C859.864 361.966 817.723 288.226 745.926 256.847C671.123 224.151 608.432 210.781 519.902 203.972" stroke="url(#paint6_linear_401_879)" stroke-width="3.43047" stroke-linecap="round" stroke-dasharray="0.03 13.72"/>
<path opacity="0.347826" d="M2485.97 1288.54H1853.39C1725.25 1288.54 1609.76 1211.23 1560.93 1092.75L1467.26 865.507C1422.7 757.382 1322.12 682.666 1205.74 671.228L1053.73 656.29C941.603 645.272 854.994 552.889 851.198 440.279C848.566 361.966 806.425 288.226 734.628 256.847C659.825 224.151 597.134 210.781 508.604 203.972" stroke="url(#paint7_linear_401_879)" stroke-width="3.43047" stroke-linecap="round" stroke-dasharray="0.03 13.72"/>
<path opacity="0.391304" d="M2474.68 1288.54H1842.1C1713.95 1288.54 1598.47 1211.23 1549.63 1092.75L1455.97 865.507C1411.4 757.382 1310.82 682.666 1194.44 671.228L1042.44 656.29C930.305 645.272 843.697 552.889 839.901 440.279C837.268 361.965 795.127 288.226 723.33 256.847C648.527 224.151 585.836 210.781 497.306 203.972" stroke="url(#paint8_linear_401_879)" stroke-width="3.43047" stroke-linecap="round" stroke-dasharray="0.03 13.72"/>
<path opacity="0.434783" d="M2463.38 1288.54H1830.8C1702.65 1288.54 1587.17 1211.23 1538.33 1092.75L1444.67 865.507C1400.1 757.382 1299.52 682.666 1183.14 671.228L1031.14 656.29C919.008 645.272 832.399 552.889 828.603 440.279C825.97 361.965 783.83 288.226 712.032 256.847C637.229 224.151 574.538 210.781 486.009 203.972" stroke="url(#paint9_linear_401_879)" stroke-width="3.43047" stroke-linecap="round" stroke-dasharray="0.03 13.72"/>
<path opacity="0.478261" d="M2452.08 1288.54H1819.5C1691.36 1288.54 1575.87 1211.23 1527.04 1092.75L1433.37 865.507C1388.8 757.382 1288.23 682.666 1171.84 671.228L1019.84 656.29C907.71 645.272 821.101 552.889 817.305 440.279C814.673 361.965 772.532 288.226 700.734 256.847C625.932 224.151 563.24 210.781 474.711 203.972" stroke="url(#paint10_linear_401_879)" stroke-width="3.43047" stroke-linecap="round" stroke-dasharray="0.03 13.72"/>
<path opacity="0.521739" d="M2440.78 1288.54H1808.2C1680.06 1288.54 1564.57 1211.23 1515.74 1092.75L1422.07 865.507C1377.51 757.382 1276.93 682.666 1160.54 671.228L1008.54 656.29C896.412 645.272 809.803 552.889 806.007 440.279C803.375 361.965 761.234 288.226 689.437 256.847C614.634 224.151 551.943 210.781 463.413 203.972" stroke="url(#paint11_linear_401_879)" stroke-width="3.43047" stroke-linecap="round" stroke-dasharray="0.03 13.72"/>
<path opacity="0.565217" d="M2429.48 1288.54H1796.9C1668.76 1288.54 1553.27 1211.23 1504.44 1092.75L1410.78 865.507C1366.21 757.382 1265.63 682.666 1149.25 671.228L997.246 656.29C885.114 645.272 798.505 552.889 794.709 440.279C792.077 361.966 749.936 288.226 678.139 256.847C603.336 224.151 540.645 210.781 452.115 203.972" stroke="url(#paint12_linear_401_879)" stroke-width="3.43047" stroke-linecap="round" stroke-dasharray="0.03 13.72"/>
<path opacity="0.608696" d="M2418.19 1288.54H1785.61C1657.46 1288.54 1541.98 1211.23 1493.14 1092.75L1399.48 865.507C1354.91 757.382 1254.33 682.666 1137.95 671.228L985.948 656.29C873.816 645.272 787.208 552.889 783.412 440.279C780.779 361.966 738.638 288.226 666.841 256.847C592.038 224.151 529.347 210.781 440.817 203.972" stroke="url(#paint13_linear_401_879)" stroke-width="3.43047" stroke-linecap="round" stroke-dasharray="0.03 13.72"/>
<path opacity="0.652174" d="M2406.89 1288.54H1774.31C1646.17 1288.54 1530.68 1211.23 1481.84 1092.75L1388.18 865.507C1343.61 757.382 1243.03 682.666 1126.65 671.228L974.65 656.29C862.519 645.272 775.91 552.889 772.114 440.279C769.482 361.966 727.341 288.226 655.543 256.847C580.741 224.151 518.049 210.781 429.52 203.972" stroke="url(#paint14_linear_401_879)" stroke-width="3.43047" stroke-linecap="round" stroke-dasharray="0.03 13.72"/>
<path opacity="0.695652" d="M2395.59 1288.54H1763.01C1634.87 1288.54 1519.38 1211.23 1470.55 1092.75L1376.88 865.507C1332.32 757.382 1231.74 682.666 1115.35 671.228L963.351 656.29C851.221 645.272 764.612 552.889 760.816 440.279C758.184 361.966 716.043 288.226 644.245 256.847C569.443 224.151 506.751 210.781 418.222 203.972" stroke="url(#paint15_linear_401_879)" stroke-width="3.43047" stroke-linecap="round" stroke-dasharray="0.03 13.72"/>
<path opacity="0.73913" d="M2384.29 1288.54H1751.71C1623.57 1288.54 1508.08 1211.23 1459.25 1092.75L1365.58 865.507C1321.02 757.382 1220.44 682.666 1104.06 671.228L952.054 656.29C839.923 645.272 753.314 552.889 749.518 440.279C746.886 361.966 704.745 288.226 632.948 256.847C558.145 224.151 495.454 210.781 406.924 203.972" stroke="url(#paint16_linear_401_879)" stroke-width="3.43047" stroke-linecap="round" stroke-dasharray="0.03 13.72"/>
<path opacity="0.782609" d="M2372.99 1288.54H1740.42C1612.27 1288.54 1496.79 1211.23 1447.95 1092.75L1354.29 865.507C1309.72 757.382 1209.14 682.666 1092.76 671.228L940.756 656.29C828.625 645.272 742.017 552.889 738.22 440.279C735.588 361.965 693.447 288.226 621.65 256.847C546.847 224.151 484.156 210.781 395.626 203.972" stroke="url(#paint17_linear_401_879)" stroke-width="3.43047" stroke-linecap="round" stroke-dasharray="0.03 13.72"/>
<path opacity="0.826087" d="M2361.7 1288.54H1729.12C1600.97 1288.54 1485.49 1211.23 1436.65 1092.75L1342.99 865.507C1298.42 757.382 1197.84 682.666 1081.46 671.228L929.458 656.29C817.328 645.272 730.719 552.889 726.923 440.279C724.29 361.965 682.149 288.226 610.352 256.847C535.549 224.151 472.858 210.781 384.329 203.972" stroke="url(#paint18_linear_401_879)" stroke-width="3.43047" stroke-linecap="round" stroke-dasharray="0.03 13.72"/>
<path opacity="0.869565" d="M2350.4 1288.54H1717.82C1589.68 1288.54 1474.19 1211.23 1425.36 1092.75L1331.69 865.507C1287.12 757.382 1186.54 682.666 1070.16 671.228L918.16 656.29C806.03 645.272 719.421 552.889 715.625 440.279C712.993 361.965 670.852 288.226 599.054 256.847C524.252 224.151 461.56 210.781 373.031 203.972" stroke="url(#paint19_linear_401_879)" stroke-width="3.43047" stroke-linecap="round" stroke-dasharray="0.03 13.72"/>
<path opacity="0.913043" d="M2339.1 1288.54H1706.52C1578.38 1288.54 1462.89 1211.23 1414.06 1092.75L1320.39 865.507C1275.83 757.382 1175.25 682.666 1058.86 671.228L906.863 656.29C794.732 645.272 708.123 552.889 704.327 440.279C701.695 361.965 659.554 288.226 587.756 256.847C512.954 224.151 450.262 210.781 361.733 203.972" stroke="url(#paint20_linear_401_879)" stroke-width="3.43047" stroke-linecap="round" stroke-dasharray="0.03 13.72"/>
<path opacity="0.956522" d="M2327.8 1288.54H1695.22C1567.08 1288.54 1451.59 1211.23 1402.76 1092.75L1309.1 865.507C1264.53 757.382 1163.95 682.666 1047.57 671.228L895.565 656.29C783.434 645.272 696.825 552.889 693.029 440.279C690.397 361.966 648.256 288.226 576.459 256.847C501.656 224.151 438.965 210.781 350.435 203.972" stroke="url(#paint21_linear_401_879)" stroke-width="3.43047" stroke-linecap="round" stroke-dasharray="0.03 13.72"/>
<path d="M2316.51 1288.54H1683.93C1555.78 1288.54 1440.3 1211.23 1391.46 1092.75L1297.8 865.507C1253.23 757.382 1152.65 682.666 1036.27 671.228L884.267 656.29C772.136 645.272 685.528 552.889 681.732 440.279C679.099 361.966 636.958 288.226 565.161 256.847C490.358 224.151 427.667 210.781 339.137 203.972" stroke="url(#paint22_linear_401_879)" stroke-width="3.43047" stroke-linecap="round" stroke-dasharray="0.03 13.72"/>
<path d="M2679.09 1288.69H1684.66C1556.68 1288.69 1441.3 1211.57 1392.36 1093.31L1297.93 865.123C1253.27 757.209 1152.79 682.679 1036.57 671.257L884.267 656.29C772.136 645.271 685.516 552.889 681.732 440.278C679.099 361.965 636.958 288.225 565.161 256.846C490.347 224.151 427.667 210.781 339.137 203.972" stroke="url(#paint23_linear_401_879)" stroke-width="4.11656" stroke-linecap="round"/>
</g>
<mask id="mask1_401_879" style="mask-type:luminance" maskUnits="userSpaceOnUse" x="244" y="434" width="1275" height="654">
<path d="M1519 434H244.923V1088H1519V434Z" fill="white"/>
</mask>
<g mask="url(#mask1_401_879)">
<path opacity="0.043478" d="M1802.64 1101.69H1418.48C1340.66 1101.69 1270.53 1054.74 1240.87 982.792L1183.99 844.802C1156.93 779.144 1095.85 733.773 1025.17 726.828L932.864 717.757C864.771 711.066 812.172 654.968 809.867 586.586C808.268 539.031 782.677 494.254 739.076 475.199C693.649 455.345 655.578 447.226 601.816 443.092" stroke="#2B44E7" stroke-width="3.43047" stroke-linecap="round" stroke-dasharray="0.03 13.72"/>
<path opacity="0.086957" d="M1795.77 1101.69H1411.62C1333.8 1101.69 1263.67 1054.74 1234.01 982.792L1177.13 844.802C1150.07 779.144 1088.99 733.773 1018.31 726.828L926.003 717.757C857.91 711.066 805.311 654.968 803.006 586.586C801.407 539.031 775.816 494.254 732.215 475.199C686.788 455.345 648.717 447.226 594.955 443.092" stroke="#2B44E7" stroke-width="3.43047" stroke-linecap="round" stroke-dasharray="0.03 13.72"/>
<path opacity="0.130435" d="M1788.91 1101.69H1404.76C1326.94 1101.69 1256.81 1054.74 1227.15 982.792L1170.27 844.802C1143.21 779.144 1082.13 733.773 1011.45 726.828L919.142 717.757C851.049 711.066 798.45 654.968 796.145 586.586C794.546 539.032 768.955 494.254 725.354 475.199C679.927 455.345 641.856 447.226 588.094 443.092" stroke="#2B44E7" stroke-width="3.43047" stroke-linecap="round" stroke-dasharray="0.03 13.72"/>
<path opacity="0.173913" d="M1782.05 1101.69H1397.9C1320.08 1101.69 1249.95 1054.74 1220.29 982.792L1163.41 844.802C1136.35 779.144 1075.27 733.773 1004.59 726.828L912.281 717.757C844.188 711.066 791.589 654.968 789.284 586.586C787.685 539.032 762.094 494.254 718.493 475.199C673.067 455.345 634.995 447.226 581.233 443.092" stroke="#2B44E7" stroke-width="3.43047" stroke-linecap="round" stroke-dasharray="0.03 13.72"/>
<path opacity="0.217391" d="M1775.19 1101.69H1391.04C1313.22 1101.69 1243.09 1054.74 1213.43 982.792L1156.55 844.802C1129.48 779.144 1068.4 733.773 997.727 726.828L905.42 717.757C837.327 711.066 784.728 654.968 782.423 586.586C780.825 539.032 755.233 494.254 711.632 475.199C666.206 455.345 628.134 447.226 574.372 443.092" stroke="#2B44E7" stroke-width="3.43047" stroke-linecap="round" stroke-dasharray="0.03 13.72"/>
<path opacity="0.26087" d="M1768.33 1101.69H1384.18C1306.36 1101.69 1236.22 1054.74 1206.57 982.792L1149.69 844.802C1122.62 779.144 1061.54 733.773 990.866 726.828L898.559 717.757C830.463 711.066 777.867 654.968 775.562 586.586C773.964 539.032 748.372 494.254 704.771 475.199C659.345 455.345 621.273 447.226 567.511 443.092" stroke="#2B44E7" stroke-width="3.43047" stroke-linecap="round" stroke-dasharray="0.03 13.72"/>
<path opacity="0.304348" d="M1761.47 1101.69H1377.32C1299.5 1101.69 1229.36 1054.74 1199.71 982.792L1142.83 844.802C1115.76 779.144 1054.68 733.773 984.005 726.828L891.698 717.757C823.602 711.066 771.007 654.968 768.701 586.586C767.103 539.032 741.511 494.254 697.91 475.199C652.484 455.345 614.412 447.226 560.65 443.092" stroke="#2B44E7" stroke-width="3.43047" stroke-linecap="round" stroke-dasharray="0.03 13.72"/>
<path opacity="0.347826" d="M1754.61 1101.69H1370.46C1292.64 1101.69 1222.5 1054.74 1192.85 982.792L1135.97 844.802C1108.9 779.144 1047.82 733.773 977.144 726.828L884.837 717.757C816.741 711.066 764.146 654.968 761.84 586.586C760.242 539.032 734.65 494.254 691.049 475.199C645.623 455.345 607.551 447.226 553.789 443.092" stroke="#2B44E7" stroke-width="3.43047" stroke-linecap="round" stroke-dasharray="0.03 13.72"/>
<path opacity="0.391304" d="M1747.75 1101.69H1363.59C1285.77 1101.69 1215.64 1054.74 1185.99 982.792L1129.11 844.802C1102.04 779.144 1040.96 733.773 970.283 726.828L877.976 717.757C809.881 711.066 757.285 654.968 754.979 586.586C753.381 539.031 727.789 494.254 684.188 475.199C638.762 455.345 600.691 447.226 546.928 443.092" stroke="#2B44E7" stroke-width="3.43047" stroke-linecap="round" stroke-dasharray="0.03 13.72"/>
<path opacity="0.434783" d="M1740.89 1101.69H1356.73C1278.91 1101.69 1208.78 1054.74 1179.12 982.792L1122.24 844.802C1095.18 779.144 1034.1 733.773 963.422 726.828L871.115 717.757C803.02 711.066 750.424 654.968 748.118 586.586C746.52 539.031 720.929 494.254 677.327 475.199C631.901 455.345 593.83 447.226 540.067 443.092" stroke="#2B44E7" stroke-width="3.43047" stroke-linecap="round" stroke-dasharray="0.03 13.72"/>
<path opacity="0.478261" d="M1734.03 1101.69H1349.87C1272.05 1101.69 1201.92 1054.74 1172.26 982.792L1115.38 844.802C1088.32 779.144 1027.24 733.773 956.561 726.828L864.254 717.757C796.159 711.066 743.563 654.968 741.258 586.586C739.659 539.031 714.068 494.254 670.466 475.199C625.04 455.345 586.969 447.226 533.206 443.092" stroke="#2B44E7" stroke-width="3.43047" stroke-linecap="round" stroke-dasharray="0.03 13.72"/>
<path opacity="0.521739" d="M1727.17 1101.69H1343.01C1265.19 1101.69 1195.06 1054.74 1165.4 982.792L1108.52 844.802C1081.46 779.144 1020.38 733.773 949.7 726.828L857.393 717.757C789.298 711.066 736.702 654.968 734.397 586.586C732.798 539.031 707.207 494.254 663.605 475.199C618.179 455.345 580.108 447.226 526.345 443.092" stroke="#2B44E7" stroke-width="3.43047" stroke-linecap="round" stroke-dasharray="0.03 13.72"/>
<path opacity="0.565217" d="M1720.3 1101.69H1336.15C1258.33 1101.69 1188.2 1054.74 1158.54 982.792L1101.66 844.802C1074.6 779.144 1013.52 733.773 942.839 726.828L850.532 717.757C782.437 711.066 729.841 654.968 727.536 586.586C725.937 539.032 700.346 494.254 656.744 475.199C611.318 455.345 573.247 447.226 519.484 443.092" stroke="#2B44E7" stroke-width="3.43047" stroke-linecap="round" stroke-dasharray="0.03 13.72"/>
<path opacity="0.608696" d="M1713.44 1101.69H1329.29C1251.47 1101.69 1181.34 1054.74 1151.68 982.792L1094.8 844.802C1067.74 779.144 1006.66 733.773 935.978 726.828L843.671 717.757C775.576 711.066 722.98 654.968 720.675 586.586C719.076 539.032 693.485 494.254 649.883 475.199C604.457 455.345 566.386 447.226 512.624 443.092" stroke="#2B44E7" stroke-width="3.43047" stroke-linecap="round" stroke-dasharray="0.03 13.72"/>
<path opacity="0.652174" d="M1706.58 1101.69H1322.43C1244.61 1101.69 1174.48 1054.74 1144.82 982.792L1087.94 844.802C1060.88 779.144 999.795 733.773 929.118 726.828L836.81 717.757C768.715 711.066 716.119 654.968 713.814 586.586C712.215 539.032 686.624 494.254 643.023 475.199C597.596 455.345 559.525 447.226 505.763 443.092" stroke="#2B44E7" stroke-width="3.43047" stroke-linecap="round" stroke-dasharray="0.03 13.72"/>
<path opacity="0.695652" d="M1699.72 1101.69H1315.57C1237.75 1101.69 1167.62 1054.74 1137.96 982.792L1081.08 844.802C1054.01 779.144 992.934 733.773 922.257 726.828L829.949 717.757C761.854 711.066 709.258 654.968 706.953 586.586C705.354 539.032 679.763 494.254 636.162 475.199C590.735 455.345 552.664 447.226 498.902 443.092" stroke="#2B44E7" stroke-width="3.43047" stroke-linecap="round" stroke-dasharray="0.03 13.72"/>
<path opacity="0.73913" d="M1692.86 1101.69H1308.71C1230.89 1101.69 1160.75 1054.74 1131.1 982.792L1074.22 844.802C1047.15 779.144 986.073 733.773 915.396 726.828L823.088 717.757C754.993 711.066 702.397 654.968 700.092 586.586C698.493 539.032 672.902 494.254 629.301 475.199C583.874 455.345 545.803 447.226 492.041 443.092" stroke="#2B44E7" stroke-width="3.43047" stroke-linecap="round" stroke-dasharray="0.03 13.72"/>
<path opacity="0.782609" d="M1686 1101.69H1301.85C1224.03 1101.69 1153.89 1054.74 1124.24 982.792L1067.36 844.802C1040.29 779.144 979.212 733.773 908.535 726.828L816.227 717.757C748.132 711.066 695.536 654.968 693.231 586.586C691.632 539.031 666.041 494.254 622.44 475.199C577.013 455.345 538.942 447.226 485.18 443.092" stroke="#2B44E7" stroke-width="3.43047" stroke-linecap="round" stroke-dasharray="0.03 13.72"/>
<path opacity="0.826087" d="M1679.14 1101.69H1294.98C1217.17 1101.69 1147.03 1054.74 1117.38 982.792L1060.5 844.802C1033.43 779.144 972.351 733.773 901.674 726.828L809.366 717.757C741.271 711.066 688.675 654.968 686.37 586.586C684.771 539.031 659.18 494.254 615.579 475.199C570.152 455.345 532.081 447.226 478.319 443.092" stroke="#2B44E7" stroke-width="3.43047" stroke-linecap="round" stroke-dasharray="0.03 13.72"/>
<path opacity="0.869565" d="M1672.28 1101.69H1288.12C1210.3 1101.69 1140.17 1054.74 1110.52 982.792L1053.63 844.802C1026.57 779.144 965.49 733.773 894.813 726.828L802.505 717.757C734.41 711.066 681.814 654.968 679.509 586.586C677.91 539.031 652.319 494.254 608.718 475.199C563.292 455.345 525.22 447.226 471.458 443.092" stroke="#2B44E7" stroke-width="3.43047" stroke-linecap="round" stroke-dasharray="0.03 13.72"/>
<path opacity="0.913043" d="M1665.42 1101.69H1281.26C1203.44 1101.69 1133.31 1054.74 1103.65 982.792L1046.77 844.802C1019.71 779.144 958.629 733.773 887.952 726.828L795.644 717.757C727.549 711.066 674.953 654.968 672.648 586.586C671.05 539.031 645.458 494.254 601.857 475.199C556.431 455.345 518.359 447.226 464.597 443.092" stroke="#2B44E7" stroke-width="3.43047" stroke-linecap="round" stroke-dasharray="0.03 13.72"/>
<path opacity="0.956522" d="M1658.56 1101.69H1274.4C1196.58 1101.69 1126.45 1054.74 1096.79 982.792L1039.91 844.802C1012.85 779.144 951.768 733.773 881.091 726.828L788.783 717.757C720.688 711.066 668.092 654.968 665.787 586.586C664.189 539.032 638.597 494.254 594.996 475.199C549.57 455.345 511.498 447.226 457.736 443.092" stroke="#2B44E7" stroke-width="3.43047" stroke-linecap="round" stroke-dasharray="0.03 13.72"/>
<path d="M1651.69 1101.69H1267.54C1189.72 1101.69 1119.59 1054.74 1089.93 982.792L1033.05 844.802C1005.99 779.144 944.907 733.773 874.23 726.828L781.922 717.757C713.827 711.066 661.231 654.968 658.926 586.586C657.328 539.032 631.736 494.254 588.135 475.199C542.709 455.345 504.637 447.226 450.875 443.092" stroke="#2B44E7" stroke-width="3.43047" stroke-linecap="round" stroke-dasharray="0.03 13.72"/>
<path d="M1871.88 1101.78H1267.98C1190.26 1101.78 1120.2 1054.95 1090.48 983.134L1033.13 844.568C1006.01 779.039 944.994 733.781 874.414 726.846L781.922 717.757C713.828 711.066 661.225 654.968 658.926 586.586C657.328 539.031 631.736 494.253 588.135 475.199C542.702 455.345 504.638 447.226 450.875 443.092" stroke="url(#paint24_linear_401_879)" stroke-width="4.11656" stroke-linecap="round"/>
</g>
<mask id="mask2_401_879" style="mask-type:luminance" maskUnits="userSpaceOnUse" x="1266" y="302" width="1618" height="836">
<path d="M1266 302H2884V1138H1266V302Z" fill="white"/>
</mask>
<g mask="url(#mask2_401_879)">
<path opacity="0.043478" d="M905.8 1149.79H1393.65C1492.48 1149.79 1581.54 1090.18 1619.2 998.827L1691.44 823.614C1725.81 740.246 1803.38 682.636 1893.13 673.817L2010.36 662.3C2096.83 653.804 2163.63 582.573 2166.56 495.746C2168.59 435.363 2201.09 378.507 2256.46 354.312C2314.15 329.103 2362.49 318.794 2430.77 313.544" stroke="#2B44E7" stroke-width="3.43047" stroke-linecap="round" stroke-dasharray="0.03 13.72"/>
<path opacity="0.086957" d="M914.513 1149.79H1402.37C1501.19 1149.79 1590.26 1090.18 1627.92 998.827L1700.15 823.614C1734.52 740.246 1812.09 682.636 1901.85 673.817L2019.07 662.3C2105.54 653.804 2172.34 582.573 2175.27 495.746C2177.3 435.363 2209.8 378.507 2265.17 354.312C2322.86 329.103 2371.21 318.794 2439.48 313.544" stroke="#2B44E7" stroke-width="3.43047" stroke-linecap="round" stroke-dasharray="0.03 13.72"/>
<path opacity="0.130435" d="M923.226 1149.79H1411.08C1509.9 1149.79 1598.97 1090.18 1636.63 998.827L1708.86 823.614C1743.24 740.246 1820.8 682.636 1910.56 673.817L2027.78 662.3C2114.26 653.804 2181.05 582.573 2183.98 495.746C2186.01 435.364 2218.51 378.507 2273.88 354.312C2331.57 329.103 2379.92 318.794 2448.19 313.544" stroke="#2B44E7" stroke-width="3.43047" stroke-linecap="round" stroke-dasharray="0.03 13.72"/>
<path opacity="0.173913" d="M931.939 1149.79H1419.79C1518.62 1149.79 1607.68 1090.18 1645.34 998.827L1717.58 823.614C1751.95 740.246 1829.52 682.636 1919.27 673.817L2036.5 662.3C2122.97 653.804 2189.77 582.573 2192.69 495.746C2194.72 435.364 2227.22 378.507 2282.6 354.312C2340.28 329.103 2388.63 318.794 2456.91 313.544" stroke="#2B44E7" stroke-width="3.43047" stroke-linecap="round" stroke-dasharray="0.03 13.72"/>
<path opacity="0.217391" d="M940.652 1149.79H1428.5C1527.33 1149.79 1616.39 1090.18 1654.06 998.827L1726.29 823.614C1760.66 740.246 1838.23 682.636 1927.99 673.817L2045.21 662.3C2131.68 653.804 2198.48 582.573 2201.41 495.746C2203.44 435.364 2235.94 378.507 2291.31 354.312C2349 329.103 2397.35 318.794 2465.62 313.544" stroke="#2B44E7" stroke-width="3.43047" stroke-linecap="round" stroke-dasharray="0.03 13.72"/>
<path opacity="0.26087" d="M949.365 1149.79H1437.22C1536.04 1149.79 1625.11 1090.18 1662.77 998.827L1735 823.614C1769.37 740.246 1846.94 682.636 1936.7 673.817L2053.92 662.3C2140.4 653.804 2207.19 582.573 2210.12 495.746C2212.15 435.364 2244.65 378.507 2300.02 354.312C2357.71 329.103 2406.06 318.794 2474.33 313.544" stroke="#2B44E7" stroke-width="3.43047" stroke-linecap="round" stroke-dasharray="0.03 13.72"/>
<path opacity="0.304348" d="M958.078 1149.79H1445.93C1544.76 1149.79 1633.82 1090.18 1671.48 998.827L1743.72 823.614C1778.09 740.246 1855.66 682.636 1945.41 673.817L2062.64 662.3C2149.11 653.804 2215.91 582.573 2218.83 495.746C2220.86 435.364 2253.36 378.507 2308.73 354.312C2366.42 329.103 2414.77 318.794 2483.05 313.544" stroke="#2B44E7" stroke-width="3.43047" stroke-linecap="round" stroke-dasharray="0.03 13.72"/>
<path opacity="0.347826" d="M966.791 1149.79H1454.64C1553.47 1149.79 1642.53 1090.18 1680.19 998.827L1752.43 823.614C1786.8 740.246 1864.37 682.636 1954.12 673.817L2071.35 662.3C2157.83 653.804 2224.62 582.573 2227.55 495.746C2229.58 435.364 2262.08 378.507 2317.45 354.312C2375.14 329.103 2423.48 318.794 2491.76 313.544" stroke="#2B44E7" stroke-width="3.43047" stroke-linecap="round" stroke-dasharray="0.03 13.72"/>
<path opacity="0.391304" d="M975.504 1149.79H1463.36C1562.18 1149.79 1651.25 1090.18 1688.91 998.827L1761.14 823.614C1795.51 740.246 1873.08 682.636 1962.84 673.817L2080.06 662.3C2166.54 653.804 2233.33 582.573 2236.26 495.746C2238.29 435.363 2270.79 378.507 2326.16 354.312C2383.85 329.103 2432.2 318.794 2500.47 313.544" stroke="#2B44E7" stroke-width="3.43047" stroke-linecap="round" stroke-dasharray="0.03 13.72"/>
<path opacity="0.434783" d="M984.217 1149.79H1472.07C1570.89 1149.79 1659.96 1090.18 1697.62 998.827L1769.86 823.614C1804.23 740.246 1881.79 682.636 1971.55 673.817L2088.77 662.3C2175.25 653.804 2242.05 582.573 2244.97 495.746C2247 435.363 2279.5 378.507 2334.87 354.312C2392.56 329.103 2440.91 318.794 2509.19 313.544" stroke="#2B44E7" stroke-width="3.43047" stroke-linecap="round" stroke-dasharray="0.03 13.72"/>
<path opacity="0.478261" d="M992.93 1149.79H1480.78C1579.61 1149.79 1668.67 1090.18 1706.33 998.827L1778.57 823.614C1812.94 740.246 1890.51 682.636 1980.26 673.817L2097.49 662.3C2183.96 653.804 2250.76 582.573 2253.69 495.746C2255.72 435.363 2288.22 378.507 2343.59 354.312C2401.27 329.103 2449.62 318.794 2517.9 313.544" stroke="#2B44E7" stroke-width="3.43047" stroke-linecap="round" stroke-dasharray="0.03 13.72"/>
<path opacity="0.521739" d="M1001.64 1149.79H1489.49C1588.32 1149.79 1677.39 1090.18 1715.05 998.827L1787.28 823.614C1821.65 740.246 1899.22 682.636 1988.98 673.817L2106.2 662.3C2192.68 653.804 2259.47 582.573 2262.4 495.746C2264.43 435.363 2296.93 378.507 2352.3 354.312C2409.99 329.103 2458.34 318.794 2526.61 313.544" stroke="#2B44E7" stroke-width="3.43047" stroke-linecap="round" stroke-dasharray="0.03 13.72"/>
<path opacity="0.565217" d="M1010.36 1149.79H1498.21C1597.03 1149.79 1686.1 1090.18 1723.76 998.827L1795.99 823.614C1830.36 740.246 1907.93 682.636 1997.69 673.817L2114.91 662.3C2201.39 653.804 2268.18 582.573 2271.11 495.746C2273.14 435.364 2305.64 378.507 2361.01 354.312C2418.7 329.103 2467.05 318.794 2535.32 313.544" stroke="#2B44E7" stroke-width="3.43047" stroke-linecap="round" stroke-dasharray="0.03 13.72"/>
<path opacity="0.608696" d="M1019.07 1149.79H1506.92C1605.75 1149.79 1694.81 1090.18 1732.47 998.827L1804.71 823.614C1839.08 740.246 1916.65 682.636 2006.4 673.817L2123.63 662.3C2210.1 653.804 2276.9 582.573 2279.82 495.746C2281.85 435.364 2314.35 378.507 2369.73 354.312C2427.41 329.103 2475.76 318.794 2544.04 313.544" stroke="#2B44E7" stroke-width="3.43047" stroke-linecap="round" stroke-dasharray="0.03 13.72"/>
<path opacity="0.652174" d="M1027.78 1149.79H1515.63C1614.46 1149.79 1703.52 1090.18 1741.19 998.827L1813.42 823.614C1847.79 740.246 1925.36 682.636 2015.11 673.817L2132.34 662.3C2218.82 653.804 2285.61 582.573 2288.54 495.746C2290.57 435.364 2323.07 378.507 2378.44 354.312C2436.13 329.103 2484.47 318.794 2552.75 313.544" stroke="#2B44E7" stroke-width="3.43047" stroke-linecap="round" stroke-dasharray="0.03 13.72"/>
<path opacity="0.695652" d="M1036.49 1149.79H1524.35C1623.17 1149.79 1712.24 1090.18 1749.9 998.827L1822.13 823.614C1856.5 740.246 1934.07 682.636 2023.83 673.817L2141.05 662.3C2227.53 653.804 2294.32 582.573 2297.25 495.746C2299.28 435.364 2331.78 378.507 2387.15 354.312C2444.84 329.103 2493.19 318.794 2561.46 313.544" stroke="#2B44E7" stroke-width="3.43047" stroke-linecap="round" stroke-dasharray="0.03 13.72"/>
<path opacity="0.73913" d="M1045.21 1149.79H1533.06C1631.89 1149.79 1720.95 1090.18 1758.61 998.827L1830.85 823.614C1865.22 740.246 1942.78 682.636 2032.54 673.817L2149.77 662.3C2236.24 653.804 2303.04 582.573 2305.96 495.746C2307.99 435.364 2340.49 378.507 2395.86 354.312C2453.55 329.103 2501.9 318.794 2570.18 313.544" stroke="#2B44E7" stroke-width="3.43047" stroke-linecap="round" stroke-dasharray="0.03 13.72"/>
<path opacity="0.782609" d="M1053.92 1149.79H1541.77C1640.6 1149.79 1729.66 1090.18 1767.32 998.827L1839.56 823.614C1873.93 740.246 1951.5 682.636 2041.25 673.817L2158.48 662.3C2244.96 653.804 2311.75 582.573 2314.68 495.746C2316.71 435.363 2349.21 378.507 2404.58 354.312C2462.27 329.103 2510.61 318.794 2578.89 313.544" stroke="#2B44E7" stroke-width="3.43047" stroke-linecap="round" stroke-dasharray="0.03 13.72"/>
<path opacity="0.826087" d="M1062.63 1149.79H1550.49C1649.31 1149.79 1738.38 1090.18 1776.04 998.827L1848.27 823.614C1882.64 740.246 1960.21 682.636 2049.97 673.817L2167.19 662.3C2253.67 653.804 2320.46 582.573 2323.39 495.746C2325.42 435.363 2357.92 378.507 2413.29 354.312C2470.98 329.103 2519.33 318.794 2587.6 313.544" stroke="#2B44E7" stroke-width="3.43047" stroke-linecap="round" stroke-dasharray="0.03 13.72"/>
<path opacity="0.869565" d="M1071.35 1149.79H1559.2C1658.02 1149.79 1747.09 1090.18 1784.75 998.827L1856.99 823.614C1891.36 740.246 1968.92 682.636 2058.68 673.817L2175.91 662.3C2262.38 653.804 2329.17 582.573 2332.1 495.746C2334.13 435.363 2366.63 378.507 2422 354.312C2479.69 329.103 2528.04 318.794 2596.31 313.544" stroke="#2B44E7" stroke-width="3.43047" stroke-linecap="round" stroke-dasharray="0.03 13.72"/>
<path opacity="0.913043" d="M1080.06 1149.79H1567.91C1666.74 1149.79 1755.8 1090.18 1793.46 998.827L1865.7 823.614C1900.07 740.246 1977.64 682.636 2067.39 673.817L2184.62 662.3C2271.09 653.804 2337.89 582.573 2340.82 495.746C2342.85 435.363 2375.35 378.507 2430.72 354.312C2488.4 329.103 2536.75 318.794 2605.03 313.544" stroke="#2B44E7" stroke-width="3.43047" stroke-linecap="round" stroke-dasharray="0.03 13.72"/>
<path opacity="0.956522" d="M1088.77 1149.79H1576.62C1675.45 1149.79 1764.51 1090.18 1802.18 998.827L1874.41 823.614C1908.78 740.246 1986.35 682.636 2076.11 673.817L2193.33 662.3C2279.81 653.804 2346.6 582.573 2349.53 495.746C2351.56 435.364 2384.06 378.507 2439.43 354.312C2497.12 329.103 2545.47 318.794 2613.74 313.544" stroke="#2B44E7" stroke-width="3.43047" stroke-linecap="round" stroke-dasharray="0.03 13.72"/>
<path d="M1097.49 1149.79H1585.34C1684.16 1149.79 1773.23 1090.18 1810.89 998.827L1883.12 823.614C1917.49 740.246 1995.06 682.636 2084.82 673.817L2202.04 662.3C2288.52 653.804 2355.31 582.573 2358.24 495.746C2360.27 435.364 2392.77 378.507 2448.14 354.312C2505.83 329.103 2554.18 318.794 2622.45 313.544" stroke="#2B44E7" stroke-width="3.43047" stroke-linecap="round" stroke-dasharray="0.03 13.72"/>
<path d="M817.858 1149.91H1584.77C1683.48 1149.91 1772.45 1090.45 1810.2 999.261L1883.02 823.318C1917.46 740.112 1994.95 682.646 2084.59 673.84L2202.04 662.3C2288.52 653.803 2355.32 582.573 2358.24 495.746C2360.27 435.363 2392.77 378.506 2448.14 354.312C2505.84 329.103 2554.18 318.794 2622.45 313.544" stroke="url(#paint25_linear_401_879)" stroke-width="4.11656" stroke-linecap="round"/>
</g>
<mask id="mask3_401_879" style="mask-type:luminance" maskUnits="userSpaceOnUse" x="970" y="0" width="2098" height="1090">
<path d="M970 0H3068V1090H970V0Z" fill="white"/>
</mask>
<g mask="url(#mask3_401_879)">
<path opacity="0.043478" d="M502.943 1099.54H1135.52C1263.67 1099.54 1379.15 1022.23 1427.99 903.748L1521.65 676.507C1566.22 568.382 1666.8 493.665 1783.18 482.228L1935.18 467.29C2047.31 456.272 2133.92 363.889 2137.72 251.278C2140.35 172.965 2182.49 99.2255 2254.29 67.8464C2329.09 35.1511 2391.78 21.7805 2480.31 14.9722" stroke="url(#paint26_linear_401_879)" stroke-width="3.43047" stroke-linecap="round" stroke-dasharray="0.03 13.72"/>
<path opacity="0.086957" d="M514.24 1099.54H1146.82C1274.96 1099.54 1390.45 1022.23 1439.28 903.748L1532.95 676.507C1577.52 568.382 1678.09 493.665 1794.48 482.228L1946.48 467.29C2058.61 456.272 2145.22 363.889 2149.01 251.278C2151.65 172.965 2193.79 99.2255 2265.59 67.8464C2340.39 35.1511 2403.08 21.7805 2491.61 14.9722" stroke="url(#paint27_linear_401_879)" stroke-width="3.43047" stroke-linecap="round" stroke-dasharray="0.03 13.72"/>
<path opacity="0.130435" d="M525.538 1099.54H1158.12C1286.26 1099.54 1401.75 1022.23 1450.58 903.748L1544.25 676.507C1588.81 568.382 1689.39 493.665 1805.78 482.228L1957.78 467.29C2069.9 456.272 2156.52 363.889 2160.31 251.278C2162.95 172.966 2205.09 99.2255 2276.88 67.8464C2351.69 35.1512 2414.38 21.7805 2502.91 14.9722" stroke="url(#paint28_linear_401_879)" stroke-width="3.43047" stroke-linecap="round" stroke-dasharray="0.03 13.72"/>
<path opacity="0.173913" d="M536.836 1099.54H1169.42C1297.56 1099.54 1413.05 1022.23 1461.88 903.748L1555.54 676.507C1600.11 568.382 1700.69 493.665 1817.07 482.228L1969.07 467.29C2081.2 456.272 2167.81 363.889 2171.61 251.278C2174.24 172.966 2216.38 99.2255 2288.18 67.8464C2362.98 35.1512 2425.68 21.7805 2514.2 14.9722" stroke="url(#paint29_linear_401_879)" stroke-width="3.43047" stroke-linecap="round" stroke-dasharray="0.03 13.72"/>
<path opacity="0.217391" d="M548.134 1099.54H1180.71C1308.86 1099.54 1424.34 1022.23 1473.18 903.748L1566.84 676.507C1611.41 568.382 1711.99 493.665 1828.37 482.228L1980.37 467.29C2092.5 456.272 2179.11 363.889 2182.91 251.278C2185.54 172.966 2227.68 99.2255 2299.48 67.8464C2374.28 35.1512 2436.97 21.7805 2525.5 14.9722" stroke="url(#paint30_linear_401_879)" stroke-width="3.43047" stroke-linecap="round" stroke-dasharray="0.03 13.72"/>
<path opacity="0.26087" d="M559.432 1099.54H1192.01C1320.15 1099.54 1435.64 1022.23 1484.48 903.748L1578.14 676.507C1622.71 568.382 1723.29 493.665 1839.67 482.228L1991.67 467.29C2103.8 456.272 2190.41 363.889 2194.21 251.278C2196.84 172.966 2238.98 99.2255 2310.78 67.8464C2385.58 35.1512 2448.27 21.7805 2536.8 14.9722" stroke="url(#paint31_linear_401_879)" stroke-width="3.43047" stroke-linecap="round" stroke-dasharray="0.03 13.72"/>
<path opacity="0.304348" d="M570.729 1099.54H1203.31C1331.45 1099.54 1446.94 1022.23 1495.77 903.748L1589.44 676.507C1634 568.382 1734.58 493.665 1850.97 482.228L2002.97 467.29C2115.1 456.272 2201.71 363.889 2205.5 251.278C2208.14 172.966 2250.28 99.2255 2322.07 67.8464C2396.88 35.1512 2459.57 21.7805 2548.1 14.9722" stroke="url(#paint32_linear_401_879)" stroke-width="3.43047" stroke-linecap="round" stroke-dasharray="0.03 13.72"/>
<path opacity="0.347826" d="M582.027 1099.54H1214.61C1342.75 1099.54 1458.24 1022.23 1507.07 903.748L1600.74 676.507C1645.3 568.382 1745.88 493.665 1862.26 482.228L2014.27 467.29C2126.4 456.272 2213.01 363.889 2216.8 251.278C2219.43 172.966 2261.57 99.2255 2333.37 67.8463C2408.18 35.1511 2470.87 21.7805 2559.4 14.9722" stroke="url(#paint33_linear_401_879)" stroke-width="3.43047" stroke-linecap="round" stroke-dasharray="0.03 13.72"/>
<path opacity="0.391304" d="M593.325 1099.54H1225.9C1354.05 1099.54 1469.53 1022.23 1518.37 903.748L1612.03 676.507C1656.6 568.382 1757.18 493.665 1873.56 482.228L2025.56 467.29C2137.69 456.272 2224.3 363.889 2228.1 251.278C2230.73 172.965 2272.87 99.2255 2344.67 67.8464C2419.47 35.1511 2482.16 21.7805 2570.69 14.9722" stroke="url(#paint34_linear_401_879)" stroke-width="3.43047" stroke-linecap="round" stroke-dasharray="0.03 13.72"/>
<path opacity="0.434783" d="M604.623 1099.54H1237.2C1365.35 1099.54 1480.83 1022.23 1529.67 903.748L1623.33 676.507C1667.9 568.382 1768.48 493.665 1884.86 482.228L2036.86 467.29C2148.99 456.272 2235.6 363.889 2239.4 251.278C2242.03 172.965 2284.17 99.2255 2355.97 67.8464C2430.77 35.1511 2493.46 21.7805 2581.99 14.9722" stroke="url(#paint35_linear_401_879)" stroke-width="3.43047" stroke-linecap="round" stroke-dasharray="0.03 13.72"/>
<path opacity="0.478261" d="M615.921 1099.54H1248.5C1376.64 1099.54 1492.13 1022.23 1540.96 903.748L1634.63 676.507C1679.2 568.382 1779.77 493.665 1896.16 482.228L2048.16 467.29C2160.29 456.272 2246.9 363.889 2250.7 251.278C2253.33 172.965 2295.47 99.2255 2367.27 67.8464C2442.07 35.1511 2504.76 21.7805 2593.29 14.9722" stroke="url(#paint36_linear_401_879)" stroke-width="3.43047" stroke-linecap="round" stroke-dasharray="0.03 13.72"/>
<path opacity="0.521739" d="M627.218 1099.54H1259.8C1387.94 1099.54 1503.43 1022.23 1552.26 903.748L1645.93 676.507C1690.49 568.382 1791.07 493.665 1907.46 482.228L2059.46 467.29C2171.59 456.272 2258.2 363.889 2261.99 251.278C2264.63 172.965 2306.77 99.2255 2378.56 67.8464C2453.37 35.1511 2516.06 21.7805 2604.59 14.9722" stroke="url(#paint37_linear_401_879)" stroke-width="3.43047" stroke-linecap="round" stroke-dasharray="0.03 13.72"/>
<path opacity="0.565217" d="M638.516 1099.54H1271.1C1399.24 1099.54 1514.73 1022.23 1563.56 903.748L1657.22 676.507C1701.79 568.382 1802.37 493.665 1918.75 482.228L2070.75 467.29C2182.89 456.272 2269.49 363.889 2273.29 251.278C2275.92 172.966 2318.06 99.2255 2389.86 67.8464C2464.66 35.1512 2527.36 21.7805 2615.88 14.9722" stroke="url(#paint38_linear_401_879)" stroke-width="3.43047" stroke-linecap="round" stroke-dasharray="0.03 13.72"/>
<path opacity="0.608696" d="M649.814 1099.54H1282.39C1410.54 1099.54 1526.02 1022.23 1574.86 903.748L1668.52 676.507C1713.09 568.382 1813.67 493.665 1930.05 482.228L2082.05 467.29C2194.18 456.272 2280.79 363.889 2284.59 251.278C2287.22 172.966 2329.36 99.2255 2401.16 67.8464C2475.96 35.1512 2538.65 21.7805 2627.18 14.9722" stroke="url(#paint39_linear_401_879)" stroke-width="3.43047" stroke-linecap="round" stroke-dasharray="0.03 13.72"/>
<path opacity="0.652174" d="M661.112 1099.54H1293.69C1421.83 1099.54 1537.32 1022.23 1586.16 903.748L1679.82 676.507C1724.39 568.382 1824.97 493.665 1941.35 482.228L2093.35 467.29C2205.48 456.272 2292.09 363.889 2295.89 251.278C2298.52 172.966 2340.66 99.2255 2412.46 67.8464C2487.26 35.1512 2549.95 21.7805 2638.48 14.9722" stroke="url(#paint40_linear_401_879)" stroke-width="3.43047" stroke-linecap="round" stroke-dasharray="0.03 13.72"/>
<path opacity="0.695652" d="M672.409 1099.54H1304.99C1433.13 1099.54 1548.62 1022.23 1597.45 903.748L1691.12 676.507C1735.68 568.382 1836.26 493.665 1952.65 482.228L2104.65 467.29C2216.78 456.272 2303.39 363.889 2307.18 251.278C2309.82 172.966 2351.96 99.2255 2423.75 67.8464C2498.56 35.1512 2561.25 21.7805 2649.78 14.9722" stroke="url(#paint41_linear_401_879)" stroke-width="3.43047" stroke-linecap="round" stroke-dasharray="0.03 13.72"/>
<path opacity="0.73913" d="M683.707 1099.54H1316.29C1444.43 1099.54 1559.92 1022.23 1608.75 903.748L1702.42 676.507C1746.98 568.382 1847.56 493.665 1963.94 482.228L2115.95 467.29C2228.08 456.272 2314.69 363.889 2318.48 251.278C2321.11 172.966 2363.25 99.2255 2435.05 67.8463C2509.86 35.1511 2572.55 21.7805 2661.08 14.9722" stroke="url(#paint42_linear_401_879)" stroke-width="3.43047" stroke-linecap="round" stroke-dasharray="0.03 13.72"/>
<path opacity="0.782609" d="M695.005 1099.54H1327.58C1455.73 1099.54 1571.21 1022.23 1620.05 903.748L1713.71 676.507C1758.28 568.382 1858.86 493.665 1975.24 482.228L2127.24 467.29C2239.37 456.272 2325.98 363.889 2329.78 251.278C2332.41 172.965 2374.55 99.2255 2446.35 67.8464C2521.15 35.1511 2583.84 21.7805 2672.37 14.9722" stroke="url(#paint43_linear_401_879)" stroke-width="3.43047" stroke-linecap="round" stroke-dasharray="0.03 13.72"/>
<path opacity="0.826087" d="M706.303 1099.54H1338.88C1467.03 1099.54 1582.51 1022.23 1631.35 903.748L1725.01 676.507C1769.58 568.382 1870.16 493.665 1986.54 482.228L2138.54 467.29C2250.67 456.272 2337.28 363.889 2341.08 251.278C2343.71 172.965 2385.85 99.2255 2457.65 67.8464C2532.45 35.1511 2595.14 21.7805 2683.67 14.9722" stroke="url(#paint44_linear_401_879)" stroke-width="3.43047" stroke-linecap="round" stroke-dasharray="0.03 13.72"/>
<path opacity="0.869565" d="M717.601 1099.54H1350.18C1478.32 1099.54 1593.81 1022.23 1642.64 903.748L1736.31 676.507C1780.88 568.382 1881.46 493.665 1997.84 482.228L2149.84 467.29C2261.97 456.272 2348.58 363.889 2352.38 251.278C2355.01 172.965 2397.15 99.2255 2468.95 67.8464C2543.75 35.1511 2606.44 21.7805 2694.97 14.9722" stroke="url(#paint45_linear_401_879)" stroke-width="3.43047" stroke-linecap="round" stroke-dasharray="0.03 13.72"/>
<path opacity="0.913043" d="M728.898 1099.54H1361.48C1489.62 1099.54 1605.11 1022.23 1653.94 903.748L1747.61 676.507C1792.17 568.382 1892.75 493.665 2009.14 482.228L2161.14 467.29C2273.27 456.272 2359.88 363.889 2363.67 251.278C2366.31 172.965 2408.45 99.2255 2480.24 67.8464C2555.05 35.1511 2617.74 21.7805 2706.27 14.9722" stroke="url(#paint46_linear_401_879)" stroke-width="3.43047" stroke-linecap="round" stroke-dasharray="0.03 13.72"/>
<path opacity="0.956522" d="M740.196 1099.54H1372.78C1500.92 1099.54 1616.41 1022.23 1665.24 903.748L1758.9 676.507C1803.47 568.382 1904.05 493.665 2020.43 482.228L2172.44 467.29C2284.57 456.272 2371.17 363.889 2374.97 251.278C2377.6 172.966 2419.74 99.2255 2491.54 67.8464C2566.34 35.1512 2629.04 21.7805 2717.56 14.9722" stroke="url(#paint47_linear_401_879)" stroke-width="3.43047" stroke-linecap="round" stroke-dasharray="0.03 13.72"/>
<path d="M751.494 1099.54H1384.07C1512.22 1099.54 1627.7 1022.23 1676.54 903.748L1770.2 676.507C1814.77 568.382 1915.35 493.665 2031.73 482.228L2183.73 467.29C2295.86 456.272 2382.47 363.889 2386.27 251.278C2388.9 172.966 2431.04 99.2255 2502.84 67.8464C2577.64 35.1511 2640.33 21.7805 2728.86 14.9722" stroke="url(#paint48_linear_401_879)" stroke-width="3.43047" stroke-linecap="round" stroke-dasharray="0.03 13.72"/>
<path d="M388.912 1099.69H1383.34C1511.32 1099.69 1626.7 1022.57 1675.64 904.312L1770.07 676.122C1814.73 568.209 1915.21 493.679 2031.43 482.257L2183.73 467.29C2295.86 456.27 2382.48 363.889 2386.27 251.278C2388.9 172.964 2431.04 99.2248 2502.84 67.8457C2577.65 35.1507 2640.33 21.7805 2728.86 14.9722" stroke="url(#paint49_linear_401_879)" stroke-width="4.11656" stroke-linecap="round"/>
</g>
<defs>
<linearGradient id="paint0_linear_401_879" x1="1576.37" y1="203.972" x2="1576.37" y2="1288.54" gradientUnits="userSpaceOnUse">
<stop stop-color="#2B44E7"/>
<stop offset="0.447917" stop-color="#2B44E7" stop-opacity="0"/>
</linearGradient>
<linearGradient id="paint1_linear_401_879" x1="1565.08" y1="203.972" x2="1565.08" y2="1288.54" gradientUnits="userSpaceOnUse">
<stop stop-color="#2B44E7"/>
<stop offset="0.447917" stop-color="#2B44E7" stop-opacity="0"/>
</linearGradient>
<linearGradient id="paint2_linear_401_879" x1="1553.78" y1="203.972" x2="1553.78" y2="1288.54" gradientUnits="userSpaceOnUse">
<stop stop-color="#2B44E7"/>
<stop offset="0.447917" stop-color="#2B44E7" stop-opacity="0"/>
</linearGradient>
<linearGradient id="paint3_linear_401_879" x1="1542.48" y1="203.972" x2="1542.48" y2="1288.54" gradientUnits="userSpaceOnUse">
<stop stop-color="#2B44E7"/>
<stop offset="0.447917" stop-color="#2B44E7" stop-opacity="0"/>
</linearGradient>
<linearGradient id="paint4_linear_401_879" x1="1531.18" y1="203.972" x2="1531.18" y2="1288.54" gradientUnits="userSpaceOnUse">
<stop stop-color="#2B44E7"/>
<stop offset="0.447917" stop-color="#2B44E7" stop-opacity="0"/>
</linearGradient>
<linearGradient id="paint5_linear_401_879" x1="1519.88" y1="203.972" x2="1519.88" y2="1288.54" gradientUnits="userSpaceOnUse">
<stop stop-color="#2B44E7"/>
<stop offset="0.447917" stop-color="#2B44E7" stop-opacity="0"/>
</linearGradient>
<linearGradient id="paint6_linear_401_879" x1="1508.59" y1="203.972" x2="1508.59" y2="1288.54" gradientUnits="userSpaceOnUse">
<stop stop-color="#2B44E7"/>
<stop offset="0.447917" stop-color="#2B44E7" stop-opacity="0"/>
</linearGradient>
<linearGradient id="paint7_linear_401_879" x1="1497.29" y1="203.972" x2="1497.29" y2="1288.54" gradientUnits="userSpaceOnUse">
<stop stop-color="#2B44E7"/>
<stop offset="0.447917" stop-color="#2B44E7" stop-opacity="0"/>
</linearGradient>
<linearGradient id="paint8_linear_401_879" x1="1485.99" y1="203.972" x2="1485.99" y2="1288.54" gradientUnits="userSpaceOnUse">
<stop stop-color="#2B44E7"/>
<stop offset="0.447917" stop-color="#2B44E7" stop-opacity="0"/>
</linearGradient>
<linearGradient id="paint9_linear_401_879" x1="1474.69" y1="203.972" x2="1474.69" y2="1288.54" gradientUnits="userSpaceOnUse">
<stop stop-color="#2B44E7"/>
<stop offset="0.447917" stop-color="#2B44E7" stop-opacity="0"/>
</linearGradient>
<linearGradient id="paint10_linear_401_879" x1="1463.4" y1="203.972" x2="1463.4" y2="1288.54" gradientUnits="userSpaceOnUse">
<stop stop-color="#2B44E7"/>
<stop offset="0.447917" stop-color="#2B44E7" stop-opacity="0"/>
</linearGradient>
<linearGradient id="paint11_linear_401_879" x1="1452.1" y1="203.972" x2="1452.1" y2="1288.54" gradientUnits="userSpaceOnUse">
<stop stop-color="#2B44E7"/>
<stop offset="0.447917" stop-color="#2B44E7" stop-opacity="0"/>
</linearGradient>
<linearGradient id="paint12_linear_401_879" x1="1440.8" y1="203.972" x2="1440.8" y2="1288.54" gradientUnits="userSpaceOnUse">
<stop stop-color="#2B44E7"/>
<stop offset="0.447917" stop-color="#2B44E7" stop-opacity="0"/>
</linearGradient>
<linearGradient id="paint13_linear_401_879" x1="1429.5" y1="203.972" x2="1429.5" y2="1288.54" gradientUnits="userSpaceOnUse">
<stop stop-color="#2B44E7"/>
<stop offset="0.447917" stop-color="#2B44E7" stop-opacity="0"/>
</linearGradient>
<linearGradient id="paint14_linear_401_879" x1="1418.2" y1="203.972" x2="1418.2" y2="1288.54" gradientUnits="userSpaceOnUse">
<stop stop-color="#2B44E7"/>
<stop offset="0.447917" stop-color="#2B44E7" stop-opacity="0"/>
</linearGradient>
<linearGradient id="paint15_linear_401_879" x1="1406.91" y1="203.972" x2="1406.91" y2="1288.54" gradientUnits="userSpaceOnUse">
<stop stop-color="#2B44E7"/>
<stop offset="0.447917" stop-color="#2B44E7" stop-opacity="0"/>
</linearGradient>
<linearGradient id="paint16_linear_401_879" x1="1395.61" y1="203.972" x2="1395.61" y2="1288.54" gradientUnits="userSpaceOnUse">
<stop stop-color="#2B44E7"/>
<stop offset="0.447917" stop-color="#2B44E7" stop-opacity="0"/>
</linearGradient>
<linearGradient id="paint17_linear_401_879" x1="1384.31" y1="203.972" x2="1384.31" y2="1288.54" gradientUnits="userSpaceOnUse">
<stop stop-color="#2B44E7"/>
<stop offset="0.447917" stop-color="#2B44E7" stop-opacity="0"/>
</linearGradient>
<linearGradient id="paint18_linear_401_879" x1="1373.01" y1="203.972" x2="1373.01" y2="1288.54" gradientUnits="userSpaceOnUse">
<stop stop-color="#2B44E7"/>
<stop offset="0.447917" stop-color="#2B44E7" stop-opacity="0"/>
</linearGradient>
<linearGradient id="paint19_linear_401_879" x1="1361.72" y1="203.972" x2="1361.72" y2="1288.54" gradientUnits="userSpaceOnUse">
<stop stop-color="#2B44E7"/>
<stop offset="0.447917" stop-color="#2B44E7" stop-opacity="0"/>
</linearGradient>
<linearGradient id="paint20_linear_401_879" x1="1350.42" y1="203.972" x2="1350.42" y2="1288.54" gradientUnits="userSpaceOnUse">
<stop stop-color="#2B44E7"/>
<stop offset="0.447917" stop-color="#2B44E7" stop-opacity="0"/>
</linearGradient>
<linearGradient id="paint21_linear_401_879" x1="1339.12" y1="203.972" x2="1339.12" y2="1288.54" gradientUnits="userSpaceOnUse">
<stop stop-color="#2B44E7"/>
<stop offset="0.447917" stop-color="#2B44E7" stop-opacity="0"/>
</linearGradient>
<linearGradient id="paint22_linear_401_879" x1="1327.82" y1="203.972" x2="1327.82" y2="1288.54" gradientUnits="userSpaceOnUse">
<stop stop-color="#2B44E7"/>
<stop offset="0.447917" stop-color="#2B44E7" stop-opacity="0"/>
</linearGradient>
<linearGradient id="paint23_linear_401_879" x1="2259.01" y1="1284.29" x2="1512.14" y2="1281.07" gradientUnits="userSpaceOnUse">
<stop offset="0.2185" stop-color="#07071C"/>
<stop offset="0.508251" stop-color="#2B44E7" stop-opacity="0.29"/>
<stop offset="0.755624" stop-color="#2B44E7" stop-opacity="0"/>
</linearGradient>
<linearGradient id="paint24_linear_401_879" x1="1616.78" y1="1099.1" x2="1163.22" y2="1097.15" gradientUnits="userSpaceOnUse">
<stop offset="0.2185" stop-color="#07071C"/>
<stop offset="0.508251" stop-color="#AB21EC"/>
<stop offset="0.755624" stop-color="#AB21EC" stop-opacity="0"/>
</linearGradient>
<linearGradient id="paint25_linear_401_879" x1="1141.83" y1="1146.51" x2="1717.82" y2="1144.03" gradientUnits="userSpaceOnUse">
<stop offset="0.2185" stop-color="#07071C"/>
<stop offset="0.508251" stop-color="#2B44E7" stop-opacity="0.29"/>
<stop offset="0.755624" stop-color="#2B44E7" stop-opacity="0"/>
</linearGradient>
<linearGradient id="paint26_linear_401_879" x1="1491.63" y1="14.9722" x2="1491.63" y2="1099.54" gradientUnits="userSpaceOnUse">
<stop stop-color="#2B44E7"/>
<stop offset="1" stop-color="#2B44E7" stop-opacity="0"/>
</linearGradient>
<linearGradient id="paint27_linear_401_879" x1="1502.92" y1="14.9722" x2="1502.92" y2="1099.54" gradientUnits="userSpaceOnUse">
<stop stop-color="#2B44E7"/>
<stop offset="1" stop-color="#2B44E7" stop-opacity="0"/>
</linearGradient>
<linearGradient id="paint28_linear_401_879" x1="1514.22" y1="14.9722" x2="1514.22" y2="1099.54" gradientUnits="userSpaceOnUse">
<stop stop-color="#2B44E7"/>
<stop offset="1" stop-color="#2B44E7" stop-opacity="0"/>
</linearGradient>
<linearGradient id="paint29_linear_401_879" x1="1525.52" y1="14.9722" x2="1525.52" y2="1099.54" gradientUnits="userSpaceOnUse">
<stop stop-color="#2B44E7"/>
<stop offset="1" stop-color="#2B44E7" stop-opacity="0"/>
</linearGradient>
<linearGradient id="paint30_linear_401_879" x1="1536.82" y1="14.9722" x2="1536.82" y2="1099.54" gradientUnits="userSpaceOnUse">
<stop stop-color="#2B44E7"/>
<stop offset="1" stop-color="#2B44E7" stop-opacity="0"/>
</linearGradient>
<linearGradient id="paint31_linear_401_879" x1="1548.12" y1="14.9722" x2="1548.12" y2="1099.54" gradientUnits="userSpaceOnUse">
<stop stop-color="#2B44E7"/>
<stop offset="1" stop-color="#2B44E7" stop-opacity="0"/>
</linearGradient>
<linearGradient id="paint32_linear_401_879" x1="1559.41" y1="14.9722" x2="1559.41" y2="1099.54" gradientUnits="userSpaceOnUse">
<stop stop-color="#2B44E7"/>
<stop offset="1" stop-color="#2B44E7" stop-opacity="0"/>
</linearGradient>
<linearGradient id="paint33_linear_401_879" x1="1570.71" y1="14.9722" x2="1570.71" y2="1099.54" gradientUnits="userSpaceOnUse">
<stop stop-color="#2B44E7"/>
<stop offset="1" stop-color="#2B44E7" stop-opacity="0"/>
</linearGradient>
<linearGradient id="paint34_linear_401_879" x1="1582.01" y1="14.9722" x2="1582.01" y2="1099.54" gradientUnits="userSpaceOnUse">
<stop stop-color="#2B44E7"/>
<stop offset="1" stop-color="#2B44E7" stop-opacity="0"/>
</linearGradient>
<linearGradient id="paint35_linear_401_879" x1="1593.31" y1="14.9722" x2="1593.31" y2="1099.54" gradientUnits="userSpaceOnUse">
<stop stop-color="#2B44E7"/>
<stop offset="1" stop-color="#2B44E7" stop-opacity="0"/>
</linearGradient>
<linearGradient id="paint36_linear_401_879" x1="1604.6" y1="14.9722" x2="1604.6" y2="1099.54" gradientUnits="userSpaceOnUse">
<stop stop-color="#2B44E7"/>
<stop offset="1" stop-color="#2B44E7" stop-opacity="0"/>
</linearGradient>
<linearGradient id="paint37_linear_401_879" x1="1615.9" y1="14.9722" x2="1615.9" y2="1099.54" gradientUnits="userSpaceOnUse">
<stop stop-color="#2B44E7"/>
<stop offset="1" stop-color="#2B44E7" stop-opacity="0"/>
</linearGradient>
<linearGradient id="paint38_linear_401_879" x1="1627.2" y1="14.9722" x2="1627.2" y2="1099.54" gradientUnits="userSpaceOnUse">
<stop stop-color="#2B44E7"/>
<stop offset="1" stop-color="#2B44E7" stop-opacity="0"/>
</linearGradient>
<linearGradient id="paint39_linear_401_879" x1="1638.5" y1="14.9722" x2="1638.5" y2="1099.54" gradientUnits="userSpaceOnUse">
<stop stop-color="#2B44E7"/>
<stop offset="1" stop-color="#2B44E7" stop-opacity="0"/>
</linearGradient>
<linearGradient id="paint40_linear_401_879" x1="1649.8" y1="14.9722" x2="1649.8" y2="1099.54" gradientUnits="userSpaceOnUse">
<stop stop-color="#2B44E7"/>
<stop offset="1" stop-color="#2B44E7" stop-opacity="0"/>
</linearGradient>
<linearGradient id="paint41_linear_401_879" x1="1661.09" y1="14.9722" x2="1661.09" y2="1099.54" gradientUnits="userSpaceOnUse">
<stop stop-color="#2B44E7"/>
<stop offset="1" stop-color="#2B44E7" stop-opacity="0"/>
</linearGradient>
<linearGradient id="paint42_linear_401_879" x1="1672.39" y1="14.9722" x2="1672.39" y2="1099.54" gradientUnits="userSpaceOnUse">
<stop stop-color="#2B44E7"/>
<stop offset="1" stop-color="#2B44E7" stop-opacity="0"/>
</linearGradient>
<linearGradient id="paint43_linear_401_879" x1="1683.69" y1="14.9722" x2="1683.69" y2="1099.54" gradientUnits="userSpaceOnUse">
<stop stop-color="#2B44E7"/>
<stop offset="1" stop-color="#2B44E7" stop-opacity="0"/>
</linearGradient>
<linearGradient id="paint44_linear_401_879" x1="1694.99" y1="14.9722" x2="1694.99" y2="1099.54" gradientUnits="userSpaceOnUse">
<stop stop-color="#2B44E7"/>
<stop offset="1" stop-color="#2B44E7" stop-opacity="0"/>
</linearGradient>
<linearGradient id="paint45_linear_401_879" x1="1706.29" y1="14.9722" x2="1706.29" y2="1099.54" gradientUnits="userSpaceOnUse">
<stop stop-color="#2B44E7"/>
<stop offset="1" stop-color="#2B44E7" stop-opacity="0"/>
</linearGradient>
<linearGradient id="paint46_linear_401_879" x1="1717.58" y1="14.9722" x2="1717.58" y2="1099.54" gradientUnits="userSpaceOnUse">
<stop stop-color="#2B44E7"/>
<stop offset="1" stop-color="#2B44E7" stop-opacity="0"/>
</linearGradient>
<linearGradient id="paint47_linear_401_879" x1="1728.88" y1="14.9722" x2="1728.88" y2="1099.54" gradientUnits="userSpaceOnUse">
<stop stop-color="#2B44E7"/>
<stop offset="1" stop-color="#2B44E7" stop-opacity="0"/>
</linearGradient>
<linearGradient id="paint48_linear_401_879" x1="1740.18" y1="14.9722" x2="1740.18" y2="1099.54" gradientUnits="userSpaceOnUse">
<stop stop-color="#2B44E7"/>
<stop offset="1" stop-color="#2B44E7" stop-opacity="0"/>
</linearGradient>
<linearGradient id="paint49_linear_401_879" x1="808.987" y1="1095.29" x2="1555.86" y2="1092.07" gradientUnits="userSpaceOnUse">
<stop offset="0.2185" stop-color="#07071C"/>
<stop offset="0.508251" stop-color="#2B44E7" stop-opacity="0.29"/>
<stop offset="0.755624" stop-color="#2B44E7" stop-opacity="0"/>
</linearGradient>
</defs>
</svg>
