<svg width="1440" height="1127" viewBox="0 0 1440 1127" fill="none" xmlns="http://www.w3.org/2000/svg">
<g clip-path="url(#clip0_100_1505)">
<mask id="mask0_100_1505" style="mask-type:luminance" maskUnits="userSpaceOnUse" x="-48" y="22" width="2098" height="1105">
<path d="M-48 22H2050V1127H-48V22Z" fill="white"/>
</mask>
<g mask="url(#mask0_100_1505)">
<path opacity="0.043478" d="M-515.058 1121.54H117.522C245.666 1121.54 361.152 1044.23 409.986 925.748L503.651 698.507C548.217 590.382 648.797 515.666 765.18 504.228L917.18 489.29C1029.31 478.272 1115.92 385.889 1119.72 273.279C1122.35 194.965 1164.49 121.226 1236.29 89.8467C1311.09 57.1513 1373.78 43.7807 1462.31 36.9724" stroke="url(#paint0_linear_100_1505)" stroke-width="3.43047" stroke-linecap="round" stroke-dasharray="0.03 13.72"/>
<path opacity="0.086957" d="M-503.76 1121.54H128.819C256.963 1121.54 372.449 1044.23 421.284 925.748L514.948 698.507C559.515 590.382 660.095 515.666 776.478 504.228L928.478 489.29C1040.61 478.272 1127.22 385.889 1131.01 273.279C1133.65 194.965 1175.79 121.226 1247.59 89.8467C1322.39 57.1513 1385.08 43.7807 1473.61 36.9724" stroke="url(#paint1_linear_100_1505)" stroke-width="3.43047" stroke-linecap="round" stroke-dasharray="0.03 13.72"/>
<path opacity="0.130435" d="M-492.462 1121.54H140.117C268.261 1121.54 383.747 1044.23 432.582 925.748L526.246 698.507C570.813 590.382 671.393 515.666 787.776 504.228L939.776 489.29C1051.9 478.272 1138.52 385.889 1142.31 273.279C1144.94 194.966 1187.09 121.226 1258.88 89.8467C1333.69 57.1514 1396.38 43.7807 1484.91 36.9724" stroke="url(#paint2_linear_100_1505)" stroke-width="3.43047" stroke-linecap="round" stroke-dasharray="0.03 13.72"/>
<path opacity="0.173913" d="M-481.164 1121.54H151.415C279.559 1121.54 395.045 1044.23 443.88 925.748L537.544 698.507C582.111 590.382 682.69 515.666 799.073 504.228L951.074 489.29C1063.2 478.272 1149.81 385.889 1153.61 273.279C1156.24 194.966 1198.38 121.226 1270.18 89.8467C1344.98 57.1514 1407.68 43.7807 1496.2 36.9724" stroke="url(#paint3_linear_100_1505)" stroke-width="3.43047" stroke-linecap="round" stroke-dasharray="0.03 13.72"/>
<path opacity="0.217391" d="M-469.866 1121.54H162.713C290.857 1121.54 406.343 1044.23 455.178 925.748L548.842 698.507C593.408 590.382 693.988 515.666 810.371 504.228L962.372 489.29C1074.5 478.272 1161.11 385.889 1164.91 273.279C1167.54 194.966 1209.68 121.226 1281.48 89.8467C1356.28 57.1514 1418.97 43.7807 1507.5 36.9724" stroke="url(#paint4_linear_100_1505)" stroke-width="3.43047" stroke-linecap="round" stroke-dasharray="0.03 13.72"/>
<path opacity="0.26087" d="M-458.569 1121.54H174.01C302.154 1121.54 417.64 1044.23 466.475 925.748L560.139 698.507C604.706 590.382 705.286 515.666 821.669 504.228L973.669 489.29C1085.8 478.272 1172.41 385.889 1176.21 273.279C1178.84 194.966 1220.98 121.226 1292.78 89.8467C1367.58 57.1514 1430.27 43.7807 1518.8 36.9724" stroke="url(#paint5_linear_100_1505)" stroke-width="3.43047" stroke-linecap="round" stroke-dasharray="0.03 13.72"/>
<path opacity="0.304348" d="M-447.271 1121.54H185.308C313.452 1121.54 428.938 1044.23 477.773 925.748L571.437 698.507C616.004 590.382 716.583 515.666 832.966 504.228L984.967 489.29C1097.1 478.272 1183.71 385.889 1187.5 273.279C1190.14 194.966 1232.28 121.226 1304.07 89.8467C1378.88 57.1514 1441.57 43.7807 1530.1 36.9724" stroke="url(#paint6_linear_100_1505)" stroke-width="3.43047" stroke-linecap="round" stroke-dasharray="0.03 13.72"/>
<path opacity="0.347826" d="M-435.973 1121.54H196.606C324.75 1121.54 440.236 1044.23 489.071 925.748L582.735 698.507C627.301 590.382 727.881 515.666 844.264 504.228L996.265 489.29C1108.4 478.272 1195.01 385.889 1198.8 273.279C1201.43 194.966 1243.57 121.226 1315.37 89.8465C1390.17 57.1513 1452.87 43.7807 1541.4 36.9724" stroke="url(#paint7_linear_100_1505)" stroke-width="3.43047" stroke-linecap="round" stroke-dasharray="0.03 13.72"/>
<path opacity="0.391304" d="M-424.675 1121.54H207.904C336.048 1121.54 451.534 1044.23 500.369 925.748L594.033 698.507C638.599 590.382 739.179 515.666 855.562 504.228L1007.56 489.29C1119.69 478.272 1206.3 385.889 1210.1 273.279C1212.73 194.965 1254.87 121.226 1326.67 89.8467C1401.47 57.1513 1464.16 43.7807 1552.69 36.9724" stroke="url(#paint8_linear_100_1505)" stroke-width="3.43047" stroke-linecap="round" stroke-dasharray="0.03 13.72"/>
<path opacity="0.434783" d="M-413.377 1121.54H219.202C347.346 1121.54 462.832 1044.23 511.667 925.748L605.331 698.507C649.897 590.382 750.477 515.666 866.86 504.228L1018.86 489.29C1130.99 478.272 1217.6 385.889 1221.4 273.279C1224.03 194.965 1266.17 121.226 1337.97 89.8467C1412.77 57.1513 1475.46 43.7807 1563.99 36.9724" stroke="url(#paint9_linear_100_1505)" stroke-width="3.43047" stroke-linecap="round" stroke-dasharray="0.03 13.72"/>
<path opacity="0.478261" d="M-402.08 1121.54H230.5C358.644 1121.54 474.13 1044.23 522.964 925.748L616.629 698.507C661.195 590.382 761.775 515.666 878.158 504.228L1030.16 489.29C1142.29 478.272 1228.9 385.889 1232.69 273.279C1235.33 194.965 1277.47 121.226 1349.27 89.8467C1424.07 57.1513 1486.76 43.7807 1575.29 36.9724" stroke="url(#paint10_linear_100_1505)" stroke-width="3.43047" stroke-linecap="round" stroke-dasharray="0.03 13.72"/>
<path opacity="0.521739" d="M-390.782 1121.54H241.797C369.941 1121.54 485.428 1044.23 534.262 925.748L627.927 698.507C672.493 590.382 773.073 515.666 889.456 504.228L1041.46 489.29C1153.59 478.272 1240.2 385.889 1243.99 273.279C1246.63 194.965 1288.77 121.226 1360.56 89.8467C1435.37 57.1513 1498.06 43.7807 1586.59 36.9724" stroke="url(#paint11_linear_100_1505)" stroke-width="3.43047" stroke-linecap="round" stroke-dasharray="0.03 13.72"/>
<path opacity="0.565217" d="M-379.484 1121.54H253.095C381.239 1121.54 496.725 1044.23 545.56 925.748L639.224 698.507C683.791 590.382 784.371 515.666 900.754 504.228L1052.75 489.29C1164.89 478.272 1251.49 385.889 1255.29 273.279C1257.92 194.966 1300.06 121.226 1371.86 89.8467C1446.66 57.1514 1509.36 43.7807 1597.88 36.9724" stroke="url(#paint12_linear_100_1505)" stroke-width="3.43047" stroke-linecap="round" stroke-dasharray="0.03 13.72"/>
<path opacity="0.608696" d="M-368.186 1121.54H264.393C392.537 1121.54 508.023 1044.23 556.858 925.748L650.522 698.507C695.089 590.382 795.668 515.666 912.051 504.228L1064.05 489.29C1176.18 478.272 1262.79 385.889 1266.59 273.279C1269.22 194.966 1311.36 121.226 1383.16 89.8467C1457.96 57.1514 1520.65 43.7807 1609.18 36.9724" stroke="url(#paint13_linear_100_1505)" stroke-width="3.43047" stroke-linecap="round" stroke-dasharray="0.03 13.72"/>
<path opacity="0.652174" d="M-356.889 1121.54H275.69C403.835 1121.54 519.321 1044.23 568.155 925.748L661.82 698.507C706.386 590.382 806.966 515.666 923.349 504.228L1075.35 489.29C1187.48 478.272 1274.09 385.889 1277.89 273.279C1280.52 194.966 1322.66 121.226 1394.46 89.8467C1469.26 57.1514 1531.95 43.7807 1620.48 36.9724" stroke="url(#paint14_linear_100_1505)" stroke-width="3.43047" stroke-linecap="round" stroke-dasharray="0.03 13.72"/>
<path opacity="0.695652" d="M-345.591 1121.54H286.988C415.132 1121.54 530.618 1044.23 579.453 925.748L673.117 698.507C717.684 590.382 818.264 515.666 934.647 504.228L1086.65 489.29C1198.78 478.272 1285.39 385.889 1289.18 273.279C1291.82 194.966 1333.96 121.226 1405.75 89.8467C1480.56 57.1514 1543.25 43.7807 1631.78 36.9724" stroke="url(#paint15_linear_100_1505)" stroke-width="3.43047" stroke-linecap="round" stroke-dasharray="0.03 13.72"/>
<path opacity="0.73913" d="M-334.293 1121.54H298.286C426.43 1121.54 541.916 1044.23 590.751 925.748L684.415 698.507C728.982 590.382 829.561 515.666 945.945 504.228L1097.95 489.29C1210.08 478.272 1296.69 385.889 1300.48 273.279C1303.11 194.966 1345.25 121.226 1417.05 89.8465C1491.85 57.1513 1554.55 43.7807 1643.08 36.9724" stroke="url(#paint16_linear_100_1505)" stroke-width="3.43047" stroke-linecap="round" stroke-dasharray="0.03 13.72"/>
<path opacity="0.782609" d="M-322.995 1121.54H309.584C437.728 1121.54 553.214 1044.23 602.049 925.748L695.713 698.507C740.28 590.382 840.859 515.666 957.242 504.228L1109.24 489.29C1221.37 478.272 1307.98 385.889 1311.78 273.279C1314.41 194.965 1356.55 121.226 1428.35 89.8467C1503.15 57.1513 1565.84 43.7807 1654.37 36.9724" stroke="url(#paint17_linear_100_1505)" stroke-width="3.43047" stroke-linecap="round" stroke-dasharray="0.03 13.72"/>
<path opacity="0.826087" d="M-311.697 1121.54H320.882C449.026 1121.54 564.512 1044.23 613.347 925.748L707.011 698.507C751.577 590.382 852.157 515.666 968.54 504.228L1120.54 489.29C1232.67 478.272 1319.28 385.889 1323.08 273.279C1325.71 194.965 1367.85 121.226 1439.65 89.8467C1514.45 57.1513 1577.14 43.7807 1665.67 36.9724" stroke="url(#paint18_linear_100_1505)" stroke-width="3.43047" stroke-linecap="round" stroke-dasharray="0.03 13.72"/>
<path opacity="0.869565" d="M-300.399 1121.54H332.18C460.324 1121.54 575.81 1044.23 624.645 925.748L718.309 698.507C762.875 590.382 863.455 515.666 979.838 504.228L1131.84 489.29C1243.97 478.272 1330.58 385.889 1334.38 273.279C1337.01 194.965 1379.15 121.226 1450.95 89.8467C1525.75 57.1513 1588.44 43.7807 1676.97 36.9724" stroke="url(#paint19_linear_100_1505)" stroke-width="3.43047" stroke-linecap="round" stroke-dasharray="0.03 13.72"/>
<path opacity="0.913043" d="M-289.102 1121.54H343.478C471.622 1121.54 587.108 1044.23 635.942 925.748L729.607 698.507C774.173 590.382 874.753 515.666 991.136 504.228L1143.14 489.29C1255.27 478.272 1341.88 385.889 1345.67 273.279C1348.31 194.965 1390.45 121.226 1462.24 89.8467C1537.05 57.1513 1599.74 43.7807 1688.27 36.9724" stroke="url(#paint20_linear_100_1505)" stroke-width="3.43047" stroke-linecap="round" stroke-dasharray="0.03 13.72"/>
<path opacity="0.956522" d="M-277.804 1121.54H354.775C482.919 1121.54 598.406 1044.23 647.24 925.748L740.905 698.507C785.471 590.382 886.051 515.666 1002.43 504.228L1154.44 489.29C1266.57 478.272 1353.17 385.889 1356.97 273.279C1359.6 194.966 1401.74 121.226 1473.54 89.8467C1548.34 57.1514 1611.04 43.7807 1699.56 36.9724" stroke="url(#paint21_linear_100_1505)" stroke-width="3.43047" stroke-linecap="round" stroke-dasharray="0.03 13.72"/>
<path d="M-266.506 1121.54H366.073C494.217 1121.54 609.702 1044.23 658.538 925.748L752.202 698.507C796.768 590.382 897.348 515.666 1013.73 504.228L1165.73 489.29C1277.86 478.272 1364.47 385.889 1368.27 273.279C1370.9 194.966 1413.04 121.226 1484.84 89.8467C1559.64 57.1513 1622.33 43.7807 1710.86 36.9724" stroke="url(#paint22_linear_100_1505)" stroke-width="3.43047" stroke-linecap="round" stroke-dasharray="0.03 13.72"/>
<path d="M-629.088 1121.69H365.343C493.325 1121.69 608.696 1044.57 657.638 926.312L752.071 698.123C796.729 590.209 897.206 515.679 1013.43 504.257L1165.73 489.29C1277.86 478.271 1364.48 385.889 1368.27 273.278C1370.9 194.965 1413.04 121.225 1484.84 89.846C1559.65 57.151 1622.33 43.7807 1710.86 36.9724" stroke="url(#paint23_linear_100_1505)" stroke-width="4.11656" stroke-linecap="round"/>
</g>
</g>
<g clip-path="url(#clip1_100_1505)">
<mask id="mask1_100_1505" style="mask-type:luminance" maskUnits="userSpaceOnUse" x="531" y="267" width="1275" height="671">
<path d="M531 267H1805.08V938H531V267Z" fill="white"/>
</mask>
<g mask="url(#mask1_100_1505)">
<path opacity="0.043478" d="M247.365 934.686H631.518C709.338 934.686 779.47 887.738 809.127 815.792L866.008 677.802C893.072 612.144 954.152 566.773 1024.83 559.828L1117.14 550.757C1185.23 544.066 1237.83 487.968 1240.13 419.586C1241.73 372.031 1267.32 327.254 1310.92 308.199C1356.35 288.345 1394.42 280.226 1448.18 276.092" stroke="#2B44E7" stroke-width="3.43047" stroke-linecap="round" stroke-dasharray="0.03 13.72"/>
<path opacity="0.086957" d="M254.226 934.686H638.379C716.199 934.686 786.331 887.738 815.988 815.792L872.868 677.802C899.933 612.144 961.013 566.773 1031.69 559.828L1124 550.757C1192.09 544.066 1244.69 487.968 1246.99 419.586C1248.59 372.031 1274.18 327.254 1317.79 308.199C1363.21 288.345 1401.28 280.226 1455.05 276.092" stroke="#2B44E7" stroke-width="3.43047" stroke-linecap="round" stroke-dasharray="0.03 13.72"/>
<path opacity="0.130435" d="M261.086 934.686H645.24C723.06 934.686 793.192 887.738 822.849 815.792L879.729 677.802C906.794 612.144 967.874 566.773 1038.55 559.828L1130.86 550.757C1198.95 544.066 1251.55 487.968 1253.85 419.586C1255.45 372.032 1281.04 327.254 1324.65 308.199C1370.07 288.345 1408.14 280.226 1461.91 276.092" stroke="#2B44E7" stroke-width="3.43047" stroke-linecap="round" stroke-dasharray="0.03 13.72"/>
<path opacity="0.173913" d="M267.948 934.686H652.101C729.921 934.686 800.053 887.738 829.71 815.792L886.591 677.802C913.655 612.144 974.735 566.773 1045.41 559.828L1137.72 550.757C1205.81 544.066 1258.41 487.968 1260.72 419.586C1262.31 372.032 1287.91 327.254 1331.51 308.199C1376.93 288.345 1415.01 280.226 1468.77 276.092" stroke="#2B44E7" stroke-width="3.43047" stroke-linecap="round" stroke-dasharray="0.03 13.72"/>
<path opacity="0.217391" d="M274.809 934.686H658.962C736.782 934.686 806.914 887.738 836.571 815.792L893.451 677.802C920.516 612.144 981.596 566.773 1052.27 559.828L1144.58 550.757C1212.67 544.066 1265.27 487.968 1267.58 419.586C1269.18 372.032 1294.77 327.254 1338.37 308.199C1383.79 288.345 1421.87 280.226 1475.63 276.092" stroke="#2B44E7" stroke-width="3.43047" stroke-linecap="round" stroke-dasharray="0.03 13.72"/>
<path opacity="0.26087" d="M281.669 934.686H665.823C743.643 934.686 813.775 887.738 843.432 815.792L900.312 677.802C927.377 612.144 988.457 566.773 1059.13 559.828L1151.44 550.757C1219.54 544.066 1272.13 487.968 1274.44 419.586C1276.04 372.032 1301.63 327.254 1345.23 308.199C1390.66 288.345 1428.73 280.226 1482.49 276.092" stroke="#2B44E7" stroke-width="3.43047" stroke-linecap="round" stroke-dasharray="0.03 13.72"/>
<path opacity="0.304348" d="M288.53 934.686H672.684C750.503 934.686 820.636 887.738 850.292 815.792L907.173 677.802C934.237 612.144 995.318 566.773 1065.99 559.828L1158.3 550.757C1226.4 544.066 1278.99 487.968 1281.3 419.586C1282.9 372.032 1308.49 327.254 1352.09 308.199C1397.52 288.345 1435.59 280.226 1489.35 276.092" stroke="#2B44E7" stroke-width="3.43047" stroke-linecap="round" stroke-dasharray="0.03 13.72"/>
<path opacity="0.347826" d="M295.391 934.687H679.545C757.364 934.687 827.497 887.738 857.153 815.792L914.034 677.802C941.098 612.144 1002.18 566.773 1072.86 559.828L1165.16 550.757C1233.26 544.066 1285.85 487.968 1288.16 419.586C1289.76 372.032 1315.35 327.254 1358.95 308.199C1404.38 288.345 1442.45 280.226 1496.21 276.092" stroke="#2B44E7" stroke-width="3.43047" stroke-linecap="round" stroke-dasharray="0.03 13.72"/>
<path opacity="0.391304" d="M302.252 934.686H686.406C764.226 934.686 834.358 887.738 864.015 815.792L920.895 677.802C947.96 612.144 1009.04 566.773 1079.72 559.828L1172.02 550.757C1240.12 544.066 1292.72 487.968 1295.02 419.586C1296.62 372.031 1322.21 327.254 1365.81 308.199C1411.24 288.345 1449.31 280.226 1503.07 276.092" stroke="#2B44E7" stroke-width="3.43047" stroke-linecap="round" stroke-dasharray="0.03 13.72"/>
<path opacity="0.434783" d="M309.113 934.686H693.267C771.086 934.686 841.219 887.738 870.875 815.792L927.756 677.802C954.82 612.144 1015.9 566.773 1086.58 559.828L1178.89 550.757C1246.98 544.066 1299.58 487.968 1301.88 419.586C1303.48 372.031 1329.07 327.254 1372.67 308.199C1418.1 288.345 1456.17 280.226 1509.93 276.092" stroke="#2B44E7" stroke-width="3.43047" stroke-linecap="round" stroke-dasharray="0.03 13.72"/>
<path opacity="0.478261" d="M315.974 934.686H700.128C777.947 934.686 848.08 887.738 877.736 815.792L934.617 677.802C961.681 612.144 1022.76 566.773 1093.44 559.828L1185.75 550.757C1253.84 544.066 1306.44 487.968 1308.74 419.586C1310.34 372.031 1335.93 327.254 1379.53 308.199C1424.96 288.345 1463.03 280.226 1516.79 276.092" stroke="#2B44E7" stroke-width="3.43047" stroke-linecap="round" stroke-dasharray="0.03 13.72"/>
<path opacity="0.521739" d="M322.835 934.686H706.989C784.808 934.686 854.941 887.738 884.597 815.792L941.478 677.802C968.542 612.144 1029.62 566.773 1100.3 559.828L1192.61 550.757C1260.7 544.066 1313.3 487.968 1315.6 419.586C1317.2 372.031 1342.79 327.254 1386.39 308.199C1431.82 288.345 1469.89 280.226 1523.65 276.092" stroke="#2B44E7" stroke-width="3.43047" stroke-linecap="round" stroke-dasharray="0.03 13.72"/>
<path opacity="0.565217" d="M329.696 934.686H713.85C791.669 934.686 861.802 887.738 891.458 815.792L948.339 677.802C975.403 612.144 1036.48 566.773 1107.16 559.828L1199.47 550.757C1267.56 544.066 1320.16 487.968 1322.46 419.586C1324.06 372.032 1349.65 327.254 1393.26 308.199C1438.68 288.345 1476.75 280.226 1530.52 276.092" stroke="#2B44E7" stroke-width="3.43047" stroke-linecap="round" stroke-dasharray="0.03 13.72"/>
<path opacity="0.608696" d="M336.557 934.686H720.711C798.53 934.686 868.663 887.738 898.319 815.792L955.2 677.802C982.264 612.144 1043.34 566.773 1114.02 559.828L1206.33 550.757C1274.42 544.066 1327.02 487.968 1329.33 419.586C1330.92 372.032 1356.52 327.254 1400.12 308.199C1445.54 288.345 1483.61 280.226 1537.38 276.092" stroke="#2B44E7" stroke-width="3.43047" stroke-linecap="round" stroke-dasharray="0.03 13.72"/>
<path opacity="0.652174" d="M343.418 934.686H727.572C805.391 934.686 875.524 887.738 905.18 815.792L962.061 677.802C989.125 612.144 1050.21 566.773 1120.88 559.828L1213.19 550.757C1281.29 544.066 1333.88 487.968 1336.19 419.586C1337.79 372.032 1363.38 327.254 1406.98 308.199C1452.4 288.345 1490.48 280.226 1544.24 276.092" stroke="#2B44E7" stroke-width="3.43047" stroke-linecap="round" stroke-dasharray="0.03 13.72"/>
<path opacity="0.695652" d="M350.279 934.686H734.432C812.252 934.686 882.385 887.738 912.041 815.792L968.922 677.802C995.986 612.144 1057.07 566.773 1127.74 559.828L1220.05 550.757C1288.15 544.066 1340.74 487.968 1343.05 419.586C1344.65 372.032 1370.24 327.254 1413.84 308.199C1459.26 288.345 1497.34 280.226 1551.1 276.092" stroke="#2B44E7" stroke-width="3.43047" stroke-linecap="round" stroke-dasharray="0.03 13.72"/>
<path opacity="0.73913" d="M357.14 934.687H741.293C819.113 934.687 889.245 887.738 918.902 815.792L975.782 677.802C1002.85 612.144 1063.93 566.773 1134.6 559.828L1226.91 550.757C1295.01 544.066 1347.6 487.968 1349.91 419.586C1351.51 372.032 1377.1 327.254 1420.7 308.199C1466.13 288.345 1504.2 280.226 1557.96 276.092" stroke="#2B44E7" stroke-width="3.43047" stroke-linecap="round" stroke-dasharray="0.03 13.72"/>
<path opacity="0.782609" d="M364.001 934.686H748.155C825.974 934.686 896.107 887.738 925.763 815.792L982.644 677.802C1009.71 612.144 1070.79 566.773 1141.47 559.828L1233.77 550.757C1301.87 544.066 1354.46 487.968 1356.77 419.586C1358.37 372.031 1383.96 327.254 1427.56 308.199C1472.99 288.345 1511.06 280.226 1564.82 276.092" stroke="#2B44E7" stroke-width="3.43047" stroke-linecap="round" stroke-dasharray="0.03 13.72"/>
<path opacity="0.826087" d="M370.862 934.686H755.015C832.835 934.686 902.968 887.738 932.624 815.792L989.505 677.802C1016.57 612.144 1077.65 566.773 1148.33 559.828L1240.63 550.757C1308.73 544.066 1361.32 487.968 1363.63 419.586C1365.23 372.031 1390.82 327.254 1434.42 308.199C1479.85 288.345 1517.92 280.226 1571.68 276.092" stroke="#2B44E7" stroke-width="3.43047" stroke-linecap="round" stroke-dasharray="0.03 13.72"/>
<path opacity="0.869565" d="M377.723 934.686H761.876C839.696 934.686 909.828 887.738 939.485 815.792L996.365 677.802C1023.43 612.144 1084.51 566.773 1155.19 559.828L1247.5 550.757C1315.59 544.066 1368.19 487.968 1370.49 419.586C1372.09 372.031 1397.68 327.254 1441.28 308.199C1486.71 288.345 1524.78 280.226 1578.54 276.092" stroke="#2B44E7" stroke-width="3.43047" stroke-linecap="round" stroke-dasharray="0.03 13.72"/>
<path opacity="0.913043" d="M384.583 934.686H768.737C846.557 934.686 916.689 887.738 946.346 815.792L1003.23 677.802C1030.29 612.144 1091.37 566.773 1162.05 559.828L1254.36 550.757C1322.45 544.066 1375.05 487.968 1377.35 419.586C1378.95 372.031 1404.54 327.254 1448.14 308.199C1493.57 288.345 1531.64 280.226 1585.4 276.092" stroke="#2B44E7" stroke-width="3.43047" stroke-linecap="round" stroke-dasharray="0.03 13.72"/>
<path opacity="0.956522" d="M391.444 934.686H775.598C853.418 934.686 923.55 887.738 953.206 815.792L1010.09 677.802C1037.15 612.144 1098.23 566.773 1168.91 559.828L1261.22 550.757C1329.31 544.066 1381.91 487.968 1384.21 419.586C1385.81 372.032 1411.4 327.254 1455 308.199C1500.43 288.345 1538.5 280.226 1592.26 276.092" stroke="#2B44E7" stroke-width="3.43047" stroke-linecap="round" stroke-dasharray="0.03 13.72"/>
<path d="M398.306 934.687H782.459C860.279 934.687 930.411 887.738 960.068 815.792L1016.95 677.802C1044.01 612.144 1105.09 566.773 1175.77 559.828L1268.08 550.757C1336.17 544.066 1388.77 487.968 1391.07 419.586C1392.67 372.032 1418.26 327.254 1461.87 308.199C1507.29 288.345 1545.36 280.226 1599.13 276.092" stroke="#2B44E7" stroke-width="3.43047" stroke-linecap="round" stroke-dasharray="0.03 13.72"/>
<path d="M178.116 934.778H782.016C859.736 934.778 929.8 887.948 959.521 816.134L1016.87 677.568C1043.99 612.039 1105.01 566.781 1175.59 559.846L1268.08 550.757C1336.17 544.066 1388.78 487.968 1391.07 419.586C1392.67 372.031 1418.26 327.253 1461.86 308.199C1507.3 288.345 1545.36 280.226 1599.12 276.092" stroke="url(#paint24_linear_100_1505)" stroke-width="4.11656" stroke-linecap="round"/>
</g>
</g>
<g clip-path="url(#clip2_100_1505)">
<mask id="mask2_100_1505" style="mask-type:luminance" maskUnits="userSpaceOnUse" x="-834" y="135" width="1618" height="852">
<path d="M784 135H-834V987H784V135Z" fill="white"/>
</mask>
<g mask="url(#mask2_100_1505)">
<path opacity="0.043478" d="M1144.2 982.793H656.348C557.522 982.793 468.458 923.181 430.796 831.827L358.561 656.614C324.191 573.246 246.623 515.636 156.867 506.817L39.6424 495.3C-46.8312 486.804 -113.628 415.573 -116.556 328.746C-118.586 268.363 -151.085 211.507 -206.456 187.312C-264.145 162.103 -312.493 151.794 -380.768 146.544" stroke="#2B44E7" stroke-width="3.43047" stroke-linecap="round" stroke-dasharray="0.03 13.72"/>
<path opacity="0.086957" d="M1135.49 982.793H647.635C548.809 982.793 459.745 923.181 422.083 831.827L349.848 656.614C315.478 573.246 237.91 515.636 148.154 506.817L30.9296 495.3C-55.5441 486.804 -122.341 415.573 -125.269 328.746C-127.299 268.363 -159.798 211.507 -215.169 187.312C-272.858 162.103 -321.206 151.794 -389.481 146.544" stroke="#2B44E7" stroke-width="3.43047" stroke-linecap="round" stroke-dasharray="0.03 13.72"/>
<path opacity="0.130435" d="M1126.77 982.793H638.922C540.096 982.793 451.032 923.181 413.37 831.827L341.135 656.614C306.765 573.246 229.197 515.636 139.441 506.817L22.2167 495.3C-64.257 486.804 -131.054 415.573 -133.982 328.746C-136.012 268.364 -168.511 211.507 -223.882 187.312C-281.571 162.103 -329.919 151.794 -398.194 146.544" stroke="#2B44E7" stroke-width="3.43047" stroke-linecap="round" stroke-dasharray="0.03 13.72"/>
<path opacity="0.173913" d="M1118.06 982.793H630.209C531.383 982.793 442.319 923.181 404.657 831.827L332.422 656.614C298.052 573.246 220.484 515.636 130.728 506.817L13.5033 495.3C-72.9704 486.804 -139.767 415.573 -142.695 328.746C-144.725 268.364 -177.225 211.507 -232.596 187.312C-290.284 162.103 -338.632 151.794 -406.907 146.544" stroke="#2B44E7" stroke-width="3.43047" stroke-linecap="round" stroke-dasharray="0.03 13.72"/>
<path opacity="0.217391" d="M1109.35 982.793H621.496C522.67 982.793 433.606 923.181 395.944 831.827L323.709 656.614C289.339 573.246 211.771 515.636 122.015 506.817L4.79039 495.3C-81.6833 486.804 -148.48 415.573 -151.408 328.746C-153.438 268.364 -185.937 211.507 -241.308 187.312C-298.997 162.103 -347.345 151.794 -415.62 146.544" stroke="#2B44E7" stroke-width="3.43047" stroke-linecap="round" stroke-dasharray="0.03 13.72"/>
<path opacity="0.26087" d="M1100.63 982.793H612.783C513.957 982.793 424.893 923.181 387.231 831.827L314.996 656.614C280.626 573.246 203.058 515.636 113.302 506.817L-3.9225 495.3C-90.3997 486.804 -157.193 415.573 -160.121 328.746C-162.151 268.364 -194.65 211.507 -250.021 187.312C-307.71 162.103 -356.058 151.794 -424.333 146.544" stroke="#2B44E7" stroke-width="3.43047" stroke-linecap="round" stroke-dasharray="0.03 13.72"/>
<path opacity="0.304348" d="M1091.92 982.793H604.07C505.244 982.793 416.18 923.181 378.518 831.827L306.283 656.614C271.913 573.246 194.345 515.636 104.589 506.817L-12.6354 495.3C-99.1126 486.804 -165.906 415.573 -168.834 328.746C-170.864 268.364 -203.363 211.507 -258.734 187.312C-316.423 162.103 -364.771 151.794 -433.046 146.544" stroke="#2B44E7" stroke-width="3.43047" stroke-linecap="round" stroke-dasharray="0.03 13.72"/>
<path opacity="0.347826" d="M1083.21 982.793H595.357C496.531 982.793 407.467 923.181 369.805 831.827L297.57 656.614C263.2 573.246 185.632 515.636 95.8762 506.817L-21.3483 495.3C-107.825 486.804 -174.619 415.573 -177.547 328.746C-179.577 268.364 -212.076 211.507 -267.447 187.312C-325.136 162.103 -373.484 151.794 -441.759 146.544" stroke="#2B44E7" stroke-width="3.43047" stroke-linecap="round" stroke-dasharray="0.03 13.72"/>
<path opacity="0.391304" d="M1074.5 982.793H586.644C487.818 982.793 398.754 923.181 361.092 831.827L288.857 656.614C254.487 573.246 176.919 515.636 87.1628 506.817L-30.0617 495.3C-116.539 486.804 -183.332 415.573 -186.26 328.746C-188.29 268.363 -220.79 211.507 -276.161 187.312C-333.849 162.103 -382.197 151.794 -450.472 146.544" stroke="#2B44E7" stroke-width="3.43047" stroke-linecap="round" stroke-dasharray="0.03 13.72"/>
<path opacity="0.434783" d="M1065.78 982.793H577.931C479.105 982.793 390.041 923.181 352.379 831.827L280.144 656.614C245.774 573.246 168.206 515.636 78.4499 506.817L-38.7745 495.3C-125.252 486.804 -192.045 415.573 -194.973 328.746C-197.003 268.363 -229.502 211.507 -284.873 187.312C-342.562 162.103 -390.91 151.794 -459.185 146.544" stroke="#2B44E7" stroke-width="3.43047" stroke-linecap="round" stroke-dasharray="0.03 13.72"/>
<path opacity="0.478261" d="M1057.07 982.793H569.218C470.392 982.793 381.328 923.181 343.666 831.827L271.431 656.614C237.061 573.246 159.493 515.636 69.737 506.817L-47.4874 495.3C-133.965 486.804 -200.758 415.573 -203.686 328.746C-205.716 268.363 -238.215 211.507 -293.586 187.312C-351.275 162.103 -399.623 151.794 -467.898 146.544" stroke="#2B44E7" stroke-width="3.43047" stroke-linecap="round" stroke-dasharray="0.03 13.72"/>
<path opacity="0.521739" d="M1048.36 982.793H560.505C461.679 982.793 372.615 923.181 334.953 831.827L262.718 656.614C228.348 573.246 150.78 515.636 61.0241 506.817L-56.2003 495.3C-142.677 486.804 -209.471 415.573 -212.399 328.746C-214.429 268.363 -246.928 211.507 -302.299 187.312C-359.988 162.103 -408.336 151.794 -476.611 146.544" stroke="#2B44E7" stroke-width="3.43047" stroke-linecap="round" stroke-dasharray="0.03 13.72"/>
<path opacity="0.565217" d="M1039.64 982.793H551.792C452.966 982.793 363.902 923.181 326.24 831.827L254.005 656.614C219.635 573.246 142.067 515.636 52.3112 506.817L-64.9132 495.3C-151.39 486.804 -218.184 415.573 -221.112 328.746C-223.142 268.364 -255.641 211.507 -311.012 187.312C-368.701 162.103 -417.049 151.794 -485.324 146.544" stroke="#2B44E7" stroke-width="3.43047" stroke-linecap="round" stroke-dasharray="0.03 13.72"/>
<path opacity="0.608696" d="M1030.93 982.793H543.079C444.253 982.793 355.189 923.181 317.527 831.827L245.292 656.614C210.922 573.246 133.354 515.636 43.5983 506.817L-73.6261 495.3C-160.103 486.804 -226.897 415.573 -229.824 328.746C-231.855 268.364 -264.354 211.507 -319.725 187.312C-377.414 162.103 -425.762 151.794 -494.037 146.544" stroke="#2B44E7" stroke-width="3.43047" stroke-linecap="round" stroke-dasharray="0.03 13.72"/>
<path opacity="0.652174" d="M1022.22 982.793H534.366C435.54 982.793 346.476 923.181 308.814 831.827L236.579 656.614C202.209 573.246 124.641 515.636 34.8849 506.817L-82.3395 495.3C-168.817 486.804 -235.61 415.573 -238.538 328.746C-240.568 268.364 -273.067 211.507 -328.438 187.312C-386.127 162.103 -434.475 151.794 -502.75 146.544" stroke="#2B44E7" stroke-width="3.43047" stroke-linecap="round" stroke-dasharray="0.03 13.72"/>
<path opacity="0.695652" d="M1013.5 982.793H525.653C426.827 982.793 337.763 923.181 300.101 831.827L227.866 656.614C193.496 573.246 115.928 515.636 26.172 506.817L-91.0532 495.3C-177.53 486.804 -244.323 415.573 -247.251 328.746C-249.281 268.364 -281.78 211.507 -337.151 187.312C-394.84 162.103 -443.188 151.794 -511.463 146.544" stroke="#2B44E7" stroke-width="3.43047" stroke-linecap="round" stroke-dasharray="0.03 13.72"/>
<path opacity="0.73913" d="M1004.79 982.793H516.94C418.114 982.793 329.05 923.181 291.388 831.827L219.153 656.614C184.783 573.246 107.215 515.636 17.4592 506.817L-99.7661 495.3C-186.242 486.804 -253.036 415.573 -255.964 328.746C-257.994 268.364 -290.493 211.507 -345.864 187.312C-403.553 162.103 -451.901 151.794 -520.176 146.544" stroke="#2B44E7" stroke-width="3.43047" stroke-linecap="round" stroke-dasharray="0.03 13.72"/>
<path opacity="0.782609" d="M996.079 982.793H508.227C409.401 982.793 320.337 923.181 282.675 831.827L210.44 656.614C176.07 573.246 98.5021 515.636 8.74627 506.817L-108.479 495.3C-194.955 486.804 -261.749 415.573 -264.676 328.746C-266.707 268.363 -299.206 211.507 -354.577 187.312C-412.266 162.103 -460.614 151.794 -528.889 146.544" stroke="#2B44E7" stroke-width="3.43047" stroke-linecap="round" stroke-dasharray="0.03 13.72"/>
<path opacity="0.826087" d="M987.366 982.793H499.514C400.688 982.793 311.624 923.181 273.962 831.827L201.728 656.614C167.357 573.246 89.7892 515.636 0.0333778 506.817L-117.192 495.3C-203.668 486.804 -270.462 415.573 -273.389 328.746C-275.419 268.363 -307.919 211.507 -363.29 187.312C-420.979 162.103 -469.327 151.794 -537.602 146.544" stroke="#2B44E7" stroke-width="3.43047" stroke-linecap="round" stroke-dasharray="0.03 13.72"/>
<path opacity="0.869565" d="M978.653 982.793H490.802C391.975 982.793 302.911 923.181 265.25 831.827L193.015 656.614C158.645 573.246 81.0764 515.636 -8.67951 506.817L-125.905 495.3C-212.381 486.804 -279.175 415.573 -282.102 328.746C-284.132 268.363 -316.632 211.507 -372.003 187.312C-429.691 162.103 -478.04 151.794 -546.315 146.544" stroke="#2B44E7" stroke-width="3.43047" stroke-linecap="round" stroke-dasharray="0.03 13.72"/>
<path opacity="0.913043" d="M969.94 982.793H482.088C383.262 982.793 294.198 923.181 256.536 831.827L184.301 656.614C149.931 573.246 72.363 515.636 -17.3929 506.817L-134.618 495.3C-221.094 486.804 -287.888 415.573 -290.816 328.746C-292.846 268.363 -325.345 211.507 -380.716 187.312C-438.405 162.103 -486.753 151.794 -555.028 146.544" stroke="#2B44E7" stroke-width="3.43047" stroke-linecap="round" stroke-dasharray="0.03 13.72"/>
<path opacity="0.956522" d="M961.227 982.793H473.375C374.549 982.793 285.485 923.181 247.823 831.827L175.588 656.614C141.218 573.246 63.6501 515.636 -26.1058 506.817L-143.331 495.3C-229.807 486.804 -296.601 415.573 -299.529 328.746C-301.559 268.364 -334.058 211.507 -389.429 187.312C-447.118 162.103 -495.466 151.794 -563.741 146.544" stroke="#2B44E7" stroke-width="3.43047" stroke-linecap="round" stroke-dasharray="0.03 13.72"/>
<path d="M952.514 982.793H464.662C365.836 982.793 276.773 923.181 239.11 831.827L166.875 656.614C132.505 573.246 54.9372 515.636 -34.8187 506.817L-152.044 495.3C-238.52 486.804 -305.314 415.573 -308.241 328.746C-310.272 268.364 -342.771 211.507 -398.142 187.312C-455.831 162.103 -504.179 151.794 -572.454 146.544" stroke="#2B44E7" stroke-width="3.43047" stroke-linecap="round" stroke-dasharray="0.03 13.72"/>
<path d="M1232.14 982.908H465.225C366.525 982.908 277.549 923.446 239.804 832.261L166.977 656.318C132.536 573.112 55.0471 515.646 -34.585 506.84L-152.044 495.3C-238.52 486.803 -305.322 415.573 -308.241 328.746C-310.271 268.363 -342.771 211.506 -398.142 187.312C-455.839 162.103 -504.179 151.794 -572.454 146.544" stroke="url(#paint25_linear_100_1505)" stroke-width="4.11656" stroke-linecap="round"/>
</g>
</g>
<g clip-path="url(#clip3_100_1505)">
<mask id="mask3_100_1505" style="mask-type:luminance" maskUnits="userSpaceOnUse" x="-1018" y="-167" width="2098" height="1105">
<path d="M1080 -167H-1018V938H1080V-167Z" fill="white"/>
</mask>
<g mask="url(#mask3_100_1505)">
<path opacity="0.043478" d="M1547.06 932.543H914.478C786.334 932.543 670.848 855.23 622.014 736.748L528.349 509.507C483.783 401.382 383.203 326.666 266.82 315.228L114.82 300.29C2.69242 289.272 -83.9208 196.889 -87.7169 84.2787C-90.3493 5.9649 -132.49 -67.7743 -204.288 -99.1533C-279.09 -131.849 -341.782 -145.219 -430.311 -152.028" stroke="url(#paint26_linear_100_1505)" stroke-width="3.43047" stroke-linecap="round" stroke-dasharray="0.03 13.72"/>
<path opacity="0.086957" d="M1535.76 932.543H903.181C775.037 932.543 659.551 855.23 610.716 736.748L517.052 509.507C472.485 401.382 371.905 326.666 255.522 315.228L103.522 300.29C-8.60543 289.272 -95.2187 196.889 -99.0147 84.2787C-101.647 5.9649 -143.788 -67.7743 -215.585 -99.1533C-290.388 -131.849 -353.079 -145.219 -441.609 -152.028" stroke="url(#paint27_linear_100_1505)" stroke-width="3.43047" stroke-linecap="round" stroke-dasharray="0.03 13.72"/>
<path opacity="0.130435" d="M1524.46 932.543H891.883C763.739 932.543 648.253 855.23 599.418 736.748L505.754 509.507C461.187 401.382 360.607 326.666 244.224 315.228L92.2239 300.29C-19.9033 289.272 -106.517 196.889 -110.313 84.2787C-112.945 5.96604 -155.086 -67.7743 -226.883 -99.1533C-301.686 -131.849 -364.377 -145.219 -452.907 -152.028" stroke="url(#paint28_linear_100_1505)" stroke-width="3.43047" stroke-linecap="round" stroke-dasharray="0.03 13.72"/>
<path opacity="0.173913" d="M1513.16 932.543H880.585C752.441 932.543 636.955 855.23 588.12 736.748L494.456 509.507C449.889 401.382 349.31 326.666 232.927 315.228L80.9261 300.29C-31.2011 289.272 -117.814 196.889 -121.61 84.2787C-124.243 5.96604 -166.384 -67.7743 -238.181 -99.1533C-312.984 -131.849 -375.675 -145.219 -464.205 -152.028" stroke="url(#paint29_linear_100_1505)" stroke-width="3.43047" stroke-linecap="round" stroke-dasharray="0.03 13.72"/>
<path opacity="0.217391" d="M1501.87 932.543H869.287C741.143 932.543 625.657 855.23 576.822 736.748L483.158 509.507C438.592 401.382 338.012 326.666 221.629 315.228L69.6282 300.29C-42.499 289.272 -129.112 196.889 -132.908 84.2787C-135.541 5.96604 -177.681 -67.7743 -249.479 -99.1533C-324.282 -131.849 -386.973 -145.219 -475.502 -152.028" stroke="url(#paint30_linear_100_1505)" stroke-width="3.43047" stroke-linecap="round" stroke-dasharray="0.03 13.72"/>
<path opacity="0.26087" d="M1490.57 932.543H857.99C729.846 932.543 614.36 855.23 565.525 736.748L471.861 509.507C427.294 401.382 326.714 326.666 210.331 315.228L58.3308 300.29C-53.8009 289.272 -140.41 196.889 -144.206 84.2787C-146.838 5.96604 -188.979 -67.7743 -260.776 -99.1533C-335.579 -131.849 -398.27 -145.219 -486.8 -152.028" stroke="url(#paint31_linear_100_1505)" stroke-width="3.43047" stroke-linecap="round" stroke-dasharray="0.03 13.72"/>
<path opacity="0.304348" d="M1479.27 932.543H846.692C718.548 932.543 603.062 855.23 554.227 736.748L460.563 509.507C415.996 401.382 315.417 326.666 199.034 315.228L47.033 300.29C-65.0987 289.272 -151.707 196.889 -155.504 84.2787C-158.136 5.96604 -200.277 -67.7743 -272.074 -99.1533C-346.877 -131.849 -409.568 -145.219 -498.098 -152.028" stroke="url(#paint32_linear_100_1505)" stroke-width="3.43047" stroke-linecap="round" stroke-dasharray="0.03 13.72"/>
<path opacity="0.347826" d="M1467.97 932.543H835.394C707.25 932.543 591.764 855.23 542.929 736.748L449.265 509.507C404.699 401.382 304.119 326.666 187.736 315.228L35.7351 300.29C-76.3966 289.272 -163.005 196.889 -166.801 84.2786C-169.434 5.96593 -211.575 -67.7743 -283.372 -99.1535C-358.175 -131.849 -420.866 -145.219 -509.396 -152.028" stroke="url(#paint33_linear_100_1505)" stroke-width="3.43047" stroke-linecap="round" stroke-dasharray="0.03 13.72"/>
<path opacity="0.391304" d="M1456.68 932.543H824.096C695.952 932.543 580.466 855.23 531.631 736.748L437.967 509.507C393.401 401.382 292.821 326.666 176.438 315.228L24.4373 300.29C-87.6944 289.272 -174.303 196.889 -178.099 84.2787C-180.732 5.9649 -222.872 -67.7743 -294.67 -99.1533C-369.473 -131.849 -432.164 -145.219 -520.693 -152.028" stroke="url(#paint34_linear_100_1505)" stroke-width="3.43047" stroke-linecap="round" stroke-dasharray="0.03 13.72"/>
<path opacity="0.434783" d="M1445.38 932.543H812.798C684.654 932.543 569.168 855.23 520.333 736.748L426.669 509.507C382.103 401.382 281.523 326.666 165.14 315.228L13.1394 300.29C-98.9923 289.272 -185.601 196.889 -189.397 84.2787C-192.029 5.9649 -234.17 -67.7743 -305.968 -99.1533C-380.77 -131.849 -443.462 -145.219 -531.991 -152.028" stroke="url(#paint35_linear_100_1505)" stroke-width="3.43047" stroke-linecap="round" stroke-dasharray="0.03 13.72"/>
<path opacity="0.478261" d="M1434.08 932.543H801.5C673.356 932.543 557.87 855.23 509.036 736.748L415.371 509.507C370.805 401.382 270.225 326.666 153.842 315.228L1.84158 300.29C-110.29 289.272 -196.899 196.889 -200.695 84.2787C-203.327 5.9649 -245.468 -67.7743 -317.266 -99.1533C-392.068 -131.849 -454.76 -145.219 -543.289 -152.028" stroke="url(#paint36_linear_100_1505)" stroke-width="3.43047" stroke-linecap="round" stroke-dasharray="0.03 13.72"/>
<path opacity="0.521739" d="M1422.78 932.543H790.203C662.059 932.543 546.572 855.23 497.738 736.748L404.073 509.507C359.507 401.382 258.927 326.666 142.544 315.228L-9.45627 300.29C-121.588 289.272 -208.197 196.889 -211.993 84.2787C-214.625 5.9649 -256.766 -67.7743 -328.563 -99.1533C-403.366 -131.849 -466.057 -145.219 -554.587 -152.028" stroke="url(#paint37_linear_100_1505)" stroke-width="3.43047" stroke-linecap="round" stroke-dasharray="0.03 13.72"/>
<path opacity="0.565217" d="M1411.48 932.543H778.905C650.761 932.543 535.275 855.23 486.44 736.748L392.776 509.507C348.209 401.382 247.629 326.666 131.246 315.228L-20.7541 300.29C-132.886 289.272 -219.495 196.889 -223.291 84.2787C-225.923 5.96604 -268.064 -67.7743 -339.861 -99.1533C-414.664 -131.849 -477.355 -145.219 -565.885 -152.028" stroke="url(#paint38_linear_100_1505)" stroke-width="3.43047" stroke-linecap="round" stroke-dasharray="0.03 13.72"/>
<path opacity="0.608696" d="M1400.19 932.543H767.607C639.463 932.543 523.977 855.23 475.142 736.748L381.478 509.507C336.911 401.382 236.332 326.666 119.949 315.228L-32.052 300.29C-144.184 289.272 -230.792 196.889 -234.588 84.2787C-237.221 5.96604 -279.362 -67.7743 -351.159 -99.1533C-425.962 -131.849 -488.653 -145.219 -577.183 -152.028" stroke="url(#paint39_linear_100_1505)" stroke-width="3.43047" stroke-linecap="round" stroke-dasharray="0.03 13.72"/>
<path opacity="0.652174" d="M1388.89 932.543H756.31C628.165 932.543 512.679 855.23 463.845 736.748L370.18 509.507C325.614 401.382 225.034 326.666 108.651 315.228L-43.3493 300.29C-155.481 289.272 -242.09 196.889 -245.886 84.2787C-248.518 5.96604 -290.659 -67.7743 -362.456 -99.1533C-437.259 -131.849 -499.951 -145.219 -588.48 -152.028" stroke="url(#paint40_linear_100_1505)" stroke-width="3.43047" stroke-linecap="round" stroke-dasharray="0.03 13.72"/>
<path opacity="0.695652" d="M1377.59 932.543H745.012C616.868 932.543 501.382 855.23 452.547 736.748L358.883 509.507C314.316 401.382 213.736 326.666 97.3533 315.228L-54.6483 300.29C-166.779 289.272 -253.388 196.889 -257.184 84.2787C-259.816 5.96604 -301.957 -67.7743 -373.754 -99.1533C-448.557 -131.849 -511.248 -145.219 -599.778 -152.028" stroke="url(#paint41_linear_100_1505)" stroke-width="3.43047" stroke-linecap="round" stroke-dasharray="0.03 13.72"/>
<path opacity="0.73913" d="M1366.29 932.543H733.714C605.57 932.543 490.084 855.23 441.249 736.748L347.585 509.507C303.018 401.382 202.439 326.666 86.0555 315.228L-65.9461 300.29C-178.077 289.272 -264.685 196.889 -268.482 84.2786C-271.114 5.96593 -313.255 -67.7743 -385.052 -99.1535C-459.855 -131.849 -522.546 -145.219 -611.076 -152.028" stroke="url(#paint42_linear_100_1505)" stroke-width="3.43047" stroke-linecap="round" stroke-dasharray="0.03 13.72"/>
<path opacity="0.782609" d="M1355 932.543H722.416C594.272 932.543 478.786 855.23 429.951 736.748L336.287 509.507C291.72 401.382 191.141 326.666 74.7576 315.228L-77.244 300.29C-189.375 289.272 -275.983 196.889 -279.779 84.2787C-282.412 5.9649 -324.553 -67.7743 -396.35 -99.1533C-471.153 -131.849 -533.844 -145.219 -622.374 -152.028" stroke="url(#paint43_linear_100_1505)" stroke-width="3.43047" stroke-linecap="round" stroke-dasharray="0.03 13.72"/>
<path opacity="0.826087" d="M1343.7 932.543H711.118C582.974 932.543 467.488 855.23 418.653 736.748L324.989 509.507C280.423 401.382 179.843 326.666 63.4598 315.228L-88.5418 300.29C-200.672 289.272 -287.281 196.889 -291.077 84.2787C-293.71 5.9649 -335.85 -67.7743 -407.648 -99.1533C-482.451 -131.849 -545.142 -145.219 -633.671 -152.028" stroke="url(#paint44_linear_100_1505)" stroke-width="3.43047" stroke-linecap="round" stroke-dasharray="0.03 13.72"/>
<path opacity="0.869565" d="M1332.4 932.543H699.82C571.676 932.543 456.19 855.23 407.355 736.748L313.691 509.507C269.125 401.382 168.545 326.666 52.1619 315.228L-99.8397 300.29C-211.97 289.272 -298.579 196.889 -302.375 84.2787C-305.007 5.9649 -347.148 -67.7743 -418.946 -99.1533C-493.748 -131.849 -556.44 -145.219 -644.969 -152.028" stroke="url(#paint45_linear_100_1505)" stroke-width="3.43047" stroke-linecap="round" stroke-dasharray="0.03 13.72"/>
<path opacity="0.913043" d="M1321.1 932.543H688.522C560.378 932.543 444.892 855.23 396.058 736.748L302.393 509.507C257.827 401.382 157.247 326.666 40.8641 315.228L-111.138 300.29C-223.268 289.272 -309.877 196.889 -313.673 84.2787C-316.305 5.9649 -358.446 -67.7743 -430.244 -99.1533C-505.046 -131.849 -567.738 -145.219 -656.267 -152.028" stroke="url(#paint46_linear_100_1505)" stroke-width="3.43047" stroke-linecap="round" stroke-dasharray="0.03 13.72"/>
<path opacity="0.956522" d="M1309.8 932.543H677.225C549.081 932.543 433.594 855.23 384.76 736.748L291.095 509.507C246.529 401.382 145.949 326.666 29.5662 315.228L-122.435 300.29C-234.566 289.272 -321.175 196.889 -324.971 84.2787C-327.603 5.96604 -369.744 -67.7743 -441.541 -99.1533C-516.344 -131.849 -579.035 -145.219 -667.565 -152.028" stroke="url(#paint47_linear_100_1505)" stroke-width="3.43047" stroke-linecap="round" stroke-dasharray="0.03 13.72"/>
<path d="M1298.51 932.543H665.927C537.783 932.543 422.298 855.23 373.462 736.748L279.798 509.507C235.232 401.382 134.652 326.666 18.2689 315.228L-133.733 300.29C-245.863 289.272 -332.472 196.889 -336.268 84.2786C-338.901 5.96593 -381.041 -67.7743 -452.839 -99.1533C-527.641 -131.849 -590.333 -145.219 -678.862 -152.028" stroke="url(#paint48_linear_100_1505)" stroke-width="3.43047" stroke-linecap="round" stroke-dasharray="0.03 13.72"/>
<path d="M1661.09 932.693H666.657C538.675 932.693 423.304 855.574 374.362 737.312L279.929 509.123C235.271 401.209 134.794 326.679 18.5715 315.257L-133.733 300.29C-245.864 289.271 -332.484 196.889 -336.268 84.2783C-338.901 5.96457 -381.042 -67.775 -452.839 -99.154C-527.653 -131.849 -590.333 -145.219 -678.863 -152.028" stroke="url(#paint49_linear_100_1505)" stroke-width="4.11656" stroke-linecap="round"/>
</g>
</g>
<defs>
<linearGradient id="paint0_linear_100_1505" x1="473.627" y1="36.9724" x2="473.627" y2="1121.54" gradientUnits="userSpaceOnUse">
<stop stop-color="#2B44E7"/>
<stop offset="0.447917" stop-color="#2B44E7" stop-opacity="0"/>
</linearGradient>
<linearGradient id="paint1_linear_100_1505" x1="484.925" y1="36.9724" x2="484.925" y2="1121.54" gradientUnits="userSpaceOnUse">
<stop stop-color="#2B44E7"/>
<stop offset="0.447917" stop-color="#2B44E7" stop-opacity="0"/>
</linearGradient>
<linearGradient id="paint2_linear_100_1505" x1="496.222" y1="36.9724" x2="496.222" y2="1121.54" gradientUnits="userSpaceOnUse">
<stop stop-color="#2B44E7"/>
<stop offset="0.447917" stop-color="#2B44E7" stop-opacity="0"/>
</linearGradient>
<linearGradient id="paint3_linear_100_1505" x1="507.52" y1="36.9724" x2="507.52" y2="1121.54" gradientUnits="userSpaceOnUse">
<stop stop-color="#2B44E7"/>
<stop offset="0.447917" stop-color="#2B44E7" stop-opacity="0"/>
</linearGradient>
<linearGradient id="paint4_linear_100_1505" x1="518.818" y1="36.9724" x2="518.818" y2="1121.54" gradientUnits="userSpaceOnUse">
<stop stop-color="#2B44E7"/>
<stop offset="0.447917" stop-color="#2B44E7" stop-opacity="0"/>
</linearGradient>
<linearGradient id="paint5_linear_100_1505" x1="530.116" y1="36.9724" x2="530.116" y2="1121.54" gradientUnits="userSpaceOnUse">
<stop stop-color="#2B44E7"/>
<stop offset="0.447917" stop-color="#2B44E7" stop-opacity="0"/>
</linearGradient>
<linearGradient id="paint6_linear_100_1505" x1="541.413" y1="36.9724" x2="541.413" y2="1121.54" gradientUnits="userSpaceOnUse">
<stop stop-color="#2B44E7"/>
<stop offset="0.447917" stop-color="#2B44E7" stop-opacity="0"/>
</linearGradient>
<linearGradient id="paint7_linear_100_1505" x1="552.711" y1="36.9724" x2="552.711" y2="1121.54" gradientUnits="userSpaceOnUse">
<stop stop-color="#2B44E7"/>
<stop offset="0.447917" stop-color="#2B44E7" stop-opacity="0"/>
</linearGradient>
<linearGradient id="paint8_linear_100_1505" x1="564.009" y1="36.9724" x2="564.009" y2="1121.54" gradientUnits="userSpaceOnUse">
<stop stop-color="#2B44E7"/>
<stop offset="0.447917" stop-color="#2B44E7" stop-opacity="0"/>
</linearGradient>
<linearGradient id="paint9_linear_100_1505" x1="575.307" y1="36.9724" x2="575.307" y2="1121.54" gradientUnits="userSpaceOnUse">
<stop stop-color="#2B44E7"/>
<stop offset="0.447917" stop-color="#2B44E7" stop-opacity="0"/>
</linearGradient>
<linearGradient id="paint10_linear_100_1505" x1="586.605" y1="36.9724" x2="586.605" y2="1121.54" gradientUnits="userSpaceOnUse">
<stop stop-color="#2B44E7"/>
<stop offset="0.447917" stop-color="#2B44E7" stop-opacity="0"/>
</linearGradient>
<linearGradient id="paint11_linear_100_1505" x1="597.903" y1="36.9724" x2="597.903" y2="1121.54" gradientUnits="userSpaceOnUse">
<stop stop-color="#2B44E7"/>
<stop offset="0.447917" stop-color="#2B44E7" stop-opacity="0"/>
</linearGradient>
<linearGradient id="paint12_linear_100_1505" x1="609.201" y1="36.9724" x2="609.201" y2="1121.54" gradientUnits="userSpaceOnUse">
<stop stop-color="#2B44E7"/>
<stop offset="0.447917" stop-color="#2B44E7" stop-opacity="0"/>
</linearGradient>
<linearGradient id="paint13_linear_100_1505" x1="620.498" y1="36.9724" x2="620.498" y2="1121.54" gradientUnits="userSpaceOnUse">
<stop stop-color="#2B44E7"/>
<stop offset="0.447917" stop-color="#2B44E7" stop-opacity="0"/>
</linearGradient>
<linearGradient id="paint14_linear_100_1505" x1="631.796" y1="36.9724" x2="631.796" y2="1121.54" gradientUnits="userSpaceOnUse">
<stop stop-color="#2B44E7"/>
<stop offset="0.447917" stop-color="#2B44E7" stop-opacity="0"/>
</linearGradient>
<linearGradient id="paint15_linear_100_1505" x1="643.094" y1="36.9724" x2="643.094" y2="1121.54" gradientUnits="userSpaceOnUse">
<stop stop-color="#2B44E7"/>
<stop offset="0.447917" stop-color="#2B44E7" stop-opacity="0"/>
</linearGradient>
<linearGradient id="paint16_linear_100_1505" x1="654.391" y1="36.9724" x2="654.391" y2="1121.54" gradientUnits="userSpaceOnUse">
<stop stop-color="#2B44E7"/>
<stop offset="0.447917" stop-color="#2B44E7" stop-opacity="0"/>
</linearGradient>
<linearGradient id="paint17_linear_100_1505" x1="665.689" y1="36.9724" x2="665.689" y2="1121.54" gradientUnits="userSpaceOnUse">
<stop stop-color="#2B44E7"/>
<stop offset="0.447917" stop-color="#2B44E7" stop-opacity="0"/>
</linearGradient>
<linearGradient id="paint18_linear_100_1505" x1="676.987" y1="36.9724" x2="676.987" y2="1121.54" gradientUnits="userSpaceOnUse">
<stop stop-color="#2B44E7"/>
<stop offset="0.447917" stop-color="#2B44E7" stop-opacity="0"/>
</linearGradient>
<linearGradient id="paint19_linear_100_1505" x1="688.285" y1="36.9724" x2="688.285" y2="1121.54" gradientUnits="userSpaceOnUse">
<stop stop-color="#2B44E7"/>
<stop offset="0.447917" stop-color="#2B44E7" stop-opacity="0"/>
</linearGradient>
<linearGradient id="paint20_linear_100_1505" x1="699.583" y1="36.9724" x2="699.583" y2="1121.54" gradientUnits="userSpaceOnUse">
<stop stop-color="#2B44E7"/>
<stop offset="0.447917" stop-color="#2B44E7" stop-opacity="0"/>
</linearGradient>
<linearGradient id="paint21_linear_100_1505" x1="710.881" y1="36.9724" x2="710.881" y2="1121.54" gradientUnits="userSpaceOnUse">
<stop stop-color="#2B44E7"/>
<stop offset="0.447917" stop-color="#2B44E7" stop-opacity="0"/>
</linearGradient>
<linearGradient id="paint22_linear_100_1505" x1="722.178" y1="36.9724" x2="722.178" y2="1121.54" gradientUnits="userSpaceOnUse">
<stop stop-color="#2B44E7"/>
<stop offset="0.447917" stop-color="#2B44E7" stop-opacity="0"/>
</linearGradient>
<linearGradient id="paint23_linear_100_1505" x1="-209.013" y1="1117.29" x2="537.86" y2="1114.07" gradientUnits="userSpaceOnUse">
<stop offset="0.2185" stop-color="#07071C"/>
<stop offset="0.508251" stop-color="#2B44E7" stop-opacity="0.29"/>
<stop offset="0.755624" stop-color="#2B44E7" stop-opacity="0"/>
</linearGradient>
<linearGradient id="paint24_linear_100_1505" x1="433.22" y1="932.105" x2="886.782" y2="930.146" gradientUnits="userSpaceOnUse">
<stop offset="0.2185" stop-color="#07071C"/>
<stop offset="0.508251" stop-color="#AB21EC"/>
<stop offset="0.755624" stop-color="#AB21EC" stop-opacity="0"/>
</linearGradient>
<linearGradient id="paint25_linear_100_1505" x1="908.175" y1="979.514" x2="332.178" y2="977.026" gradientUnits="userSpaceOnUse">
<stop offset="0.2185" stop-color="#07071C"/>
<stop offset="0.508251" stop-color="#2B44E7" stop-opacity="0.29"/>
<stop offset="0.755624" stop-color="#2B44E7" stop-opacity="0"/>
</linearGradient>
<linearGradient id="paint26_linear_100_1505" x1="558.373" y1="-152.028" x2="558.373" y2="932.543" gradientUnits="userSpaceOnUse">
<stop stop-color="#2B44E7"/>
<stop offset="1" stop-color="#2B44E7" stop-opacity="0"/>
</linearGradient>
<linearGradient id="paint27_linear_100_1505" x1="547.075" y1="-152.028" x2="547.075" y2="932.543" gradientUnits="userSpaceOnUse">
<stop stop-color="#2B44E7"/>
<stop offset="1" stop-color="#2B44E7" stop-opacity="0"/>
</linearGradient>
<linearGradient id="paint28_linear_100_1505" x1="535.778" y1="-152.028" x2="535.778" y2="932.543" gradientUnits="userSpaceOnUse">
<stop stop-color="#2B44E7"/>
<stop offset="1" stop-color="#2B44E7" stop-opacity="0"/>
</linearGradient>
<linearGradient id="paint29_linear_100_1505" x1="524.48" y1="-152.028" x2="524.48" y2="932.543" gradientUnits="userSpaceOnUse">
<stop stop-color="#2B44E7"/>
<stop offset="1" stop-color="#2B44E7" stop-opacity="0"/>
</linearGradient>
<linearGradient id="paint30_linear_100_1505" x1="513.182" y1="-152.028" x2="513.182" y2="932.543" gradientUnits="userSpaceOnUse">
<stop stop-color="#2B44E7"/>
<stop offset="1" stop-color="#2B44E7" stop-opacity="0"/>
</linearGradient>
<linearGradient id="paint31_linear_100_1505" x1="501.884" y1="-152.028" x2="501.884" y2="932.543" gradientUnits="userSpaceOnUse">
<stop stop-color="#2B44E7"/>
<stop offset="1" stop-color="#2B44E7" stop-opacity="0"/>
</linearGradient>
<linearGradient id="paint32_linear_100_1505" x1="490.587" y1="-152.028" x2="490.587" y2="932.543" gradientUnits="userSpaceOnUse">
<stop stop-color="#2B44E7"/>
<stop offset="1" stop-color="#2B44E7" stop-opacity="0"/>
</linearGradient>
<linearGradient id="paint33_linear_100_1505" x1="479.289" y1="-152.028" x2="479.289" y2="932.543" gradientUnits="userSpaceOnUse">
<stop stop-color="#2B44E7"/>
<stop offset="1" stop-color="#2B44E7" stop-opacity="0"/>
</linearGradient>
<linearGradient id="paint34_linear_100_1505" x1="467.991" y1="-152.028" x2="467.991" y2="932.543" gradientUnits="userSpaceOnUse">
<stop stop-color="#2B44E7"/>
<stop offset="1" stop-color="#2B44E7" stop-opacity="0"/>
</linearGradient>
<linearGradient id="paint35_linear_100_1505" x1="456.693" y1="-152.028" x2="456.693" y2="932.543" gradientUnits="userSpaceOnUse">
<stop stop-color="#2B44E7"/>
<stop offset="1" stop-color="#2B44E7" stop-opacity="0"/>
</linearGradient>
<linearGradient id="paint36_linear_100_1505" x1="445.395" y1="-152.028" x2="445.395" y2="932.543" gradientUnits="userSpaceOnUse">
<stop stop-color="#2B44E7"/>
<stop offset="1" stop-color="#2B44E7" stop-opacity="0"/>
</linearGradient>
<linearGradient id="paint37_linear_100_1505" x1="434.097" y1="-152.028" x2="434.097" y2="932.543" gradientUnits="userSpaceOnUse">
<stop stop-color="#2B44E7"/>
<stop offset="1" stop-color="#2B44E7" stop-opacity="0"/>
</linearGradient>
<linearGradient id="paint38_linear_100_1505" x1="422.799" y1="-152.028" x2="422.799" y2="932.543" gradientUnits="userSpaceOnUse">
<stop stop-color="#2B44E7"/>
<stop offset="1" stop-color="#2B44E7" stop-opacity="0"/>
</linearGradient>
<linearGradient id="paint39_linear_100_1505" x1="411.502" y1="-152.028" x2="411.502" y2="932.543" gradientUnits="userSpaceOnUse">
<stop stop-color="#2B44E7"/>
<stop offset="1" stop-color="#2B44E7" stop-opacity="0"/>
</linearGradient>
<linearGradient id="paint40_linear_100_1505" x1="400.204" y1="-152.028" x2="400.204" y2="932.543" gradientUnits="userSpaceOnUse">
<stop stop-color="#2B44E7"/>
<stop offset="1" stop-color="#2B44E7" stop-opacity="0"/>
</linearGradient>
<linearGradient id="paint41_linear_100_1505" x1="388.906" y1="-152.028" x2="388.906" y2="932.543" gradientUnits="userSpaceOnUse">
<stop stop-color="#2B44E7"/>
<stop offset="1" stop-color="#2B44E7" stop-opacity="0"/>
</linearGradient>
<linearGradient id="paint42_linear_100_1505" x1="377.609" y1="-152.028" x2="377.609" y2="932.543" gradientUnits="userSpaceOnUse">
<stop stop-color="#2B44E7"/>
<stop offset="1" stop-color="#2B44E7" stop-opacity="0"/>
</linearGradient>
<linearGradient id="paint43_linear_100_1505" x1="366.311" y1="-152.028" x2="366.311" y2="932.543" gradientUnits="userSpaceOnUse">
<stop stop-color="#2B44E7"/>
<stop offset="1" stop-color="#2B44E7" stop-opacity="0"/>
</linearGradient>
<linearGradient id="paint44_linear_100_1505" x1="355.013" y1="-152.028" x2="355.013" y2="932.543" gradientUnits="userSpaceOnUse">
<stop stop-color="#2B44E7"/>
<stop offset="1" stop-color="#2B44E7" stop-opacity="0"/>
</linearGradient>
<linearGradient id="paint45_linear_100_1505" x1="343.715" y1="-152.028" x2="343.715" y2="932.543" gradientUnits="userSpaceOnUse">
<stop stop-color="#2B44E7"/>
<stop offset="1" stop-color="#2B44E7" stop-opacity="0"/>
</linearGradient>
<linearGradient id="paint46_linear_100_1505" x1="332.417" y1="-152.028" x2="332.417" y2="932.543" gradientUnits="userSpaceOnUse">
<stop stop-color="#2B44E7"/>
<stop offset="1" stop-color="#2B44E7" stop-opacity="0"/>
</linearGradient>
<linearGradient id="paint47_linear_100_1505" x1="321.119" y1="-152.028" x2="321.119" y2="932.543" gradientUnits="userSpaceOnUse">
<stop stop-color="#2B44E7"/>
<stop offset="1" stop-color="#2B44E7" stop-opacity="0"/>
</linearGradient>
<linearGradient id="paint48_linear_100_1505" x1="309.822" y1="-152.028" x2="309.822" y2="932.543" gradientUnits="userSpaceOnUse">
<stop stop-color="#2B44E7"/>
<stop offset="1" stop-color="#2B44E7" stop-opacity="0"/>
</linearGradient>
<linearGradient id="paint49_linear_100_1505" x1="1241.01" y1="928.292" x2="494.14" y2="925.066" gradientUnits="userSpaceOnUse">
<stop offset="0.2185" stop-color="#07071C"/>
<stop offset="0.508251" stop-color="#2B44E7" stop-opacity="0.29"/>
<stop offset="0.755624" stop-color="#2B44E7" stop-opacity="0"/>
</linearGradient>
<clipPath id="clip0_100_1505">
<rect width="2098" height="1105" fill="white" transform="translate(-48 22)"/>
</clipPath>
<clipPath id="clip1_100_1505">
<rect width="1274.08" height="671" fill="white" transform="translate(531 267)"/>
</clipPath>
<clipPath id="clip2_100_1505">
<rect width="1618" height="852" fill="white" transform="matrix(-1 0 0 1 784 135)"/>
</clipPath>
<clipPath id="clip3_100_1505">
<rect width="2098" height="1105" fill="white" transform="matrix(-1 0 0 1 1080 -167)"/>
</clipPath>
</defs>
</svg>
