<svg width="390" height="1126" viewBox="0 0 390 1126" fill="none" xmlns="http://www.w3.org/2000/svg">
<path opacity="0.043478" d="M-1034.63 1123.36H-559.74C-463.541 1123.36 -376.844 1043.46 -340.183 921.009L-269.867 686.159C-236.411 574.414 -160.904 497.195 -73.5334 485.375L40.5756 469.937C124.751 458.55 189.773 363.074 192.623 246.692C194.599 165.756 226.235 89.5481 280.134 57.1183C336.29 23.3282 383.353 9.50989 449.813 2.47363" stroke="url(#paint0_linear_592_1894)" stroke-width="3.43047" stroke-linecap="round" stroke-dasharray="0.03 13.72"/>
<path opacity="0.086957" d="M-1026.15 1123.36H-551.259C-455.059 1123.36 -368.362 1043.46 -331.701 921.009L-261.386 686.159C-227.929 574.414 -152.423 497.195 -65.052 485.375L49.0571 469.937C133.233 458.55 198.255 363.074 201.104 246.692C203.08 165.756 234.716 89.5481 288.616 57.1183C344.771 23.3282 391.834 9.50989 458.295 2.47363" stroke="url(#paint1_linear_592_1894)" stroke-width="3.43047" stroke-linecap="round" stroke-dasharray="0.03 13.72"/>
<path opacity="0.130435" d="M-1017.66 1123.36H-542.777C-446.578 1123.36 -359.881 1043.46 -323.22 921.009L-252.904 686.159C-219.448 574.414 -143.941 497.195 -56.5705 485.375L57.5385 469.937C141.714 458.55 206.736 363.074 209.586 246.692C211.562 165.758 243.198 89.5481 297.097 57.1183C353.253 23.3283 400.316 9.50989 466.776 2.47363" stroke="url(#paint2_linear_592_1894)" stroke-width="3.43047" stroke-linecap="round" stroke-dasharray="0.03 13.72"/>
<path opacity="0.173913" d="M-1009.18 1123.36H-534.296C-438.096 1123.36 -351.399 1043.46 -314.738 921.009L-244.423 686.159C-210.966 574.414 -135.46 497.195 -48.0891 485.375L66.02 469.937C150.196 458.55 215.217 363.074 218.067 246.692C220.043 165.758 251.679 89.5481 305.579 57.1183C361.734 23.3283 408.797 9.50989 475.258 2.47363" stroke="url(#paint3_linear_592_1894)" stroke-width="3.43047" stroke-linecap="round" stroke-dasharray="0.03 13.72"/>
<path opacity="0.217391" d="M-1000.7 1123.36H-525.815C-429.615 1123.36 -342.918 1043.46 -306.257 921.009L-235.942 686.159C-202.485 574.414 -126.978 497.195 -39.6077 485.375L74.5014 469.937C158.677 458.55 223.699 363.074 226.549 246.692C228.525 165.758 260.161 89.5481 314.06 57.1183C370.215 23.3283 417.279 9.50989 483.739 2.47363" stroke="url(#paint4_linear_592_1894)" stroke-width="3.43047" stroke-linecap="round" stroke-dasharray="0.03 13.72"/>
<path opacity="0.26087" d="M-992.22 1123.36H-517.333C-421.133 1123.36 -334.436 1043.46 -297.775 921.009L-227.46 686.159C-194.003 574.414 -118.497 497.195 -31.1262 485.375L82.9829 469.937C167.162 458.55 232.18 363.074 235.03 246.692C237.006 165.758 268.642 89.5481 322.541 57.1183C378.697 23.3283 425.76 9.50989 492.221 2.47363" stroke="url(#paint5_linear_592_1894)" stroke-width="3.43047" stroke-linecap="round" stroke-dasharray="0.03 13.72"/>
<path opacity="0.304348" d="M-983.739 1123.36H-508.852C-412.652 1123.36 -325.955 1043.46 -289.294 921.009L-218.979 686.159C-185.522 574.414 -110.016 497.195 -22.645 485.375L91.4641 469.937C175.643 458.55 240.661 363.074 243.511 246.692C245.487 165.758 277.123 89.5481 331.023 57.1183C387.178 23.3283 434.241 9.50989 500.702 2.47363" stroke="url(#paint6_linear_592_1894)" stroke-width="3.43047" stroke-linecap="round" stroke-dasharray="0.03 13.72"/>
<path opacity="0.347826" d="M-975.257 1123.36H-500.37C-404.171 1123.36 -317.474 1043.46 -280.813 921.009L-210.497 686.159C-177.041 574.414 -101.534 497.195 -14.1636 485.375L99.9455 469.937C184.124 458.55 249.143 363.073 251.993 246.692C253.969 165.757 285.605 89.5481 339.504 57.1182C395.66 23.3282 442.723 9.50989 509.183 2.47363" stroke="url(#paint7_linear_592_1894)" stroke-width="3.43047" stroke-linecap="round" stroke-dasharray="0.03 13.72"/>
<path opacity="0.391304" d="M-966.776 1123.36H-491.889C-395.689 1123.36 -308.992 1043.46 -272.331 921.009L-202.016 686.159C-168.559 574.414 -93.0526 497.195 -5.68212 485.375L108.427 469.937C192.606 458.55 257.624 363.074 260.474 246.692C262.45 165.756 294.086 89.5481 347.985 57.1183C404.141 23.3282 451.204 9.50989 517.665 2.47363" stroke="url(#paint8_linear_592_1894)" stroke-width="3.43047" stroke-linecap="round" stroke-dasharray="0.03 13.72"/>
<path opacity="0.434783" d="M-958.294 1123.36H-483.408C-387.208 1123.36 -300.511 1043.46 -263.85 921.009L-193.535 686.159C-160.078 574.414 -84.5712 497.195 2.79933 485.375L116.908 469.937C201.087 458.55 266.106 363.074 268.956 246.692C270.932 165.756 302.568 89.5481 356.467 57.1183C412.622 23.3282 459.686 9.50989 526.146 2.47363" stroke="url(#paint9_linear_592_1894)" stroke-width="3.43047" stroke-linecap="round" stroke-dasharray="0.03 13.72"/>
<path opacity="0.478261" d="M-949.813 1123.36H-474.926C-378.726 1123.36 -292.029 1043.46 -255.368 921.009L-185.053 686.159C-151.596 574.414 -76.0897 497.195 11.2808 485.375L125.39 469.937C209.569 458.55 274.587 363.074 277.437 246.692C279.413 165.756 311.049 89.5481 364.948 57.1183C421.104 23.3282 468.167 9.50989 534.628 2.47363" stroke="url(#paint10_linear_592_1894)" stroke-width="3.43047" stroke-linecap="round" stroke-dasharray="0.03 13.72"/>
<path opacity="0.521739" d="M-941.331 1123.36H-466.445C-370.245 1123.36 -283.548 1043.46 -246.887 921.009L-176.572 686.159C-143.115 574.414 -67.6083 497.195 19.7622 485.375L133.871 469.937C218.05 458.55 283.069 363.074 285.918 246.692C287.895 165.756 319.53 89.5481 373.43 57.1183C429.585 23.3282 476.649 9.50989 543.109 2.47363" stroke="url(#paint11_linear_592_1894)" stroke-width="3.43047" stroke-linecap="round" stroke-dasharray="0.03 13.72"/>
<path opacity="0.565217" d="M-932.85 1123.36H-457.963C-361.764 1123.36 -275.066 1043.46 -238.405 921.009L-168.09 686.159C-134.634 574.414 -59.1268 497.195 28.2437 485.375L142.353 469.937C226.532 458.55 291.55 363.074 294.4 246.692C296.376 165.758 328.012 89.5481 381.911 57.1183C438.067 23.3283 485.13 9.50989 551.591 2.47363" stroke="url(#paint12_linear_592_1894)" stroke-width="3.43047" stroke-linecap="round" stroke-dasharray="0.03 13.72"/>
<path opacity="0.608696" d="M-924.368 1123.36H-449.482C-353.282 1123.36 -266.585 1043.46 -229.924 921.009L-159.609 686.159C-126.152 574.414 -50.6454 497.195 36.7251 485.375L150.834 469.937C235.013 458.55 300.032 363.074 302.881 246.692C304.858 165.758 336.493 89.5481 390.393 57.1183C446.548 23.3283 493.612 9.50989 560.072 2.47363" stroke="url(#paint13_linear_592_1894)" stroke-width="3.43047" stroke-linecap="round" stroke-dasharray="0.03 13.72"/>
<path opacity="0.652174" d="M-915.887 1123.36H-441C-344.801 1123.36 -258.104 1043.46 -221.443 921.009L-151.127 686.159C-117.671 574.414 -42.164 497.195 45.2066 485.375L159.316 469.937C243.495 458.55 308.513 363.074 311.363 246.692C313.339 165.758 344.975 89.5481 398.874 57.1183C455.03 23.3283 502.093 9.50989 568.553 2.47363" stroke="url(#paint14_linear_592_1894)" stroke-width="3.43047" stroke-linecap="round" stroke-dasharray="0.03 13.72"/>
<path opacity="0.695652" d="M-907.406 1123.36H-432.519C-336.319 1123.36 -249.622 1043.46 -212.961 921.009L-142.646 686.159C-109.189 574.414 -33.6825 497.195 53.688 485.375L167.798 469.937C251.976 458.55 316.995 363.074 319.844 246.692C321.82 165.758 353.456 89.5481 407.356 57.1183C463.511 23.3283 510.574 9.50989 577.035 2.47363" stroke="url(#paint15_linear_592_1894)" stroke-width="3.43047" stroke-linecap="round" stroke-dasharray="0.03 13.72"/>
<path opacity="0.73913" d="M-898.924 1123.36H-424.037C-327.838 1123.36 -241.141 1043.46 -204.48 921.009L-134.164 686.159C-100.708 574.414 -25.2011 497.195 62.1694 485.375L176.279 469.937C260.457 458.55 325.476 363.073 328.326 246.692C330.302 165.757 361.938 89.5481 415.837 57.1182C471.993 23.3282 519.056 9.50989 585.516 2.47363" stroke="url(#paint16_linear_592_1894)" stroke-width="3.43047" stroke-linecap="round" stroke-dasharray="0.03 13.72"/>
<path opacity="0.782609" d="M-890.443 1123.36H-415.556C-319.357 1123.36 -232.659 1043.46 -195.998 921.009L-125.683 686.159C-92.2266 574.414 -16.7199 497.195 70.6506 485.375L184.761 469.937C268.939 458.55 333.957 363.074 336.807 246.692C338.783 165.756 370.419 89.5481 424.318 57.1183C480.474 23.3282 527.537 9.50989 593.998 2.47363" stroke="url(#paint17_linear_592_1894)" stroke-width="3.43047" stroke-linecap="round" stroke-dasharray="0.03 13.72"/>
<path opacity="0.826087" d="M-881.961 1123.36H-407.075C-310.875 1123.36 -224.178 1043.46 -187.517 921.009L-117.202 686.159C-83.7452 574.414 -8.23842 497.195 79.1321 485.375L193.242 469.937C277.42 458.55 342.439 363.074 345.288 246.692C347.265 165.756 378.9 89.5481 432.8 57.1183C488.955 23.3282 536.019 9.50989 602.479 2.47363" stroke="url(#paint18_linear_592_1894)" stroke-width="3.43047" stroke-linecap="round" stroke-dasharray="0.03 13.72"/>
<path opacity="0.869565" d="M-873.48 1123.36H-398.593C-302.394 1123.36 -215.697 1043.46 -179.036 921.009L-108.72 686.159C-75.2637 574.414 0.243023 497.195 87.6135 485.375L201.723 469.937C285.902 458.55 350.92 363.074 353.77 246.692C355.746 165.756 387.382 89.5481 441.281 57.1183C497.437 23.3282 544.5 9.50989 610.96 2.47363" stroke="url(#paint19_linear_592_1894)" stroke-width="3.43047" stroke-linecap="round" stroke-dasharray="0.03 13.72"/>
<path opacity="0.913043" d="M-864.999 1123.36H-390.112C-293.912 1123.36 -207.215 1043.46 -170.554 921.009L-100.239 686.159C-66.7823 574.414 8.72447 497.195 96.095 485.375L210.205 469.937C294.383 458.55 359.401 363.074 362.251 246.692C364.227 165.756 395.863 89.5481 449.763 57.1183C505.918 23.3282 552.981 9.50989 619.442 2.47363" stroke="url(#paint20_linear_592_1894)" stroke-width="3.43047" stroke-linecap="round" stroke-dasharray="0.03 13.72"/>
<path opacity="0.956522" d="M-856.517 1123.36H-381.63C-285.431 1123.36 -198.734 1043.46 -162.073 921.009L-91.7575 686.159C-58.3008 574.414 17.2059 497.195 104.576 485.375L218.686 469.937C302.864 458.55 367.883 363.074 370.733 246.692C372.709 165.758 404.345 89.5481 458.244 57.1183C514.4 23.3283 561.463 9.50989 627.923 2.47363" stroke="url(#paint21_linear_592_1894)" stroke-width="3.43047" stroke-linecap="round" stroke-dasharray="0.03 13.72"/>
<path d="M-848.036 1123.36H-373.149C-276.949 1123.36 -190.253 1043.46 -153.591 921.009L-83.2761 686.159C-49.8194 574.414 25.6874 497.195 113.058 485.375L227.168 469.937C311.346 458.55 376.364 363.073 379.214 246.692C381.19 165.757 412.826 89.5481 466.725 57.1183C522.881 23.3282 569.944 9.50989 636.405 2.47363" stroke="url(#paint22_linear_592_1894)" stroke-width="3.43047" stroke-linecap="round" stroke-dasharray="0.03 13.72"/>
<defs>
<linearGradient id="paint0_linear_592_1894" x1="-292.407" y1="2.47363" x2="-292.407" y2="1123.36" gradientUnits="userSpaceOnUse">
<stop stop-color="#2B44E7"/>
<stop offset="0.447917" stop-color="#2B44E7" stop-opacity="0"/>
</linearGradient>
<linearGradient id="paint1_linear_592_1894" x1="-283.925" y1="2.47363" x2="-283.925" y2="1123.36" gradientUnits="userSpaceOnUse">
<stop stop-color="#2B44E7"/>
<stop offset="0.447917" stop-color="#2B44E7" stop-opacity="0"/>
</linearGradient>
<linearGradient id="paint2_linear_592_1894" x1="-275.444" y1="2.47363" x2="-275.444" y2="1123.36" gradientUnits="userSpaceOnUse">
<stop stop-color="#2B44E7"/>
<stop offset="0.447917" stop-color="#2B44E7" stop-opacity="0"/>
</linearGradient>
<linearGradient id="paint3_linear_592_1894" x1="-266.962" y1="2.47363" x2="-266.962" y2="1123.36" gradientUnits="userSpaceOnUse">
<stop stop-color="#2B44E7"/>
<stop offset="0.447917" stop-color="#2B44E7" stop-opacity="0"/>
</linearGradient>
<linearGradient id="paint4_linear_592_1894" x1="-258.481" y1="2.47363" x2="-258.481" y2="1123.36" gradientUnits="userSpaceOnUse">
<stop stop-color="#2B44E7"/>
<stop offset="0.447917" stop-color="#2B44E7" stop-opacity="0"/>
</linearGradient>
<linearGradient id="paint5_linear_592_1894" x1="-250" y1="2.47363" x2="-250" y2="1123.36" gradientUnits="userSpaceOnUse">
<stop stop-color="#2B44E7"/>
<stop offset="0.447917" stop-color="#2B44E7" stop-opacity="0"/>
</linearGradient>
<linearGradient id="paint6_linear_592_1894" x1="-241.518" y1="2.47363" x2="-241.518" y2="1123.36" gradientUnits="userSpaceOnUse">
<stop stop-color="#2B44E7"/>
<stop offset="0.447917" stop-color="#2B44E7" stop-opacity="0"/>
</linearGradient>
<linearGradient id="paint7_linear_592_1894" x1="-233.037" y1="2.47363" x2="-233.037" y2="1123.36" gradientUnits="userSpaceOnUse">
<stop stop-color="#2B44E7"/>
<stop offset="0.447917" stop-color="#2B44E7" stop-opacity="0"/>
</linearGradient>
<linearGradient id="paint8_linear_592_1894" x1="-224.555" y1="2.47363" x2="-224.555" y2="1123.36" gradientUnits="userSpaceOnUse">
<stop stop-color="#2B44E7"/>
<stop offset="0.447917" stop-color="#2B44E7" stop-opacity="0"/>
</linearGradient>
<linearGradient id="paint9_linear_592_1894" x1="-216.074" y1="2.47363" x2="-216.074" y2="1123.36" gradientUnits="userSpaceOnUse">
<stop stop-color="#2B44E7"/>
<stop offset="0.447917" stop-color="#2B44E7" stop-opacity="0"/>
</linearGradient>
<linearGradient id="paint10_linear_592_1894" x1="-207.593" y1="2.47363" x2="-207.593" y2="1123.36" gradientUnits="userSpaceOnUse">
<stop stop-color="#2B44E7"/>
<stop offset="0.447917" stop-color="#2B44E7" stop-opacity="0"/>
</linearGradient>
<linearGradient id="paint11_linear_592_1894" x1="-199.111" y1="2.47363" x2="-199.111" y2="1123.36" gradientUnits="userSpaceOnUse">
<stop stop-color="#2B44E7"/>
<stop offset="0.447917" stop-color="#2B44E7" stop-opacity="0"/>
</linearGradient>
<linearGradient id="paint12_linear_592_1894" x1="-190.63" y1="2.47363" x2="-190.63" y2="1123.36" gradientUnits="userSpaceOnUse">
<stop stop-color="#2B44E7"/>
<stop offset="0.447917" stop-color="#2B44E7" stop-opacity="0"/>
</linearGradient>
<linearGradient id="paint13_linear_592_1894" x1="-182.148" y1="2.47363" x2="-182.148" y2="1123.36" gradientUnits="userSpaceOnUse">
<stop stop-color="#2B44E7"/>
<stop offset="0.447917" stop-color="#2B44E7" stop-opacity="0"/>
</linearGradient>
<linearGradient id="paint14_linear_592_1894" x1="-173.667" y1="2.47363" x2="-173.667" y2="1123.36" gradientUnits="userSpaceOnUse">
<stop stop-color="#2B44E7"/>
<stop offset="0.447917" stop-color="#2B44E7" stop-opacity="0"/>
</linearGradient>
<linearGradient id="paint15_linear_592_1894" x1="-165.185" y1="2.47363" x2="-165.185" y2="1123.36" gradientUnits="userSpaceOnUse">
<stop stop-color="#2B44E7"/>
<stop offset="0.447917" stop-color="#2B44E7" stop-opacity="0"/>
</linearGradient>
<linearGradient id="paint16_linear_592_1894" x1="-156.704" y1="2.47363" x2="-156.704" y2="1123.36" gradientUnits="userSpaceOnUse">
<stop stop-color="#2B44E7"/>
<stop offset="0.447917" stop-color="#2B44E7" stop-opacity="0"/>
</linearGradient>
<linearGradient id="paint17_linear_592_1894" x1="-148.223" y1="2.47363" x2="-148.223" y2="1123.36" gradientUnits="userSpaceOnUse">
<stop stop-color="#2B44E7"/>
<stop offset="0.447917" stop-color="#2B44E7" stop-opacity="0"/>
</linearGradient>
<linearGradient id="paint18_linear_592_1894" x1="-139.741" y1="2.47363" x2="-139.741" y2="1123.36" gradientUnits="userSpaceOnUse">
<stop stop-color="#2B44E7"/>
<stop offset="0.447917" stop-color="#2B44E7" stop-opacity="0"/>
</linearGradient>
<linearGradient id="paint19_linear_592_1894" x1="-131.26" y1="2.47363" x2="-131.26" y2="1123.36" gradientUnits="userSpaceOnUse">
<stop stop-color="#2B44E7"/>
<stop offset="0.447917" stop-color="#2B44E7" stop-opacity="0"/>
</linearGradient>
<linearGradient id="paint20_linear_592_1894" x1="-122.778" y1="2.47363" x2="-122.778" y2="1123.36" gradientUnits="userSpaceOnUse">
<stop stop-color="#2B44E7"/>
<stop offset="0.447917" stop-color="#2B44E7" stop-opacity="0"/>
</linearGradient>
<linearGradient id="paint21_linear_592_1894" x1="-114.297" y1="2.47363" x2="-114.297" y2="1123.36" gradientUnits="userSpaceOnUse">
<stop stop-color="#2B44E7"/>
<stop offset="0.447917" stop-color="#2B44E7" stop-opacity="0"/>
</linearGradient>
<linearGradient id="paint22_linear_592_1894" x1="-105.815" y1="2.47363" x2="-105.815" y2="1123.36" gradientUnits="userSpaceOnUse">
<stop stop-color="#2B44E7"/>
<stop offset="0.447917" stop-color="#2B44E7" stop-opacity="0"/>
</linearGradient>
</defs>
</svg>
