<svg width="32" height="32" viewBox="0 0 32 32" fill="none" xmlns="http://www.w3.org/2000/svg">
<path fill-rule="evenodd" clip-rule="evenodd" d="M28.4444 32H3.55556C1.59188 32 0 30.4081 0 28.4444V3.55556C0 1.59188 1.59188 0 3.55556 0H28.4444C30.4081 0 32 1.59188 32 3.55556V28.4444C32 30.4081 30.4081 32 28.4444 32ZM22.8039 27.5557H27.5525V17.8006C27.5525 13.6732 25.2128 11.6775 21.9448 11.6775C18.6752 11.6775 17.2992 14.2236 17.2992 14.2236V12.1483H12.7229V27.5557H17.2992V19.4677C17.2992 17.3006 18.2968 16.011 20.2062 16.011C21.9613 16.011 22.8039 17.2502 22.8039 19.4677V27.5557ZM4.44141 7.28767C4.44141 8.85773 5.70454 10.1308 7.26334 10.1308C8.82213 10.1308 10.0845 8.85773 10.0845 7.28767C10.0845 5.7176 8.82213 4.44455 7.26334 4.44455C5.70454 4.44455 4.44141 5.7176 4.44141 7.28767ZM9.67225 27.5557H4.90032V12.1483H9.67225V27.5557Z" fill="white"/>
</svg>
