<svg width="576" height="191" viewBox="0 0 576 191" fill="none" xmlns="http://www.w3.org/2000/svg">
<g clip-path="url(#clip0_7_5029)">
<rect width="576" height="268" rx="24" fill="#EEFBF6"/>
<path d="M237 219C232.325 219 228.321 217.334 224.989 214.002C221.657 210.67 219.994 206.669 220 202V117C220 112.325 221.666 108.322 224.998 104.99C228.33 101.658 232.331 99.9943 237 100H245.5V83C245.5 71.2417 249.645 61.2173 257.936 52.927C266.226 44.6367 276.247 40.4943 288 40.5C299.758 40.5 309.783 44.6452 318.073 52.9355C326.363 61.2258 330.506 71.2473 330.5 83V100H339C343.675 100 347.679 101.666 351.01 104.998C354.342 108.33 356.006 112.331 356 117V202C356 206.675 354.334 210.678 351.002 214.01C347.67 217.342 343.669 219.006 339 219H237ZM288 176.5C292.675 176.5 296.679 174.834 300.01 171.502C303.342 168.17 305.006 164.169 305 159.5C305 154.825 303.334 150.822 300.002 147.49C296.67 144.158 292.669 142.494 288 142.5C283.325 142.5 279.321 144.166 275.99 147.498C272.658 150.83 270.994 154.831 271 159.5C271 164.175 272.666 168.179 275.998 171.511C279.33 174.843 283.331 176.506 288 176.5ZM262.5 100H313.5V83C313.5 75.9167 311.021 69.8958 306.062 64.9375C301.104 59.9792 295.083 57.5 288 57.5C280.917 57.5 274.896 59.9792 269.938 64.9375C264.979 69.8958 262.5 75.9167 262.5 83V100Z" fill="#2B44E7"/>
</g>
<defs>
<clipPath id="clip0_7_5029">
<rect width="575.5" height="190" fill="white" transform="translate(0 0.5)"/>
</clipPath>
</defs>
</svg>
