<svg width="230" height="229" viewBox="0 0 230 229" fill="none" xmlns="http://www.w3.org/2000/svg">
<rect x="0.5" width="229" height="229" rx="50" fill="#161A39"/>
<path d="M150.31 90.1736H79.5167C77.8506 90.1736 76.5 91.5242 76.5 93.1903V163.983C76.5 165.649 77.8506 167 79.5167 167H150.31C151.976 167 153.326 165.649 153.326 163.983V93.1903C153.326 91.5242 151.976 90.1736 150.31 90.1736Z" fill="white"/>
<path d="M92.246 69.2694H136.929V90.1027H145.211V68.5596C145.211 64.3835 141.815 61 137.651 61H91.5362C87.36 61 83.9766 64.3953 83.9766 68.5596V90.1027H92.2578V69.2694H92.246Z" fill="white"/>
<path d="M118.735 114.899H111.093C109.425 114.899 108.076 116.248 108.076 117.916V125.558C108.076 127.226 109.425 128.575 111.093 128.575H112.134L110.348 140.299C110.348 141.305 111.164 142.133 112.181 142.133H117.659C118.664 142.133 119.492 141.316 119.492 140.299L117.706 128.575H118.747C120.415 128.575 121.764 127.226 121.764 125.558V117.916C121.764 116.248 120.415 114.899 118.747 114.899H118.735Z" fill="#161A39"/>
<path d="M82.8172 112.852H80.4512V96.6448C80.4512 95.1896 81.6342 94.0066 83.0893 94.0066H93.5829V96.3727H83.0893C82.9355 96.3727 82.8172 96.5028 82.8172 96.6448V112.852Z" fill="#161A39"/>
</svg>
