<svg width="128" height="49" viewBox="0 0 128 49" fill="none" xmlns="http://www.w3.org/2000/svg">
<path d="M0.794895 38V0.199997H7.9769V32.33H28.1189V38H0.794895ZM45.5807 38.702C41.2967 38.702 37.8227 37.352 35.1587 34.652C32.4947 31.916 31.1627 28.154 31.1627 23.366C31.1627 21.962 31.2707 20.666 31.4867 19.478C31.7387 18.254 32.0807 17.12 32.5127 16.076C32.9447 15.032 33.4847 14.078 34.1327 13.214C34.7807 12.35 35.5007 11.594 36.2927 10.946C37.1207 10.298 38.0027 9.758 38.9387 9.326C39.9107 8.858 40.9547 8.516 42.0707 8.3C43.1867 8.048 44.3567 7.922 45.5807 7.922C46.8047 7.922 47.9747 8.048 49.0907 8.3C50.2067 8.516 51.2507 8.858 52.2227 9.326C53.1947 9.758 54.0767 10.298 54.8687 10.946C55.6967 11.594 56.4347 12.35 57.0827 13.214C57.7307 14.078 58.2707 15.032 58.7027 16.076C59.1347 17.12 59.4587 18.254 59.6747 19.478C59.9267 20.666 60.0527 21.962 60.0527 23.366C60.0527 28.154 58.7207 31.916 56.0567 34.652C53.3927 37.352 49.9007 38.702 45.5807 38.702ZM45.5807 33.626C47.8487 33.626 49.6667 32.762 51.0347 31.034C52.4387 29.27 53.1407 26.696 53.1407 23.312C53.1407 19.964 52.4387 17.408 51.0347 15.644C49.6667 13.88 47.8487 12.998 45.5807 12.998C43.3127 12.998 41.4947 13.88 40.1267 15.644C38.7587 17.408 38.0747 19.964 38.0747 23.312C38.0747 26.696 38.7587 29.27 40.1267 31.034C41.4947 32.762 43.3127 33.626 45.5807 33.626ZM77.5605 38.216C73.7805 38.216 70.7205 36.866 68.3805 34.166C66.0405 31.466 64.8705 27.794 64.8705 23.15C64.8705 18.542 66.0405 14.888 68.3805 12.188C70.7565 9.452 73.8165 8.084 77.5605 8.084C79.5405 8.084 81.3405 8.534 82.9605 9.434C84.5805 10.334 85.9125 11.612 86.9565 13.268V8.678H93.8685V36.596C93.8685 40.52 92.5725 43.472 89.9805 45.452C87.4245 47.468 83.9685 48.476 79.6125 48.476C75.8685 48.476 72.7545 47.72 70.2705 46.208C67.8225 44.696 66.2925 42.536 65.6805 39.728H72.4845C72.9165 41.168 73.7265 42.248 74.9145 42.968C76.1025 43.688 77.6865 44.048 79.6665 44.048C81.8985 44.048 83.6625 43.508 84.9585 42.428C86.2905 41.348 86.9565 39.728 86.9565 37.568V33.032C85.9125 34.688 84.5805 35.966 82.9605 36.866C81.3405 37.766 79.5405 38.216 77.5605 38.216ZM79.2885 33.248C81.5925 33.248 83.4465 32.384 84.8505 30.656C86.2545 28.928 86.9565 26.426 86.9565 23.15C86.9565 19.838 86.2545 17.336 84.8505 15.644C83.4465 13.916 81.5925 13.052 79.2885 13.052C77.0205 13.052 75.2025 13.916 73.8345 15.644C72.4665 17.336 71.7825 19.838 71.7825 23.15C71.7825 26.426 72.4665 28.928 73.8345 30.656C75.2025 32.384 77.0205 33.248 79.2885 33.248ZM113.471 38.702C109.187 38.702 105.713 37.352 103.049 34.652C100.385 31.916 99.053 28.154 99.053 23.366C99.053 21.962 99.161 20.666 99.377 19.478C99.629 18.254 99.971 17.12 100.403 16.076C100.835 15.032 101.375 14.078 102.023 13.214C102.671 12.35 103.391 11.594 104.183 10.946C105.011 10.298 105.893 9.758 106.829 9.326C107.801 8.858 108.845 8.516 109.961 8.3C111.077 8.048 112.247 7.922 113.471 7.922C114.695 7.922 115.865 8.048 116.981 8.3C118.097 8.516 119.141 8.858 120.113 9.326C121.085 9.758 121.967 10.298 122.759 10.946C123.587 11.594 124.325 12.35 124.973 13.214C125.621 14.078 126.161 15.032 126.593 16.076C127.025 17.12 127.349 18.254 127.565 19.478C127.817 20.666 127.943 21.962 127.943 23.366C127.943 28.154 126.611 31.916 123.947 34.652C121.283 37.352 117.791 38.702 113.471 38.702ZM113.471 33.626C115.739 33.626 117.557 32.762 118.925 31.034C120.329 29.27 121.031 26.696 121.031 23.312C121.031 19.964 120.329 17.408 118.925 15.644C117.557 13.88 115.739 12.998 113.471 12.998C111.203 12.998 109.385 13.88 108.017 15.644C106.649 17.408 105.965 19.964 105.965 23.312C105.965 26.696 106.649 29.27 108.017 31.034C109.385 32.762 111.203 33.626 113.471 33.626Z" fill="#C2DFE8"/>
</svg>
