<svg width="201" height="32" viewBox="0 0 201 32" fill="none" xmlns="http://www.w3.org/2000/svg">
<path fill-rule="evenodd" clip-rule="evenodd" d="M32.3026 0C32.3559 0 33.1828 0.279418 34.1297 0.625364C35.4768 1.10437 36.0369 1.38378 36.6637 1.87609C37.1039 2.22204 37.6907 2.74096 37.9574 3.02037C38.2242 3.29979 38.6109 3.83202 38.8243 4.19127C39.0244 4.56383 39.6779 5.70811 41.3183 8.58212L41.3983 10.1123C41.465 11.3896 41.5317 11.7222 41.7985 12.1746C41.9718 12.4674 42.3719 13.106 42.692 13.6116C43.1855 14.3701 43.3722 14.543 43.959 14.7958C44.3458 14.9688 44.8926 15.2216 45.186 15.368C45.6795 15.6208 45.7328 15.7139 46.5197 17.8295C47.1866 19.5992 47.4666 20.158 47.9334 20.7301C48.3069 21.1559 48.9337 21.6748 49.5739 22.0607C50.1473 22.4067 50.7342 22.7925 50.8809 22.9123C51.0142 23.0453 51.1343 23.205 51.1343 23.2848C51.1343 23.3647 51.4677 23.99 51.8678 24.6819C52.2679 25.3738 52.6413 25.9459 52.6947 25.9459C52.7614 25.9459 53.4016 25.7996 54.1351 25.6133C54.8686 25.427 55.6688 25.2807 55.8955 25.2807C56.2423 25.2807 56.7758 25.6133 58.5229 26.9039C59.7232 27.8087 61.1903 28.8732 61.7905 29.2723C62.3906 29.6715 63.4176 30.3767 64.0711 30.8291C64.7379 31.2948 65.2714 31.7206 65.2714 31.8004C65.2714 31.8936 61.257 31.9335 53.4949 31.9335C44.039 31.9468 41.7051 31.9069 41.5717 31.7738C41.4917 31.6807 40.8515 30.0175 40.158 28.0748C39.4645 26.1322 38.931 24.4956 38.9844 24.4424C39.0244 24.3892 39.5979 24.3892 40.238 24.4424C40.8915 24.4956 41.4517 24.5089 41.4784 24.4424C41.505 24.3892 41.3317 24.0699 41.0916 23.7106C40.8515 23.3647 39.7712 21.8079 38.691 20.2645C37.6107 18.7077 36.7571 17.3771 36.7971 17.2973C36.8371 17.2175 37.1706 17.3372 37.5573 17.5634C37.9441 17.7763 38.3975 17.9892 38.5576 18.0291C38.7843 18.0823 38.8377 18.0424 38.771 17.9227C38.7176 17.8428 38.2908 17.2175 37.8374 16.5655C37.3706 15.9135 36.9972 15.3281 36.9972 15.2615C36.9972 15.2083 37.0505 15.1684 37.1305 15.1684C37.2106 15.1684 37.8374 15.501 38.5309 15.9002C39.2244 16.2994 39.8913 16.6054 39.998 16.5655C40.158 16.5123 40.0913 16.2062 39.5845 14.7958C39.5594 14.7257 39.5336 14.6537 39.5073 14.5802C39.1842 13.6777 38.7816 12.5533 38.5843 11.9751C38.3709 11.3497 38.2375 10.8042 38.3042 10.7509C38.3575 10.6977 38.7843 11.017 39.2644 11.4428C39.7446 11.8819 40.2247 12.2279 40.3314 12.2412C40.5048 12.2412 40.5181 12.0017 40.3314 8.7817L37.9574 4.05821L36.8371 3.24657C36.2236 2.80748 35.1433 2.10229 34.4231 1.68981C33.7163 1.27734 33.0761 0.931393 32.9961 0.931393C32.9161 0.931393 32.8361 0.97131 32.796 1.02453C32.7694 1.09106 32.9828 2.3817 33.2628 3.92516C33.5562 5.46861 33.7963 6.85239 33.7963 7.01206C33.7963 7.18503 33.1295 8.7684 30.8355 13.7713L30.5821 16.4324C30.4488 17.896 30.3154 19.3064 30.2887 19.5592C30.262 19.9318 30.0086 20.2911 29.0617 21.3289C28.3949 22.0474 27.8481 22.6861 27.8214 22.7526C27.8081 22.8324 28.7416 24.4158 29.8886 26.2786C31.1423 28.3143 32.0759 29.6848 32.1959 29.6848C32.3293 29.676 32.3426 29.707 32.2359 29.778C32.1292 29.8445 32.1826 29.9909 32.4093 30.2703C32.5827 30.4832 32.7294 30.6428 32.7294 30.6029C32.7294 30.563 32.636 30.2969 32.516 30.0042C32.3959 29.7114 31.8225 28.5139 31.2356 27.343C30.6621 26.1721 30.1553 25.0279 30.1287 24.815C30.062 24.4291 30.0887 24.4291 30.6488 25.0811C30.9822 25.4403 32.3826 27.1301 33.783 28.8067C35.8502 31.2948 36.2903 31.8802 36.1036 31.9468C36.0797 31.9563 36.0554 31.9646 36.0312 31.9715C35.9202 32.0035 35.8116 32.0085 35.7568 31.9867C35.7568 31.9867 35.7463 31.9851 35.7302 31.9843C35.2128 31.9585 27.3107 31.9335 17.7654 31.9335C7.54931 31.9335 -0.0793976 31.8802 0.000623722 31.8137C0.0673082 31.7472 1.92114 30.5364 4.12172 29.1127C8.05611 26.558 8.1628 26.5048 9.98996 25.8794C11.0169 25.5335 11.9238 25.2141 12.0172 25.1609C12.0972 25.121 12.7107 24.2694 14.5512 21.4886L16.5384 21.1027C17.632 20.8898 18.9657 20.5838 19.5125 20.4374C20.3127 20.2112 20.5261 20.0915 20.7262 19.7588C20.8462 19.5326 21.2996 18.4549 21.7131 17.3638C22.1399 16.2595 22.6467 14.9422 22.8467 14.4366C23.0735 13.8511 23.5803 13.0129 25.234 10.8441L25.314 9.14096C25.3941 7.53098 25.4074 7.45114 25.7008 7.38461C25.8609 7.3447 26.7144 7.13181 27.5947 6.91892C28.4749 6.70603 29.2351 6.47983 29.2751 6.42661C29.3285 6.37339 29.7019 5.57505 30.1287 4.65696C30.5421 3.73888 31.1823 2.31518 31.5557 1.49023C31.9158 0.678586 32.2626 0 32.3026 0ZM33.9564 26.3451C34.0364 26.3451 34.2764 26.5979 34.5032 26.9173C34.7166 27.2233 35.1567 27.7821 35.4634 28.1414C35.7835 28.5139 36.6104 29.4852 37.3172 30.3102C38.0241 31.1218 38.5976 31.827 38.5976 31.8669C38.5976 31.9069 38.2242 31.9335 36.9305 31.9335L35.3167 29.2324C34.4231 27.7555 33.7296 26.5048 33.7563 26.4516C33.783 26.385 33.8763 26.3451 33.9564 26.3451ZM37.4906 28.1813C37.624 28.2345 38.4642 29.0195 39.3578 29.9376C40.2514 30.8557 40.9982 31.6807 40.9982 31.7738C40.9982 31.8936 40.7315 31.9202 38.9844 31.8669L38.2108 30.2037C37.7974 29.2857 37.3973 28.4341 37.3573 28.3143C37.2772 28.1414 37.3173 28.1148 37.4906 28.1813Z" fill="#343D7D"/>
<path d="M41.5717 31.7738C41.4917 31.6807 40.8515 30.0175 40.158 28.0748C39.4645 26.1322 38.931 24.4956 38.9844 24.4424C39.0244 24.3892 39.5979 24.3892 40.238 24.4424C40.8915 24.4956 41.4517 24.5089 41.4784 24.4424C41.505 24.3892 41.3317 24.0699 41.0916 23.7106C40.8515 23.3647 39.7712 21.8079 38.691 20.2645C37.6107 18.7077 36.7571 17.3771 36.7971 17.2973C36.8371 17.2175 37.1706 17.3372 37.5573 17.5634C37.9441 17.7763 38.3975 17.9892 38.5576 18.0291C38.7843 18.0823 38.8377 18.0424 38.771 17.9227C38.7176 17.8428 38.2908 17.2175 37.8374 16.5655C37.3706 15.9135 36.9972 15.3281 36.9972 15.2615C36.9972 15.2083 37.0505 15.1684 37.1305 15.1684C37.2106 15.1684 37.8374 15.501 38.5309 15.9002C39.2244 16.2994 39.8913 16.6054 39.998 16.5655C40.158 16.5123 40.0913 16.2062 39.5845 14.7958L39.5073 14.5802C39.1842 13.6777 38.7816 12.5533 38.5843 11.9751C38.3709 11.3497 38.2375 10.8042 38.3042 10.7509C38.3575 10.6977 38.7843 11.017 39.2644 11.4428C39.7446 11.8819 40.2247 12.2279 40.3314 12.2412C40.5048 12.2412 40.5181 12.0017 40.3314 8.7817L37.9574 4.05821L36.8371 3.24657C36.2236 2.80748 35.1433 2.10229 34.4231 1.68981C33.7163 1.27734 33.0761 0.931393 32.9961 0.931393C32.9161 0.931393 32.8361 0.97131 32.796 1.02453C32.7694 1.09106 32.9828 2.3817 33.2628 3.92516C33.5562 5.46861 33.7963 6.85239 33.7963 7.01206C33.7963 7.18503 33.1295 8.7684 30.8355 13.7713L30.5821 16.4324C30.4488 17.896 30.3154 19.3064 30.2887 19.5592C30.262 19.9318 30.0086 20.2911 29.0617 21.3289C28.3949 22.0474 27.8481 22.6861 27.8214 22.7526C27.8081 22.8324 28.7416 24.4158 29.8886 26.2786C31.1423 28.3143 32.0759 29.6848 32.1959 29.6848C32.3293 29.676 32.3426 29.707 32.2359 29.778C32.1292 29.8445 32.1826 29.9909 32.4093 30.2703C32.5827 30.4832 32.7294 30.6428 32.7294 30.6029C32.7294 30.563 32.636 30.2969 32.516 30.0042C32.3959 29.7114 31.8225 28.5139 31.2356 27.343C30.6621 26.1721 30.1553 25.0279 30.1287 24.815C30.062 24.4291 30.0887 24.4291 30.6488 25.0811C30.9822 25.4403 32.3826 27.1301 33.783 28.8067C35.8502 31.2948 36.2903 31.8802 36.1036 31.9468C36.0797 31.9563 36.0554 31.9646 36.0312 31.9715L36.9305 31.9335L35.3167 29.2324C34.4231 27.7555 33.7296 26.5048 33.7563 26.4516C33.783 26.385 33.8763 26.3451 33.9564 26.3451C34.0364 26.3451 34.2764 26.5979 34.5032 26.9173C34.7166 27.2233 35.1567 27.7821 35.4634 28.1414C35.7835 28.5139 36.6104 29.4852 37.3172 30.3102C38.0241 31.1218 38.5976 31.827 38.5976 31.8669H38.9844L38.2108 30.2037C37.7974 29.2857 37.3973 28.4341 37.3573 28.3143C37.2772 28.1414 37.3173 28.1148 37.4906 28.1813C37.624 28.2345 38.4642 29.0195 39.3578 29.9376C40.2514 30.8557 40.9982 31.6807 40.9982 31.7738H41.5717Z" fill="#161A39"/>
<path d="M26.2743 8.24948C26.261 8.11642 26.4477 8.02328 26.8611 7.97006C27.1945 7.91684 27.6613 7.89023 27.9147 7.90353C28.1681 7.90353 28.3949 7.97006 28.4215 8.04989C28.4482 8.12973 28.2748 8.24948 28.0348 8.34262C27.7947 8.42245 27.528 8.58212 27.4479 8.67526C27.3413 8.80831 27.3546 9.35384 27.7814 12.7069L27.2879 13.1459C27.0212 13.3854 26.541 13.7713 25.6475 14.4366L25.7008 16.499C25.7408 17.6299 25.7275 18.8407 25.6875 19.2C25.6341 19.5459 25.5408 19.8121 25.4608 19.7854C25.3807 19.7588 25.274 19.5459 25.194 19.3197C25.114 19.0802 24.9806 18.894 24.8873 18.894C24.7806 18.894 24.7005 19.2133 24.6472 19.852C24.6072 20.3842 24.4872 21.4087 24.3805 22.1139C24.2738 22.8324 24.1937 23.4445 24.1937 23.4844C24.1937 23.5243 24.1404 23.5509 24.0604 23.5509C23.9804 23.5509 23.927 23.1252 23.927 22.553C23.927 22.0075 23.887 21.5551 23.8203 21.5551C23.767 21.5551 23.1801 21.7015 22.5266 21.8877C21.8731 22.074 21.2863 22.2204 21.2196 22.2204C21.1663 22.2204 21.1263 22.1671 21.1263 22.0873C21.1263 22.0075 21.5797 21.2225 23.1268 18.6944L23.5269 16.3659C23.7536 15.0886 23.9804 13.931 24.0337 13.8112C24.0871 13.6915 24.6472 13.1726 26.461 11.7089L26.3677 10.0723C26.3277 9.18087 26.2743 8.35592 26.2743 8.24948Z" fill="#161A39"/>
<path d="M54.4818 26.5048C54.8819 26.3584 55.2954 26.2121 55.4021 26.1721C55.5088 26.1322 55.6555 26.0923 55.7355 26.0923C55.8155 26.079 56.3357 26.6245 56.8958 27.3031C57.456 27.9817 58.1361 28.8067 58.3895 29.1393C58.6563 29.4719 58.8697 29.8179 58.8697 29.8977C58.8697 29.9909 58.8297 30.0707 58.763 30.0707C58.7096 30.0707 58.1228 29.5917 57.4693 29.0062C56.8158 28.4341 56.229 27.9817 56.1623 28.0083C56.1089 28.0482 56.0956 28.1148 56.1223 28.168C56.1489 28.2345 56.4157 28.6736 56.7224 29.1659C57.0158 29.6715 57.2692 30.0973 57.2692 30.1372C57.2692 30.1771 57.1359 30.1372 56.9625 30.0574C56.8025 29.9775 56.0289 29.259 55.2287 28.4607C54.4418 27.6624 53.7883 26.9572 53.7883 26.8906C53.775 26.8241 54.0951 26.6511 54.4818 26.5048Z" fill="#161A39"/>
<path d="M78.1195 24.1306C76.2305 24.1306 74.7268 23.6406 73.6085 22.6606C72.4902 21.6806 71.8178 20.2709 71.5911 18.4316H73.6085C73.805 19.8035 74.2735 20.8288 75.014 21.5072C75.7545 22.1857 76.7745 22.5249 78.0742 22.5249C79.2529 22.5249 80.1672 22.2837 80.817 21.8012C81.4668 21.3037 81.7917 20.6705 81.7917 19.9015C81.7917 19.6754 81.7615 19.4719 81.7011 19.2909C81.6557 19.0949 81.5877 18.9216 81.4971 18.7708C81.4064 18.605 81.2931 18.4542 81.157 18.3185C81.021 18.1828 80.8699 18.0622 80.7037 17.9567C80.5375 17.836 80.3561 17.7305 80.1596 17.64C79.9783 17.5345 79.7743 17.4365 79.5476 17.3461C79.336 17.2556 79.1094 17.1727 78.8676 17.0973C78.6409 17.0219 78.3991 16.9541 78.1422 16.8937C77.9004 16.8184 77.651 16.743 77.3941 16.6676C77.1221 16.5922 76.8501 16.5168 76.5781 16.4414C76.3212 16.3661 76.0567 16.2907 75.7847 16.2153C75.5278 16.1248 75.2709 16.0344 75.014 15.9439C74.7571 15.8384 74.5077 15.7328 74.2659 15.6273C74.0392 15.5067 73.8201 15.3785 73.6085 15.2429C73.397 15.1072 73.2005 14.9564 73.0192 14.7906C72.8378 14.6247 72.6716 14.4513 72.5205 14.2704C72.3845 14.0744 72.2636 13.8633 72.1578 13.6372C72.052 13.411 71.9689 13.1698 71.9084 12.9135C71.8631 12.6421 71.8404 12.3557 71.8404 12.0541C71.8404 10.848 72.3316 9.83787 73.3139 9.02373C74.2961 8.20959 75.626 7.80251 77.3035 7.80251C79.132 7.80251 80.6055 8.28497 81.7237 9.24988C82.842 10.1997 83.5221 11.5717 83.7639 13.3658H81.8144C81.618 12.0692 81.1344 11.0892 80.3637 10.4259C79.5929 9.7474 78.5804 9.40818 77.3261 9.40818C76.2229 9.40818 75.3615 9.64187 74.7419 10.1092C74.1375 10.5766 73.8352 11.1646 73.8352 11.8732C73.8352 12.0843 73.8579 12.2803 73.9032 12.4612C73.9486 12.6271 74.0166 12.7854 74.1072 12.9361C74.1979 13.0869 74.3037 13.2301 74.4246 13.3658C74.5606 13.5015 74.7042 13.6221 74.8553 13.7276C75.0215 13.8332 75.1953 13.9387 75.3767 14.0443C75.5731 14.1347 75.7771 14.2252 75.9887 14.3156C76.2003 14.4061 76.4194 14.489 76.6461 14.5644C76.8728 14.6398 77.107 14.7152 77.3488 14.7906C77.5906 14.8509 77.8324 14.9187 78.0742 14.9941C78.3462 15.0695 78.6182 15.1524 78.8902 15.2429C79.1622 15.3182 79.4343 15.4012 79.7063 15.4916C79.9783 15.5821 80.2428 15.6801 80.4997 15.7856C80.7566 15.8761 81.0059 15.9816 81.2477 16.1022C81.4895 16.2078 81.7162 16.3359 81.9278 16.4867C82.1544 16.6224 82.3585 16.7731 82.5398 16.939C82.7363 17.0897 82.91 17.2631 83.0612 17.4591C83.2123 17.6551 83.3407 17.8662 83.4465 18.0923C83.5523 18.3185 83.6354 18.5673 83.6959 18.8386C83.7563 19.11 83.7866 19.404 83.7866 19.7206C83.7866 21.0172 83.2803 22.0801 82.2678 22.9093C81.2704 23.7235 79.8876 24.1306 78.1195 24.1306Z" fill="#1D1D1F"/>
<path d="M89.1428 23.8818L86.2866 11.8732H88.1454L89.2788 16.9616L90.3895 22.0726L91.591 16.939L92.8377 11.8732H94.9232L96.1926 16.939L97.394 22.05L99.6155 11.8732H101.406L98.5501 23.8818H96.2153L94.9685 18.9517L93.8578 14.0216L92.7244 18.9517L91.5003 23.8818H89.1428Z" fill="#1D1D1F"/>
<path d="M104.12 10.6972V8.61665H106.115V10.6972H104.12ZM104.143 23.8818V11.8732H106.069V23.8818H104.143Z" fill="#1D1D1F"/>
<path d="M114.31 24.1306C112.859 24.1306 111.658 23.7687 110.706 23.045C109.769 22.3063 109.202 21.1906 109.006 19.698H110.819C111 20.7232 111.386 21.4846 111.975 21.9821C112.565 22.4797 113.335 22.7284 114.287 22.7284C115.149 22.7284 115.821 22.555 116.305 22.2083C116.788 21.8464 117.03 21.3715 117.03 20.7835C117.03 20.1202 116.705 19.6452 116.055 19.3588C115.406 19.0723 114.65 18.8236 113.789 18.6125C113.577 18.5522 113.358 18.4994 113.131 18.4542C112.92 18.3939 112.701 18.3336 112.474 18.2733C112.262 18.1979 112.051 18.1225 111.839 18.0471C111.628 17.9717 111.424 17.8963 111.227 17.821C111.046 17.7305 110.864 17.6325 110.683 17.527C110.502 17.4214 110.335 17.3084 110.184 17.1877C110.033 17.0521 109.897 16.9088 109.776 16.7581C109.655 16.6073 109.55 16.4415 109.459 16.2605C109.368 16.0645 109.3 15.861 109.255 15.6499C109.21 15.4388 109.187 15.2052 109.187 14.9489C109.187 14.0141 109.587 13.2301 110.388 12.5969C111.189 11.9486 112.27 11.6245 113.63 11.6245C115.05 11.6245 116.214 11.9863 117.121 12.71C118.043 13.4186 118.609 14.4438 118.821 15.7856H117.007C116.826 14.8509 116.441 14.1649 115.851 13.7276C115.277 13.2753 114.544 13.0492 113.653 13.0492C112.837 13.0492 112.202 13.215 111.748 13.5467C111.295 13.8633 111.068 14.2855 111.068 14.8132C111.068 15.4162 111.356 15.8685 111.93 16.1701C112.519 16.4565 113.207 16.7053 113.993 16.9164C114.219 16.9767 114.446 17.037 114.673 17.0973C114.899 17.1576 115.126 17.2254 115.353 17.3008C115.579 17.3611 115.806 17.429 116.033 17.5044C116.259 17.5797 116.471 17.6627 116.667 17.7531C116.879 17.8436 117.075 17.9416 117.257 18.0471C117.453 18.1376 117.635 18.2506 117.801 18.3863C117.967 18.507 118.118 18.6426 118.254 18.7934C118.39 18.9442 118.504 19.11 118.594 19.2909C118.685 19.4719 118.753 19.6679 118.798 19.8789C118.859 20.09 118.889 20.3237 118.889 20.58C118.889 21.5751 118.473 22.4194 117.642 23.1129C116.826 23.7913 115.715 24.1306 114.31 24.1306Z" fill="#1D1D1F"/>
<path d="M126.84 24.1306C125.39 24.1306 124.188 23.7687 123.236 23.045C122.299 22.3063 121.732 21.1906 121.536 19.698H123.349C123.531 20.7232 123.916 21.4846 124.506 21.9821C125.095 22.4797 125.866 22.7284 126.818 22.7284C127.679 22.7284 128.352 22.555 128.835 22.2083C129.319 21.8464 129.561 21.3715 129.561 20.7835C129.561 20.1202 129.236 19.6452 128.586 19.3588C127.936 19.0723 127.18 18.8236 126.319 18.6125C126.107 18.5522 125.888 18.4994 125.662 18.4542C125.45 18.3939 125.231 18.3336 125.004 18.2733C124.793 18.1979 124.581 18.1225 124.37 18.0471C124.158 17.9717 123.954 17.8963 123.757 17.821C123.576 17.7305 123.395 17.6325 123.213 17.527C123.032 17.4214 122.866 17.3084 122.715 17.1877C122.564 17.0521 122.428 16.9088 122.307 16.7581C122.186 16.6073 122.08 16.4415 121.989 16.2605C121.899 16.0645 121.831 15.861 121.785 15.6499C121.74 15.4388 121.717 15.2052 121.717 14.9489C121.717 14.0141 122.118 13.2301 122.919 12.5969C123.72 11.9486 124.8 11.6245 126.16 11.6245C127.581 11.6245 128.744 11.9863 129.651 12.71C130.573 13.4186 131.14 14.4438 131.351 15.7856H129.538C129.356 14.8509 128.971 14.1649 128.382 13.7276C127.808 13.2753 127.075 13.0492 126.183 13.0492C125.367 13.0492 124.732 13.215 124.279 13.5467C123.825 13.8633 123.599 14.2855 123.599 14.8132C123.599 15.4162 123.886 15.8685 124.46 16.1701C125.05 16.4565 125.737 16.7053 126.523 16.9164C126.75 16.9767 126.976 17.037 127.203 17.0973C127.43 17.1576 127.656 17.2254 127.883 17.3008C128.11 17.3611 128.336 17.429 128.563 17.5044C128.79 17.5797 129.001 17.6627 129.198 17.7531C129.409 17.8436 129.606 17.9416 129.787 18.0471C129.984 18.1376 130.165 18.2506 130.331 18.3863C130.497 18.507 130.649 18.6426 130.785 18.7934C130.921 18.9442 131.034 19.11 131.125 19.2909C131.215 19.4719 131.283 19.6679 131.329 19.8789C131.389 20.09 131.419 20.3237 131.419 20.58C131.419 21.5751 131.004 22.4194 130.173 23.1129C129.357 23.7913 128.246 24.1306 126.84 24.1306Z" fill="#1D1D1F"/>
<path d="M147.081 24.1306C145.192 24.1306 143.689 23.6406 142.57 22.6606C141.452 21.6806 140.779 20.2709 140.553 18.4316H142.57C142.767 19.8035 143.235 20.8288 143.976 21.5072C144.716 22.1857 145.736 22.5249 147.036 22.5249C148.215 22.5249 149.129 22.2837 149.779 21.8012C150.429 21.3037 150.753 20.6705 150.753 19.9015C150.753 19.6754 150.723 19.4719 150.663 19.2909C150.617 19.0949 150.549 18.9216 150.459 18.7708C150.368 18.605 150.255 18.4542 150.119 18.3185C149.983 18.1828 149.832 18.0622 149.665 17.9567C149.499 17.836 149.318 17.7305 149.121 17.64C148.94 17.5345 148.736 17.4365 148.509 17.3461C148.298 17.2556 148.071 17.1727 147.829 17.0973C147.603 17.0219 147.361 16.9541 147.104 16.8937C146.862 16.8184 146.613 16.743 146.356 16.6676C146.084 16.5922 145.812 16.5168 145.54 16.4414C145.283 16.3661 145.018 16.2907 144.746 16.2153C144.49 16.1248 144.233 16.0344 143.976 15.9439C143.719 15.8384 143.469 15.7328 143.228 15.6273C143.001 15.5067 142.782 15.3785 142.57 15.2429C142.359 15.1072 142.162 14.9564 141.981 14.7906C141.8 14.6247 141.633 14.4513 141.482 14.2704C141.346 14.0744 141.225 13.8633 141.12 13.6372C141.014 13.411 140.931 13.1698 140.87 12.9135C140.825 12.6421 140.802 12.3557 140.802 12.0541C140.802 10.848 141.293 9.83787 142.276 9.02373C143.258 8.20959 144.588 7.80251 146.265 7.80251C148.094 7.80251 149.567 8.28497 150.685 9.24988C151.804 10.1997 152.484 11.5717 152.726 13.3658H150.776C150.58 12.0692 150.096 11.0892 149.325 10.4259C148.555 9.7474 147.542 9.40818 146.288 9.40818C145.185 9.40818 144.323 9.64187 143.704 10.1092C143.099 10.5766 142.797 11.1646 142.797 11.8732C142.797 12.0843 142.82 12.2803 142.865 12.4612C142.91 12.6271 142.978 12.7854 143.069 12.9361C143.16 13.0869 143.265 13.2301 143.386 13.3658C143.522 13.5015 143.666 13.6221 143.817 13.7276C143.983 13.8332 144.157 13.9387 144.338 14.0443C144.535 14.1347 144.739 14.2252 144.95 14.3156C145.162 14.4061 145.381 14.489 145.608 14.5644C145.835 14.6398 146.069 14.7152 146.311 14.7906C146.552 14.8509 146.794 14.9187 147.036 14.9941C147.308 15.0695 147.58 15.1524 147.852 15.2429C148.124 15.3182 148.396 15.4012 148.668 15.4916C148.94 15.5821 149.204 15.6801 149.461 15.7856C149.718 15.8761 149.968 15.9816 150.209 16.1022C150.451 16.2078 150.678 16.3359 150.889 16.4867C151.116 16.6224 151.32 16.7731 151.502 16.939C151.698 17.0897 151.872 17.2631 152.023 17.4591C152.174 17.6551 152.302 17.8662 152.408 18.0923C152.514 18.3185 152.597 18.5673 152.658 18.8386C152.718 19.11 152.748 19.404 152.748 19.7206C152.748 21.0172 152.242 22.0801 151.23 22.9093C150.232 23.7235 148.849 24.1306 147.081 24.1306Z" fill="#1D1D1F"/>
<path d="M160.555 23.8818C159.709 23.8818 159.082 23.6858 158.674 23.2938C158.281 22.8867 158.085 22.2987 158.085 21.5298V13.3658H155.274V11.8732H158.085V9.47603H160.011V11.8732H163.57V13.3658H160.011V21.168C160.011 21.6052 160.117 21.9218 160.329 22.1178C160.54 22.2987 160.895 22.3892 161.394 22.3892H163.57V23.8818H160.555Z" fill="#1D1D1F"/>
<path d="M169.867 24.0853C168.688 24.0853 167.751 23.7989 167.056 23.226C166.361 22.638 166.013 21.8691 166.013 20.9192C166.013 20.6478 166.043 20.4066 166.104 20.1955C166.164 19.9694 166.247 19.7583 166.353 19.5623C166.459 19.3663 166.587 19.1929 166.738 19.0422C166.905 18.8763 167.078 18.7256 167.26 18.5899C167.456 18.4391 167.66 18.3034 167.872 18.1828C168.099 18.0622 168.333 17.9567 168.575 17.8662C168.816 17.7607 169.066 17.6627 169.323 17.5722C169.58 17.4817 169.836 17.3988 170.093 17.3234C170.365 17.233 170.637 17.1425 170.909 17.0521C171.771 16.7656 172.466 16.4641 172.995 16.1475C173.539 15.8308 173.811 15.4012 173.811 14.8584C173.811 14.3458 173.577 13.9236 173.108 13.592C172.64 13.2452 172.02 13.0718 171.249 13.0718C170.403 13.0718 169.7 13.313 169.141 13.7955C168.597 14.2779 168.25 14.9564 168.099 15.8308H166.285C166.451 14.5644 166.988 13.5467 167.895 12.7778C168.801 12.0089 169.942 11.6245 171.317 11.6245C172.647 11.6245 173.713 11.9486 174.514 12.5969C175.33 13.2452 175.738 14.1649 175.738 15.3559V23.8818H173.834V22.3214C173.38 22.8792 172.806 23.3164 172.111 23.633C171.431 23.9346 170.683 24.0853 169.867 24.0853ZM167.917 20.9418C167.917 21.4997 168.144 21.9369 168.597 22.2535C169.051 22.555 169.617 22.7058 170.297 22.7058C170.993 22.7058 171.657 22.5626 172.292 22.2761C172.942 21.9897 173.456 21.5901 173.834 21.0775V18.0697L173.856 17.0521C173.569 17.3385 173.206 17.5797 172.768 17.7757C172.345 17.9717 171.877 18.1602 171.363 18.3411C171.136 18.4165 170.909 18.4919 170.683 18.5673C170.471 18.6426 170.26 18.718 170.048 18.7934C169.852 18.8688 169.663 18.9517 169.481 19.0422C169.3 19.1176 169.126 19.208 168.96 19.3136C168.809 19.404 168.665 19.5096 168.529 19.6302C168.408 19.7357 168.303 19.8563 168.212 19.992C168.121 20.1126 168.046 20.2558 167.985 20.4217C167.94 20.5725 167.917 20.7458 167.917 20.9418Z" fill="#1D1D1F"/>
<path d="M178.971 23.8818V8.05128H180.898L180.852 18.3411L186.565 11.8732H188.809L184.706 16.4867L189.013 23.8818H186.791L183.391 17.9114L180.875 20.7157L180.898 23.8818H178.971Z" fill="#1D1D1F"/>
<path d="M195.673 24.1532C194.086 24.1532 192.787 23.6029 191.774 22.5023C190.777 21.4017 190.278 19.8639 190.278 17.8888C190.278 15.959 190.784 14.4287 191.797 13.298C192.809 12.1672 194.109 11.6018 195.696 11.6018C196.073 11.6018 196.436 11.6395 196.784 11.7149C197.146 11.7752 197.486 11.8732 197.804 12.0089C198.121 12.1446 198.423 12.318 198.711 12.5291C198.998 12.725 199.255 12.9587 199.481 13.2301C199.723 13.4864 199.935 13.7729 200.116 14.0895C200.312 14.4061 200.471 14.7604 200.592 15.1524C200.728 15.5293 200.826 15.9364 200.887 16.3736C200.962 16.8108 201 17.2707 201 17.7531V18.0471H192.182C192.197 19.5397 192.522 20.6855 193.157 21.4846C193.807 22.2837 194.645 22.6832 195.673 22.6832C196.489 22.6832 197.184 22.4118 197.758 21.8691C198.348 21.3263 198.756 20.5498 198.983 19.5397H200.841C200.569 21.0021 199.98 22.1404 199.073 22.9546C198.166 23.7536 197.033 24.1532 195.673 24.1532ZM195.673 13.0718C194.796 13.0718 194.048 13.3884 193.429 14.0216C192.809 14.6549 192.424 15.5444 192.273 16.6902H199.051C198.884 15.5142 198.499 14.6172 197.894 13.999C197.29 13.3809 196.549 13.0718 195.673 13.0718Z" fill="#1D1D1F"/>
</svg>
