<svg width="458" height="386" viewBox="0 0 458 386" fill="none" xmlns="http://www.w3.org/2000/svg">
<path d="M268.321 154.217V120.657H307.217H310.668L311.892 117.43L354.12 6.09871L479.401 42.7906L521.642 116.981V192.754V196.019L524.63 197.332L610.88 235.226L653.957 310.885L654.372 311.613L655.001 312.167L698.87 350.727L698.872 350.729L732.793 380.508H8.60042L47.2406 312.642L176.961 274.673L178.543 274.21L179.539 272.897L267.304 157.24L268.321 155.9V154.217Z" fill="#161A39" stroke="#161A39" stroke-width="10"/>
<path fill-rule="evenodd" clip-rule="evenodd" d="M337.589 116.799L359.85 42.3834L367.771 44.7531L345.51 119.169L337.589 116.799ZM273.176 128.161H300.207V136.429H281.444V158.054H273.176V128.161Z" fill="white"/>
<path fill-rule="evenodd" clip-rule="evenodd" d="M192.93 291.135L71.7655 326.753L69.4336 318.82L190.598 283.203L192.93 291.135ZM239.042 298.132L117.878 333.75L115.546 325.817L236.71 290.199L239.042 298.132Z" fill="white"/>
</svg>
