<svg width="2384" height="2053" viewBox="0 0 2384 2053" fill="none" xmlns="http://www.w3.org/2000/svg">
<rect x="1431" width="119" height="283" fill="#FF202E"/>
<path d="M2384 2053H0L200 1890L308 1738L347 1542L503 1434L607 1208L781 1136L945 890.113L1014.01 768.898L1221.02 708.309L1359 526.468V465.841H1428.02L1496.99 284L1635.99 344.626L1705.01 465.841V594L1848 702L1920 890.113L2056 1010L2096 1262L2116 1478L2196 1542L2252 1786L2384 2053Z" fill="#161A39"/>
<path fill-rule="evenodd" clip-rule="evenodd" d="M1475.77 467.637L1510.77 350.637L1523.23 354.362L1488.23 471.362L1475.77 467.637ZM1374.5 485.5H1417V498.5H1387.5V532.5H1374.5V485.5Z" fill="white"/>
<path fill-rule="evenodd" clip-rule="evenodd" d="M1248.33 741.736L1057.83 797.736L1054.16 785.264L1244.66 729.264L1248.33 741.736ZM1320.83 752.736L1130.33 808.736L1126.66 796.264L1317.16 740.264L1320.83 752.736Z" fill="white"/>
<path d="M697 1207L636 1231L608 1298" stroke="white" stroke-width="13"/>
<path d="M436 1522L382 1557L369 1623" stroke="white" stroke-width="13"/>
<path d="M476 1533L422 1568" stroke="white" stroke-width="13"/>
<rect x="1335" y="1631" width="36" height="31" fill="#161A39"/>
</svg>
