
<svg width="148" height="32" viewBox="0 0 148 32" fill="none" xmlns="http://www.w3.org/2000/svg">
<path d="M28.0643 0H3.99513C1.88037 0 0.166016 1.71435 0.166016 3.82912V27.8983C0.166016 30.0131 1.88037 31.7274 3.99513 31.7274H28.0643C30.1791 31.7274 31.8934 30.0131 31.8934 27.8983V3.82912C31.8934 1.71435 30.1791 0 28.0643 0Z" fill="#2D3D7D"/>
<mask id="mask0_1284_422" style="mask-type:luminance" maskUnits="userSpaceOnUse" x="0" y="0" width="32" height="32">
<path d="M27.8686 31.9676H3.80246C1.70288 31.9676 0 30.2528 0 28.1385V3.90367C0 1.78937 1.70288 0.0745544 3.80246 0.0745544H27.8686C29.9681 0.0745544 31.671 1.78937 32 4.2252V28.46C31.671 30.2528 29.9681 31.9676 27.8686 31.9676Z" fill="white"/>
</mask>
<g mask="url(#mask0_1284_422)">
<path d="M4.96603 14.1407V5.67057C4.96603 5.43023 5.0579 5.1899 5.23836 5.03076C5.38601 4.90409 5.55662 4.83914 5.76005 4.83914H17.8245V0.061676H17.6408C16.4235 0.061676 15.4359 1.03925 15.4359 2.24417V2.28315C15.4359 2.87749 14.9733 3.40038 14.3696 3.41662C13.7527 3.43286 13.2474 2.94244 13.2474 2.33186V2.22794C13.2474 1.03276 12.2664 0.061676 11.059 0.061676H4.19826C3.42393 0.061676 2.73163 0.233808 2.11807 0.578071C1.50451 0.922334 1.02547 1.39976 0.674399 2.00709C0.326606 2.61442 0.15271 3.2997 0.15271 4.06617V15.6802C0.15271 16.4467 0.326606 17.1319 0.674399 17.7393C1.02219 18.3466 1.50451 18.8208 2.11807 19.1683C2.73163 19.5125 3.42393 19.6847 4.19826 19.6847H17.8245V14.9267H5.80599C5.56319 14.9267 5.32039 14.8358 5.15962 14.6571C5.03165 14.511 4.96603 14.3421 4.96603 14.1407Z" fill="#FF2D2E"/>
<path d="M0.174072 32.2179L0.193561 26.299L4.6467 24.8136L9.58056 17.4094V14.9391H12.0459L14.5144 7.53488L21.9136 10.0051L24.3789 14.9391V19.8764L29.3127 22.3466L32.0022 27.5049L31.9599 31.9969" fill="white"/>
<path d="M15.1534 9.16519L13.5938 14.3239L14.2224 14.5102L15.782 9.35141L15.1534 9.16519Z" fill="black"/>
<path d="M11.1178 18.7039H10.4615V15.8394H13.0733V16.4889H11.1178V18.7039Z" fill="black"/>
</g>
<path d="M49.3249 26.1098C48.4969 26.1098 47.7529 25.9658 47.0929 25.6778C46.4449 25.3778 45.9349 24.9698 45.5629 24.4538C45.1909 23.9258 44.9989 23.3198 44.9869 22.6358H46.7329C46.7929 23.2238 47.0329 23.7218 47.4529 24.1298C47.8849 24.5258 48.5089 24.7238 49.3249 24.7238C50.1049 24.7238 50.7169 24.5318 51.1609 24.1478C51.6169 23.7518 51.8449 23.2478 51.8449 22.6358C51.8449 22.1558 51.7129 21.7658 51.4489 21.4658C51.1849 21.1658 50.8549 20.9378 50.4589 20.7818C50.0629 20.6258 49.5289 20.4578 48.8569 20.2778C48.0289 20.0618 47.3629 19.8458 46.8589 19.6298C46.3669 19.4138 45.9409 19.0778 45.5809 18.6218C45.2329 18.1538 45.0589 17.5298 45.0589 16.7498C45.0589 16.0658 45.2329 15.4598 45.5809 14.9318C45.9289 14.4038 46.4149 13.9958 47.0389 13.7078C47.6749 13.4198 48.4009 13.2758 49.2169 13.2758C50.3929 13.2758 51.3529 13.5698 52.0969 14.1578C52.8529 14.7458 53.2789 15.5258 53.3749 16.4978H51.5749C51.5149 16.0178 51.2629 15.5978 50.8189 15.2378C50.3749 14.8658 49.7869 14.6798 49.0549 14.6798C48.3709 14.6798 47.8129 14.8598 47.3809 15.2198C46.9489 15.5678 46.7329 16.0598 46.7329 16.6958C46.7329 17.1518 46.8589 17.5238 47.1109 17.8118C47.3749 18.0998 47.6929 18.3218 48.0649 18.4778C48.4489 18.6218 48.9829 18.7898 49.6669 18.9818C50.4949 19.2098 51.1609 19.4378 51.6649 19.6658C52.1689 19.8818 52.6009 20.2238 52.9609 20.6918C53.3209 21.1478 53.5009 21.7718 53.5009 22.5638C53.5009 23.1758 53.3389 23.7518 53.0149 24.2918C52.6909 24.8318 52.2109 25.2698 51.5749 25.6058C50.9389 25.9418 50.1889 26.1098 49.3249 26.1098ZM69.0514 16.1198L65.9734 25.9838H64.2814L61.9054 18.1538L59.5294 25.9838H57.8374L54.7414 16.1198H56.4154L58.6834 24.3998L61.1314 16.1198H62.8054L65.1994 24.4178L67.4314 16.1198H69.0514ZM71.523 14.5178C71.211 14.5178 70.947 14.4098 70.731 14.1938C70.515 13.9778 70.407 13.7138 70.407 13.4018C70.407 13.0898 70.515 12.8258 70.731 12.6098C70.947 12.3938 71.211 12.2858 71.523 12.2858C71.823 12.2858 72.075 12.3938 72.279 12.6098C72.495 12.8258 72.603 13.0898 72.603 13.4018C72.603 13.7138 72.495 13.9778 72.279 14.1938C72.075 14.4098 71.823 14.5178 71.523 14.5178ZM72.315 16.1198V25.9838H70.677V16.1198H72.315ZM78.5987 26.1458C77.8427 26.1458 77.1647 26.0198 76.5647 25.7678C75.9647 25.5038 75.4907 25.1438 75.1427 24.6878C74.7947 24.2198 74.6027 23.6858 74.5667 23.0858H76.2587C76.3067 23.5778 76.5347 23.9798 76.9427 24.2918C77.3627 24.6038 77.9087 24.7598 78.5807 24.7598C79.2047 24.7598 79.6967 24.6218 80.0567 24.3458C80.4167 24.0698 80.5967 23.7218 80.5967 23.3018C80.5967 22.8698 80.4047 22.5518 80.0207 22.3478C79.6367 22.1318 79.0427 21.9218 78.2387 21.7178C77.5067 21.5258 76.9067 21.3338 76.4387 21.1418C75.9827 20.9378 75.5867 20.6438 75.2507 20.2598C74.9267 19.8638 74.7647 19.3478 74.7647 18.7118C74.7647 18.2078 74.9147 17.7458 75.2147 17.3258C75.5147 16.9058 75.9407 16.5758 76.4927 16.3358C77.0447 16.0838 77.6747 15.9578 78.3827 15.9578C79.4747 15.9578 80.3567 16.2338 81.0287 16.7858C81.7007 17.3378 82.0607 18.0938 82.1087 19.0538H80.4707C80.4347 18.5378 80.2247 18.1238 79.8407 17.8118C79.4687 17.4998 78.9647 17.3438 78.3287 17.3438C77.7407 17.3438 77.2727 17.4698 76.9247 17.7218C76.5767 17.9738 76.4027 18.3038 76.4027 18.7118C76.4027 19.0358 76.5047 19.3058 76.7087 19.5218C76.9247 19.7258 77.1887 19.8938 77.5007 20.0258C77.8247 20.1458 78.2687 20.2838 78.8327 20.4398C79.5407 20.6318 80.1167 20.8238 80.5607 21.0158C81.0047 21.1958 81.3827 21.4718 81.6947 21.8438C82.0187 22.2158 82.1867 22.7018 82.1987 23.3018C82.1987 23.8418 82.0487 24.3278 81.7487 24.7598C81.4487 25.1918 81.0227 25.5338 80.4707 25.7858C79.9307 26.0258 79.3067 26.1458 78.5987 26.1458ZM88.003 26.1458C87.247 26.1458 86.569 26.0198 85.969 25.7678C85.369 25.5038 84.895 25.1438 84.547 24.6878C84.199 24.2198 84.007 23.6858 83.971 23.0858H85.663C85.711 23.5778 85.939 23.9798 86.347 24.2918C86.767 24.6038 87.313 24.7598 87.985 24.7598C88.609 24.7598 89.101 24.6218 89.461 24.3458C89.821 24.0698 90.001 23.7218 90.001 23.3018C90.001 22.8698 89.809 22.5518 89.425 22.3478C89.041 22.1318 88.447 21.9218 87.643 21.7178C86.911 21.5258 86.311 21.3338 85.843 21.1418C85.387 20.9378 84.991 20.6438 84.655 20.2598C84.331 19.8638 84.169 19.3478 84.169 18.7118C84.169 18.2078 84.319 17.7458 84.619 17.3258C84.919 16.9058 85.345 16.5758 85.897 16.3358C86.449 16.0838 87.079 15.9578 87.787 15.9578C88.879 15.9578 89.761 16.2338 90.433 16.7858C91.105 17.3378 91.465 18.0938 91.513 19.0538H89.875C89.839 18.5378 89.629 18.1238 89.245 17.8118C88.873 17.4998 88.369 17.3438 87.733 17.3438C87.145 17.3438 86.677 17.4698 86.329 17.7218C85.981 17.9738 85.807 18.3038 85.807 18.7118C85.807 19.0358 85.909 19.3058 86.113 19.5218C86.329 19.7258 86.593 19.8938 86.905 20.0258C87.229 20.1458 87.673 20.2838 88.237 20.4398C88.945 20.6318 89.521 20.8238 89.965 21.0158C90.409 21.1958 90.787 21.4718 91.099 21.8438C91.423 22.2158 91.591 22.7018 91.603 23.3018C91.603 23.8418 91.453 24.3278 91.153 24.7598C90.853 25.1918 90.427 25.5338 89.875 25.7858C89.335 26.0258 88.711 26.1458 88.003 26.1458ZM102.692 26.1098C101.864 26.1098 101.12 25.9658 100.46 25.6778C99.8121 25.3778 99.3021 24.9698 98.9301 24.4538C98.5581 23.9258 98.3661 23.3198 98.3541 22.6358H100.1C100.16 23.2238 100.4 23.7218 100.82 24.1298C101.252 24.5258 101.876 24.7238 102.692 24.7238C103.472 24.7238 104.084 24.5318 104.528 24.1478C104.984 23.7518 105.212 23.2478 105.212 22.6358C105.212 22.1558 105.08 21.7658 104.816 21.4658C104.552 21.1658 104.222 20.9378 103.826 20.7818C103.43 20.6258 102.896 20.4578 102.224 20.2778C101.396 20.0618 100.73 19.8458 100.226 19.6298C99.7341 19.4138 99.3081 19.0778 98.9481 18.6218C98.6001 18.1538 98.4261 17.5298 98.4261 16.7498C98.4261 16.0658 98.6001 15.4598 98.9481 14.9318C99.2961 14.4038 99.7821 13.9958 100.406 13.7078C101.042 13.4198 101.768 13.2758 102.584 13.2758C103.76 13.2758 104.72 13.5698 105.464 14.1578C106.22 14.7458 106.646 15.5258 106.742 16.4978H104.942C104.882 16.0178 104.63 15.5978 104.186 15.2378C103.742 14.8658 103.154 14.6798 102.422 14.6798C101.738 14.6798 101.18 14.8598 100.748 15.2198C100.316 15.5678 100.1 16.0598 100.1 16.6958C100.1 17.1518 100.226 17.5238 100.478 17.8118C100.742 18.0998 101.06 18.3218 101.432 18.4778C101.816 18.6218 102.35 18.7898 103.034 18.9818C103.862 19.2098 104.528 19.4378 105.032 19.6658C105.536 19.8818 105.968 20.2238 106.328 20.6918C106.688 21.1478 106.868 21.7718 106.868 22.5638C106.868 23.1758 106.706 23.7518 106.382 24.2918C106.058 24.8318 105.578 25.2698 104.942 25.6058C104.306 25.9418 103.556 26.1098 102.692 26.1098ZM111.277 17.4698V23.2838C111.277 23.7638 111.379 24.1058 111.583 24.3098C111.787 24.5018 112.141 24.5978 112.645 24.5978H113.851V25.9838H112.375C111.463 25.9838 110.779 25.7738 110.323 25.3538C109.867 24.9338 109.639 24.2438 109.639 23.2838V17.4698H108.361V16.1198H109.639V13.6358H111.277V16.1198H113.851V17.4698H111.277ZM115.223 21.0158C115.223 20.0078 115.427 19.1258 115.835 18.3698C116.243 17.6018 116.801 17.0078 117.509 16.5878C118.229 16.1678 119.027 15.9578 119.903 15.9578C120.767 15.9578 121.517 16.1438 122.153 16.5158C122.789 16.8878 123.263 17.3558 123.575 17.9198V16.1198H125.231V25.9838H123.575V24.1478C123.251 24.7238 122.765 25.2038 122.117 25.5878C121.481 25.9598 120.737 26.1458 119.885 26.1458C119.009 26.1458 118.217 25.9298 117.509 25.4978C116.801 25.0658 116.243 24.4598 115.835 23.6798C115.427 22.8998 115.223 22.0118 115.223 21.0158ZM123.575 21.0338C123.575 20.2898 123.425 19.6418 123.125 19.0898C122.825 18.5378 122.417 18.1178 121.901 17.8298C121.397 17.5298 120.839 17.3798 120.227 17.3798C119.615 17.3798 119.057 17.5238 118.553 17.8118C118.049 18.0998 117.647 18.5198 117.347 19.0718C117.047 19.6238 116.897 20.2718 116.897 21.0158C116.897 21.7718 117.047 22.4318 117.347 22.9958C117.647 23.5478 118.049 23.9738 118.553 24.2738C119.057 24.5618 119.615 24.7058 120.227 24.7058C120.839 24.7058 121.397 24.5618 121.901 24.2738C122.417 23.9738 122.825 23.5478 123.125 22.9958C123.425 22.4318 123.575 21.7778 123.575 21.0338ZM133.507 25.9838L129.637 21.6278V25.9838H127.999V12.6638H129.637V20.4938L133.435 16.1198H135.721L131.077 21.0338L135.739 25.9838H133.507ZM146.263 20.6738C146.263 20.9858 146.245 21.3158 146.209 21.6638H138.325C138.385 22.6358 138.715 23.3978 139.315 23.9498C139.927 24.4898 140.665 24.7598 141.529 24.7598C142.237 24.7598 142.825 24.5978 143.293 24.2738C143.773 23.9378 144.109 23.4938 144.301 22.9418H146.065C145.801 23.8898 145.273 24.6638 144.481 25.2638C143.689 25.8518 142.705 26.1458 141.529 26.1458C140.593 26.1458 139.753 25.9358 139.009 25.5158C138.277 25.0958 137.701 24.5018 137.281 23.7338C136.861 22.9538 136.651 22.0538 136.651 21.0338C136.651 20.0138 136.855 19.1198 137.263 18.3518C137.671 17.5838 138.241 16.9958 138.973 16.5878C139.717 16.1678 140.569 15.9578 141.529 15.9578C142.465 15.9578 143.293 16.1618 144.013 16.5698C144.733 16.9778 145.285 17.5418 145.669 18.2618C146.065 18.9698 146.263 19.7738 146.263 20.6738ZM144.571 20.3318C144.571 19.7078 144.433 19.1738 144.157 18.7298C143.881 18.2738 143.503 17.9318 143.023 17.7038C142.555 17.4638 142.033 17.3438 141.457 17.3438C140.629 17.3438 139.921 17.6078 139.333 18.1358C138.757 18.6638 138.427 19.3958 138.343 20.3318H144.571Z" fill="black"/>
</svg>
