<svg width="230" height="229" viewBox="0 0 230 229" fill="none" xmlns="http://www.w3.org/2000/svg">
<rect x="0.5" width="229" height="229" rx="50" fill="#161A39"/>
<path d="M174.694 154.061C134.633 130.022 94.5606 178.099 54.5 154.061V73.9394C94.5606 97.9782 134.633 49.9006 174.694 73.9394V154.073V154.061Z" fill="#FF202E"/>
<path d="M139.645 101.536C133.383 102.437 127.121 104.072 120.871 105.887V87.1125C116.7 88.3265 112.529 89.6126 108.347 90.8265V109.601C102.085 111.416 95.8225 113.05 89.5604 113.952V126.476C95.8225 125.575 102.085 123.94 108.347 122.125V140.899C112.517 139.685 116.688 138.399 120.871 137.185V118.411C127.133 116.596 133.395 114.961 139.645 114.06V101.536Z" fill="white"/>
<path d="M60.3785 109.252H57.9746V80.6343L59.6213 81.2713C59.6934 81.2953 67.3377 84.2521 74.8378 84.2521V86.656C68.9483 86.656 63.1429 84.9973 60.3905 84.0838V109.228L60.3785 109.252Z" fill="white"/>
<path d="M82.074 86.8963C80.3311 86.8963 79.2133 86.7761 79.1172 86.7641L79.3816 84.3722C79.3816 84.3722 84.5139 84.9131 90.2111 83.5669L90.764 85.9107C87.3745 86.716 84.2374 86.8963 82.074 86.8963Z" fill="white"/>
</svg>
