
<svg width="582" height="582" viewBox="0 0 582 582" fill="none" xmlns="http://www.w3.org/2000/svg">
<path d="M401.929 232.467V179.341H463.097H466.548L467.772 176.114L532.259 6.09871L724.344 62.3559L788.858 175.665V290.557V293.821L791.846 295.134L922.627 352.594L987.977 467.372L988.391 468.1L989.021 468.653L1055.15 526.779L1055.15 526.781L1111.34 576.113H8.60043L69.5131 469.129L266.037 411.606L267.619 411.143L268.616 409.83L400.912 235.489L401.929 234.149V232.467Z" fill="#161A39" stroke="#161A39" stroke-width="10"/>
<path fill-rule="evenodd" clip-rule="evenodd" d="M508.881 176.063L542.437 63.8885L554.378 67.4606L520.822 179.635L508.881 176.063ZM411.785 193.189H452.532V205.653H424.249V238.25H411.785V193.189Z" fill="white"/>
<path fill-rule="evenodd" clip-rule="evenodd" d="M290.82 438.856L108.177 492.546L104.662 480.589L287.305 426.898L290.82 438.856ZM360.329 449.402L177.687 503.093L174.172 491.135L356.814 437.445L360.329 449.402Z" fill="white"/>
</svg>
