<svg width="32" height="32" viewBox="0 0 32 32" fill="none" xmlns="http://www.w3.org/2000/svg">
<path d="M14.2806 0.0890768C8.64248 0.677267 3.6047 4.388 1.31453 9.63915C-0.161331 13.0293 -0.406952 16.9327 0.640999 20.5262C1.93543 25.007 5.28382 28.7926 9.6164 30.6859C13.0076 32.1613 16.9123 32.4068 20.5071 31.3592C25.8877 29.8085 30.1242 25.3922 31.5149 19.9055C33.6861 11.3075 28.3588 2.51606 19.7365 0.46338C17.8425 0.0142162 16.1745 -0.103636 14.2806 0.0890768ZM14.4946 10.0241C15.8635 11.8422 17.0192 13.3394 17.062 13.3394C17.1048 13.3394 18.528 11.8422 20.2072 10.0241L23.2774 6.70889H25.0211L24.6467 7.10501C24.4328 7.32874 23.0421 8.83686 21.5551 10.4519C20.0681 12.0668 18.6132 13.6384 18.3239 13.9276L17.8109 14.473L21.8225 19.8095C24.0263 22.7504 25.8342 25.1883 25.8342 25.232C25.8342 25.2854 24.5188 25.3171 22.924 25.3171L20.0039 25.3064L17.2867 21.6703C15.4146 19.1571 14.5374 18.0764 14.4518 18.1412C14.3876 18.1946 12.8681 19.8313 11.0713 21.7773L7.80848 25.3171H6.98433C6.52476 25.3171 6.15033 25.2953 6.15033 25.2636C6.15033 25.232 7.85127 23.3703 9.92621 21.1356C11.9915 18.9005 13.7032 17.029 13.7239 16.9973C13.735 16.9537 12.0341 14.6334 9.94803 11.8422C7.86197 9.06165 6.15033 6.76236 6.15033 6.74055C6.15033 6.7198 7.46573 6.70889 9.08152 6.70889H12.0123L14.4946 10.0241Z" fill="white"/>
<path d="M8.79424 8.14191C8.83681 8.21677 11.532 11.8315 14.7631 16.1516L20.6469 24.0228L21.9623 24.0337C22.7755 24.0337 23.2678 23.991 23.246 23.9268C23.2362 23.8733 20.5508 20.2591 17.2989 15.906L11.3715 7.99219H10.0454C8.944 7.99219 8.71892 8.014 8.79424 8.14191Z" fill="white"/>
</svg>
